<svg width="25" height="20" viewBox="0 0 25 20" fill="none" xmlns="http://www.w3.org/2000/svg">
<path d="M23.3956 0.0780746L0.531061 8.53899C-0.209524 8.81307 -0.164658 9.82225 0.597685 10.036L6.4078 11.6652L8.57614 18.1987C8.80265 18.8812 9.71339 19.0881 10.2406 18.5769L13.2446 15.6643L19.1387 19.7726C19.86 20.2754 20.8872 19.9018 21.0704 19.0702L24.9741 1.34744C25.1652 0.479323 24.2658 -0.24395 23.3956 0.0780746ZM20.529 4.01119L9.90854 12.9294C9.80267 13.0183 9.7353 13.1414 9.71954 13.2748L9.31065 16.7264C9.29729 16.839 9.13141 16.8539 9.096 16.7457L7.41368 11.5981C7.33663 11.3624 7.43709 11.1071 7.65789 10.977L20.1995 3.59071C20.4879 3.42072 20.7832 3.79775 20.529 4.01119Z" fill="#6836D3"/>
</svg>
