<svg xmlns="http://www.w3.org/2000/svg" viewBox="0 0 375.06 74.83"><defs><style>.cls-1{fill:#081f6e;}.cls-2{fill:#6a37d4;}.cls-3{fill:#fff;}</style></defs><g id="Layer_2" data-name="Layer 2"><g id="Layer_1-2" data-name="Layer 1"><path class="cls-1" d="M127.77,41.52c0,3.32,0,6.27,0,9.22A3.49,3.49,0,0,1,124,54.31a3.38,3.38,0,0,1-3.17-2.48,6.92,6.92,0,0,1-.2-1.77c0-5.94,0-11.88,0-17.82A10.08,10.08,0,0,1,124.24,24a8.53,8.53,0,0,1,5.63-2c8.55,0,17.1,0,25.65,0a10.17,10.17,0,0,1,10.17,8.09c.85,4.83-1.82,9.2-6.75,11-.22.08-.42.18-.77.33a30.14,30.14,0,0,1,7,7.42,3.23,3.23,0,0,1,.12,3.81,3.09,3.09,0,0,1-3.47,1.57,4.75,4.75,0,0,1-2.47-1.49,26.68,26.68,0,0,0-18.65-10.52C136.5,41.77,132.22,41.75,127.77,41.52Zm15.23-7c4.2,0,8.39,0,12.59,0a2.89,2.89,0,0,0,3.14-2.74,2.89,2.89,0,0,0-3.1-2.67H130.35c-.32,0-.71-.07-.94.09-.56.39-1.3.79-1.52,1.36-.89,2.35.28,4,2.77,4Z"/><path class="cls-2" d="M26.18,32.28H13.72A13.71,13.71,0,0,1,0,18.62,18.52,18.52,0,0,1,16.17.1,19.16,19.16,0,0,1,18.68,0C24.12,0,29.55,0,35,.07,42.88.21,50.58,7,51.9,14.81c.79,4.7.22,9.06-3.06,12.76a13.17,13.17,0,0,1-10.2,4.71Zm-.09-6.13c4.12,0,8.23,0,12.35,0a7.74,7.74,0,0,0,7.62-7.51A12.43,12.43,0,0,0,33.87,6.15c-5,0-9.91,0-14.86,0A12.55,12.55,0,0,0,6.23,17.28c-.42,4.83,2.92,8.86,7.76,8.87C18,26.16,22.06,26.15,26.09,26.15Z"/><path class="cls-1" d="M193.84,54.31c-2.63,0-5.27-.1-7.9,0-5.19.25-8.86-2.18-11.56-6.33-4.73-7.27-3.46-17.48,2.81-22.92a11.88,11.88,0,0,1,8.19-3.1c5.63.06,11.27.15,16.89,0,5.31-.15,9,2.3,11.69,6.56a18,18,0,0,1-2.42,22.22,11.64,11.64,0,0,1-8.71,3.58C199.84,54.26,196.84,54.31,193.84,54.31Zm.25-25.21v0c-2.84,0-5.68-.09-8.51,0a6.82,6.82,0,0,0-6,3.92,11,11,0,0,0-.29,9.49,6.87,6.87,0,0,0,6.58,4.56c5.52.09,11,.05,16.55,0a6.83,6.83,0,0,0,5.09-2.31c2.29-2.47,2.63-5.46,2.15-8.6-.73-4.75-3.54-7.12-8.35-7.14Z"/><path class="cls-2" d="M24.45,74.83c-3,0-6.08,0-9.11,0A9.28,9.28,0,0,1,6,65.46V47.51a9.31,9.31,0,0,1,9.43-9.39H33.07c2,0,3.47,1.25,3.45,3a3.17,3.17,0,0,1-3.47,3H15.9c-2.54,0-3.82,1.28-3.82,3.81V65.09c0,2.39,1.3,3.67,3.7,3.67H32.92c2.23,0,3.1-.63,3.75-2.73l7.95-25.51a3,3,0,0,1,3.15-2.4,2.89,2.89,0,0,1,2.79,2.48,2.6,2.6,0,0,1-.06,1.27C47.69,51,44.89,60.12,42,69.22a8.87,8.87,0,0,1-7.85,5.58c-3.23.06-6.47,0-9.71,0Z"/><path class="cls-1" d="M352.31,22c2.88,0,5.76.09,8.64,0,4.58-.17,8,1.88,10.61,5.42a17.47,17.47,0,0,1,3.49,10.49c0,4.19,0,8.37,0,12.56,0,2.35-1.35,3.84-3.46,3.86s-3.64-1.47-3.65-3.84c0-4.1,0-8.21,0-12.32,0-2.84-.65-5.46-3-7.36a7.73,7.73,0,0,0-5-1.68c-5.12,0-10.23-.06-15.35,0s-8,3.43-8,8.9c0,4.19,0,8.38,0,12.56a3.46,3.46,0,0,1-3.85,3.73,3.29,3.29,0,0,1-3.18-3.14c0-5-.23-10,.11-15a15.68,15.68,0,0,1,7.18-12.39,10.59,10.59,0,0,1,6.1-1.83C346,22,349.16,22,352.31,22Z"/><path class="cls-1" d="M297,20.24a10.32,10.32,0,0,1,7.73,4q9,12.06,18.09,24.13c1.37,1.84,1.16,4-.47,5.2a3.58,3.58,0,0,1-5.22-1Q309,41.85,300.9,31a18.9,18.9,0,0,0-2.14-2.41,2.09,2.09,0,0,0-3.36.06A28.83,28.83,0,0,0,293,31.62q-7.95,10.48-15.87,21c-1.56,2.06-4,2.29-5.66.57a3.52,3.52,0,0,1-.12-4.69q8.18-11,16.37-22c1.4-1.89,2.65-4,4.93-4.91C294,21,295.54,20.69,297,20.24Z"/><path class="cls-1" d="M244.27,54.31c-3.27,0-6.55,0-9.83,0-6.34-.08-12.21-6.11-12.09-12.36a3.6,3.6,0,0,1,3.52-3.63,3.64,3.64,0,0,1,3.64,3.41,6.23,6.23,0,0,0,1.21,2.87,6.93,6.93,0,0,0,5.47,2.56c5,.07,9.91.05,14.87.05a17.41,17.41,0,0,0,3-.14c3.85-.67,6.35-3.83,6.39-8.09,0-4.43,0-8.85,0-13.28A3.52,3.52,0,0,1,264.12,22a3.33,3.33,0,0,1,3.41,3.19c0,5.21.15,10.45-.26,15.64a15.2,15.2,0,0,1-5.84,10.63,11.82,11.82,0,0,1-7.93,2.86C250.43,54.28,247.35,54.31,244.27,54.31Z"/><path class="cls-1" d="M90.87,29.1H73.53A3.52,3.52,0,0,1,69.74,25,3.46,3.46,0,0,1,73.37,22c5.12,0,10.23,0,15.35,0H111c2.42,0,4,1.36,4,3.48s-1.65,3.62-4,3.62c-2.12,0-4.24.1-6.35,0-5.79-.31-8.66,3.4-8.75,8.71-.08,4.27,0,8.54,0,12.81a3.45,3.45,0,0,1-3.76,3.7,3.22,3.22,0,0,1-3.29-3c0-5.77-.61-11.57.44-17.3A35.26,35.26,0,0,1,90.87,29.1Z"/><path class="cls-3" d="M143,34.52H130.66c-2.49,0-3.66-1.61-2.77-4,.22-.57,1-1,1.52-1.36.23-.16.62-.09.94-.09h25.28a2.89,2.89,0,0,1,3.1,2.67,2.89,2.89,0,0,1-3.14,2.74C151.39,34.54,147.2,34.52,143,34.52Z"/><path class="cls-3" d="M26.09,26.15c-4,0-8.06,0-12.1,0-4.84,0-8.18-4-7.76-8.87A12.55,12.55,0,0,1,19,6.13c4.95.06,9.9,0,14.86,0A12.43,12.43,0,0,1,46.06,18.64a7.74,7.74,0,0,1-7.62,7.51C34.32,26.17,30.21,26.15,26.09,26.15ZM26.28,12c-3.55,0-7.11,0-10.66,0-2,0-3.4,1.29-3.36,3.08a3.15,3.15,0,0,0,3.44,3H36.55c2.05,0,3.36-1.21,3.37-3.07s-1.23-3-3.33-3C33.15,12,29.72,12,26.28,12Z"/><path class="cls-3" d="M194.09,29.1h7.19c4.81,0,7.62,2.39,8.35,7.14.48,3.14.14,6.13-2.15,8.6a6.83,6.83,0,0,1-5.09,2.31c-5.52,0-11,.08-16.55,0a6.87,6.87,0,0,1-6.58-4.56,11,11,0,0,1,.29-9.49,6.82,6.82,0,0,1,6-3.92c2.83-.12,5.67,0,8.51,0Z"/><path class="cls-2" d="M26.28,12c3.44,0,6.87,0,10.31,0,2.1,0,3.34,1.16,3.33,3s-1.32,3.06-3.37,3.07H15.7a3.15,3.15,0,0,1-3.44-3c0-1.79,1.33-3.07,3.36-3.08C19.17,12,22.73,12,26.28,12Z"/></g></g></svg>