<svg width="23" height="25" viewBox="0 0 23 25" fill="none" xmlns="http://www.w3.org/2000/svg">
<path d="M11.4255 6.3321C8.18051 6.3321 5.56165 9.08196 5.56165 12.4893C5.56165 15.8966 8.18051 18.6464 11.4255 18.6464C14.6705 18.6464 17.2894 15.8966 17.2894 12.4893C17.2894 9.08196 14.6705 6.3321 11.4255 6.3321ZM11.4255 16.491C9.32698 16.491 7.61442 14.6927 7.61442 12.4893C7.61442 10.2858 9.32698 8.48755 11.4255 8.48755C13.524 8.48755 15.2366 10.2858 15.2366 12.4893C15.2366 14.6927 13.524 16.491 11.4255 16.491ZM17.5295 4.64496C16.7719 4.64496 16.16 5.28739 16.16 6.08293C16.16 6.87847 16.7719 7.5209 17.5295 7.5209C18.2872 7.5209 18.899 6.88147 18.899 6.08293C18.8992 5.89403 18.8639 5.70693 18.7952 5.53236C18.7265 5.35779 18.6256 5.19918 18.4984 5.0656C18.3712 4.93203 18.2201 4.82612 18.0539 4.75393C17.8876 4.68175 17.7094 4.64472 17.5295 4.64496ZM22.8559 12.4893C22.8559 10.8321 22.8702 9.19003 22.7815 7.53591C22.6929 5.61461 22.2755 3.90946 20.9375 2.50451C19.5966 1.09656 17.9755 0.661266 16.1457 0.568203C14.5676 0.475141 13.0037 0.490151 11.4284 0.490151C9.85018 0.490151 8.28629 0.475141 6.71097 0.568203C4.8812 0.661266 3.25728 1.09956 1.91925 2.50451C0.578373 3.91246 0.163815 5.61461 0.0751849 7.53591C-0.0134447 9.19303 0.000850399 10.8351 0.000850399 12.4893C0.000850399 14.1434 -0.0134447 15.7885 0.0751849 17.4426C0.163815 19.3639 0.581232 21.0691 1.91925 22.474C3.26013 23.882 4.8812 24.3172 6.71097 24.4103C8.28915 24.5034 9.85304 24.4884 11.4284 24.4884C13.0065 24.4884 14.5704 24.5034 16.1457 24.4103C17.9755 24.3172 19.5994 23.879 20.9375 22.474C22.2783 21.0661 22.6929 19.3639 22.7815 17.4426C22.873 15.7885 22.8559 14.1464 22.8559 12.4893ZM20.3399 19.568C20.1312 20.1144 19.8796 20.5227 19.4765 20.943C19.0734 21.3663 18.6874 21.6304 18.1671 21.8496C16.6632 22.477 13.0923 22.3359 11.4255 22.3359C9.75869 22.3359 6.18491 22.477 4.68107 21.8526C4.16073 21.6334 3.7719 21.3693 3.37164 20.946C2.96851 20.5227 2.71692 20.1174 2.50821 19.571C1.91354 17.989 2.04791 14.2394 2.04791 12.4893C2.04791 10.7391 1.91354 6.98654 2.50821 5.40747C2.71692 4.8611 2.96851 4.45283 3.37164 4.03254C3.77476 3.61226 4.16073 3.34508 4.68107 3.12593C6.18491 2.50151 9.75869 2.64261 11.4255 2.64261C13.0923 2.64261 16.6661 2.50151 18.1699 3.12593C18.6903 3.34508 19.0791 3.60926 19.4794 4.03254C19.8825 4.45583 20.1341 4.8611 20.3428 5.40747C20.9375 6.98654 20.8031 10.7391 20.8031 12.4893C20.8031 14.2394 20.9375 17.989 20.3399 19.568Z" fill="#EBF469"/>
</svg>
