<svg width="25" height="21" viewBox="0 0 25 21" fill="none" xmlns="http://www.w3.org/2000/svg">
<path d="M23.3169 0.508954L1.367 9.01964C0.656035 9.29533 0.699106 10.3104 1.43096 10.5254L7.00867 12.1642L9.09027 18.7362C9.30772 19.4227 10.182 19.6308 10.6882 19.1166L13.572 16.1869L19.2303 20.3193C19.9227 20.8251 20.9089 20.4493 21.0847 19.6128L24.8323 1.78578C25.0158 0.912563 24.1524 0.185035 23.3169 0.508954ZM20.565 4.46521L10.3694 13.4359C10.2677 13.5253 10.2031 13.6491 10.1879 13.7833L9.7954 17.2552C9.78258 17.3684 9.62333 17.3834 9.58934 17.2746L7.97431 12.0967C7.90034 11.8597 7.99678 11.6028 8.20875 11.472L20.2487 4.04225C20.5256 3.87126 20.8091 4.25051 20.565 4.46521Z" fill="#EBF469"/>
</svg>
