<svg width="190" height="190" viewBox="0 0 190 190" fill="none" xmlns="http://www.w3.org/2000/svg">
<path d="M94.9999 190C144.208 190 184.1 167.605 184.1 139.98C184.1 112.355 144.208 89.96 94.9999 89.96C45.7913 89.96 5.8999 112.355 5.8999 139.98C5.8999 167.605 45.7913 190 94.9999 190Z" fill="black" fill-opacity="0.1"/>
<path d="M136.632 79.2516C136.475 79.3481 136.342 79.5533 136.342 79.7101V81.279L116.732 92.5985V91.0297C116.732 90.8728 116.599 90.8125 116.442 90.909C116.285 91.0056 116.153 91.2107 116.153 91.3676V92.9364L96.5425 104.256V102.687C96.5425 102.53 96.4098 102.47 96.2529 102.566C96.096 102.663 95.9633 102.868 95.9633 103.025V104.594L76.3532 115.913V114.345C76.3532 114.188 76.2204 114.127 76.0636 114.224C75.9067 114.32 75.7739 114.526 75.7739 114.683V116.251L56.1638 127.571V126.002C56.1638 125.845 56.0311 125.785 55.8742 125.881C55.7173 125.978 55.5846 126.183 55.5846 126.34V127.909L35.9745 139.228V137.66C35.9745 137.503 35.8417 137.442 35.6848 137.539C35.5279 137.635 35.3952 137.841 35.3952 137.997V139.566L18.5486 149.281L15.8092 150.862V149.293V136.585L17.5591 135.572C17.7159 135.475 17.8487 135.27 17.8487 135.113C17.8487 134.956 17.7159 134.896 17.5591 134.993L15.8092 136.006V121.73L17.5591 120.716C17.7159 120.62 17.8487 120.415 17.8487 120.258C17.8487 120.101 17.7159 120.041 17.5591 120.137L15.8092 121.151V106.875L17.5591 105.861C17.7159 105.764 17.8487 105.559 17.8487 105.402C17.8487 105.246 17.7159 105.185 17.5591 105.282L15.8092 106.295V92.0193L17.5591 91.0056C17.7159 90.909 17.8487 90.7039 17.8487 90.547C17.8487 90.3901 17.7159 90.3298 17.5591 90.4263L15.8092 91.44V77.1639L17.5591 76.1502C17.7159 76.0536 17.8487 75.8485 17.8487 75.6916C17.8487 75.5347 17.7159 75.4744 17.5591 75.5709L13.5526 77.8879C13.3957 77.9845 13.2629 78.1896 13.2629 78.3465C13.2629 78.5034 13.3957 78.5637 13.5526 78.4672L15.23 77.5018V91.7779L13.5526 92.7433C13.3957 92.8399 13.2629 93.045 13.2629 93.2019C13.2629 93.3588 13.3957 93.4191 13.5526 93.3226L15.23 92.3572V106.633L13.5526 107.599C13.3957 107.695 13.2629 107.9 13.2629 108.057C13.2629 108.214 13.3957 108.275 13.5526 108.178L15.23 107.213V121.489L13.5526 122.454C13.3957 122.551 13.2629 122.756 13.2629 122.913C13.2629 123.07 13.3957 123.13 13.5526 123.033L15.23 122.068V136.344L13.5526 137.31C13.3957 137.406 13.2629 137.611 13.2629 137.768C13.2629 137.925 13.3957 137.985 13.5526 137.889L15.23 136.923V149.631V151.489C15.23 151.646 15.3627 151.706 15.5196 151.61L18.5486 149.86L35.4193 140.121V141.775C35.4193 141.932 35.5521 141.992 35.709 141.895C35.8659 141.799 35.9986 141.594 35.9986 141.437V139.783L55.6087 128.464V130.117C55.6087 130.274 55.7414 130.334 55.8983 130.238C56.0552 130.141 56.188 129.936 56.188 129.779V128.126L75.7981 116.806V118.46C75.7981 118.617 75.9308 118.677 76.0877 118.58C76.2446 118.484 76.3773 118.279 76.3773 118.122V116.469L95.9874 105.149V106.802C95.9874 106.959 96.1202 107.02 96.2771 106.923C96.4339 106.826 96.5667 106.621 96.5667 106.464V104.811L116.177 93.4915V95.1448C116.177 95.3017 116.31 95.362 116.466 95.2655C116.623 95.169 116.756 94.9638 116.756 94.8069V93.1536L136.366 81.8341V83.4874C136.366 83.6442 136.499 83.7046 136.656 83.608C136.813 83.5115 136.945 83.3063 136.945 83.1495V79.3481C136.921 79.2033 136.789 79.155 136.632 79.2516Z" fill="#3180C9"/>
<path d="M10.7045 155.363C10.7045 155.532 10.6683 155.713 10.6079 155.87C10.5597 156.015 10.4752 156.171 10.3666 156.316C10.258 156.473 10.1011 156.606 9.89594 156.727C9.69079 156.847 9.53391 156.883 9.4253 156.859C9.31669 156.835 9.23221 156.775 9.18394 156.69C9.1236 156.594 9.0874 156.461 9.0874 156.292V153.842C9.0874 153.673 9.1236 153.504 9.18394 153.335C9.23221 153.191 9.30462 153.034 9.4253 152.889C9.53391 152.744 9.70286 152.587 9.89594 152.467C10.1011 152.346 10.258 152.322 10.3666 152.334C10.4752 152.358 10.5597 152.418 10.6079 152.503C10.6683 152.599 10.7045 152.732 10.7045 152.889V155.363ZM10.089 153.263C10.089 153.154 10.0649 153.082 10.0045 153.046C9.98041 153.034 9.93214 153.046 9.88387 153.07C9.77526 153.13 9.72699 153.239 9.70285 153.323C9.69078 153.384 9.67872 153.432 9.67872 153.492V155.942C9.67872 156.063 9.70286 156.123 9.76319 156.159C9.78733 156.171 9.8356 156.171 9.88387 156.135C9.99248 156.075 10.0408 155.978 10.0649 155.882C10.077 155.833 10.089 155.773 10.089 155.713V153.263Z" fill="#3180C9"/>
<path d="M10.1373 139.711C10.1373 139.53 10.0769 139.445 9.94418 139.518C9.87178 139.554 9.8235 139.639 9.77523 139.735C9.72696 139.832 9.70282 139.928 9.70282 139.964L9.18391 140.266V138.07L10.6682 137.213V137.816L9.71489 138.371V139.24C9.7873 139.156 9.85971 139.059 9.94418 138.987C9.98038 138.951 10.0287 138.914 10.0649 138.902C10.3786 138.721 10.5476 138.806 10.6441 138.951C10.7406 139.095 10.7406 139.301 10.7406 139.373V140.302C10.7406 140.495 10.7286 140.773 10.62 141.063C10.5114 141.352 10.3062 141.642 9.94418 141.859C9.57008 142.076 9.37699 142.016 9.26838 141.823C9.15977 141.642 9.14771 141.34 9.14771 141.063L9.76316 140.713V140.882C9.76316 141.087 9.77523 141.231 9.79937 141.292C9.8235 141.364 9.87178 141.376 9.94418 141.328C10.0045 141.292 10.0528 141.219 10.089 141.123C10.1131 141.026 10.1373 140.869 10.1373 140.664V139.711Z" fill="#3180C9"/>
<path d="M7.6394 125.013V124.626C7.89283 124.433 8.04971 124.204 8.15832 124.035C8.21866 123.939 8.25486 123.83 8.29106 123.746L8.66516 123.528V127.692L8.04971 128.042V124.771L7.6394 125.013Z" fill="#3180C9"/>
<path d="M10.7045 125.652C10.7045 125.821 10.6683 126.002 10.6079 126.159C10.5597 126.304 10.4752 126.461 10.3666 126.606C10.258 126.762 10.1011 126.895 9.89594 127.016C9.69079 127.136 9.53391 127.173 9.4253 127.149C9.31669 127.124 9.23221 127.064 9.18394 126.98C9.1236 126.883 9.0874 126.75 9.0874 126.581V124.132C9.0874 123.963 9.1236 123.794 9.18394 123.625C9.23221 123.48 9.30462 123.323 9.4253 123.178C9.53391 123.033 9.70286 122.877 9.89594 122.756C10.1011 122.635 10.258 122.611 10.3666 122.623C10.4752 122.647 10.5597 122.708 10.6079 122.792C10.6683 122.889 10.7045 123.021 10.7045 123.178V125.652ZM10.089 123.54C10.089 123.432 10.0649 123.359 10.0045 123.323C9.98041 123.311 9.93214 123.323 9.88387 123.347C9.77526 123.408 9.72699 123.516 9.70285 123.601C9.69078 123.661 9.67872 123.709 9.67872 123.77V126.219C9.67872 126.34 9.70286 126.4 9.76319 126.437C9.78733 126.449 9.8356 126.449 9.88387 126.412C9.99248 126.352 10.0408 126.256 10.0649 126.159C10.077 126.111 10.089 126.05 10.089 125.99V123.54Z" fill="#3180C9"/>
<path d="M7.69971 110.121V109.735C7.95313 109.542 8.11001 109.313 8.21862 109.144C8.27896 109.047 8.31516 108.938 8.35137 108.854L8.72546 108.637V112.8L8.11001 113.15V109.88L7.69971 110.121Z" fill="#3180C9"/>
<path d="M10.1373 110C10.1373 109.819 10.0769 109.735 9.94418 109.807C9.87178 109.843 9.8235 109.928 9.77523 110.024C9.72696 110.121 9.70282 110.217 9.70282 110.254L9.18391 110.555V108.359L10.6682 107.502V108.106L9.71489 108.661V109.53C9.7873 109.445 9.85971 109.349 9.94418 109.276C9.98038 109.24 10.0287 109.204 10.0649 109.192C10.3786 109.011 10.5476 109.095 10.6441 109.24C10.7406 109.385 10.7406 109.59 10.7406 109.662V110.592C10.7406 110.785 10.7286 111.062 10.62 111.352C10.5114 111.641 10.3062 111.931 9.94418 112.148C9.57008 112.365 9.37699 112.305 9.26838 112.112C9.15977 111.931 9.14771 111.629 9.14771 111.352L9.76316 111.002V111.171C9.76316 111.376 9.77523 111.521 9.79937 111.581C9.8235 111.653 9.87178 111.666 9.94418 111.617C10.0045 111.581 10.0528 111.509 10.089 111.412C10.1131 111.316 10.1373 111.159 10.1373 110.954V110Z" fill="#3180C9"/>
<path d="M7.0362 96.062V95.7724C7.0362 95.4948 7.0724 95.2052 7.19308 94.9276C7.31376 94.6621 7.51891 94.4087 7.84474 94.2156C8.1585 94.0346 8.36365 94.0346 8.4964 94.1432C8.61708 94.2639 8.66535 94.4932 8.66535 94.7828C8.66535 95.2052 8.50847 95.8086 8.30332 96.3878C8.09817 96.9791 7.85681 97.5463 7.69993 97.9084L8.66535 97.3532V97.9566L7 98.91V98.3066C7.19308 97.9083 7.36203 97.5222 7.50684 97.136C7.63959 96.8102 7.76027 96.4602 7.85681 96.1103C7.95335 95.7603 8.02576 95.4345 8.03783 95.181C8.03783 95.0724 8.03783 94.9397 8.00163 94.8552C7.97749 94.7707 7.91715 94.7345 7.83268 94.7828C7.7482 94.8311 7.69993 94.9276 7.66373 95.0362C7.63959 95.1448 7.62752 95.2776 7.62752 95.4224V95.712L7.0362 96.062Z" fill="#3180C9"/>
<path d="M10.7045 95.9291C10.7045 96.0981 10.6683 96.2791 10.6079 96.436C10.5597 96.5808 10.4752 96.7377 10.3666 96.8825C10.258 97.0394 10.1011 97.1721 9.89594 97.2928C9.69079 97.4135 9.53391 97.4497 9.4253 97.4255C9.31669 97.4014 9.23221 97.3411 9.18394 97.2566C9.1236 97.1601 9.0874 97.0273 9.0874 96.8584V94.4086C9.0874 94.2397 9.1236 94.0707 9.18394 93.9018C9.23221 93.757 9.30462 93.6001 9.4253 93.4553C9.53391 93.3104 9.70286 93.1536 9.89594 93.045C10.1011 92.9243 10.258 92.9001 10.3666 92.9122C10.4752 92.9363 10.5597 92.9967 10.6079 93.0812C10.6683 93.1777 10.7045 93.3104 10.7045 93.4673V95.9291ZM10.089 93.8294C10.089 93.7207 10.0649 93.6483 10.0045 93.6121C9.98041 93.6001 9.93214 93.6121 9.88387 93.6363C9.77526 93.6966 9.72699 93.8052 9.70285 93.8897C9.69078 93.95 9.67872 93.9983 9.67872 94.0587V96.5084C9.67872 96.6291 9.70286 96.6894 9.76319 96.7256C9.78733 96.7377 9.8356 96.7377 9.88387 96.7015C9.99248 96.6411 10.0408 96.5446 10.0649 96.4481C10.077 96.3998 10.089 96.3395 10.089 96.2791V93.8294Z" fill="#3180C9"/>
<path d="M7.0843 81.1704V80.8808C7.0843 80.6032 7.1205 80.3136 7.24118 80.036C7.36185 79.7705 7.56701 79.5171 7.89284 79.324C8.2066 79.143 8.41175 79.143 8.5445 79.2516C8.66517 79.3723 8.71344 79.6016 8.71344 79.8912C8.71344 80.3136 8.55657 80.917 8.35142 81.4962C8.14626 82.0875 7.90491 82.6547 7.74803 83.0168L8.71344 82.4616V83.065L7.0481 84.0184V83.415C7.24118 83.0168 7.41013 82.6306 7.55494 82.2444C7.68768 81.9186 7.80836 81.5686 7.90491 81.2187C8.00145 80.8687 8.07386 80.5429 8.08592 80.2894C8.08592 80.1808 8.08593 80.0481 8.04972 79.9636C8.02559 79.8791 7.96525 79.8429 7.88077 79.8912C7.7963 79.9395 7.74802 80.036 7.71182 80.1446C7.68768 80.2532 7.67562 80.386 7.67562 80.5308V80.8204L7.0843 81.1704Z" fill="#3180C9"/>
<path d="M10.1373 80.2894C10.1373 80.1084 10.0769 80.0239 9.94418 80.0963C9.87178 80.1325 9.8235 80.217 9.77523 80.3015C9.72696 80.398 9.70282 80.4945 9.70282 80.5307L9.18391 80.8324V78.6361L10.6682 77.7793V78.3827L9.71489 78.9378V79.8067C9.7873 79.7222 9.85971 79.6257 9.94418 79.5533C9.98038 79.5171 10.0287 79.4809 10.0649 79.4688C10.3786 79.2878 10.5476 79.3722 10.6441 79.5171C10.7406 79.6619 10.7406 79.867 10.7406 79.9394V80.8686C10.7406 81.0617 10.7286 81.3393 10.62 81.6289C10.5114 81.9185 10.3062 82.2082 9.94418 82.4254C9.57008 82.6426 9.37699 82.5823 9.26838 82.3892C9.15977 82.2082 9.14771 81.9065 9.14771 81.6289L9.76316 81.2789V81.4479C9.76316 81.653 9.77523 81.7979 9.79937 81.8582C9.8235 81.9306 9.87178 81.9427 9.94418 81.8944C10.0045 81.8582 10.0528 81.7858 10.089 81.6893C10.1131 81.5927 10.1373 81.4358 10.1373 81.2307V80.2894Z" fill="#3180C9"/>
<g opacity="0.5">
<path d="M25.6086 142.812C25.5724 142.837 25.5241 142.849 25.4879 142.861C25.3431 142.873 25.2827 142.74 25.3551 142.547L45.5445 89.292C45.6169 89.111 45.7859 88.9541 45.9307 88.93C46.0755 88.9179 46.1358 89.0506 46.0634 89.2437L25.8741 142.499C25.8137 142.631 25.7172 142.752 25.6086 142.812Z" fill="#359EFF"/>
<path d="M65.9869 113.56C65.8903 113.621 65.7938 113.621 65.7335 113.56L45.5441 89.5574C45.4596 89.4608 45.52 89.2557 45.6527 89.0988C45.7975 88.9419 45.9665 88.8816 46.051 88.9781L66.2403 112.981C66.3248 113.077 66.2645 113.283 66.1317 113.439C66.0834 113.488 66.0352 113.524 65.9869 113.56Z" fill="#359EFF"/>
<path d="M65.9869 113.56C65.8903 113.621 65.7938 113.621 65.7334 113.56C65.649 113.464 65.6972 113.271 65.83 113.102L86.0193 89.5576C86.1642 89.4007 86.3331 89.3403 86.4176 89.4369C86.5021 89.5334 86.4538 89.7265 86.321 89.8954L66.1317 113.44C66.0834 113.488 66.0351 113.524 65.9869 113.56Z" fill="#359EFF"/>
<path d="M86.1642 90.0161C86.116 90.0403 86.0677 90.0644 86.0194 90.0644C85.8867 90.0644 85.8263 89.9196 85.9108 89.7386L106.1 42.4209C106.185 42.2399 106.354 42.083 106.498 42.083C106.631 42.083 106.691 42.2278 106.607 42.4088L86.4177 89.7265C86.3694 89.8472 86.2728 89.9558 86.1642 90.0161Z" fill="#359EFF"/>
<path d="M106.354 42.6984C106.269 42.7467 106.197 42.7588 106.136 42.7226C106.028 42.6622 106.04 42.4692 106.161 42.3002L126.35 12.8187C126.471 12.6497 126.652 12.5532 126.76 12.6135C126.869 12.6739 126.857 12.8669 126.736 13.0359L106.547 42.5174C106.486 42.6019 106.426 42.6622 106.354 42.6984Z" fill="#359EFF"/>
<path d="M25.6083 133.894C25.5238 133.943 25.4514 133.955 25.3911 133.918C25.2825 133.858 25.2946 133.665 25.4152 133.496L45.6046 104.015C45.7253 103.833 45.9063 103.749 46.0149 103.809C46.1235 103.87 46.1114 104.063 45.9908 104.232L25.8014 133.713C25.7411 133.798 25.6807 133.858 25.6083 133.894Z" fill="#359EFF"/>
<path d="M45.7975 104.413C45.7372 104.449 45.6889 104.461 45.6406 104.461C45.5079 104.449 45.4717 104.292 45.5682 104.099L65.7576 62.7307C65.8421 62.5497 66.0231 62.4049 66.1558 62.417C66.2886 62.429 66.3248 62.5859 66.2282 62.779L46.0389 104.147C45.9785 104.256 45.882 104.352 45.7975 104.413Z" fill="#359EFF"/>
<path d="M86.164 72.1918C86.0916 72.2401 86.0192 72.2522 85.9588 72.228L65.7695 63.0807C65.6609 63.0324 65.6609 62.8514 65.7815 62.6704C65.9022 62.4893 66.0832 62.3928 66.1918 62.4411L86.3812 71.5884C86.4898 71.6367 86.4898 71.8177 86.3691 71.9987C86.3088 72.0711 86.2364 72.1436 86.164 72.1918Z" fill="#359EFF"/>
<path d="M106.354 66.4718C106.329 66.4838 106.293 66.4959 106.269 66.508L86.0797 72.216C85.9228 72.2643 85.8383 72.1436 85.8866 71.9747C85.9349 71.7937 86.0918 71.6126 86.2486 71.5764L106.438 65.8684C106.595 65.8201 106.679 65.9408 106.631 66.1097C106.595 66.2546 106.474 66.3994 106.354 66.4718Z" fill="#359EFF"/>
<path d="M126.543 78.5998C126.459 78.6481 126.374 78.6601 126.326 78.6239L106.136 66.5079C106.028 66.4476 106.052 66.2545 106.173 66.0855C106.293 65.9166 106.474 65.82 106.583 65.8804L126.772 77.9964C126.881 78.0567 126.857 78.2498 126.736 78.4188C126.676 78.4912 126.603 78.5515 126.543 78.5998Z" fill="#359EFF"/>
<path d="M25.6083 128.488C25.4877 128.56 25.367 128.548 25.3308 128.452C25.2825 128.331 25.367 128.114 25.5118 127.981L45.7012 109.855C45.858 109.723 46.0149 109.711 46.0632 109.831C46.1115 109.952 46.027 110.169 45.8822 110.302L25.6928 128.428C25.6687 128.452 25.6325 128.464 25.6083 128.488Z" fill="#F8F5F4"/>
<path d="M45.7979 110.35C45.7376 110.386 45.6652 110.398 45.6169 110.386C45.4962 110.35 45.4842 110.181 45.5807 110L65.7701 74.5693C65.8787 74.3883 66.0597 74.2676 66.1804 74.3038C66.3011 74.34 66.3131 74.5089 66.2166 74.69L46.0272 110.121C45.9548 110.23 45.8824 110.302 45.7979 110.35Z" fill="#F8F5F4"/>
<path d="M65.9871 74.9312C65.9268 74.9674 65.8544 74.9795 65.8061 74.9674C65.6855 74.9312 65.6734 74.7623 65.7699 74.5813L85.9593 39.1503C86.0679 38.9693 86.2489 38.8486 86.3696 38.8848C86.4903 38.921 86.5023 39.09 86.4058 39.271L66.2164 74.702C66.144 74.7985 66.0596 74.883 65.9871 74.9312Z" fill="#F8F5F4"/>
<path d="M106.354 87.2765C106.233 87.3489 106.124 87.3368 106.076 87.2403L85.8866 39.464C85.8383 39.3433 85.9107 39.1261 86.0676 38.9934C86.2124 38.8606 86.3814 38.8365 86.4297 38.9572L106.619 86.7334C106.667 86.8541 106.595 87.0713 106.438 87.2041C106.414 87.2403 106.39 87.2644 106.354 87.2765Z" fill="#F8F5F4"/>
<path d="M126.543 84.5372C126.507 84.5614 126.471 84.5734 126.422 84.5855L106.233 87.3249C106.088 87.349 106.016 87.2163 106.088 87.0232C106.149 86.8422 106.33 86.6732 106.474 86.6612L126.664 83.9218C126.809 83.8976 126.881 84.0304 126.809 84.2235C126.76 84.3441 126.652 84.4769 126.543 84.5372Z" fill="#F8F5F4"/>
<path d="M25.6082 122.008C25.56 122.032 25.5117 122.044 25.4755 122.056C25.3307 122.068 25.2824 121.923 25.3548 121.742L45.5442 71.4556C45.6166 71.2746 45.7976 71.1178 45.9303 71.1057C46.0751 71.0936 46.1234 71.2384 46.051 71.4315L25.8616 121.718C25.8134 121.839 25.7168 121.947 25.6082 122.008Z" fill="#FFDE3B"/>
<path d="M65.9871 77.8998C65.9147 77.936 65.8544 77.9481 65.7941 77.936L45.6047 71.7573C45.484 71.7211 45.4719 71.5401 45.5806 71.3591C45.6892 71.1781 45.8702 71.0574 45.9909 71.0936L66.1802 77.2723C66.3009 77.3085 66.313 77.4895 66.2044 77.6705C66.144 77.7791 66.0595 77.8515 65.9871 77.8998Z" fill="#FFDE3B"/>
<path d="M86.1643 81.5442C86.1039 81.5804 86.0436 81.5925 85.9833 81.5804L64.7923 77.586C64.6595 77.5619 64.6475 77.3929 64.744 77.2119C64.8405 77.0309 65.0216 76.8981 65.1543 76.9223L86.3453 80.9167C86.466 80.9408 86.4901 81.1098 86.3936 81.2908C86.3453 81.4115 86.2488 81.496 86.1643 81.5442Z" fill="#FFDE3B"/>
<path d="M86.164 81.5444C86.0795 81.5926 86.0071 81.6047 85.9468 81.5685C85.8382 81.5082 85.8502 81.3271 85.9709 81.1461L106.16 51.2181C106.281 51.0371 106.462 50.9405 106.571 51.0009C106.679 51.0612 106.667 51.2422 106.546 51.4232L86.3571 81.3513C86.3088 81.4357 86.2364 81.5082 86.164 81.5444Z" fill="#FFDE3B"/>
<path d="M106.354 51.6163C106.245 51.6766 106.149 51.6766 106.088 51.6042C106.016 51.4956 106.076 51.2905 106.221 51.1457L126.41 29.6288C126.555 29.472 126.724 29.4358 126.797 29.5444C126.869 29.653 126.809 29.8581 126.664 30.0029L106.474 51.5198C106.438 51.556 106.402 51.5922 106.354 51.6163Z" fill="#FFDE3B"/>
<path d="M45.7975 128.186C45.713 128.234 45.6285 128.247 45.5803 128.21L25.3909 116.094C25.2823 116.034 25.3064 115.841 25.4271 115.672C25.5478 115.503 25.7288 115.406 25.8374 115.467L46.0268 127.583C46.1354 127.643 46.1112 127.836 45.9906 128.005C45.9302 128.09 45.8578 128.15 45.7975 128.186Z" fill="#FFDE3B"/>
<path d="M45.7978 128.186C45.7133 128.235 45.6409 128.247 45.5806 128.21C45.4719 128.15 45.484 127.957 45.6047 127.788L65.7941 98.3065C65.9147 98.1255 66.0957 98.041 66.2044 98.1013C66.313 98.1617 66.3009 98.3548 66.1802 98.5237L45.9909 128.005C45.9305 128.078 45.8581 128.15 45.7978 128.186Z" fill="#FFDE3B"/>
<path d="M86.1639 98.9341C86.1156 98.9582 86.0674 98.9824 86.0191 98.9824L65.8297 98.7531C65.697 98.7531 65.6487 98.5962 65.7332 98.4152C65.8177 98.2342 65.9987 98.0894 66.1314 98.0894L86.3208 98.3186C86.4535 98.3186 86.5018 98.4755 86.4173 98.6565C86.357 98.7652 86.2604 98.8738 86.1639 98.9341Z" fill="#FFDE3B"/>
<path d="M86.164 98.934C86.0916 98.9702 86.0192 98.9943 85.9588 98.9702C85.8502 98.9219 85.8382 98.7409 85.9468 98.5599L114.053 53.1972C114.161 53.0161 114.342 52.9075 114.463 52.9558C114.571 53.0041 114.584 53.1851 114.475 53.3661L86.3691 98.7288C86.3209 98.8133 86.2485 98.8857 86.164 98.934Z" fill="#FFDE3B"/>
<path d="M114.355 53.2334C114.319 53.2576 114.282 53.2696 114.258 53.2696C114.113 53.3059 114.029 53.1731 114.089 52.9921L126.278 12.9754C126.338 12.7944 126.495 12.6254 126.652 12.5892C126.797 12.553 126.881 12.6858 126.821 12.8668L114.632 52.8835C114.584 53.0283 114.463 53.161 114.355 53.2334Z" fill="#FFDE3B"/>
</g>
<path d="M25.6086 140.785C26.562 140.23 27.3464 140.556 27.3464 141.521C27.3464 142.475 26.574 143.705 25.6086 144.261C24.6552 144.816 23.8708 144.49 23.8708 143.524C23.8708 142.559 24.6552 141.34 25.6086 140.785Z" fill="#359EFF"/>
<path d="M45.7978 87.5302C46.7512 86.9751 47.5356 87.3009 47.5356 88.2663C47.5356 89.2197 46.7632 90.4506 45.7978 91.0057C44.8445 91.5608 44.0601 91.235 44.0601 90.2696C44.0601 89.3042 44.8324 88.0853 45.7978 87.5302Z" fill="#359EFF"/>
<path d="M65.987 111.533C66.9404 110.978 67.7248 111.304 67.7248 112.269C67.7248 113.222 66.9524 114.453 65.987 115.008C65.0337 115.564 64.2493 115.238 64.2493 114.272C64.2493 113.307 65.0216 112.088 65.987 111.533Z" fill="#359EFF"/>
<path d="M86.164 87.9887C87.1174 87.4336 87.9018 87.7594 87.9018 88.7248C87.9018 89.6782 87.1295 90.9091 86.164 91.4642C85.2107 92.0193 84.4263 91.6935 84.4263 90.7281C84.4383 89.7747 85.2107 88.5438 86.164 87.9887Z" fill="#359EFF"/>
<path d="M106.354 40.683C107.307 40.1279 108.091 40.4537 108.091 41.4192C108.091 42.3725 107.319 43.6034 106.354 44.1585C105.4 44.7137 104.616 44.3878 104.616 43.4224C104.616 42.457 105.4 41.2381 106.354 40.683Z" fill="#359EFF"/>
<path d="M126.543 11.2016C127.496 10.6465 128.281 10.9723 128.281 11.9377C128.281 12.8911 127.508 14.122 126.543 14.6771C125.59 15.2322 124.805 14.9064 124.805 13.941C124.805 12.9755 125.578 11.7446 126.543 11.2016Z" fill="#359EFF"/>
<path d="M25.6086 131.867C26.562 131.312 27.3464 131.638 27.3464 132.603C27.3464 133.557 26.574 134.787 25.6086 135.343C24.6552 135.898 23.8708 135.572 23.8708 134.606C23.8708 133.641 24.6552 132.422 25.6086 131.867Z" fill="#359EFF"/>
<path d="M45.7978 102.386C46.7512 101.831 47.5356 102.156 47.5356 103.122C47.5356 104.075 46.7632 105.306 45.7978 105.861C44.8445 106.416 44.0601 106.09 44.0601 105.125C44.0601 104.172 44.8324 102.941 45.7978 102.386Z" fill="#359EFF"/>
<path d="M65.987 61.0173C66.9404 60.4621 67.7248 60.788 67.7248 61.7534C67.7248 62.7067 66.9524 63.9377 65.987 64.4928C65.0337 65.0479 64.2493 64.7221 64.2493 63.7566C64.2493 62.7912 65.0216 61.5724 65.987 61.0173Z" fill="#359EFF"/>
<path d="M86.164 70.1647C87.1174 69.6096 87.9018 69.9354 87.9018 70.9009C87.9018 71.8542 87.1295 73.0851 86.164 73.6402C85.2107 74.1953 84.4263 73.8695 84.4263 72.9041C84.4383 71.9387 85.2107 70.7198 86.164 70.1647Z" fill="#359EFF"/>
<path d="M106.354 64.4565C107.307 63.9014 108.091 64.2272 108.091 65.1926C108.091 66.146 107.319 67.3769 106.354 67.932C105.4 68.4871 104.616 68.1613 104.616 67.1959C104.616 66.2304 105.4 65.0116 106.354 64.4565Z" fill="#359EFF"/>
<path d="M126.543 76.5727C127.496 76.0176 128.281 76.3434 128.281 77.3088C128.281 78.2622 127.508 79.4931 126.543 80.0482C125.578 80.6033 124.805 80.2775 124.805 79.3121C124.805 78.3466 125.578 77.1278 126.543 76.5727Z" fill="#359EFF"/>
<path d="M25.6086 126.062C26.562 125.507 27.3464 125.833 27.3464 126.799C27.3464 127.752 26.574 128.983 25.6086 129.538C24.6552 130.093 23.8708 129.767 23.8708 128.802C23.8708 127.836 24.6552 126.605 25.6086 126.062Z" fill="#F8F5F4"/>
<path d="M45.7978 108.335C46.7512 107.78 47.5356 108.106 47.5356 109.071C47.5356 110.024 46.7632 111.255 45.7978 111.81C44.8445 112.366 44.0601 112.04 44.0601 111.074C44.0601 110.109 44.8324 108.89 45.7978 108.335Z" fill="#F8F5F4"/>
<path d="M86.164 37.4731C87.1174 36.918 87.9018 37.2438 87.9018 38.2092C87.9018 39.1626 87.1295 40.3935 86.164 40.9486C85.2107 41.5037 84.4263 41.1779 84.4263 40.2125C84.4383 39.2591 85.2107 38.0282 86.164 37.4731Z" fill="#F8F5F4"/>
<path d="M106.354 85.2494C107.307 84.6943 108.091 85.0202 108.091 85.9856C108.091 86.951 107.319 88.1698 106.354 88.7249C105.4 89.2801 104.616 88.9542 104.616 87.9888C104.616 87.0355 105.4 85.8046 106.354 85.2494Z" fill="#F8F5F4"/>
<path d="M126.543 82.5099C127.496 81.9548 128.281 82.2806 128.281 83.2461C128.281 84.1994 127.508 85.4303 126.543 85.9855C125.59 86.5406 124.805 86.2147 124.805 85.2493C124.805 84.296 125.578 83.0651 126.543 82.5099Z" fill="#F8F5F4"/>
<path d="M25.6086 119.98C26.562 119.425 27.3464 119.751 27.3464 120.717C27.3464 121.67 26.574 122.901 25.6086 123.456C24.6552 124.011 23.8708 123.685 23.8708 122.72C23.8708 121.766 24.6552 120.536 25.6086 119.98Z" fill="#FFDE3B"/>
<path d="M45.7978 69.7062C46.7512 69.1511 47.5356 69.4769 47.5356 70.4424C47.5356 71.3957 46.7632 72.6266 45.7978 73.1817C44.8445 73.7369 44.0601 73.411 44.0601 72.4456C44.0601 71.4802 44.8324 70.2493 45.7978 69.7062Z" fill="#FFDE3B"/>
<path d="M64.7321 75.6315C65.6855 75.0764 66.4699 75.4022 66.4699 76.3677C66.4699 77.321 65.6976 78.5519 64.7321 79.107C63.7788 79.6621 62.9944 79.3363 62.9944 78.3709C62.9944 77.4055 63.7667 76.1866 64.7321 75.6315Z" fill="#FFDE3B"/>
<path d="M86.164 79.0949C87.1174 78.5398 87.9018 78.8656 87.9018 79.831C87.9018 80.7844 87.1295 82.0153 86.164 82.5704C85.2107 83.1255 84.4263 82.7997 84.4263 81.8343C84.4383 80.8689 85.2107 79.65 86.164 79.0949Z" fill="#FFDE3B"/>
<path d="M106.354 49.6012C107.307 49.0461 108.091 49.372 108.091 50.3374C108.091 51.2907 107.319 52.5216 106.354 53.0768C105.4 53.6319 104.616 53.306 104.616 52.3406C104.616 51.3752 105.4 50.1443 106.354 49.6012Z" fill="#FFDE3B"/>
<path d="M126.543 28.0483C127.496 27.4931 128.281 27.819 128.281 28.7844C128.281 29.7378 127.508 30.9687 126.543 31.5238C125.59 32.0789 124.805 31.7531 124.805 30.7877C124.805 29.8343 125.578 28.6034 126.543 28.0483Z" fill="#FFDE3B"/>
<path d="M25.6086 114.043C26.562 113.488 27.3464 113.814 27.3464 114.779C27.3464 115.745 26.574 116.964 25.6086 117.519C24.6552 118.074 23.8708 117.748 23.8708 116.783C23.8708 115.817 24.6552 114.598 25.6086 114.043Z" fill="#FFDE3B"/>
<path d="M45.7978 126.159C46.7512 125.604 47.5356 125.93 47.5356 126.895C47.5356 127.849 46.7632 129.08 45.7978 129.635C44.8445 130.19 44.0601 129.864 44.0601 128.898C44.0601 127.933 44.8324 126.714 45.7978 126.159Z" fill="#FFDE3B"/>
<path d="M65.987 96.6774C66.9404 96.1223 67.7248 96.4481 67.7248 97.4136C67.7248 98.3669 66.9524 99.5978 65.987 100.153C65.0337 100.708 64.2493 100.382 64.2493 99.4168C64.2493 98.4514 65.0216 97.2325 65.987 96.6774Z" fill="#FFDE3B"/>
<path d="M86.164 96.9069C87.1174 96.3518 87.9018 96.6776 87.9018 97.643C87.9018 98.5964 87.1295 99.8273 86.164 100.382C85.2107 100.938 84.4263 100.612 84.4263 99.6463C84.4383 98.6809 85.2107 97.462 86.164 96.9069Z" fill="#FFDE3B"/>
<path d="M114.161 51.1459C115.114 50.5908 115.899 50.9166 115.899 51.8821C115.899 52.8354 115.127 54.0663 114.161 54.6214C113.208 55.1766 112.423 54.8507 112.423 53.8853C112.423 52.9199 113.196 51.701 114.161 51.1459Z" fill="#FFDE3B"/>
<path d="M126.543 11.2016C127.496 10.6465 128.281 10.9723 128.281 11.9377C128.281 12.8911 127.508 14.122 126.543 14.6771C125.59 15.2322 124.805 14.9064 124.805 13.941C124.805 12.9755 125.578 11.7446 126.543 11.2016Z" fill="#FFDE3B"/>
<path d="M148 36.6283C148 37.7144 147.119 39.1022 146.033 39.7297C144.947 40.3573 144.066 39.9832 144.066 38.8971C144.066 37.811 144.947 36.4232 146.033 35.7956C147.119 35.1681 148 35.5422 148 36.6283Z" fill="#FFDE3B"/>
<path d="M148 54.3678C148 55.4539 147.119 56.8417 146.033 57.4692C144.947 58.0968 144.066 57.7227 144.066 56.6366C144.066 55.5505 144.947 54.1627 146.033 53.5351C147.119 52.9076 148 53.2817 148 54.3678Z" fill="#359EFF"/>
<path d="M148 72.0834C148 73.1695 147.119 74.5573 146.033 75.1848C144.947 75.8123 144.066 75.4382 144.066 74.3521C144.066 73.266 144.947 71.8782 146.033 71.2507C147.119 70.6232 148 70.9973 148 72.0834Z" fill="#359EFF"/>
<path d="M148 1.1371C148 2.2232 147.119 3.61099 146.033 4.23852C144.947 4.86604 144.066 4.49194 144.066 3.40584C144.066 2.31975 144.947 0.931953 146.033 0.30443C147.119 -0.323094 148 0.0510052 148 1.1371Z" fill="#F8F5F4"/>
<path d="M148 18.8527C148 19.9388 147.119 21.3266 146.033 21.9541C144.947 22.5816 144.066 22.2075 144.066 21.1214C144.066 20.0353 144.947 18.6475 146.033 18.02C147.119 17.3925 148 17.7666 148 18.8527Z" fill="#FFDE3B"/>
<path d="M149.695 115.244L140.768 110.061L140.859 94.0396L149.785 99.2223L149.695 115.244Z" fill="#D6850F"/>
<path d="M149.785 99.2223L140.859 94.0396L151.275 88.0215L160.201 93.2143L149.785 99.2223Z" fill="#FFDA40"/>
<path d="M160.201 93.2144L160.11 109.236L149.695 115.244L149.785 99.2224L160.201 93.2144Z" fill="#FFBD29"/>
<path opacity="0.4" d="M151.275 88.0215L140.859 94.0396L140.768 110.061L149.695 115.244L160.11 109.236L160.201 93.2143L151.275 88.0215Z" fill="#D6850F"/>
<path d="M137.608 122.228L128.682 117.035L128.752 92.7214L137.679 97.9143L137.608 122.228Z" fill="#D6850F"/>
<path d="M137.679 97.9142L128.752 92.7214L139.158 86.7134L148.095 91.9062L137.679 97.9142Z" fill="#FFDA40"/>
<path d="M148.094 91.9062L148.024 116.21L137.608 122.228L137.679 97.9143L148.094 91.9062Z" fill="#FFBD29"/>
<path opacity="0.4" d="M139.158 86.7134L130.926 91.4735L139.852 96.6563L139.782 120.97L148.024 116.21L148.095 91.9062L139.158 86.7134Z" fill="#D6850F"/>
<path d="M125.532 129.212L116.605 124.019L116.626 84.7107L125.552 89.8935L125.532 129.212Z" fill="#D13333"/>
<path d="M125.552 89.8934L116.625 84.7106L127.031 78.7026L135.958 83.8854L125.552 89.8934Z" fill="#FF5050"/>
<path d="M135.958 83.8855L135.938 123.204L125.532 129.212L125.552 89.8935L135.958 83.8855Z" fill="#ED4040"/>
<path d="M113.445 136.186L104.519 131.004L104.448 59.0081L113.375 64.1908L113.445 136.186Z" fill="#D13333"/>
<path d="M113.375 64.1908L104.448 59.008L114.854 53L123.781 58.1828L113.375 64.1908Z" fill="#FF5050"/>
<path d="M123.781 58.1829L123.851 130.178L113.445 136.186L113.375 64.1909L123.781 58.1829Z" fill="#ED4040"/>
<path d="M101.359 143.16L92.4323 137.978L92.4021 79.4373L101.329 84.6301L101.359 143.16Z" fill="#911975"/>
<path d="M101.329 84.63L92.4021 79.4372L102.808 73.4292L111.734 78.622L101.329 84.63Z" fill="#ED54D0"/>
<path d="M111.735 78.6221L111.765 137.152L101.359 143.16L101.329 84.6301L111.735 78.6221Z" fill="#C93AA7"/>
<path d="M89.2724 150.145L80.4767 144.962L80.356 102.181L89.2824 107.374L89.2724 150.145Z" fill="#911975"/>
<path d="M89.2824 107.374L80.356 102.181L90.7719 96.1731L99.6983 101.356L89.2824 107.374Z" fill="#ED54D0"/>
<path d="M99.6987 101.356L99.6785 144.137L89.2727 150.145L89.2828 107.374L99.6987 101.356Z" fill="#C93AA7"/>
<path d="M77.1857 157.119L68.2593 151.936L68.2995 119.299L77.226 124.482L77.1857 157.119Z" fill="#0982CC"/>
<path d="M77.2263 124.482L68.2998 119.299L78.7157 113.281L87.6422 118.474L77.2263 124.482Z" fill="#6ED6FF"/>
<path d="M87.6419 118.474L87.5916 151.111L77.1858 157.119L77.226 124.482L87.6419 118.474Z" fill="#359EFF"/>
<path d="M65.0996 164.103L56.1731 158.91L56.2637 142.889L65.1901 148.071L65.0996 164.103Z" fill="#0982CC"/>
<path d="M65.1901 148.071L56.2637 142.889L66.6796 136.871L75.606 142.063L65.1901 148.071Z" fill="#6ED6FF"/>
<path d="M75.6061 142.063L75.5155 158.085L65.0996 164.103L65.1902 148.071L75.6061 142.063Z" fill="#359EFF"/>
<path d="M53.0131 171.077L44.0867 165.884L44.1571 141.58L53.0836 146.763L53.0131 171.077Z" fill="#A1A81B"/>
<path d="M53.0835 146.763L44.157 141.58L54.5628 135.562L63.4994 140.755L53.0835 146.763Z" fill="#DFE62E"/>
<path d="M63.4995 140.755L63.4291 165.069L53.0132 171.077L53.0836 146.763L63.4995 140.755Z" fill="#BED32A"/>
<path d="M40.9265 178.051L32 172.868L32.0402 139.749L40.9667 144.942L40.9265 178.051Z" fill="#A1A81B"/>
<path d="M40.967 144.942L32.0405 139.749L42.4564 133.741L51.3829 138.924L40.967 144.942Z" fill="#DFE62E"/>
<path d="M51.3827 138.924L51.3424 172.043L40.9265 178.051L40.9668 144.942L51.3827 138.924Z" fill="#BED32A"/>
</svg>
