<svg width="190" height="190" viewBox="0 0 190 190" fill="none" xmlns="http://www.w3.org/2000/svg">
<path d="M94.9999 190C144.208 190 184.1 167.605 184.1 139.98C184.1 112.355 144.208 89.96 94.9999 89.96C45.7913 89.96 5.8999 112.355 5.8999 139.98C5.8999 167.605 45.7913 190 94.9999 190Z" fill="black" fill-opacity="0.1"/>
<path d="M92.5605 100.802L159.274 135.888L154.973 119.716L154.636 54.0772L159.274 45.2214L90.3254 11.4216V23.8831L91.2742 23.8409L92.5605 100.802Z" fill="#BCBEC0"/>
<path d="M153.244 120.159L93.0662 85.4101V17.3467L153.244 52.0953V120.159Z" fill="white"/>
<path d="M152.801 120.412L92.6023 85.663V17.5996L152.801 52.3482V120.412Z" fill="#E6E7E8"/>
<path d="M152.274 120.728L92.0962 85.9585V17.895L152.274 52.6437V120.728Z" fill="white"/>
<path d="M151.789 121.023L91.5903 86.2536V18.1902L151.789 52.9388V121.023Z" fill="#E6E7E8"/>
<path d="M151.367 121.234L91.1685 86.4856V18.4221L151.367 53.1707V121.234Z" fill="white"/>
<path d="M150.903 121.487L90.7258 86.7385V18.675L150.903 53.4237V121.487Z" fill="#E6E7E8"/>
<path d="M150.397 121.782L90.1985 87.0337V18.9702L150.397 53.7188V121.782Z" fill="white"/>
<path d="M149.891 122.077L89.7136 87.3288V19.2654L149.891 54.014V122.077Z" fill="#E6E7E8"/>
<path d="M149.512 122.288L89.3342 87.5398V19.4763L149.512 54.2249V122.288Z" fill="white"/>
<path d="M149.069 122.562L88.8701 87.8138V19.7292L149.069 54.4779V122.562Z" fill="#E6E7E8"/>
<path d="M148.542 122.858L88.3643 88.1089V20.0244L148.542 54.7941V122.858Z" fill="white"/>
<path d="M148.057 123.153L87.8582 88.4043V20.3198L148.057 55.0895V123.153Z" fill="#E6E7E8"/>
<path d="M81.2585 107.318L143.502 144.997L148.12 128.192V59.5806L143.502 54.3093L81.2585 16.6509V107.318Z" fill="#954A83"/>
<path d="M137.535 113.011L125.327 105.631C125.011 105.441 124.715 105.42 124.505 105.526L124.104 105.757L124.231 105.842C124.167 105.968 124.146 106.137 124.146 106.306V106.896C124.146 107.676 124.694 108.625 125.348 109.026L137.556 116.406C137.662 116.469 137.788 116.511 137.894 116.532L137.978 116.743L138.421 116.49C138.632 116.363 138.758 116.11 138.758 115.731V115.14C138.737 114.381 138.189 113.411 137.535 113.011Z" fill="#939598"/>
<path d="M124.926 105.842C124.273 105.441 123.724 105.757 123.724 106.516V107.107C123.724 107.887 124.273 108.836 124.926 109.236L137.135 116.616C137.788 117.017 138.336 116.701 138.336 115.942V115.351C138.336 114.571 137.788 113.622 137.135 113.222L124.926 105.842Z" fill="#BCBEC0"/>
<path d="M137.071 113.749L124.884 106.39C124.631 106.242 124.42 106.242 124.272 106.348L123.872 106.685L124.062 106.938V107.255C124.062 107.782 124.42 108.435 124.884 108.709L137.071 116.068L137.345 116.406L137.725 116.089C137.83 115.984 137.915 115.836 137.915 115.604V115.204C137.894 114.677 137.535 114.023 137.071 113.749Z" fill="#939598"/>
<path d="M124.547 106.664C124.104 106.39 123.724 106.601 123.724 107.128V107.529C123.724 108.056 124.083 108.709 124.547 108.983L136.734 116.342C137.177 116.616 137.556 116.405 137.556 115.878V115.478C137.556 114.951 137.198 114.297 136.734 114.023L124.547 106.664Z" fill="#D1D3D4"/>
<path d="M137.535 77.0391L125.327 69.6593C125.011 69.4695 124.715 69.4484 124.505 69.5538L124.104 69.7858L124.231 69.8701C124.167 69.9967 124.146 70.1443 124.146 70.334V70.9244C124.146 71.7046 124.694 72.6534 125.348 73.054L137.556 80.4339C137.662 80.4971 137.788 80.5393 137.894 80.5815L137.978 80.7923L138.421 80.5393C138.632 80.4128 138.758 80.1598 138.758 79.7802V79.1899C138.737 78.4097 138.189 77.4398 137.535 77.0391Z" fill="#939598"/>
<path d="M124.926 69.87C124.273 69.4694 123.724 69.7646 123.724 70.5448V71.1351C123.724 71.9153 124.273 72.8642 124.926 73.2648L137.135 80.6446C137.788 81.0453 138.336 80.7501 138.336 79.9699V79.3795C138.336 78.5994 137.788 77.6505 137.135 77.2499L124.926 69.87Z" fill="#BCBEC0"/>
<path d="M137.071 77.7562L124.884 70.3974C124.631 70.2498 124.42 70.2498 124.272 70.3552L123.872 70.6926L124.062 70.9456V71.2619C124.062 71.789 124.42 72.4427 124.884 72.7168L137.071 80.0756L137.345 80.434L137.725 80.1177C137.83 80.0123 137.915 79.8647 137.915 79.6328V79.2322C137.894 78.6839 137.535 78.0303 137.071 77.7562Z" fill="#939598"/>
<path d="M124.547 70.6923C124.104 70.4182 123.724 70.6291 123.724 71.1562V71.5568C123.724 72.084 124.083 72.7376 124.547 73.0117L136.734 80.3705C137.177 80.6446 137.556 80.4338 137.556 79.9066V79.506C137.556 78.9789 137.198 78.3252 136.734 78.0511L124.547 70.6923Z" fill="#D1D3D4"/>
<path d="M159.274 135.888L143.502 144.997V54.3092L159.274 45.2214V135.888Z" fill="#672A5C"/>
<path d="M157.946 97.176L144.81 104.767V65.8432L157.946 58.2524V97.176Z" fill="white"/>
<path d="M157.398 63.9876L145.253 71.009V70.777L157.398 63.7556V63.9876Z" fill="#FF3F4A"/>
<path d="M157.398 71.0723L145.253 78.0726V77.8407L157.398 70.8403V71.0723Z" fill="#FF3F4A"/>
<path d="M157.398 78.1357L145.253 85.1572V84.9042L157.398 77.9038V78.1357Z" fill="#FF3F4A"/>
<path d="M157.398 85.1995L145.253 92.2209V91.9889L157.398 84.9675V85.1995Z" fill="#FF3F4A"/>
<path d="M157.398 92.2841L145.253 99.2844V99.0524L157.398 92.031V92.2841Z" fill="#FF3F4A"/>
<path d="M157.946 58.2523L144.81 65.8431V62.111L157.946 54.5203V58.2523Z" fill="#E31B25"/>
<path d="M152.169 58.4845L147.445 61.2045C146.855 61.5419 146.37 62.3853 146.37 63.06C146.37 63.7558 146.855 64.0299 147.445 63.6925L152.169 60.9515C152.759 60.6141 153.244 59.7707 153.244 59.096C153.244 58.4212 152.759 58.1471 152.169 58.4845Z" fill="white"/>
<path d="M155.226 56.7132L154.825 56.9452C154.235 57.2825 153.75 58.1259 153.75 58.8007C153.75 59.4754 154.235 59.7706 154.825 59.4121L155.226 59.1802C155.816 58.8428 156.301 57.9994 156.301 57.3247C156.301 56.65 155.816 56.3759 155.226 56.7132Z" fill="white"/>
<path d="M154.319 111.155L154.362 111.092L153.898 110.818C153.244 110.459 152.38 110.523 151.41 111.092C149.428 112.231 147.804 115.035 147.804 117.312C147.804 118.409 148.184 119.189 148.774 119.589L149.301 119.906L149.343 119.842C149.934 119.969 150.629 119.842 151.41 119.4C153.392 118.261 155.015 115.457 155.015 113.158C154.973 112.273 154.72 111.598 154.319 111.155Z" fill="#BCBEC0"/>
<path d="M155.437 113.432C155.437 115.731 153.834 118.514 151.831 119.674C149.849 120.812 148.226 119.884 148.226 117.607C148.226 115.309 149.828 112.526 151.831 111.366C153.813 110.206 155.437 111.134 155.437 113.432Z" fill="#939598"/>
<path d="M155.099 113.622C155.099 115.71 153.645 118.24 151.831 119.273C150.756 119.885 149.807 119.843 149.196 119.252C149.744 119.4 150.397 119.294 151.135 118.873C152.949 117.839 154.404 115.309 154.404 113.222C154.404 112.378 154.172 111.746 153.771 111.366C154.572 111.598 155.099 112.399 155.099 113.622Z" fill="#BCBEC0"/>
<path d="M154.425 113.222C154.425 115.309 152.949 117.839 151.157 118.872C150.419 119.294 149.765 119.4 149.217 119.252C148.816 118.851 148.584 118.219 148.584 117.396C148.584 115.309 150.039 112.779 151.852 111.746C152.59 111.324 153.265 111.218 153.792 111.366C154.172 111.767 154.425 112.399 154.425 113.222Z" fill="#121214"/>
<path d="M91.0632 11L90.3253 11.4217L157.777 45.2637L143.502 53.4869L81.9754 16.2503L81.2585 16.6509L143.502 54.3093L159.274 45.2215L91.0632 11Z" fill="#C27AB1"/>
<path d="M67.2577 115.414L133.951 150.5L129.67 134.328L129.333 68.6893L133.951 59.8335L65.0227 26.0337V38.4951L65.9715 38.4741L67.2577 115.414Z" fill="#BCBEC0"/>
<path d="M127.941 134.771L67.7424 100.022V31.9587L127.941 66.7074V134.771Z" fill="white"/>
<path d="M127.477 135.045L67.2788 100.275V32.2117L127.477 66.9603V135.045Z" fill="#E6E7E8"/>
<path d="M126.971 135.34L66.7727 100.591V32.5068L126.971 67.2554V135.34Z" fill="white"/>
<path d="M126.465 135.635L66.2878 100.887V32.8022L126.465 67.5509V135.635Z" fill="#E6E7E8"/>
<path d="M126.043 135.846L65.8447 101.098V33.0342L126.043 67.7828V135.846Z" fill="white"/>
<path d="M125.601 136.12L65.4021 101.372V33.2871L125.601 68.0358V136.12Z" fill="#E6E7E8"/>
<path d="M125.073 136.415L64.896 101.667V33.5823L125.073 68.3309V136.415Z" fill="white"/>
<path d="M124.589 136.711L64.3901 101.962V33.8774L124.589 68.6261V136.711Z" fill="#E6E7E8"/>
<path d="M124.209 136.9L64.0107 102.152V34.0884L124.209 68.837V136.9Z" fill="white"/>
<path d="M123.745 137.175L63.5676 102.426V34.3625L123.745 69.1112V137.175Z" fill="#E6E7E8"/>
<path d="M123.239 137.47L63.0405 102.721V34.6577L123.239 69.4063V137.47Z" fill="white"/>
<path d="M122.733 137.765L62.5557 103.016V34.9529L122.733 69.7015V137.765Z" fill="#E6E7E8"/>
<path d="M55.9561 121.951L118.179 159.609L122.797 142.804V74.1927L118.179 68.9424L55.9561 31.2629V121.951Z" fill="#303033"/>
<path d="M112.212 127.623L100.004 120.243C99.6872 120.053 99.392 120.032 99.1811 120.138L98.7805 120.37L98.886 120.454C98.8227 120.58 98.8016 120.728 98.8016 120.918V121.508C98.8016 122.288 99.3499 123.237 100.004 123.638L112.212 131.018C112.338 131.081 112.444 131.123 112.549 131.165L112.634 131.376L113.076 131.123C113.287 130.997 113.414 130.744 113.414 130.364V129.774C113.414 128.993 112.866 128.024 112.212 127.623Z" fill="#939598"/>
<path d="M99.6238 120.454C98.9701 120.053 98.4219 120.348 98.4219 121.129V121.719C98.4219 122.499 98.9701 123.448 99.6238 123.849L111.832 131.228C112.486 131.629 113.034 131.334 113.034 130.554V129.963C113.034 129.183 112.486 128.234 111.832 127.834L99.6238 120.454Z" fill="#BCBEC0"/>
<path d="M111.769 128.361L99.5814 121.002C99.3284 120.855 99.1175 120.855 98.9699 120.96L98.5693 121.297L98.7591 121.55V121.867C98.7591 122.394 99.1175 123.047 99.5814 123.322L111.769 130.68L112.043 131.018L112.401 130.701C112.507 130.596 112.57 130.448 112.57 130.216V129.816C112.591 129.289 112.212 128.635 111.769 128.361Z" fill="#939598"/>
<path d="M99.2442 121.276C98.8014 121.002 98.4219 121.213 98.4219 121.74V122.141C98.4219 122.668 98.7803 123.322 99.2442 123.596L111.431 130.954C111.874 131.229 112.254 131.018 112.254 130.491V130.09C112.254 129.563 111.874 128.909 111.431 128.635L99.2442 121.276Z" fill="#D1D3D4"/>
<path d="M112.212 91.6512L100.004 84.2713C99.6872 84.0816 99.392 84.0605 99.1811 84.1659L98.7805 84.3978L98.886 84.4822C98.8227 84.6087 98.8016 84.7774 98.8016 84.946V85.5364C98.8016 86.3166 99.3499 87.2655 100.004 87.6661L112.212 95.0459C112.338 95.1092 112.444 95.1513 112.549 95.1935L112.634 95.4044L113.076 95.1513C113.287 95.0248 113.414 94.7718 113.414 94.3923V93.8019C113.414 93.0217 112.866 92.0518 112.212 91.6512Z" fill="#939598"/>
<path d="M99.6238 84.4823C98.9701 84.0817 98.4219 84.398 98.4219 85.157V85.7474C98.4219 86.5276 98.9701 87.4764 99.6238 87.877L111.832 95.2569C112.486 95.6575 113.034 95.3623 113.034 94.5822V93.9918C113.034 93.2116 112.486 92.2628 111.832 91.8621L99.6238 84.4823Z" fill="#BCBEC0"/>
<path d="M111.769 92.3892L99.5814 85.0305C99.3284 84.8829 99.1175 84.8828 98.9699 84.9883L98.5693 85.3256L98.7591 85.5787V85.8949C98.7591 86.4221 99.1175 87.0757 99.5814 87.3498L111.769 94.7086L112.043 95.046L112.401 94.7297C112.507 94.6243 112.57 94.4767 112.57 94.2447V93.8441C112.591 93.317 112.212 92.6633 111.769 92.3892Z" fill="#939598"/>
<path d="M99.2442 85.3044C98.8014 85.0303 98.4219 85.2411 98.4219 85.7683V86.1689C98.4219 86.696 98.7803 87.3497 99.2442 87.6238L111.431 94.9826C111.874 95.2567 112.254 95.0458 112.254 94.5187V94.1181C112.254 93.591 111.874 92.9373 111.431 92.6632L99.2442 85.3044Z" fill="#D1D3D4"/>
<path d="M133.951 150.5L118.179 159.609V68.9424L133.951 59.8335V150.5Z" fill="#121214"/>
<path d="M132.643 111.788L119.507 119.379V80.4552L132.643 72.8645V111.788Z" fill="white"/>
<path d="M132.095 78.6209L119.95 85.6212V85.3893L132.095 78.3889V78.6209Z" fill="#FF3F4A"/>
<path d="M132.095 85.6843L119.95 92.6846V92.4527L132.095 85.4524V85.6843Z" fill="#FF3F4A"/>
<path d="M132.095 92.7478L119.95 99.7692V99.5373L132.095 92.5159V92.7478Z" fill="#FF3F4A"/>
<path d="M132.095 99.8326L119.95 106.833V106.601L132.095 99.5796V99.8326Z" fill="#FF3F4A"/>
<path d="M132.095 106.896L119.95 113.897V113.665L132.095 106.664V106.896Z" fill="#FF3F4A"/>
<path d="M132.643 72.8644L119.507 80.4552V76.7231L132.643 69.1323V72.8644Z" fill="#E31B25"/>
<path d="M126.845 73.0965L122.122 75.8376C121.532 76.175 121.047 77.0183 121.047 77.6931C121.047 78.3889 121.532 78.663 122.122 78.3256L126.845 75.6056C127.435 75.2683 127.92 74.4249 127.92 73.7501C127.942 73.0332 127.457 72.7591 126.845 73.0965Z" fill="white"/>
<path d="M129.903 71.3464L129.502 71.5784C128.911 71.9157 128.427 72.7591 128.427 73.4549C128.427 74.1508 128.911 74.4249 129.502 74.0664L129.903 73.8345C130.493 73.4971 130.978 72.6537 130.978 71.979C130.978 71.2621 130.493 70.988 129.903 71.3464Z" fill="white"/>
<path d="M128.996 125.767L129.038 125.704L128.574 125.43C127.92 125.093 127.056 125.135 126.086 125.704C124.104 126.843 122.48 129.647 122.48 131.945C122.48 133.042 122.86 133.822 123.45 134.223L123.977 134.539L124.019 134.476C124.61 134.602 125.306 134.476 126.086 134.033C128.068 132.894 129.691 130.09 129.691 127.813C129.67 126.885 129.417 126.21 128.996 125.767Z" fill="#BCBEC0"/>
<path d="M130.113 128.045C130.113 130.343 128.511 133.126 126.507 134.265C124.525 135.403 122.902 134.476 122.902 132.177C122.902 129.879 124.504 127.096 126.507 125.957C128.511 124.818 130.113 125.767 130.113 128.045Z" fill="#939598"/>
<path d="M129.776 128.234C129.776 130.322 128.321 132.852 126.507 133.885C125.432 134.518 124.483 134.454 123.872 133.864C124.42 134.012 125.074 133.906 125.812 133.485C127.625 132.451 129.08 129.921 129.08 127.834C129.08 126.99 128.848 126.358 128.447 125.957C129.27 126.21 129.776 127.011 129.776 128.234Z" fill="#BCBEC0"/>
<path d="M129.101 127.855C129.101 129.942 127.646 132.472 125.833 133.506C125.095 133.927 124.441 134.033 123.893 133.885C123.492 133.485 123.26 132.852 123.26 132.009C123.26 129.921 124.715 127.391 126.528 126.358C127.266 125.936 127.941 125.831 128.468 125.978C128.869 126.379 129.101 127.011 129.101 127.855Z" fill="#121214"/>
<path d="M65.7607 25.6121L65.0228 26.0338L132.454 59.8757L118.2 68.1201L56.6519 30.8623L55.9561 31.2629L118.179 68.9424L133.951 59.8335L65.7607 25.6121Z" fill="#535359"/>
<path d="M41.3019 130.385L108.016 165.492L103.714 149.299L103.377 83.66L108.016 74.8042L39.0669 41.0044V53.4869L40.0157 53.4447L41.3019 130.385Z" fill="#BCBEC0"/>
<path d="M101.985 149.763L41.8076 114.993V46.9294L101.985 81.6781V149.763Z" fill="white"/>
<path d="M101.542 150.016L41.3438 115.267V47.2036L101.542 81.9522V150.016Z" fill="#E6E7E8"/>
<path d="M101.015 150.311L40.8376 115.562V47.4988L101.015 82.2474V150.311Z" fill="white"/>
<path d="M100.53 150.606L40.3318 115.857V47.7939L100.53 82.5426V150.606Z" fill="#E6E7E8"/>
<path d="M100.109 150.838L39.9099 116.068V48.0049L100.109 82.7535V150.838Z" fill="white"/>
<path d="M99.6445 151.091L39.467 116.342V48.2791L99.6445 83.0277V151.091Z" fill="#E6E7E8"/>
<path d="M99.1385 151.386L38.9399 116.638V48.5742L99.1385 83.3229V151.386Z" fill="white"/>
<path d="M98.6326 151.681L38.4551 116.933V48.8691L98.6326 83.6178V151.681Z" fill="#E6E7E8"/>
<path d="M98.2532 151.892L38.0757 117.144V49.0801L98.2532 83.8287V151.892Z" fill="white"/>
<path d="M97.8102 152.145L37.6116 117.397V49.3333L97.8102 84.0819V152.145Z" fill="#E6E7E8"/>
<path d="M97.2833 152.441L37.1057 117.692V49.6284L97.2833 84.3771V152.441Z" fill="white"/>
<path d="M96.7982 152.736L36.5996 117.987V49.9236L96.7982 84.6722V152.736Z" fill="#E6E7E8"/>
<path d="M30 136.922L92.2439 174.58L96.8616 157.796V89.1844L92.2439 83.913L30 46.2546V136.922Z" fill="#9563FF"/>
<path d="M86.2558 142.615L74.0474 135.235C73.7312 135.045 73.4359 135.024 73.2251 135.129L72.8245 135.361L72.951 135.446C72.8877 135.572 72.8667 135.741 72.8667 135.909V136.5C72.8667 137.28 73.4148 138.229 74.0685 138.629L86.2769 146.009C86.3823 146.073 86.5089 146.115 86.6143 146.136L86.6986 146.347L87.1414 146.094C87.3523 145.967 87.4788 145.714 87.4788 145.335V144.744C87.4788 143.964 86.9305 143.015 86.2558 142.615Z" fill="#939598"/>
<path d="M73.6889 135.445C73.0142 135.045 72.4871 135.34 72.4871 136.12V136.711C72.4871 137.491 73.0353 138.44 73.6889 138.84L85.8974 146.22C86.551 146.621 87.0992 146.326 87.0992 145.545V144.955C87.0992 144.175 86.551 143.226 85.8974 142.825L73.6889 135.445Z" fill="#BCBEC0"/>
<path d="M85.8127 143.331L73.6254 135.973C73.3724 135.825 73.1615 135.825 73.0139 135.93L72.6133 136.268L72.8031 136.521V136.837C72.8031 137.364 73.1826 138.018 73.6254 138.292L85.8127 145.651L86.0868 145.988L86.4453 145.672C86.5507 145.587 86.614 145.419 86.614 145.187V144.786C86.6351 144.259 86.2766 143.605 85.8127 143.331Z" fill="#939598"/>
<path d="M73.2881 136.268C72.8453 135.994 72.4658 136.205 72.4658 136.732V137.132C72.4658 137.659 72.8453 138.313 73.2881 138.587L85.4754 145.946C85.9182 146.22 86.2978 146.009 86.2978 145.482V145.081C86.2978 144.554 85.9182 143.901 85.4754 143.627L73.2881 136.268Z" fill="#D1D3D4"/>
<path d="M86.2558 106.643L74.0474 99.2633C73.7312 99.0735 73.4359 99.0524 73.2251 99.1578L72.8245 99.3898L72.951 99.4741C72.8877 99.6006 72.8667 99.7693 72.8667 99.938V100.528C72.8667 101.309 73.4148 102.257 74.0685 102.658L86.2769 110.038C86.3823 110.101 86.5089 110.143 86.6143 110.164L86.6986 110.375L87.1414 110.122C87.3523 109.996 87.4788 109.743 87.4788 109.363V108.773C87.4788 107.993 86.9305 107.044 86.2558 106.643Z" fill="#939598"/>
<path d="M73.6889 99.474C73.0142 99.0734 72.4871 99.3897 72.4871 100.149V100.739C72.4871 101.519 73.0353 102.468 73.6889 102.869L85.8974 110.249C86.551 110.649 87.0992 110.354 87.0992 109.574V108.983C87.0992 108.203 86.551 107.254 85.8974 106.854L73.6889 99.474Z" fill="#BCBEC0"/>
<path d="M85.8127 107.36L73.6254 100.001C73.3724 99.8535 73.1615 99.8536 73.0139 99.959L72.6133 100.296L72.8031 100.549V100.866C72.8031 101.393 73.1826 102.046 73.6254 102.321L85.8127 109.679L86.0868 110.017L86.4453 109.7C86.5507 109.595 86.614 109.447 86.614 109.215V108.815C86.6351 108.288 86.2766 107.634 85.8127 107.36Z" fill="#939598"/>
<path d="M73.2881 100.296C72.8453 100.022 72.4658 100.233 72.4658 100.76V101.161C72.4658 101.688 72.8453 102.342 73.2881 102.616L85.4754 109.975C85.9182 110.249 86.2978 110.038 86.2978 109.511V109.11C86.2978 108.583 85.9182 107.929 85.4754 107.655L73.2881 100.296Z" fill="#D1D3D4"/>
<path d="M108.016 165.492L92.2439 174.58V83.9131L108.016 74.8042V165.492Z" fill="#6836D3"/>
<path d="M106.687 126.758L93.5513 134.349V95.4467L106.687 87.856V126.758Z" fill="white"/>
<path d="M106.139 93.5913L93.9941 100.613V100.36L106.139 93.3594V93.5913Z" fill="#FF3F4A"/>
<path d="M106.139 100.655L93.9941 107.676V107.444L106.139 100.423V100.655Z" fill="#FF3F4A"/>
<path d="M106.139 107.739L93.9941 114.74V114.508L106.139 107.486V107.739Z" fill="#FF3F4A"/>
<path d="M106.139 114.803L93.9941 121.803V121.571L106.139 114.571V114.803Z" fill="#FF3F4A"/>
<path d="M106.139 121.867L93.9941 128.888V128.656L106.139 121.635V121.867Z" fill="#FF3F4A"/>
<path d="M106.687 87.856L93.5513 95.4467V91.6935L106.687 84.1028V87.856Z" fill="#E31B25"/>
<path d="M100.91 88.0667L96.1869 90.7867C95.5966 91.1241 95.1116 91.9675 95.1116 92.6423C95.1116 93.3381 95.5966 93.6122 96.1869 93.2748L100.91 90.5337C101.5 90.1964 101.985 89.3529 101.985 88.6782C101.985 88.0035 101.5 87.7294 100.91 88.0667Z" fill="white"/>
<path d="M103.967 86.3167L103.567 86.5487C102.976 86.886 102.491 87.7294 102.491 88.4042C102.491 89.1 102.976 89.3741 103.567 89.0157L103.967 88.7837C104.558 88.4464 105.043 87.6029 105.043 86.9282C105.043 86.2535 104.558 85.9794 103.967 86.3167Z" fill="white"/>
<path d="M103.061 140.759L103.103 140.696L102.639 140.422C101.985 140.085 101.121 140.127 100.151 140.696C98.169 141.835 96.5454 144.639 96.5454 146.937C96.5454 148.034 96.925 148.814 97.5154 149.214L98.0425 149.531L98.0847 149.468C98.6751 149.594 99.3709 149.467 100.151 149.025C102.133 147.886 103.757 145.082 103.757 142.783C103.714 141.877 103.461 141.181 103.061 140.759Z" fill="#BCBEC0"/>
<path d="M104.178 143.037C104.178 145.335 102.576 148.118 100.573 149.278C98.5906 150.416 96.967 149.489 96.967 147.19C96.967 144.892 98.5695 142.109 100.573 140.97C102.555 139.811 104.178 140.738 104.178 143.037Z" fill="#939598"/>
<path d="M103.841 143.226C103.841 145.314 102.386 147.844 100.573 148.877C99.4973 149.51 98.5485 149.446 97.937 148.856C98.4852 149.004 99.16 148.898 99.8769 148.476C101.669 147.443 103.145 144.913 103.145 142.826C103.145 141.982 102.913 141.35 102.513 140.949C103.314 141.181 103.841 141.982 103.841 143.226Z" fill="#BCBEC0"/>
<path d="M103.145 142.826C103.145 144.913 101.69 147.443 99.8769 148.476C99.1389 148.898 98.4641 149.004 97.937 148.856C97.5364 148.455 97.3044 147.823 97.3044 147C97.3044 144.913 98.7593 142.383 100.573 141.35C101.311 140.928 101.985 140.822 102.513 140.97C102.913 141.35 103.145 142.003 103.145 142.826Z" fill="#121214"/>
<path d="M39.8047 40.5828L39.0667 41.0045L106.519 74.8464L92.2439 83.0908L30.6959 45.833L30 46.2547L92.2439 83.9131L108.016 74.8042L39.8047 40.5828Z" fill="#C8AEFF"/>
</svg>
