<svg width="190" height="190" viewBox="0 0 190 190" fill="none" xmlns="http://www.w3.org/2000/svg">
<path d="M94.9999 190C144.208 190 184.1 167.605 184.1 139.98C184.1 112.355 144.208 89.96 94.9999 89.96C45.7913 89.96 5.8999 112.355 5.8999 139.98C5.8999 167.605 45.7913 190 94.9999 190Z" fill="black" fill-opacity="0.1"/>
<path d="M111.26 27.6007V115.763C111.26 118.187 109.555 121.134 107.46 122.336L71.4412 143.134L70.3217 146.4L66.9427 144.449C66.2546 144.048 65.8335 143.206 65.8335 141.994V47.9363C65.8335 45.5125 67.5384 42.5648 69.6336 41.3632L107.47 19.5177C108.497 18.9221 109.422 18.8604 110.11 19.2302L113.489 21.1713L111.26 27.6007Z" fill="#672A5C"/>
<path d="M72.8687 146.061L110.705 124.216C112.801 123.004 114.505 120.056 114.505 117.642V23.5848C114.505 21.161 112.801 20.1853 110.705 21.3972L72.8687 43.2426C70.7735 44.4545 69.0686 47.4022 69.0686 49.8158V143.873C69.0686 146.287 70.7633 147.273 72.8687 146.061Z" fill="#954A83"/>
<path d="M112.872 24.5195V112.538C112.872 113.935 111.897 115.629 110.695 116.318L72.8583 138.153C72.1496 138.564 71.5231 138.543 71.1328 138.163C70.8452 137.906 70.6809 137.475 70.6809 136.9V48.8812C70.6809 47.4844 71.6669 45.8001 72.8583 45.1017L110.695 23.2562C111.085 23.0303 111.455 22.9378 111.763 22.9686C112.431 23.02 112.872 23.5849 112.872 24.5195Z" fill="white"/>
<path d="M112.215 24.2422V112.261C112.215 113.658 111.229 115.342 110.038 116.04L72.2009 137.886C71.8106 138.112 71.4512 138.204 71.1328 138.173C70.8452 137.917 70.6809 137.485 70.6809 136.91V48.8915C70.6809 47.4947 71.6669 45.8103 72.8583 45.1119L110.695 23.2665C111.085 23.0405 111.455 22.9481 111.763 22.9789C112.051 23.2254 112.215 23.667 112.215 24.2422Z" fill="#E8E8E8"/>
<path fill-rule="evenodd" clip-rule="evenodd" d="M109.86 110.478L109.43 111.192L92.1597 121.163C75.6639 130.687 74.8753 131.125 74.5818 130.92C74.2983 130.722 74.2746 127.7 74.2746 91.7945C74.2746 54.3709 74.2876 52.8631 74.6141 52.3333C74.9249 51.8291 76.421 50.9353 92.3218 41.755L109.69 31.7275L109.99 32.0828C110.263 32.4065 110.29 35.8712 110.29 71.1009L110.29 109.764L109.86 110.478ZM109.324 32.839C108.976 32.6377 75.329 52.0963 75.0394 52.6668C74.8859 52.9689 74.843 63.3088 74.8774 91.6137L74.9243 130.149L92.0036 120.344C101.397 114.951 109.187 110.432 109.315 110.302C109.648 109.964 109.657 33.031 109.324 32.839ZM92.4677 118.627L76.5023 127.845L76.5023 91.6175L76.5023 55.39L82.907 51.6923L89.3118 47.9945L89.3118 46.5066C89.3118 45.1032 89.5241 44.3653 89.8611 44.5984C89.9413 44.654 90.0582 45.562 90.1214 46.616L90.2359 48.5328L85.6897 51.1575L81.1434 53.7823L81.1434 56.6762C81.1434 59.3727 81.1195 59.5839 80.792 59.773C80.2841 60.0663 80.2152 59.7197 80.2152 56.873L80.2152 54.3182L78.73 55.1757L77.2449 56.0331L77.2449 59.6981L77.2449 63.3633L79.1477 62.1901L81.0506 61.0171L81.1093 61.5727L81.1681 62.1282L79.2935 63.2105C77.7914 64.0778 77.3975 64.3697 77.3112 64.6794C77.2518 64.892 77.3058 65.1494 77.4311 65.2513C77.5817 65.3738 77.6101 65.7014 77.5146 66.2185C77.3305 67.2176 77.3323 75.1234 77.517 76.0797C77.6138 76.5802 77.5911 76.8408 77.4433 76.9262C77.2078 77.0622 77.2709 84.8322 77.518 86.129C77.6028 86.5737 77.5772 86.9263 77.4484 87.0929C77.3242 87.2531 77.2449 88.1435 77.2449 89.3793L77.2449 91.4031L83.3398 87.8842L89.4347 84.3653L89.6851 84.7609C89.8774 85.0649 89.8847 85.2446 89.7165 85.536C89.5548 85.816 89.4974 88.3769 89.4974 95.3045L89.4974 104.694L87.7447 105.706C85.9653 106.733 85.5571 106.793 85.9768 105.967C86.1304 105.664 86.5752 105.309 87.3851 104.841L88.5692 104.158L88.5692 95.4657L88.5692 86.7737L88.0587 86.5497L87.5481 86.3255L82.3965 89.2931L77.2449 92.2605L77.2449 93.9628C77.2449 94.9654 77.3284 95.6764 77.4484 95.6927C77.5772 95.7103 77.6028 96.034 77.5183 96.576C77.2878 98.0549 77.2089 105.616 77.4226 105.739C77.5291 105.801 77.6162 106.15 77.6162 106.516C77.6162 106.881 77.5291 107.331 77.4226 107.516C77.2089 107.886 77.2878 115.356 77.5183 116.568C77.6028 117.013 77.5772 117.366 77.4484 117.532C77.3136 117.707 77.2449 119.048 77.2449 121.508C77.2449 125.483 77.2924 125.665 78.2336 125.287C78.4512 125.2 78.7104 125.175 78.8097 125.233C78.917 125.295 80.9281 124.218 83.7796 122.572L88.5692 119.806L88.5692 114.447L88.5692 109.088L87.2806 109.832C86.5531 110.252 85.9379 110.506 85.8673 110.415C85.602 110.072 86.1972 109.503 87.785 108.581L89.4046 107.641L89.454 113.454L89.5033 119.267L92.8737 117.321C95.7024 115.688 96.297 115.289 96.5723 114.843C96.873 114.355 96.9358 114.319 97.3243 114.408C97.6869 114.492 98.4559 114.098 102.627 111.69L107.505 108.874L107.502 104.749C107.501 102.48 107.449 100.436 107.388 100.206C107.293 99.8534 107.149 99.8614 106.462 100.258L105.648 100.728L105.648 98.9202C105.648 97.33 105.606 97.1216 105.294 97.1873C105.099 97.2283 104.893 97.148 104.836 97.0087C104.772 96.8526 104.48 96.9008 104.076 97.134L103.421 97.5124L103.421 99.2132C103.421 100.909 103.422 100.913 103.931 100.687C104.298 100.524 104.442 100.58 104.442 100.889C104.442 101.273 104.3 101.406 103.054 102.182C101.076 103.416 101.007 103.558 101.007 106.442L101.007 108.767L102.11 108.13C103.295 107.446 103.698 107.521 103.135 108.321C102.886 108.675 102.079 109.22 100.18 110.316C97.6516 111.776 97.5623 111.843 97.3849 112.411C97.2841 112.734 97.0596 113.11 96.8859 113.249C96.6204 113.459 96.5614 113.29 96.5146 112.178L96.4591 110.857L95.0667 111.66L93.6744 112.464L93.6137 113.142C93.4641 114.815 92.6519 114.762 92.6561 113.08C92.6599 111.638 92.855 111.156 93.4303 111.167C93.6666 111.171 94.6537 110.742 95.6237 110.212L97.3873 109.249L97.4448 110.019L97.5026 110.79L98.7908 110.046L100.079 109.302L100.079 107.13C100.079 105.076 100.053 104.944 99.6054 104.724C99.1528 104.501 99.0124 104.559 96.447 106.04C94.6657 107.069 93.641 107.748 93.4019 108.058C93.2036 108.316 92.9751 108.488 92.8938 108.442C92.8126 108.395 92.7196 106.843 92.6871 104.992C92.6266 101.538 92.7607 100.562 93.3059 100.489C93.532 100.459 93.5816 101.007 93.5816 103.538L93.5816 106.623L96.2537 105.08L98.9257 103.537L98.7399 102.799C98.6046 102.262 98.4458 102.106 98.1562 102.225C97.7976 102.373 97.7532 102.24 97.704 100.867C97.6637 99.7413 97.7122 99.2992 97.8896 99.1727C98.0218 99.0784 98.2206 98.9379 98.3317 98.8605C98.4429 98.7828 98.6784 98.4686 98.8555 98.1619C99.2411 97.494 99.8799 97.0905 100.352 97.2165C100.789 97.333 101.013 98.9458 100.873 100.966L100.768 102.474L101.63 101.976L102.492 101.478L102.492 99.2274L102.492 96.9765L103.235 96.5478L103.978 96.1191L103.978 95.0473L103.978 93.9755L100.079 96.2263L96.1806 98.4771L96.178 99.3896C96.1745 100.693 96.0033 101.366 95.6194 101.588C95.3326 101.753 95.2689 101.511 95.1549 99.8204C95.0042 97.5859 95.1894 94.1891 95.4828 93.8105C95.8373 93.3528 96.1806 94.034 96.1806 95.1954L96.1806 96.3334L100.079 94.0826L103.978 91.8318L103.978 90.88C103.978 89.9351 103.973 89.9308 103.281 90.2637L102.585 90.5992L102.533 88.3253L102.48 86.0513L98.0307 88.62L93.5816 91.1887L93.5816 94.0651C93.5816 97.0747 93.5107 97.6606 93.1193 97.8865C92.7427 98.104 92.6586 97.3999 92.656 94.0074C92.6535 91.0345 92.6769 90.8064 93.015 90.509C93.2868 90.27 93.3904 89.9628 93.4327 89.2697L93.4888 88.3484L98.5476 85.3707L103.606 82.393L103.606 83.361L103.606 84.3291L105.101 83.4661L106.596 82.6029L106.54 83.7439C106.474 85.0877 106.106 85.606 105.784 84.808C105.576 84.2908 105.524 84.2941 104.494 84.8885L103.421 85.5081L103.421 87.3173L103.421 89.1263L104.117 88.7911L104.813 88.4556L104.869 89.5371L104.925 90.6184L105.704 90.2337C106.341 89.9193 106.484 89.9274 106.484 90.2777C106.484 90.6288 106.341 90.8008 105.695 91.2277L104.906 91.7493L104.906 93.6661L104.906 95.5832L106.186 94.8438L107.467 94.1045L107.475 66.34L107.482 38.5755L103.595 40.8199L99.7078 43.0641L99.7078 44.2431L99.7078 45.4221L97.8514 46.494L95.995 47.5658L95.995 46.3868C95.995 45.4817 95.9303 45.2451 95.7165 45.3685C95.2993 45.6094 95.307 41.5767 95.7245 41.1506C96.1433 40.7234 96.1875 40.8199 96.3092 42.4287L96.4201 43.8905L101.565 40.92C104.395 39.2861 107.098 37.7868 107.572 37.5884L108.433 37.2275L108.433 73.3185L108.433 109.41L92.4677 118.627ZM106.71 42.6875C106.041 44.2233 104.592 45.0523 104.074 44.1951C103.676 43.5362 103.721 43.0205 104.273 41.9457C105.04 40.4486 106.287 39.9262 106.853 40.8637C107.217 41.4656 107.211 41.5364 106.71 42.6875ZM106.205 66.4298C106.103 66.5616 106.02 66.9048 106.02 67.1927C106.02 67.6894 105.963 67.7486 104.906 68.359L103.792 69.0021L103.792 61.285L103.792 53.5679L104.804 52.9835C105.779 52.4207 105.828 52.4202 106.126 52.9724C106.377 53.4396 106.391 53.6312 106.199 54.0091C106.01 54.381 106.01 54.5447 106.196 54.8399C106.373 55.119 106.378 55.3462 106.218 55.7848C106.069 56.1919 106.064 56.4522 106.2 56.6673C106.336 56.8825 106.33 57.1682 106.179 57.6374C106.013 58.1547 106.019 58.3464 106.206 58.4987C106.4 58.6569 106.402 58.818 106.214 59.331C106.035 59.8226 106.031 60.0452 106.199 60.3109C106.367 60.5755 106.365 60.7567 106.191 61.0992C106.016 61.4428 106.015 61.6406 106.184 61.9711C106.351 62.2986 106.351 62.4989 106.184 62.8286C106.02 63.1511 106.017 63.3608 106.174 63.6675C106.33 63.9719 106.328 64.2461 106.169 64.7414C106.007 65.2457 106.008 65.437 106.173 65.5323C106.44 65.6862 106.455 66.1075 106.205 66.4298ZM106.027 41.2455C105.553 41.0237 104.779 41.6826 104.502 42.5443C104.062 43.9134 105.348 44.1965 106.099 42.8958C106.499 42.2042 106.466 41.4504 106.027 41.2455ZM105.929 42.8996C105.55 43.4818 104.772 43.6677 104.623 43.2115C104.482 42.7805 104.978 41.7362 105.454 41.4612C106.152 41.0587 106.48 42.0538 105.929 42.8996ZM105.187 108.847C105.03 109.007 104.777 109.091 104.625 109.034C104.405 108.95 104.349 108.323 104.349 105.939L104.349 102.95L104.859 102.723L105.37 102.496L105.422 105.526C105.465 108.094 105.43 108.599 105.187 108.847ZM104.813 63.2679L104.349 63.5358L104.349 65.7867L104.349 68.0375L104.813 67.7695L105.277 67.5016L105.277 65.2508L105.277 62.9999L104.813 63.2679ZM104.813 53.6215L104.349 53.8895L104.349 56.1403L104.349 58.3911L104.813 58.1232L105.277 57.8552L105.277 55.6044L105.277 53.3536L104.813 53.6215ZM104.789 87.3781C104.299 87.8786 103.953 87.5689 104.015 86.6842C104.063 85.9964 104.143 85.8319 104.581 85.5207C105.07 85.173 105.092 85.1977 105.092 86.1141C105.092 86.799 105.006 87.1573 104.789 87.3781ZM102.608 77.5594C102.478 77.7253 102.317 78.0633 102.251 78.3107C102.184 78.5581 101.982 78.8991 101.801 79.0685C101.62 79.2377 101.339 79.5337 101.176 79.7258C101.014 79.9181 100.763 80.0573 100.62 80.0351C100.475 80.0128 100.191 80.0898 99.9863 80.2058C99.7821 80.322 99.3932 80.2241 99.1221 79.9883C98.7349 79.6516 98.6382 79.3542 98.6706 78.6006C98.6935 78.0731 98.8108 77.5466 98.9315 77.4305C99.0521 77.3145 99.1509 77.0862 99.1509 76.9233C99.1509 76.7604 99.318 76.4274 99.5222 76.1833C99.7264 75.9391 99.8935 75.803 99.8935 75.8804C99.8935 75.958 100.016 75.8336 100.165 75.6038C100.644 74.8686 101.852 74.5618 102.353 75.0478C102.847 75.5265 103.002 77.056 102.608 77.5594ZM102.45 48.9906C102.255 49.3825 101.79 50.0342 101.418 50.4386C100.854 51.0509 100.632 51.1937 100.088 51.2918C99.7283 51.3566 99.3495 51.2803 99.2461 51.1222C99.1427 50.9641 98.9812 50.8151 98.8873 50.7911C98.5205 50.6972 98.6582 48.9416 99.1075 47.9827C99.8014 46.5017 101.713 45.2949 102.2 46.0308C102.31 46.1971 102.497 46.3495 102.615 46.3694C102.962 46.428 102.851 48.1869 102.45 48.9906ZM98.5459 68.9782L94.7849 75.4885L90.9031 73.2435L87.0211 70.9986L90.785 64.362C92.8553 60.7118 94.6089 57.6644 94.6823 57.5897C94.8807 57.3875 102.307 61.869 102.307 62.1911C102.307 62.3433 100.614 65.3977 98.5459 68.9782ZM101.628 76.0025C101.249 75.7372 100.213 76.3037 99.8138 76.9948C99.0909 78.2471 99.7008 79.5636 100.729 78.97C101.767 78.3709 102.335 76.4959 101.628 76.0025ZM101.644 46.9991C101.262 46.779 100.291 47.3493 99.8617 48.0461C99.4387 48.7323 99.4216 49.8198 99.8294 50.1046C100.212 50.3721 101.145 49.853 101.596 49.1219C102.016 48.4413 102.043 47.2297 101.644 46.9991ZM101.215 62.2601C100.893 62.1096 100.842 62.1374 100.565 62.6172C100.191 63.2657 100.191 63.3437 100.573 63.6104C100.862 63.8119 100.904 63.7898 101.223 63.2726C101.65 62.58 101.649 62.4628 101.215 62.2601ZM100.99 72.7638C100.892 72.8199 100.733 73.1529 100.636 73.5037C100.53 73.8854 100.313 74.2261 100.095 74.3522C99.894 74.4681 99.6781 74.6892 99.615 74.8435C99.4617 75.2184 98.594 75.7087 98.594 75.4204C98.594 75.2956 98.5121 75.2989 98.4122 75.428C98.1579 75.7564 97.4801 75.6933 97.4801 75.3413C97.4801 75.1811 97.3661 75.0656 97.2269 75.0842C97.067 75.1056 96.9739 74.7761 96.9739 74.19C96.9739 73.1581 97.6594 71.4709 98.2076 71.1544C98.3792 71.0554 98.6003 70.8347 98.6985 70.6646C98.9784 70.1797 100.191 70.0579 100.652 70.468C101.068 70.8388 101.323 72.5713 100.99 72.7638ZM100.728 55.6429C100.105 56.8983 99.2599 57.66 98.2691 57.8597C97.7337 57.9678 97.4801 57.8964 97.4801 57.6383C97.4801 57.4291 97.3622 57.2738 97.2182 57.2933C96.9028 57.3356 96.8747 55.4819 97.1847 55.0699C97.2961 54.9218 97.4803 54.5539 97.5941 54.2524C97.7079 53.9509 97.9585 53.603 98.151 53.4794C98.3435 53.3556 98.653 53.0918 98.8385 52.8932C99.2421 52.4611 99.9876 52.4308 100.625 52.821C101.262 53.2105 101.308 54.473 100.728 55.6429ZM99.3611 64.7328C98.8841 65.352 98.8671 65.5771 99.2751 65.8622C99.5753 66.072 99.5985 66.056 100.022 65.3517C100.451 64.6386 100.453 64.621 100.108 64.422C99.8034 64.2461 99.7039 64.2875 99.3611 64.7328ZM99.2586 61.9678L98.8828 62.6188L99.2887 62.8533C99.6854 63.0821 99.7036 63.0734 100.075 62.47L100.456 61.8523L100.045 61.5845L99.6345 61.3169L99.2586 61.9678ZM99.6837 71.319C98.4592 70.9751 97.1742 73.785 98.2386 74.4787C98.5645 74.6912 98.7187 74.6467 99.2133 74.1985C99.5363 73.9057 99.9087 73.4345 100.041 73.1515C100.41 72.3599 100.238 71.4747 99.6837 71.319ZM99.8935 53.6751C99.1249 53.2314 97.8514 54.5662 97.8514 55.8155C97.8514 56.8702 98.3822 57.0652 99.3365 56.3607C100.225 55.7049 100.566 54.0631 99.8935 53.6751ZM99.8935 98.2627C99.7828 98.3266 99.7078 99.1916 99.7078 100.406C99.7078 101.621 99.7828 102.4 99.8935 102.336C100.004 102.272 100.079 101.407 100.079 100.192C100.079 98.9772 100.004 98.1988 99.8935 98.2627ZM98.9892 92.6954C98.4145 92.9781 97.8815 93.2372 97.805 93.2708C97.7285 93.3047 97.6657 92.6541 97.6657 91.8252C97.6657 90.2014 97.9171 89.6483 98.6099 89.748C98.8251 89.779 98.9888 89.6966 99.0605 89.5217C99.1223 89.3705 99.3787 89.1279 99.6304 88.9826C100.081 88.7224 100.088 88.7452 100.061 90.4499L100.034 92.1817L98.9892 92.6954ZM99.0414 109.275C98.8344 109.592 98.661 109.711 98.4501 109.679C98.2242 109.645 98.1406 109.228 98.1061 107.961C98.0472 105.808 98.1132 105.523 98.7419 105.215L99.2437 104.97L99.289 106.897C99.325 108.439 99.2757 108.915 99.0414 109.275ZM98.8117 66.4447C98.4941 66.2964 98.4466 66.3331 98.0662 67.02L97.66 67.754L98.0341 67.929C98.3953 68.0977 98.4213 68.0829 98.7796 67.5016C99.2365 66.7604 99.24 66.645 98.8117 66.4447ZM98.7731 63.6399C98.405 63.4679 98.3848 63.4813 97.9891 64.1665L97.5833 64.8696L97.9891 65.1041C98.3847 65.3325 98.405 65.3226 98.7731 64.7255C98.9809 64.3884 99.1509 64.046 99.1509 63.9646C99.1509 63.8831 98.9809 63.7371 98.7731 63.6399ZM98.0408 61.279L97.66 61.8967L98.0781 62.1694L98.4963 62.4417L98.8329 61.7675C99.1591 61.114 99.158 61.0867 98.7954 60.8774C98.4306 60.6666 98.412 60.6767 98.0408 61.279ZM96.8393 69.1481L96.3748 69.92L96.7734 70.089C97.1636 70.2547 97.181 70.243 97.6091 69.5315L98.0461 68.805L97.6748 68.5906L97.3036 68.3763L96.8393 69.1481ZM97.4463 64.2387L98.0422 63.1845L97.6219 62.9736L97.2016 62.7626L96.5983 63.7356C96.0694 64.5889 95.995 64.8417 95.995 65.7867C95.995 66.7316 96.0694 66.8985 96.5983 67.141L97.2016 67.4173L97.6219 66.7211L98.0422 66.0248L97.4463 65.6587L96.8504 65.2928L97.4463 64.2387ZM97.5442 60.1396C97.1482 59.8629 96.9835 59.9692 96.7292 60.6646C96.5641 61.1163 96.5875 61.2762 96.8458 61.4564C97.1482 61.6679 97.1911 61.6468 97.5102 61.129C97.9271 60.4527 97.9286 60.4083 97.5442 60.1396ZM97.0494 79.904C96.9135 80.0772 96.7518 80.407 96.6902 80.637C96.6284 80.8671 96.2691 81.3513 95.8919 81.7129C94.4779 83.0682 93.0618 82.7552 93.0618 81.0875C93.0618 80.152 93.7897 78.4211 94.3091 78.1212C94.4807 78.0222 94.7179 77.7735 94.8362 77.5687C94.9841 77.3124 95.1256 77.2216 95.291 77.2765C95.4228 77.3207 95.7605 77.2876 96.0414 77.2028C96.3222 77.118 96.5519 77.1366 96.5519 77.244C96.5519 77.3511 96.6829 77.5145 96.8432 77.6072C97.2321 77.8317 97.3802 79.4826 97.0494 79.904ZM96.8304 53.1111C96.1594 54.6168 94.1745 55.9442 93.6896 55.2115C93.5792 55.0444 93.3889 54.8912 93.2667 54.8708C92.8873 54.808 93.0518 53.0839 93.5352 52.0573C94.0368 50.9922 95.2442 49.9047 95.723 50.087C95.8726 50.144 95.995 50.1272 95.995 50.0496C95.995 49.9722 96.162 49.9154 96.3662 49.9238C96.5705 49.9321 96.7375 50.0721 96.7375 50.235C96.7375 50.3979 96.8352 50.5124 96.9544 50.4895C97.3242 50.4183 97.2403 52.1913 96.8304 53.1111ZM96.3597 70.8211C95.9916 70.6491 95.9714 70.6625 95.5825 71.3363C95.1963 72.0051 95.1941 72.036 95.5178 72.2622C95.8368 72.4849 95.8737 72.4665 96.2894 71.8778C96.827 71.1164 96.8318 71.042 96.3597 70.8211ZM96.2164 67.7488C96.0629 67.631 95.7464 67.6451 95.513 67.7798C95.2797 67.9145 95.0326 67.9524 94.9639 67.8638C94.874 67.7479 94.7827 67.8006 94.6373 68.0524C94.5263 68.2447 94.2688 68.4981 94.0652 68.6157C93.8613 68.7334 93.4605 69.224 93.1741 69.706L92.6537 70.5824L93.0595 70.8471L93.4656 71.1116L94.065 70.0947L94.6643 69.078L95.3337 69.281C95.9779 69.4765 96.0167 69.462 96.3659 68.8956C96.7349 68.2969 96.7132 68.13 96.2164 67.7488ZM95.4776 62.9334C95.1894 63.4185 94.8787 63.8588 94.787 63.9117C94.6953 63.9647 94.3605 63.8672 94.0429 63.6952L93.4656 63.3825L93.0595 64.1157L92.6537 64.849L93.1863 65.1308C93.5836 65.3409 93.9425 65.3009 94.5976 64.9733C95.356 64.5939 95.5643 64.3937 96.1186 63.5116L96.7609 62.4895L96.3813 62.2704L96.0016 62.051L95.4776 62.9334ZM95.5457 59.8241L95.17 60.4752L95.5758 60.7097C95.9725 60.9385 95.9907 60.9297 96.3625 60.3264L96.7433 59.7087L96.3325 59.4409L95.9216 59.1732L95.5457 59.8241ZM96.0772 78.4344C95.7265 78.0588 94.7901 78.5355 94.2924 79.3431C93.8693 80.0294 93.8522 81.1169 94.2601 81.4016C94.7016 81.7101 95.713 81.079 96.0772 80.2681C96.2361 79.9144 96.3662 79.4266 96.3662 79.1844C96.3662 78.9421 96.2361 78.6046 96.0772 78.4344ZM96.059 51.1363C95.6794 50.871 94.6436 51.4375 94.2445 52.1286C93.863 52.7896 93.8714 53.9061 94.2601 54.1775C94.7016 54.486 95.713 53.8549 96.0772 53.0439C96.4528 52.208 96.4451 51.406 96.059 51.1363ZM94.3242 73.5037L93.9397 74.1274L94.311 74.3418C94.6745 74.5514 94.6906 74.5428 95.0667 73.9325L95.4512 73.3088L95.0799 73.0944C94.7164 72.8848 94.7003 72.8934 94.3242 73.5037ZM95.0602 70.0708C94.6921 69.8988 94.6719 69.9122 94.2763 70.5974L93.8704 71.3005L94.2763 71.535C94.6719 71.7634 94.6921 71.7535 95.0602 71.1564C95.268 70.8193 95.438 70.4769 95.438 70.3955C95.438 70.314 95.268 70.168 95.0602 70.0708ZM95.0667 61.4994C94.7084 61.3318 94.6824 61.347 94.3212 61.9328L93.9471 62.5398L94.3533 62.8048C94.7337 63.0525 94.7812 63.0342 95.0988 62.5192C95.5271 61.8244 95.5236 61.713 95.0667 61.4994ZM95.0667 58.7127C94.7084 58.545 94.6824 58.56 94.3227 59.1437C93.9737 59.7099 93.9696 59.7624 94.2586 59.9642C94.6169 60.2148 94.9023 60.0908 95.2152 59.5487C95.5178 59.0246 95.4984 58.9145 95.0667 58.7127ZM93.8313 72.3583C93.4353 72.0817 93.2706 72.1879 93.0163 72.8833C92.8513 73.335 92.8746 73.495 93.1329 73.6751C93.4353 73.8866 93.4782 73.8655 93.7973 73.3477C94.2143 72.6714 94.2157 72.627 93.8313 72.3583ZM93.8708 60.6767C93.6074 60.4195 93.5962 60.4268 93.1863 61.1306C92.7796 61.8287 92.7779 61.8515 93.1128 62.0858C93.4344 62.3102 93.478 62.2902 93.7973 61.7721C94.2085 61.1051 94.2146 61.0126 93.8708 60.6767ZM92.8941 65.8076C92.2616 65.6186 92.1993 65.6402 91.8798 66.1585C91.4353 66.8794 91.4411 66.9097 92.1087 67.3682L92.6779 67.7592L92.0699 68.8346L91.4619 69.9099L91.8417 70.1292L92.2216 70.3485L92.9016 69.2607C93.5185 68.2739 93.581 68.0725 93.5749 67.0908C93.5686 66.1011 93.5105 65.9917 92.8941 65.8076ZM91.8328 72.0429L91.4571 72.6939L91.8629 72.9284C92.2596 73.1572 92.2778 73.1484 92.6496 72.5451L93.0304 71.9274L92.6196 71.6596L92.2087 71.3919L91.8328 72.0429ZM91.8696 63.4049L91.4571 64.1193L91.8313 64.3354L92.2056 64.5515L92.6328 63.8455L93.0599 63.1393L92.671 62.9147L92.2821 62.6904L91.8696 63.4049ZM92.495 77.1127C92.397 77.2391 92.3587 77.503 92.4098 77.6988C92.5156 78.1055 91.7851 79.7928 91.4092 80.0099C91.2738 80.088 90.9972 80.3673 90.7943 80.6309C90.5008 81.0119 90.3504 81.0987 90.0569 81.0566C89.854 81.0274 89.5408 81.0879 89.3608 81.1912C88.8553 81.481 88.3002 80.5534 88.3603 79.5193C88.3889 79.0312 88.5154 78.4759 88.6414 78.2852C88.7675 78.0945 88.9254 77.7382 88.9926 77.4929C89.0608 77.244 89.3053 76.9373 89.5473 76.7975C89.7853 76.6601 90.0824 76.3705 90.2075 76.1538C90.387 75.8429 90.5118 75.7708 90.799 75.8123C90.9993 75.8412 91.2814 75.7964 91.4259 75.713C91.5703 75.6296 91.8833 75.8105 92.1215 76.1152C92.7009 76.856 92.6987 76.8497 92.495 77.1127ZM92.1293 59.9466C91.7871 60.8145 90.6098 62.0887 90.2077 62.0263C90.0723 62.0054 89.7709 62.0969 89.5381 62.2294C89.3051 62.3622 89.0597 62.3335 88.9926 62.166C88.9254 61.9985 88.7691 61.8234 88.6453 61.777C88.5213 61.7307 88.3832 61.3281 88.3384 60.8823C88.2746 60.2465 88.3553 59.8651 88.7136 59.1116C88.9648 58.5833 89.2867 58.084 89.4291 58.0018C89.5715 57.9196 89.8429 57.6513 90.0322 57.4054C90.2376 57.1387 90.5173 56.9476 90.726 56.9315C90.9181 56.9166 91.1689 56.834 91.2835 56.7477C91.3978 56.6613 91.711 56.7965 91.9797 57.0478C92.5516 57.5836 92.6105 58.7261 92.1293 59.9466ZM91.6071 53.9819C91.4678 54.1958 91.3538 54.497 91.3538 54.6515C91.3538 54.8061 91.1658 55.1018 90.9362 55.3086C90.7065 55.5155 90.3287 55.9022 90.097 56.1677C89.782 56.5284 89.6201 56.6184 89.4566 56.524C89.3361 56.4545 89.0929 56.481 88.916 56.5832C88.1142 57.0461 87.3551 55.0518 87.9126 53.947C88.0384 53.6975 88.1933 53.2945 88.2567 53.0517C88.3201 52.8089 88.5248 52.5217 88.7119 52.4137C88.8989 52.3058 89.1464 52.0538 89.2618 51.8538C89.418 51.5834 89.689 51.4389 90.32 51.2898C90.7865 51.1795 91.1682 51.1609 91.1682 51.2483C91.1682 51.336 91.3254 51.4894 91.5176 51.5894C91.9351 51.8068 91.9943 53.3872 91.6071 53.9819ZM91.2517 76.9623C90.886 76.7511 90.6642 76.786 90.2771 77.1151C89.2165 78.0171 88.7864 79.6313 89.4974 80.0418C90.0317 80.3503 90.8697 79.8045 91.3403 78.8417C91.8495 77.8002 91.8258 77.2937 91.2517 76.9623ZM91.3538 70.9314C90.9956 70.7638 90.9696 70.779 90.6083 71.3648L90.2342 71.9718L90.6404 72.2368C91.0208 72.4844 91.0683 72.4662 91.386 71.9512C91.8142 71.2564 91.8107 71.145 91.3538 70.9314ZM91.3474 67.9272C90.9792 67.7552 90.959 67.7686 90.5634 68.4538L90.1576 69.1569L90.5634 69.3914C90.959 69.6198 90.9792 69.6098 91.3474 69.0127C91.5551 68.6756 91.7251 68.3333 91.7251 68.2518C91.7251 68.1704 91.5551 68.0244 91.3474 67.9272ZM90.6113 65.5841C90.2649 66.1841 90.26 66.2486 90.5385 66.547L90.837 66.8666L91.2857 66.1207L91.7342 65.3752L91.3585 65.158C90.9826 64.9412 90.9826 64.9412 90.6113 65.5841ZM91.3466 58.0071C90.615 57.5225 89.1261 58.9969 89.1261 60.2059C89.1261 61.0512 89.6415 61.309 90.4256 60.8563C91.6069 60.1743 92.138 58.5309 91.3466 58.0071ZM90.6534 52.311C89.9986 51.8282 88.5692 53.3791 88.5692 54.5725C88.5692 55.8121 89.9981 55.8058 90.6512 54.5631C91.2167 53.487 91.2174 52.7271 90.6534 52.311ZM89.6016 70.1934C89.1345 70.6702 89.0494 71.273 89.4135 71.5271C89.7439 71.758 89.7482 71.7553 90.1832 71.0323C90.6161 70.3127 90.6168 70.3033 90.26 70.0975C90.0508 69.9767 89.7746 70.017 89.6016 70.1934ZM90.1171 67.2126C89.8286 67.0111 89.7861 67.0333 89.4673 67.5504C89.0522 68.2238 89.0339 68.593 89.4081 68.7355C89.6389 68.8233 89.7568 68.7345 90.0579 68.2462C90.5036 67.523 90.5058 67.4842 90.1171 67.2126ZM88.1979 69.7524L87.8134 70.3761L88.1847 70.5904C88.5482 70.8001 88.5644 70.7914 88.9405 70.1811L89.3249 69.5574L88.9537 69.3431C88.5902 69.1334 88.574 69.1421 88.1979 69.7524ZM88.5748 74.5618C88.4946 74.758 88.4736 75.0893 88.528 75.2982C88.5831 75.5099 88.5115 75.8516 88.3661 76.0697C88.2226 76.285 88.0119 76.7057 87.8981 77.0044C87.7843 77.3031 87.5337 77.6446 87.3411 77.763C87.1486 77.8815 86.8394 78.1451 86.6539 78.3489C86.4495 78.5737 86.2336 78.6719 86.1062 78.5984C85.9906 78.5316 85.7554 78.5581 85.5838 78.6571C85.4121 78.7563 85.0564 78.6358 84.7936 78.3895C84.3989 78.02 84.3356 77.7849 84.4308 77.0448C84.5765 75.9129 85.1788 74.6037 85.6895 74.3089C85.9052 74.1843 86.1621 73.943 86.2603 73.7729C86.5394 73.2896 87.8708 73.1378 88.0407 73.5699C88.1205 73.7731 88.2632 73.8947 88.3577 73.8402C88.6082 73.6956 88.7441 74.1479 88.5748 74.5618ZM88.4814 66.4007C88.3098 66.5758 88.0943 66.9903 88.0026 67.3219C87.9109 67.6535 87.6833 68.013 87.4971 68.1205C87.3107 68.2282 87.0683 68.4721 86.958 68.6631C86.6656 69.1695 85.331 69.3681 84.8944 68.9703C84.4167 68.5348 84.1986 67.0552 84.5582 66.6881C84.7037 66.5395 84.8738 66.1545 84.9359 65.8324C85.0143 65.4264 85.179 65.1717 85.4725 65.0022C85.7054 64.8677 85.9982 64.5805 86.1233 64.3638C86.3028 64.0529 86.4276 63.9809 86.7148 64.0223C86.9151 64.0512 87.2498 63.976 87.4587 63.8555C87.6675 63.7349 87.892 63.7742 87.9577 63.9425C88.0234 64.1108 88.1888 64.262 88.3253 64.2782C88.4619 64.2945 88.5614 64.5747 88.5465 64.9007C88.5319 65.2269 88.5813 65.6262 88.6564 65.7882C88.7496 65.9884 88.6938 66.184 88.4814 66.4007ZM87.4418 74.5051C86.955 74.0713 86.2817 74.4452 85.6833 75.4818C85.1188 76.4594 85.0991 77.2817 85.634 77.548C86.2924 77.8763 87.3085 77.0426 87.6397 75.9021C87.886 75.054 87.861 74.8783 87.4418 74.5051ZM87.3709 65.0755C86.8121 64.7527 86.3589 64.9944 85.7066 65.9637C85.0503 66.9385 85.1054 67.881 85.8306 68.0848C86.456 68.2605 87.2283 67.5923 87.5879 66.5639C87.9205 65.6126 87.8856 65.3725 87.3709 65.0755ZM86.6407 82.7062C86.5117 82.8709 86.3543 83.1989 86.2908 83.4353C86.1655 83.9021 84.8509 85.2083 84.4525 85.2617C84.3172 85.2798 84.1648 85.3228 84.1137 85.3572C83.8514 85.5339 83.1855 85.348 83.1855 85.098C83.1855 84.9398 83.0686 84.7658 82.9256 84.7113C82.7825 84.6567 82.672 84.2515 82.6794 83.8091C82.7073 82.1859 84.3417 79.9102 85.5087 79.8697C86.3329 79.841 86.8518 80.4707 86.8642 81.5154C86.8704 82.0177 86.7727 82.5378 86.6407 82.7062ZM86.6045 61.9199C86.4597 62.0676 86.3415 62.3646 86.3415 62.5798C86.3415 62.8025 86.1618 63.1328 85.9238 63.3472C85.6939 63.5543 85.3163 63.9408 85.0846 64.2064C84.7696 64.567 84.6077 64.6571 84.4442 64.5626C84.3237 64.4931 84.0905 64.5139 83.9259 64.6089C83.2186 65.0173 82.2669 62.849 82.8328 62.1185C82.9373 61.9835 83.099 61.5974 83.1924 61.2603C83.3097 60.8363 83.5067 60.5637 83.8306 60.3767C84.0885 60.2278 84.2994 60.0096 84.2994 59.8917C84.2994 59.6066 84.9872 59.2187 85.1409 59.4172C85.2072 59.503 85.3585 59.477 85.4767 59.3594C85.7875 59.0505 86.3415 59.1069 86.3415 59.4475C86.3415 59.6076 86.4597 59.7229 86.6045 59.7033C86.7788 59.6799 86.8674 60.002 86.8674 60.6598C86.8674 61.3177 86.7788 61.7421 86.6045 61.9199ZM86.6858 55.6392C86.586 55.7681 86.428 56.1495 86.3346 56.4866C86.2414 56.8238 86.0364 57.1739 85.8794 57.2645C85.7223 57.3552 85.439 57.6305 85.2497 57.8763C85.0451 58.1419 84.7637 58.3346 84.5559 58.351C84.2019 58.3794 84.022 58.4284 83.6032 58.6113C83.4755 58.6672 83.3712 58.5727 83.3712 58.4018C83.3712 58.2308 83.2347 58.0815 83.0678 58.07C82.2539 58.0138 82.9199 54.7166 83.859 54.1527C84.0762 54.0224 84.3597 53.7076 84.4889 53.4532C84.6994 53.0386 84.7564 53.0057 85.0368 53.1369C85.2088 53.2174 85.5337 53.1768 85.7585 53.047C85.9835 52.9171 86.2212 52.9489 86.2869 53.1171C86.3526 53.2854 86.51 53.4361 86.6368 53.4516C86.9095 53.4852 86.9502 55.298 86.6858 55.6392ZM85.946 81.3666C85.8307 81.1408 85.4912 80.9803 85.1918 81.01C84.7202 81.0567 84.5799 81.1603 84.1483 81.7799C83.4976 82.7142 83.3893 83.8037 83.9171 84.1084C84.4616 84.4228 85.2965 83.8853 85.771 82.9146C86.2171 82.0024 86.2267 81.9158 85.946 81.3666ZM85.6347 60.3533C85.2575 60.0639 84.3846 60.6015 83.9171 61.4112C83.3893 62.3253 83.4976 63.2899 84.1483 63.4728C84.5845 63.5952 84.7173 63.5387 85.2066 63.0221C86.0921 62.0873 86.2898 60.8557 85.6347 60.3533ZM85.737 54.1748C85.1888 53.9659 84.4774 54.3633 84.0107 55.1391C82.809 57.1365 84.4093 58.3918 85.6306 56.4103C86.0259 55.769 86.0953 54.3111 85.737 54.1748ZM83.9769 99.7771C83.8507 99.9711 83.5575 100.184 83.3257 100.251C83.0936 100.318 82.7838 100.527 82.6371 100.717C82.4827 100.916 82.2411 101.056 82.0644 101.049C81.8142 101.039 81.7538 100.64 81.7312 98.8449C81.7159 97.6396 81.775 96.4829 81.8622 96.2749C81.9495 96.0668 82.2196 95.8144 82.4628 95.7138C82.7815 95.5819 82.9377 95.6909 83.0231 96.1057C83.1417 96.6814 83.2017 96.5904 83.2516 95.7594C83.2689 95.474 83.4111 95.2386 83.6496 95.1009C84.063 94.8622 84.0909 95.0073 84.1633 97.7698C84.1923 98.88 84.131 99.5402 83.9769 99.7771ZM82.907 76.3441L81.5147 77.1479L81.5147 74.254L81.5147 71.3601L82.907 70.5562L84.2994 69.7524L84.2994 72.6463L84.2994 75.5402L82.907 76.3441ZM82.9999 71.1457L82.2573 71.5745L82.2573 72.4394C82.2573 73.2409 82.2848 73.2716 82.6325 72.856C83.1575 72.2284 83.3711 72.3333 83.3711 73.2193C83.3711 73.9438 83.3439 73.9922 82.8142 74.2084C82.2783 74.4269 82.2573 74.4662 82.2573 75.2557C82.2573 76.0699 82.2629 76.0729 82.9999 75.6474L83.7424 75.2187L83.7424 72.9678L83.7424 70.717L82.9999 71.1457ZM82.7988 79.8364C82.6882 79.9002 82.6351 80.0514 82.6809 80.1724C82.7983 80.4826 82.4791 81.3071 82.1734 81.4836C82.0323 81.5651 81.884 81.7648 81.8439 81.9273C81.8036 82.0899 81.4048 82.4558 80.9576 82.7403C80.3325 83.1381 80.0025 83.2144 79.5302 83.0712C79.1921 82.9689 78.9157 82.7503 78.9157 82.5859C78.9157 82.4215 78.8134 82.1566 78.6883 81.9976C78.5088 81.7696 78.5088 81.6255 78.6883 81.3146C78.8134 81.0979 78.9157 80.7584 78.9157 80.5604C78.9157 79.9439 80.0409 78.4809 80.9132 77.9634C81.3432 77.7083 81.7588 77.5772 81.8368 77.6721C81.915 77.767 82.1459 77.8583 82.3501 77.8748C82.5688 77.8928 82.7032 78.1016 82.6772 78.3827C82.6529 78.6454 82.7155 78.8127 82.8164 78.7544C82.9172 78.6962 82.9999 78.8896 82.9999 79.1844C82.9999 79.4791 82.9093 79.7726 82.7988 79.8364ZM82.7771 68.2304C82.6546 68.4426 82.6158 68.5808 82.6908 68.5375C82.766 68.4941 82.7379 68.7032 82.6286 69.0021C82.5192 69.301 82.3165 69.611 82.1778 69.6911C82.0392 69.7711 81.8793 70.0032 81.8225 70.2068C81.6534 70.8136 80.2284 71.4695 79.519 71.2671C79.1873 71.1722 78.9157 70.9603 78.9157 70.7959C78.9157 70.6315 78.8134 70.3666 78.6883 70.2076C78.5088 69.9796 78.5088 69.8356 78.6883 69.5246C78.8134 69.3079 78.9157 68.9753 78.9157 68.7852C78.9157 68.595 79.1873 68.0477 79.519 67.5687C80.2974 66.4451 81.472 65.6775 81.9396 65.9872C82.1223 66.1081 82.352 66.1607 82.4502 66.104C82.5484 66.0473 82.6286 66.2364 82.6286 66.5243C82.6286 66.8122 82.7121 67.0589 82.8142 67.0728C83.0687 67.1075 83.0478 67.7616 82.7771 68.2304ZM81.7826 78.9703C81.5812 78.7544 81.304 78.7701 80.8677 79.022C79.7643 79.6591 79.1787 81.1534 79.7962 81.7564C80.818 82.7541 82.7652 80.0228 81.7826 78.9703ZM81.7004 67.18C81.2062 66.8947 80.3286 67.4206 79.8512 68.2882C79.413 69.0839 79.4069 69.1344 79.67 69.781C79.9119 70.376 80.1502 70.4255 80.8503 70.0256C81.9614 69.3907 82.4862 67.6337 81.7004 67.18Z" fill="#636363"/>
<path d="M128.649 96.4543L128.197 97.656L126.707 98.8063L125.824 100.552L125.608 101.579C125.608 102.278 126.225 102.175 126.317 101.713L126.43 101.22L127.128 100.583L127.385 103.51L126.471 106.273L127.128 106.817L129.634 105.77L130.733 104.229V98.5393V96.7933L128.649 96.4543Z" fill="#FFB294"/>
<path d="M119.559 145.958C119.498 146.328 119.415 146.626 119.323 146.831C118.347 146.482 117.474 146.574 116.786 147.489L116.016 148.69L119.313 151.525H122.681L124.171 150.087L123.544 146.934C122.23 146.924 120.946 146.554 119.559 145.958Z" fill="#FFB294"/>
<path d="M124.037 149.399C123.575 150.426 121.613 151.104 119.662 150.744C117.885 149.954 117.033 149.296 116.591 148.125C117.125 147.417 118.183 146.944 119.282 146.852L119.549 146.225L118.132 145.424C116.683 144.777 115.697 145.219 115.009 146.338C114.496 148.413 115.133 149.799 116.57 150.703L118.727 152.357C119.559 154.401 120.494 155.448 122.158 155.212C123.975 154.945 124.623 154.216 124.735 152.675C124.653 151.494 124.571 150.21 124.037 149.399Z" fill="#25435C"/>
<path d="M124.17 120.816L126.142 99.7612L115.522 107.988L116.837 120.415C117.535 127.564 118.953 142.99 118.275 146.924C119.785 148.741 123.801 148.741 125.125 148.741C123.441 140.227 129.46 130.46 124.17 120.816Z" fill="#602DCF"/>
<path d="M100.24 149.399H98.1347L96.625 150.765L98.1347 153.425L109.247 152.562L109.556 150.025L108.826 148.064C107.296 147.992 105.756 147.91 104.225 147.448C103.691 148.772 102.243 149.317 100.24 149.399Z" fill="#FFB294"/>
<path d="M116.067 109.909L108.549 123.188C111.938 130.542 109.936 146.842 110.685 148.906C109.648 150.241 102.603 149.532 103.075 148.259C103.619 145.28 103.619 143.576 103.363 140.823C103.013 137.115 102.222 131.569 101.719 118.7C103.291 111.377 104.954 104.65 106.937 99.5971C107.419 98.3646 107.912 97.2451 108.436 96.2386L125.608 93.6401C128.186 104.999 122.014 107.433 116.067 109.909Z" fill="#834AFF"/>
<path d="M96.7381 149.399C94.4889 149.461 94.53 150.981 94.8689 152.09C95.4543 153.579 97.3133 154.791 98.9463 154.822C100.816 154.863 105.417 155.304 105.417 155.304C107.091 155.972 108.323 155.767 109.813 155.335C110.429 153.425 110.562 151.669 109.535 150.025C108.477 152.86 103.866 153.107 99.655 152.542C98.6895 152.408 97.7754 151.33 98.3609 150.549C98.7511 150.025 99.3468 149.625 100.23 149.409H96.7381V149.399Z" fill="#25435C"/>
<path opacity="0.3" d="M116.026 100.799C111.024 101.62 107.46 110.176 103.999 119.183C102.551 123.476 102.972 132.411 103.363 140.782C103.013 137.105 102.222 131.559 101.719 118.68C103.291 111.357 104.954 104.63 106.937 99.5764L116.026 100.799Z" fill="#602DCF"/>
<path d="M127.796 97.9639C128.566 94.6979 128.176 89.9324 128.197 84.9409L126.256 78.3164L127.601 69.4426C130.6 69.9972 131.545 76.9607 132.182 84.8895C133.086 88.2891 131.37 94.0611 130.744 98.9602C129.799 99.2888 128.813 98.9088 127.796 97.9639Z" fill="#25435C"/>
<path d="M124.54 86.6151C124.499 89.234 125.105 89.2649 127.046 95.8688C124.756 99.4738 119.631 100.85 114.414 100.85C112.257 100.85 109.545 100.398 106.875 99.7511C106.598 95.2012 108.631 89.2135 107.727 85.4647C103.342 84.2528 105.129 79.8673 106.423 77.31C106.608 76.9402 106.752 76.5807 106.885 76.211C107.635 74.0645 107.532 72.0514 107.532 72.0514C107.532 72.0514 114.229 70.0281 117.515 68.6724C120.822 67.3064 127.622 69.4324 127.622 69.4324C127.622 69.4324 129.296 70.5622 128.453 75.1429C127.385 80.9971 124.602 83.8831 124.54 86.6151Z" fill="#25435C"/>
<path opacity="0.5" d="M114.414 100.85C112.257 100.85 109.545 100.398 106.875 99.7512C106.598 95.2013 108.631 89.2136 107.727 85.4649C103.342 84.2529 105.129 79.8674 106.423 77.3101C106.608 76.9403 106.752 76.5808 106.885 76.2111C107.553 76.0673 108.231 75.9441 108.888 75.8105C108.888 85.28 110.552 87.7552 111.476 92.1099C112.216 95.7046 114.414 100.85 114.414 100.85Z" fill="#227FBC"/>
<path d="M110.418 54.1498C110.418 54.1498 104.122 58.4943 112.421 68.734C112.421 68.734 118.152 71.3324 120.863 66.608C123.585 61.8835 124.16 55.0126 119.148 52.4347C114.146 49.8568 109.843 51.2844 110.418 54.1498Z" fill="black"/>
<path d="M112.606 65.0161L113.243 71.0141C114.691 72.2055 120.093 70.6649 119.96 68.8059L118.234 63.8247L112.606 65.0161Z" fill="#FFB294"/>
<path d="M113.14 70.0487L111.456 70.819C111.456 70.819 113.962 73.5202 118.44 71.2607C121.203 69.8639 121.007 68.2411 121.007 68.2411L119.611 67.8406C118.974 69.1141 116.026 70.2028 113.14 70.0487Z" fill="#172935"/>
<path d="M110.418 54.1498C110.418 54.1498 104.122 58.4943 112.421 68.734C112.421 68.734 118.152 71.3324 120.863 66.608C123.585 61.8835 124.16 55.0126 119.148 52.4347C114.146 49.8568 109.843 51.2844 110.418 54.1498Z" fill="#722811"/>
<path d="M110.51 76.9917C110.5 77.043 110.5 77.0944 110.49 77.1354C110.387 77.9263 110.1 78.6041 109.607 78.9841C109.299 79.2204 108.919 79.3436 108.446 79.3025C107.131 79.2306 105.909 79.1588 104.79 79.0869C102.808 78.9533 98.1242 77.6901 96.789 77.3306C95.9365 77.1046 95.2073 76.7965 94.6425 76.3652C92.9273 74.0337 92.4548 66.1973 92.4548 61.8221C92.9889 61.0312 94.9198 60.4355 95.2998 61.1442L98.1036 71.0142L107.522 72.0721C107.553 72.0721 107.573 72.0721 107.604 72.0823C109.75 72.2261 110.736 74.9375 110.51 76.9917Z" fill="#25435C"/>
<path d="M92.4446 61.822C92.4241 61.7399 92.2084 60.0863 92.2084 60.0863L91.0684 57.9603L90.3083 55.0948V54.0986C90.37 53.7186 90.5343 53.5029 90.863 53.5851L90.8013 53.3899C90.6781 52.6607 91.13 52.3937 91.623 52.8148C91.5203 52.1061 92.0544 51.8185 92.4446 52.3321L93.2355 53.7597L93.0506 52.0856L92.7117 50.0623C92.6089 49.4666 93.1019 49.2304 93.369 49.8363L94.016 52.3115C94.2112 52.178 94.396 52.4348 94.4782 52.8764C94.4782 52.8764 94.5809 53.657 94.7041 54.1499C94.8274 54.6327 95.1869 55.2386 95.2896 55.8959C95.3923 56.5533 95.0533 58.8128 95.0533 58.8128L95.2896 61.1236C95.1355 61.781 92.8041 62.4177 92.4446 61.822Z" fill="#FFB294"/>
</svg>
