<svg width="190" height="190" viewBox="0 0 190 190" fill="none" xmlns="http://www.w3.org/2000/svg">
<path d="M94.9999 190C144.208 190 184.1 167.605 184.1 139.98C184.1 112.355 144.208 89.96 94.9999 89.96C45.7913 89.96 5.8999 112.355 5.8999 139.98C5.8999 167.605 45.7913 190 94.9999 190Z" fill="black" fill-opacity="0.1"/>
<path d="M100.87 120.47L68.21 139.25C68.08 140.93 68.22 142.58 68.92 143.81C70.39 146.4 75.08 148.21 75.08 148.21L88.92 155.1L118.68 137.97L120.6 139.08V136.86L104.31 127.45C102.21 126.24 100.65 123.51 100.87 120.47Z" fill="#BDD6E5"/>
<path d="M101.42 118.07C103.08 113.87 107.98 100.33 108.03 100.2L106.22 99.55C106.19 99.62 104.91 103.18 103.43 107.2C97.38 110.82 72.68 125.09 72.68 125.09C72.68 125.09 70.04 131.65 69.24 134.19C68.82 135.52 68.35 137.4 68.21 139.25L100.87 120.47C100.93 119.68 101.1 118.88 101.42 118.07Z" fill="#A3C6D8"/>
<path d="M88.9199 155.1L72.6299 145.69C69.9899 144.17 68.1899 140.24 69.7399 136.31C71.3999 132.11 76.2999 118.57 76.3499 118.44L74.5399 117.79C74.4899 117.93 69.5999 131.44 67.9499 135.61C66.0199 140.51 68.3199 145.43 71.6599 147.36L88.9099 157.32V155.1H88.9199Z" fill="#8EBCCE"/>
<path d="M120.6 136.86L88.9199 155.1V157.31L120.6 139.07V136.86Z" fill="#A3C6D8"/>
<path d="M39.5801 151.82V67.3901L153.76 1.61011V86.0401L39.5801 151.82Z" fill="#BDD6E5"/>
<path d="M152.83 85.4L40.3601 150.33V67.9801L152.83 3.05005V85.4Z" fill="#4B4B4B"/>
<path d="M151.27 76.1501L41.6501 139.44V69.2102L151.27 5.92017V76.1501Z" fill="white"/>
<path d="M95.6899 115.93C94.8399 115.93 93.9199 115.24 93.9199 113.74C93.9199 112.29 94.7999 110.65 95.9099 110L103.53 105.6C103.87 105.4 104.22 105.3 104.56 105.3C105.41 105.3 106.32 105.99 106.32 107.49C106.32 108.94 105.44 110.58 104.33 111.23L96.7099 115.63C96.3799 115.83 96.0299 115.93 95.6899 115.93Z" fill="white"/>
<path d="M96.3198 114.94L103.94 110.54C104.82 110.03 105.53 108.67 105.53 107.5C105.53 106.33 104.81 105.79 103.94 106.3L96.3198 110.7C95.4398 111.21 94.7298 112.57 94.7298 113.74C94.7198 114.9 95.4398 115.44 96.3198 114.94Z" fill="#A3C6D8"/>
<path d="M39.58 67.3902L37 65.9001V150.33L39.58 151.82V67.3902Z" fill="#A3C6D8"/>
<path d="M153.76 1.61006L151.03 0.0700684L37 65.9001L39.58 67.3901L153.76 1.61006Z" fill="#DCEAF4"/>
<path d="M69.7166 70.5002L67.873 75.4681L71.6572 77.6027L73.2872 74.4978L69.7166 70.5002Z" fill="#F8B505"/>
<path d="M107.247 53.2291L69.1929 75.1964C67.9897 75.895 67 75.1575 67 73.5469V38.4031C67 36.7925 67.9703 34.9101 69.1929 34.2309L107.247 12.2636C108.451 11.565 109.44 12.3024 109.44 13.9131V49.0569C109.44 50.6675 108.451 52.5305 107.247 53.2291Z" fill="#F8B505"/>
<path d="M73.4234 64.7366C73.1711 65.7457 68.9795 89.052 68.9795 89.052L72.7248 91.2642L83.5532 62.2527L73.4234 64.7366Z" fill="#F8B505"/>
<path d="M105.967 16.0282C106.18 15.8924 108.761 12.2053 108.761 12.2053L112.778 14.6698L110.585 18.2987L105.967 16.0282Z" fill="#F8B505"/>
<path d="M110.993 55.4413L72.938 77.4085C71.7348 78.1071 70.7451 77.3697 70.7451 75.759V40.6153C70.7451 39.0046 71.7154 37.1222 72.938 36.443L110.993 14.4758C112.196 13.7772 113.185 14.5146 113.185 16.1253V51.269C113.185 52.8797 112.196 54.7427 110.993 55.4413Z" fill="#FED03D"/>
<path d="M77.1685 66.9489C76.9162 67.958 72.7246 91.2643 72.7246 91.2643L87.2983 64.4456L77.1685 66.9489Z" fill="#FED03D"/>
<path d="M83.0293 51.0943C83.0293 53.52 81.5544 56.3338 79.7303 57.3817C77.9061 58.4297 76.4314 57.3235 76.4314 54.8978C76.4314 52.4721 77.9061 49.6583 79.7303 48.6104C81.5738 47.5625 83.0293 48.6686 83.0293 51.0943Z" fill="white"/>
<path d="M95.2549 44.0307C95.2549 46.4564 93.7801 49.2702 91.956 50.3181C90.1318 51.366 88.657 50.2599 88.657 47.8342C88.657 45.4085 90.1318 42.5947 91.956 41.5468C93.7801 40.4989 95.2549 41.6244 95.2549 44.0307Z" fill="white"/>
<path d="M107.461 36.9864C107.461 39.4121 105.986 42.226 104.162 43.2739C102.338 44.3218 100.863 43.2156 100.863 40.7899C100.863 38.3642 102.338 35.5504 104.162 34.5025C105.986 33.4546 107.461 34.5607 107.461 36.9864Z" fill="white"/>
<path d="M123.8 104.48L116.64 108.594L123.897 120.858L127.72 123.148L123.8 104.48Z" fill="#713CE4"/>
<path d="M127.623 106.77L120.462 110.903L127.72 123.148L127.623 106.77Z" fill="#8E5AFF"/>
<path d="M87.531 122.993L85.668 127.941L89.4715 130.076L91.0822 126.971L87.531 122.993Z" fill="#713CE4"/>
<path d="M125.062 105.702L87.0071 127.67C85.8039 128.368 84.8142 127.631 84.8142 126.02V90.8763C84.8142 89.2656 85.8039 87.3832 87.0071 86.704L125.062 64.7368C126.265 64.0382 127.254 64.7756 127.254 66.3862V101.53C127.235 103.141 126.265 105.004 125.062 105.702Z" fill="#713CE4"/>
<path d="M123.761 68.5014C123.975 68.3656 126.556 64.6785 126.556 64.6785L130.573 67.143L128.38 70.7718L123.761 68.5014Z" fill="#713CE4"/>
<path d="M128.807 107.914L90.7523 129.882C89.5492 130.58 88.5596 129.843 88.5596 128.232V93.0884C88.5596 91.4778 89.5297 89.5954 90.7523 88.9162L128.807 66.9489C130.01 66.2503 131 66.9878 131 68.5984V103.742C130.98 105.353 130.01 107.216 128.807 107.914Z" fill="#8E5AFF"/>
<path d="M100.843 103.567C100.843 105.993 99.3686 108.807 97.5445 109.855C95.7203 110.903 94.2456 109.797 94.2456 107.371C94.2456 104.945 95.7203 102.131 97.5445 101.084C99.3686 100.036 100.843 101.142 100.843 103.567Z" fill="white"/>
<path d="M113.05 96.5232C113.05 98.9489 111.575 101.763 109.751 102.811C107.927 103.859 106.452 102.752 106.452 100.327C106.452 97.9011 107.927 95.0872 109.751 94.0393C111.594 92.972 113.05 94.0975 113.05 96.5232Z" fill="white"/>
<path d="M125.275 89.4595C125.275 91.8853 123.8 94.6991 121.976 95.747C120.152 96.7949 118.677 95.6888 118.677 93.263C118.677 90.8373 120.152 88.0235 121.976 86.9756C123.8 85.9277 125.275 87.0338 125.275 89.4595Z" fill="white"/>
</svg>
