<svg width="190" height="190" viewBox="0 0 190 190" fill="none" xmlns="http://www.w3.org/2000/svg">
<path d="M94.9999 190C144.208 190 184.1 167.605 184.1 139.98C184.1 112.355 144.208 89.96 94.9999 89.96C45.7913 89.96 5.8999 112.355 5.8999 139.98C5.8999 167.605 45.7913 190 94.9999 190Z" fill="black" fill-opacity="0.1"/>
<path d="M76.8669 147.641C75.6354 147.641 74.634 148.17 74.634 148.826C74.634 149.482 75.6354 150.012 76.8669 150.012C78.0985 150.012 79.0998 149.482 79.0998 148.826C79.0998 148.17 78.0985 147.641 76.8669 147.641Z" fill="#672A5C"/>
<path d="M79.1114 101.371H74.6455V148.826H79.1114V101.371Z" fill="#672A5C"/>
<path d="M76.8669 100.185C75.6354 100.185 74.634 100.715 74.634 101.371C74.634 102.027 75.6354 102.556 76.8669 102.556C78.0985 102.556 79.0998 102.027 79.0998 101.371C79.0998 100.715 78.0985 100.185 76.8669 100.185Z" fill="#672A5C"/>
<path d="M41.1402 127.418C39.9086 127.418 38.9072 127.947 38.9072 128.603C38.9072 129.259 39.9086 129.789 41.1402 129.789C42.3717 129.789 43.3731 129.259 43.3731 128.603C43.3731 127.947 42.3717 127.418 41.1402 127.418Z" fill="#672A5C"/>
<path d="M43.3731 81.1365H38.9072V128.592H43.3731V81.1365Z" fill="#672A5C"/>
<path d="M41.1402 79.9509C39.9086 79.9509 38.9072 80.4804 38.9072 81.1365C38.9072 81.7925 39.9086 82.322 41.1402 82.322C42.3717 82.322 43.3731 81.7925 43.3731 81.1365C43.3731 80.4919 42.3717 79.9509 41.1402 79.9509Z" fill="#672A5C"/>
<path d="M128.339 117.887C127.108 117.887 126.106 118.417 126.106 119.073C126.106 119.729 127.108 120.258 128.339 120.258C129.571 120.258 130.572 119.729 130.572 119.073C130.572 118.417 129.571 117.887 128.339 117.887Z" fill="#672A5C"/>
<path d="M130.572 71.6062H126.106V119.062H130.572V71.6062Z" fill="#672A5C"/>
<path d="M128.339 70.4207C127.108 70.4207 126.106 70.9501 126.106 71.6062C126.106 72.2622 127.108 72.7917 128.339 72.7917C129.571 72.7917 130.572 72.2622 130.572 71.6062C130.572 70.9501 129.571 70.4207 128.339 70.4207Z" fill="#672A5C"/>
<path d="M92.6123 97.6533C91.3808 97.6533 90.3794 98.1828 90.3794 98.8388C90.3794 99.4949 91.3808 100.024 92.6123 100.024C93.8439 100.024 94.8452 99.4949 94.8452 98.8388C94.8452 98.1828 93.8439 97.6533 92.6123 97.6533Z" fill="#672A5C"/>
<path d="M94.8452 51.3835H90.3794V98.8389H94.8452V51.3835Z" fill="#672A5C"/>
<path d="M92.6123 50.198C91.3808 50.198 90.3794 50.7275 90.3794 51.3835C90.3794 52.0396 91.3808 52.569 92.6123 52.569C93.8439 52.569 94.8452 52.0396 94.8452 51.3835C94.8337 50.7275 93.8439 50.198 92.6123 50.198Z" fill="#672A5C"/>
<path d="M132.333 74.2535L76.6711 106.401L37.4338 83.7492L93.1072 51.6021L132.333 74.2535Z" fill="#594554"/>
<path d="M132.333 71.5372L76.6711 103.684L37.4338 81.0329L93.1072 48.8857L132.333 71.5372Z" fill="#E79CE1"/>
<path d="M37.4338 81.033V83.7493L76.6711 106.401V103.684L37.4338 81.033Z" fill="#B456B7"/>
<path d="M132.333 71.5371V74.2535L76.6711 106.401V103.684L132.333 71.5371Z" fill="#C66BC6"/>
<path d="M103.673 82.1264L82.6104 94.2348C82.0924 94.5341 81.1831 94.4996 80.5846 94.1543L69.9264 87.9965C69.3279 87.6512 69.2589 87.1332 69.7768 86.834L90.8399 74.7256C91.3579 74.4263 92.2672 74.4608 92.8657 74.8061L103.524 80.9639C104.122 81.3092 104.191 81.8272 103.673 82.1264Z" fill="#843A76"/>
<path d="M69.9148 86.1318L69.4429 86.293V87.3288L70.7665 87.6972L69.9148 86.1318Z" fill="#843A76"/>
<path d="M104.019 80.561L103.996 81.7005L103.317 81.7811L102.856 80.584L104.019 80.561Z" fill="#843A76"/>
<path d="M103.673 81.102L82.6104 93.2104C82.0924 93.5097 81.1831 93.4751 80.5846 93.1298L69.9264 86.9835C69.3279 86.6382 69.2589 86.1203 69.7768 85.821L90.8399 73.7126C91.3579 73.4134 92.2672 73.4479 92.8657 73.7932L103.524 79.951C104.122 80.2732 104.191 80.8027 103.673 81.102Z" fill="#954A83"/>
<path d="M74.7375 87.4326L74.1044 87.8009C73.9088 87.916 73.552 87.9045 73.3218 87.7664L72.5966 87.3405C72.3664 87.2024 72.3434 87.0067 72.5391 86.8916L73.1721 86.5233C73.3678 86.4082 73.7246 86.4197 73.9548 86.5578L74.6799 86.9837C74.9101 87.1103 74.9332 87.3175 74.7375 87.4326Z" fill="#E79CE1"/>
<path d="M76.5331 86.3967L75.9001 86.765C75.7044 86.8801 75.3476 86.8686 75.1174 86.7305L74.3923 86.3161C74.1621 86.178 74.1391 85.9823 74.3348 85.8557L74.9678 85.4874C75.1635 85.3723 75.5202 85.3838 75.7504 85.5219L76.4756 85.9363C76.7058 86.0744 76.7288 86.2816 76.5331 86.3967Z" fill="#E79CE1"/>
<path d="M78.3171 85.3608L77.684 85.7291C77.4884 85.8442 77.1315 85.8327 76.9013 85.6946L76.1762 85.2802C75.946 85.1421 75.923 84.9464 76.1187 84.8313L76.7517 84.463C76.9474 84.3479 77.3042 84.3594 77.5344 84.4975L78.2595 84.9234C78.4897 85.05 78.5242 85.2457 78.3171 85.3608Z" fill="#E79CE1"/>
<path d="M80.1125 84.3364L79.4794 84.7047C79.2838 84.8198 78.927 84.8083 78.6968 84.6702L77.9717 84.2558C77.7415 84.1177 77.7184 83.922 77.9141 83.7954L78.5471 83.4271C78.7428 83.312 79.0996 83.3235 79.3298 83.4616L80.0549 83.876C80.2851 84.0141 80.3081 84.2098 80.1125 84.3364Z" fill="#E79CE1"/>
<path d="M81.8967 83.3002L81.2636 83.6686C81.0679 83.7837 80.7111 83.7722 80.4809 83.634L79.7558 83.2197C79.5256 83.0816 79.5026 82.8859 79.6983 82.7593L80.3313 82.391C80.527 82.2759 80.8838 82.2874 81.114 82.4255L81.8391 82.8398C82.0808 82.978 82.1039 83.1851 81.8967 83.3002Z" fill="#E79CE1"/>
<path d="M83.6923 82.2643L83.0593 82.6327C82.8636 82.7478 82.5068 82.7363 82.2766 82.5981L81.5515 82.1838C81.3213 82.0456 81.2983 81.85 81.4939 81.7349L82.127 81.3666C82.3226 81.2515 82.6794 81.263 82.9096 81.4011L83.6348 81.827C83.865 81.9421 83.8995 82.1492 83.6923 82.2643Z" fill="#E79CE1"/>
<path d="M85.4877 81.2285L84.8547 81.5968C84.659 81.7119 84.3022 81.7004 84.072 81.5623L83.3469 81.1479C83.1167 81.0098 83.0937 80.8141 83.2893 80.6875L83.9224 80.3192C84.118 80.2041 84.4749 80.2156 84.7051 80.3537L85.4302 80.7681C85.6604 80.9062 85.6834 81.1134 85.4877 81.2285Z" fill="#E79CE1"/>
<path d="M87.2717 80.1926L86.6386 80.5609C86.443 80.676 86.0862 80.6645 85.856 80.5264L85.1308 80.112C84.9006 79.9739 84.8776 79.7782 85.0733 79.6516L85.7063 79.2833C85.902 79.1682 86.2588 79.1797 86.489 79.3178L87.2141 79.7322C87.4558 79.8703 87.4788 80.0775 87.2717 80.1926Z" fill="#E79CE1"/>
<path d="M76.7172 88.572L76.0842 88.9403C75.8885 89.0554 75.5317 89.0439 75.3015 88.9058L74.5764 88.4914C74.3462 88.3533 74.3232 88.1576 74.5188 88.031L75.1519 87.6627C75.3475 87.5476 75.7043 87.5591 75.9345 87.6972L76.6597 88.1116C76.8899 88.2497 76.9129 88.4569 76.7172 88.572Z" fill="#E79CE1"/>
<path d="M78.5012 87.5361L77.8681 87.9044C77.6725 88.0195 77.3156 88.008 77.0854 87.8699L76.3603 87.444C76.1301 87.3059 76.1071 87.1102 76.3028 86.9951L76.9358 86.6268C77.1315 86.5117 77.4883 86.5232 77.7185 86.6613L78.4436 87.0757C78.6738 87.2253 78.7083 87.421 78.5012 87.5361Z" fill="#E79CE1"/>
<path d="M80.2966 86.5117L79.6635 86.88C79.4679 86.9951 79.111 86.9836 78.8808 86.8455L78.1557 86.4311C77.9255 86.293 77.9025 86.0973 78.0982 85.9707L78.7312 85.6024C78.9269 85.4873 79.2837 85.4988 79.5139 85.6369L80.239 86.0513C80.4692 86.1894 80.4922 86.3851 80.2966 86.5117Z" fill="#E79CE1"/>
<path d="M82.0922 85.4758L81.4592 85.8441C81.2635 85.9592 80.9067 85.9477 80.6765 85.8096L79.9514 85.3837C79.7212 85.2456 79.6982 85.0499 79.8938 84.9348L80.5269 84.5665C80.7226 84.4514 81.0794 84.4629 81.3095 84.601L82.0347 85.0154C82.2649 85.1535 82.2879 85.3607 82.0922 85.4758Z" fill="#E79CE1"/>
<path d="M83.8762 84.4399L83.2431 84.8082C83.0474 84.9233 82.6906 84.9118 82.4604 84.7737L81.7353 84.3593C81.5051 84.2212 81.4821 84.0256 81.6778 83.899L82.3108 83.5306C82.5065 83.4155 82.8633 83.427 83.0935 83.5652L83.8186 83.9795C84.0488 84.1176 84.0833 84.3248 83.8762 84.4399Z" fill="#E79CE1"/>
<path d="M85.6718 83.404L85.0388 83.7723C84.8431 83.8874 84.4863 83.8759 84.2561 83.7378L83.531 83.3235C83.3008 83.1853 83.2778 82.9897 83.4734 82.8631L84.1065 82.4947C84.3021 82.3796 84.6589 82.3911 84.8891 82.5293L85.6142 82.9436C85.8444 83.0817 85.8675 83.2889 85.6718 83.404Z" fill="#E79CE1"/>
<path d="M87.4672 82.3681L86.8342 82.7364C86.6385 82.8515 86.2817 82.84 86.0515 82.7019L85.3264 82.276C85.0962 82.1379 85.0732 81.9422 85.2688 81.8271L85.9019 81.4588C86.0975 81.3437 86.4543 81.3553 86.6845 81.4934L87.4097 81.9077C87.6399 82.0458 87.6629 82.253 87.4672 82.3681Z" fill="#E79CE1"/>
<path d="M89.2514 81.3323L88.6184 81.7006C88.4227 81.8157 88.0659 81.8042 87.8357 81.666L87.1106 81.2517C86.8804 81.1136 86.8573 80.9179 87.053 80.7913L87.6861 80.423C87.8817 80.3079 88.2385 80.3194 88.4687 80.4575L89.1939 80.8719C89.4241 81.01 89.4586 81.2172 89.2514 81.3323Z" fill="#E79CE1"/>
<path d="M91.0468 80.2964L90.4138 80.6647C90.2181 80.7798 89.8613 80.7683 89.6311 80.6302L88.906 80.2043C88.6758 80.0661 88.6527 79.8705 88.8484 79.7554L89.4815 79.3871C89.6771 79.272 90.0339 79.2835 90.2641 79.4216L90.9893 79.836C91.2195 79.9741 91.2425 80.1813 91.0468 80.2964Z" fill="#E79CE1"/>
<path d="M92.8425 79.2604L92.2094 79.6287C92.0138 79.7438 91.657 79.7323 91.4268 79.5942L90.7016 79.1799C90.4714 79.0417 90.4484 78.846 90.6441 78.7309L91.2771 78.3627C91.4728 78.2476 91.8296 78.2591 92.0598 78.3972L92.7849 78.823C93.0151 78.9497 93.0381 79.1453 92.8425 79.2604Z" fill="#E79CE1"/>
<path d="M94.6267 78.2361L93.9936 78.6044C93.7979 78.7195 93.4411 78.708 93.2109 78.5699L92.4858 78.1555C92.2556 78.0174 92.2326 77.8217 92.4283 77.6951L93.0613 77.3268C93.257 77.2117 93.6138 77.2232 93.844 77.3613L94.5691 77.7757C94.7993 77.9138 94.8338 78.1095 94.6267 78.2361Z" fill="#E79CE1"/>
<path d="M96.4221 77.2002L95.789 77.5685C95.5933 77.6836 95.2365 77.6721 95.0063 77.534L94.2812 77.1081C94.051 76.97 94.028 76.7743 94.2237 76.6592L94.8567 76.2909C95.0524 76.1758 95.4092 76.1873 95.6394 76.3254L96.3645 76.7398C96.5947 76.8779 96.6177 77.0851 96.4221 77.2002Z" fill="#E79CE1"/>
<path d="M78.6855 89.7114L78.0524 90.0797C77.8568 90.1948 77.5 90.1833 77.2698 90.0452L76.5446 89.6193C76.3144 89.4812 76.2914 89.2855 76.4871 89.1704L77.1201 88.8021C77.3158 88.687 77.6726 88.6985 77.9028 88.8366L78.6279 89.251C78.8696 89.4006 78.8927 89.5963 78.6855 89.7114Z" fill="#E79CE1"/>
<path d="M80.4811 88.687L79.8481 89.0553C79.6524 89.1704 79.2956 89.1589 79.0654 89.0208L78.3403 88.6064C78.1101 88.4683 78.0871 88.2726 78.2827 88.146L78.9158 87.7777C79.1114 87.6626 79.4683 87.6741 79.6985 87.8122L80.4236 88.2266C80.6538 88.3647 80.6768 88.5604 80.4811 88.687Z" fill="#E79CE1"/>
<path d="M82.2765 87.6511L81.6435 88.0194C81.4478 88.1345 81.091 88.123 80.8608 87.9849L80.1357 87.559C79.9055 87.4209 79.8825 87.2253 80.0781 87.0987L80.7112 86.7303C80.9069 86.6152 81.2637 86.6267 81.4939 86.7649L82.219 87.1792C82.4492 87.3289 82.4722 87.536 82.2765 87.6511Z" fill="#E79CE1"/>
<path d="M84.0605 86.6152L83.4274 86.9835C83.2318 87.0986 82.875 87.0871 82.6448 86.949L81.9196 86.5346C81.6894 86.3965 81.6664 86.2008 81.8621 86.0742L82.4951 85.7059C82.6908 85.5908 83.0476 85.6023 83.2778 85.7405L84.0029 86.1548C84.2446 86.2929 84.2676 86.5001 84.0605 86.6152Z" fill="#E79CE1"/>
<path d="M85.8561 85.5793L85.2231 85.9476C85.0274 86.0627 84.6706 86.0512 84.4404 85.9131L83.7153 85.4987C83.4851 85.3606 83.4621 85.1649 83.6577 85.0498L84.2908 84.6815C84.4864 84.5664 84.8432 84.5779 85.0734 84.716L85.7986 85.1304C86.0288 85.257 86.0518 85.4642 85.8561 85.5793Z" fill="#E79CE1"/>
<path d="M87.6518 84.5434L87.0187 84.9117C86.8231 85.0268 86.4663 85.0153 86.2361 84.8772L85.5109 84.4628C85.2807 84.3247 85.2577 84.129 85.4534 84.0139L86.0864 83.6456C86.2821 83.5305 86.6389 83.542 86.8691 83.6801L87.5942 84.0945C87.8244 84.2211 87.8475 84.4283 87.6518 84.5434Z" fill="#E79CE1"/>
<path d="M89.436 83.5075L88.8029 83.8758C88.6073 83.9909 88.2504 83.9794 88.0202 83.8413L87.2951 83.427C87.0649 83.2888 87.0419 83.0932 87.2376 82.9666L87.8706 82.5983C88.0663 82.4832 88.4231 82.4947 88.6533 82.6328L89.3784 83.0471C89.6201 83.1852 89.6431 83.3924 89.436 83.5075Z" fill="#E79CE1"/>
<path d="M93.0269 81.4358L90.6098 82.8284C90.4141 82.9435 90.0573 82.932 89.8271 82.7939L89.102 82.3681C88.8718 82.2299 88.8488 82.0343 89.0445 81.9192L91.4616 80.5265C91.6572 80.4114 92.014 80.4229 92.2442 80.561L92.9694 80.9754C93.1995 81.125 93.2226 81.3207 93.0269 81.4358Z" fill="#E79CE1"/>
<path d="M94.811 80.4114L94.1779 80.7796C93.9822 80.8947 93.6254 80.8832 93.3952 80.7451L92.6701 80.3308C92.4399 80.1927 92.4169 79.997 92.6126 79.8704L93.2456 79.5021C93.4413 79.387 93.7981 79.3985 94.0283 79.5366L94.7534 79.9509C94.9951 80.089 95.0182 80.2963 94.811 80.4114Z" fill="#E79CE1"/>
<path d="M96.6066 79.3754L95.9736 79.7438C95.7779 79.8589 95.4211 79.8473 95.1909 79.7092L94.4658 79.2949C94.2356 79.1568 94.2126 78.9611 94.4082 78.8345L95.0413 78.4662C95.2369 78.3511 95.5937 78.3626 95.8239 78.5007L96.5491 78.915C96.7793 79.0532 96.8023 79.2603 96.6066 79.3754Z" fill="#E79CE1"/>
<path d="M98.4023 78.3395L97.7692 78.7079C97.5736 78.823 97.2168 78.8115 96.9866 78.6733L96.2614 78.259C96.0312 78.1209 96.0082 77.9252 96.2039 77.7986L96.8369 77.4303C97.0326 77.3152 97.3894 77.3267 97.6196 77.4648L98.3447 77.8792C98.5749 78.0173 98.598 78.2244 98.4023 78.3395Z" fill="#E79CE1"/>
<path d="M80.6652 90.8625L80.0322 91.2308C79.8365 91.3459 79.4797 91.3344 79.2495 91.1963L78.5244 90.7819C78.2942 90.6438 78.2712 90.4481 78.4668 90.333L79.0999 89.9647C79.2955 89.8496 79.6524 89.8611 79.8826 89.9992L80.6077 90.4251C80.8379 90.5402 80.8724 90.7474 80.6652 90.8625Z" fill="#E79CE1"/>
<path d="M82.4609 89.8266L81.8279 90.195C81.6322 90.3101 81.2753 90.2986 81.0452 90.1604L80.32 89.7461C80.0898 89.6079 80.0668 89.4123 80.2625 89.2857L80.8955 88.9173C81.0912 88.8022 81.448 88.8138 81.6782 88.9519L82.4033 89.3662C82.6335 89.5044 82.6566 89.7115 82.4609 89.8266Z" fill="#E79CE1"/>
<path d="M84.2446 88.7907L83.6115 89.159C83.4159 89.2741 83.0591 89.2626 82.8289 89.1245L82.1037 88.7102C81.8735 88.5721 81.8505 88.3764 82.0462 88.2498L82.6792 87.8815C82.8749 87.7664 83.2317 87.7779 83.4619 87.916L84.187 88.3418C84.4287 88.4685 84.4517 88.6756 84.2446 88.7907Z" fill="#E79CE1"/>
<path d="M86.0402 87.7549L85.4072 88.1231C85.2115 88.2382 84.8547 88.2267 84.6245 88.0886L83.8994 87.6743C83.6692 87.5362 83.6462 87.3405 83.8418 87.2139L84.4749 86.8456C84.6705 86.7305 85.0273 86.742 85.2575 86.8801L85.9827 87.306C86.2129 87.4326 86.2474 87.6398 86.0402 87.7549Z" fill="#E79CE1"/>
<path d="M87.8358 86.7189L87.2028 87.0873C87.0071 87.2024 86.6503 87.1909 86.4202 87.0527L85.695 86.6384C85.4648 86.5003 85.4418 86.3046 85.6375 86.178L86.2705 85.8097C86.4662 85.6946 86.823 85.7061 87.0532 85.8442L87.7783 86.2585C88.0085 86.3967 88.0315 86.6038 87.8358 86.7189Z" fill="#E79CE1"/>
<path d="M89.6201 85.6831L88.987 86.0514C88.7913 86.1665 88.4345 86.155 88.2043 86.0169L87.4792 85.591C87.249 85.4529 87.226 85.2572 87.4217 85.1421L88.0547 84.7738C88.2504 84.6587 88.6072 84.6702 88.8374 84.8083L89.5625 85.2342C89.8042 85.3608 89.8272 85.568 89.6201 85.6831Z" fill="#E79CE1"/>
<path d="M91.4152 84.6472L90.7822 85.0155C90.5865 85.1306 90.2297 85.1191 89.9995 84.981L89.2744 84.5666C89.0442 84.4285 89.0212 84.2328 89.2168 84.1062L89.8499 83.7379C90.0455 83.6228 90.4024 83.6343 90.6326 83.7724L91.3577 84.1983C91.5879 84.3364 91.6224 84.5321 91.4152 84.6472Z" fill="#E79CE1"/>
<path d="M93.2109 83.6113L92.5778 83.9796C92.3822 84.0947 92.0253 84.0832 91.7951 83.9451L91.07 83.5307C90.8398 83.3926 90.8168 83.1969 91.0125 83.0703L91.6455 82.702C91.8412 82.5869 92.198 82.5984 92.4282 82.7365L93.1533 83.1509C93.3835 83.3005 93.4065 83.4962 93.2109 83.6113Z" fill="#E79CE1"/>
<path d="M94.995 82.5869L94.362 82.9552C94.1663 83.0703 93.8095 83.0588 93.5793 82.9207L92.8542 82.5063C92.624 82.3682 92.601 82.1725 92.7967 82.0459L93.4297 81.6776C93.6254 81.5625 93.9822 81.574 94.2124 81.7121L94.9375 82.138C95.1792 82.2646 95.2022 82.4718 94.995 82.5869Z" fill="#E79CE1"/>
<path d="M96.7907 81.551L96.1577 81.9193C95.962 82.0344 95.6052 82.0229 95.375 81.8848L94.6499 81.4704C94.4197 81.3323 94.3967 81.1366 94.5923 81.01L95.2254 80.6417C95.421 80.5266 95.7778 80.5381 96.008 80.6762L96.7331 81.0906C96.9633 81.2287 96.9864 81.4359 96.7907 81.551Z" fill="#E79CE1"/>
<path d="M98.5859 80.5151L97.9528 80.8834C97.7571 80.9985 97.4003 80.987 97.1702 80.8489L96.445 80.423C96.2148 80.2849 96.1918 80.0892 96.3875 79.9741L97.0205 79.6058C97.2162 79.4907 97.573 79.5022 97.8032 79.6403L98.5283 80.0662C98.7585 80.1928 98.7816 80.4 98.5859 80.5151Z" fill="#E79CE1"/>
<path d="M100.37 79.4792L99.737 79.8475C99.5413 79.9626 99.1845 79.9511 98.9543 79.813L98.2292 79.3986C97.999 79.2605 97.976 79.0649 98.1717 78.9383L98.8047 78.5699C99.0004 78.4548 99.3572 78.4663 99.5874 78.6045L100.313 79.0303C100.554 79.1569 100.577 79.3641 100.37 79.4792Z" fill="#E79CE1"/>
<path d="M82.645 92.0019L82.0119 92.3702C81.8162 92.4853 81.4594 92.4738 81.2292 92.3357L80.5041 91.9098C80.2739 91.7717 80.2509 91.576 80.4466 91.4609L81.0796 91.0926C81.2753 90.9775 81.6321 90.989 81.8623 91.1272L82.5874 91.553C82.8176 91.6796 82.8406 91.8868 82.645 92.0019Z" fill="#E79CE1"/>
<path d="M84.4289 90.966L83.7959 91.3343C83.6002 91.4494 83.2434 91.4379 83.0132 91.2998L82.2881 90.8739C82.0579 90.7358 82.0348 90.5401 82.2305 90.425L82.8636 90.0567C83.0592 89.9416 83.416 89.9532 83.6462 90.0913L84.3713 90.5056C84.6131 90.6437 84.6361 90.8509 84.4289 90.966Z" fill="#E79CE1"/>
<path d="M86.2245 89.9302L85.5915 90.2985C85.3958 90.4136 85.039 90.4021 84.8088 90.2639L84.0837 89.8381C83.8535 89.7 83.8305 89.5043 84.0261 89.3892L84.6592 89.0209C84.8549 88.9058 85.2117 88.9173 85.4419 89.0554L86.167 89.4698C86.3972 89.6079 86.4317 89.8151 86.2245 89.9302Z" fill="#E79CE1"/>
<path d="M93.3951 85.7981L87.3869 89.2626C87.1912 89.3777 86.8345 89.3662 86.6043 89.228L85.8791 88.8021C85.6489 88.664 85.6259 88.4684 85.8216 88.3533L91.8297 84.8888C92.0254 84.7737 92.3822 84.7852 92.6124 84.9233L93.3376 85.3377C93.5678 85.4758 93.5908 85.6715 93.3951 85.7981Z" fill="#E79CE1"/>
<path d="M95.1791 84.7621L94.5461 85.1304C94.3504 85.2455 93.9936 85.234 93.7634 85.0959L93.0383 84.6816C92.8081 84.5434 92.7851 84.3478 92.9807 84.2327L93.6138 83.8644C93.8095 83.7493 94.1663 83.7608 94.3965 83.8989L95.1216 84.3248C95.3633 84.4399 95.3863 84.647 95.1791 84.7621Z" fill="#E79CE1"/>
<path d="M96.9748 83.7263L96.3417 84.0946C96.1461 84.2097 95.7893 84.1982 95.5591 84.0601L94.8339 83.6342C94.6037 83.4961 94.5807 83.3004 94.7764 83.1853L95.4094 82.817C95.6051 82.7019 95.9619 82.7134 96.1921 82.8515L96.9172 83.2774C97.1474 83.404 97.1819 83.6112 96.9748 83.7263Z" fill="#E79CE1"/>
<path d="M98.7702 82.6904L98.1371 83.0587C97.9415 83.1738 97.5847 83.1623 97.3545 83.0242L96.6293 82.5983C96.3991 82.4602 96.3761 82.2645 96.5718 82.1494L97.2048 81.7811C97.4005 81.666 97.7573 81.6775 97.9875 81.8156L98.7126 82.23C98.9428 82.3681 98.9658 82.5753 98.7702 82.6904Z" fill="#E79CE1"/>
<path d="M100.554 81.6545L99.9211 82.0228C99.7254 82.1379 99.3686 82.1264 99.1384 81.9883L98.4133 81.5625C98.1831 81.4243 98.1601 81.2286 98.3557 81.1136L98.9888 80.7452C99.1844 80.6301 99.5413 80.6416 99.7715 80.7798L100.497 81.1941C100.738 81.3322 100.761 81.5394 100.554 81.6545Z" fill="#E79CE1"/>
<path d="M102.35 80.6186L101.717 80.987C101.521 81.1021 101.164 81.0905 100.934 80.9524L100.209 80.5265C99.9787 80.3884 99.9557 80.1928 100.151 80.0777L100.784 79.7093C100.98 79.5942 101.337 79.6057 101.567 79.7439L102.292 80.1697C102.522 80.2963 102.557 80.5035 102.35 80.6186Z" fill="#E79CE1"/>
<path d="M89.0676 79.1567L88.4345 79.525C88.2389 79.6401 87.8821 79.6286 87.6519 79.4905L86.9267 79.0646C86.6965 78.9265 86.6735 78.7308 86.8692 78.6157L87.5022 78.2474C87.6979 78.1323 88.0547 78.1438 88.2849 78.282L89.01 78.7078C89.2402 78.8344 89.2747 79.0416 89.0676 79.1567Z" fill="#E79CE1"/>
<path d="M90.863 78.1208L90.2299 78.4891C90.0343 78.6042 89.6775 78.5927 89.4473 78.4546L88.7221 78.0402C88.4919 77.9021 88.4689 77.7064 88.6646 77.5798L89.2976 77.2115C89.4933 77.0964 89.8501 77.1079 90.0803 77.2461L90.8054 77.6604C91.0356 77.7985 91.0586 78.0057 90.863 78.1208Z" fill="#E79CE1"/>
<path d="M92.6469 77.0849L92.0139 77.4533C91.8182 77.5684 91.4614 77.5569 91.2312 77.4187L90.5061 77.0044C90.2759 76.8662 90.2529 76.6706 90.4485 76.544L91.0816 76.1756C91.2772 76.0605 91.634 76.0721 91.8642 76.2102L92.5893 76.6361C92.8311 76.7742 92.8541 76.9698 92.6469 77.0849Z" fill="#E79CE1"/>
<path d="M94.4426 76.0606L93.8095 76.4289C93.6138 76.544 93.257 76.5325 93.0268 76.3943L92.3017 75.9685C92.0715 75.8304 92.0485 75.6347 92.2442 75.5081L92.8772 75.1398C93.0729 75.0247 93.4297 75.0362 93.6599 75.1743L94.385 75.5887C94.6152 75.7383 94.6497 75.934 94.4426 76.0606Z" fill="#E79CE1"/>
<path d="M92.578 74.8405L91.7032 75.3469C91.5651 75.4275 91.3349 75.416 91.1852 75.3239L90.8975 75.1628C90.7479 75.0707 90.7248 74.9441 90.863 74.8635L91.7377 74.3571C91.8758 74.2765 92.1061 74.288 92.2557 74.3801L92.5434 74.5413C92.6931 74.6218 92.7161 74.76 92.578 74.8405Z" fill="#E79CE1"/>
<path d="M90.794 75.8764L89.9193 76.3829C89.7811 76.4634 89.5509 76.4519 89.4013 76.3598L89.1135 76.1987C88.9639 76.1066 88.9409 75.98 89.079 75.8994L89.9538 75.393C90.0919 75.3124 90.3221 75.3239 90.4717 75.416L90.7595 75.5771C90.9091 75.6577 90.9206 75.7958 90.794 75.8764Z" fill="#E79CE1"/>
<path d="M88.9983 76.9008L88.1236 77.4072C87.9854 77.4878 87.7553 77.4763 87.6056 77.3842L87.3179 77.2231C87.1683 77.131 87.1452 77.0044 87.2834 76.9238L88.1581 76.4174C88.2962 76.3368 88.5264 76.3483 88.6761 76.4404L88.9638 76.6016C89.1134 76.6937 89.1364 76.8317 88.9983 76.9008Z" fill="#E79CE1"/>
<path d="M87.2027 77.9367L86.3279 78.4431C86.1898 78.5237 85.9596 78.5122 85.81 78.4201L85.5222 78.259C85.3726 78.1669 85.3496 78.0403 85.4877 77.9597L86.3624 77.4533C86.5006 77.3727 86.7308 77.3842 86.8804 77.4763L87.1681 77.6375C87.3293 77.7295 87.3408 77.8676 87.2027 77.9367Z" fill="#E79CE1"/>
<path d="M85.4188 78.9726L84.544 79.4791C84.4059 79.5596 84.1757 79.5481 84.0261 79.456L83.7383 79.2949C83.5887 79.2028 83.5657 79.0762 83.7038 78.9956L84.5785 78.4892C84.7167 78.4086 84.9469 78.4201 85.0965 78.5122L85.3842 78.6734C85.5339 78.7654 85.5454 78.9036 85.4188 78.9726Z" fill="#E79CE1"/>
<path d="M83.6234 80.0085L82.7486 80.5149C82.6105 80.5955 82.3803 80.584 82.2306 80.4919L81.9429 80.3308C81.7933 80.2387 81.7702 80.1121 81.9084 80.0315L82.7831 79.5251C82.9212 79.4445 83.1515 79.456 83.3011 79.5481L83.5888 79.7092C83.7385 79.8013 83.7615 79.9279 83.6234 80.0085Z" fill="#E79CE1"/>
<path d="M81.8277 81.0444L80.9529 81.5508C80.8148 81.6314 80.5846 81.6199 80.435 81.5278L80.1472 81.3666C79.9976 81.2746 79.9746 81.1479 80.1127 81.0674L80.9875 80.561C81.1256 80.4804 81.3558 80.4919 81.5054 80.584L81.7931 80.7451C81.9543 80.8372 81.9658 80.9638 81.8277 81.0444Z" fill="#E79CE1"/>
<path d="M80.0437 82.0802L79.169 82.5867C79.0309 82.6673 78.8007 82.6558 78.6511 82.5637L78.3633 82.4025C78.2137 82.3104 78.1907 82.1839 78.3288 82.1033L79.2035 81.5969C79.3416 81.5163 79.5718 81.5278 79.7215 81.6199L80.0092 81.781C80.1588 81.8616 80.1703 81.9997 80.0437 82.0802Z" fill="#E79CE1"/>
<path d="M78.2481 83.1161L77.3733 83.6226C77.2467 83.7031 77.005 83.6916 76.8554 83.5996L76.5677 83.4384C76.418 83.3464 76.395 83.2198 76.5331 83.1392L77.4079 82.6327C77.546 82.5522 77.7762 82.5637 77.9258 82.6557L78.2136 82.8169C78.3632 82.8975 78.3862 83.0356 78.2481 83.1161Z" fill="#E79CE1"/>
<path d="M76.4527 84.1521L75.5779 84.6585C75.4398 84.7391 75.2096 84.7275 75.06 84.6355L74.7722 84.4743C74.6226 84.3823 74.5996 84.2556 74.7377 84.1751L75.6124 83.6686C75.7506 83.5881 75.9808 83.5996 76.1304 83.6916L76.4181 83.8528C76.5793 83.9334 76.5908 84.0715 76.4527 84.1521Z" fill="#E79CE1"/>
<path d="M74.6688 85.1764L73.794 85.6829C73.6559 85.7634 73.4257 85.752 73.2761 85.6599L72.9883 85.4987C72.8387 85.4066 72.8157 85.2801 72.9538 85.1995L73.8285 84.693C73.9667 84.6125 74.1969 84.624 74.3465 84.7161L74.6342 84.8772C74.7839 84.9693 74.7954 85.1074 74.6688 85.1764Z" fill="#E79CE1"/>
<path d="M72.8731 86.2123L71.9984 86.7188C71.8602 86.7993 71.63 86.7878 71.4804 86.6958L71.1927 86.5346C71.043 86.4425 71.02 86.3159 71.1581 86.2354L72.0329 85.7289C72.1595 85.6484 72.4012 85.6599 72.5508 85.7519L72.8386 85.9131C72.9882 86.0052 73.0112 86.1433 72.8731 86.2123Z" fill="#E79CE1"/>
<path d="M97.2048 30.7922C97.2048 30.2282 96.6523 29.365 95.6625 28.755L95.5358 28.6744C95.0754 28.4097 94.9949 28.8701 94.9949 29.411C94.9949 29.4456 94.9949 29.5606 94.9949 29.5952C94.9949 30.1476 95.0754 30.7001 95.5358 30.9648L95.6625 31.0454C96.6523 31.5749 97.2048 31.3447 97.2048 30.7922Z" fill="#954A83"/>
<path d="M96.6755 31.1146L96.8137 31.3563L96.9978 31.2412L97.0438 31.0916L96.6755 31.1146Z" fill="#954A83"/>
<path d="M95.087 28.9162L94.9949 28.755L95.2021 28.6284L95.3402 28.6975L95.087 28.9162Z" fill="#954A83"/>
<path d="M97.0439 30.8843C97.0439 30.3203 96.4914 29.457 95.5015 28.847L95.375 28.7664C94.9146 28.5017 94.834 28.9621 94.834 29.503C94.834 29.5376 94.834 29.6527 94.834 29.6872C94.834 30.2397 94.9146 30.7922 95.375 31.0569L95.5015 31.1375C96.4914 31.6669 97.0439 31.4482 97.0439 30.8843Z" fill="#672A5C"/>
<path d="M95.5934 30.585C95.5934 30.7576 95.4898 30.8382 95.3632 30.7576C95.2366 30.6886 95.1331 30.4814 95.1331 30.3202C95.1331 30.1476 95.2366 30.067 95.3632 30.1476C95.4898 30.2167 95.5934 30.4123 95.5934 30.585Z" fill="#D1D1D1"/>
<path d="M86.0747 40.3454C86.0172 40.3454 85.9596 40.3223 85.9021 40.2878C85.7985 40.1957 85.787 40.0346 85.8791 39.9195L94.6381 29.7908C94.7302 29.6872 94.8913 29.6757 95.0064 29.7678C95.11 29.8598 95.1215 30.021 95.0294 30.1361L86.2704 40.2648C86.2129 40.3108 86.1438 40.3454 86.0747 40.3454Z" fill="#672A5C"/>
<path d="M86.4893 41.8647C86.3742 41.8647 86.2475 41.8186 86.1555 41.7381C85.9368 41.5539 85.9138 41.2316 86.0979 41.0129L94.8569 30.8842C95.0411 30.6656 95.3634 30.6425 95.5821 30.8267C95.8008 31.0108 95.8238 31.3331 95.6397 31.5518L86.8806 41.6805C86.777 41.8071 86.6274 41.8647 86.4893 41.8647Z" fill="#E79CE1"/>
<path d="M100.048 57.4031C96.5374 56.3557 93.3261 55.6421 91.6342 56.6204C91.4961 56.701 91.3579 56.7816 91.2313 56.8506C91.2313 56.8506 90.7594 57.1154 89.735 57.7139C89.6084 57.7829 89.4818 57.8635 89.3322 57.9441C87.6402 58.9224 88.8833 60.7755 90.6904 62.8012C92.4974 64.827 94.5807 64.8961 96.6065 63.7221C97.2971 63.3192 97.884 62.9854 98.379 62.6977C99.3228 62.1452 99.8753 61.8344 99.8753 61.8344C100.359 61.5467 100.957 61.2129 101.648 60.81C103.674 59.6475 103.558 58.4505 100.048 57.4031Z" fill="#672A5C"/>
<path d="M89.4934 58.3469H88.5381V59.2447H89.4934V58.3469Z" fill="#672A5C"/>
<path d="M102.983 58.5195H102.028V59.4173H102.983V58.5195Z" fill="#672A5C"/>
<path d="M100.048 56.678C96.5374 55.6306 93.3261 54.917 91.6342 55.8953C91.4961 55.9759 91.3579 56.0565 91.2313 56.1255C91.2313 56.1255 90.7594 56.3903 89.735 56.9888C89.6084 57.0578 89.4818 57.1384 89.3322 57.2189C87.6402 58.1973 88.8833 60.0504 90.6904 62.0761C92.4974 64.1019 94.5807 64.171 96.6065 62.9969C97.2971 62.5941 97.884 62.2603 98.379 61.9725C99.3228 61.4201 99.8753 61.1093 99.8753 61.1093C100.359 60.8216 100.957 60.4878 101.648 60.0849C103.674 58.9224 103.558 57.7254 100.048 56.678Z" fill="#954A83"/>
<path d="M97.4926 56.8736C94.9719 56.1255 92.6584 55.6075 91.4384 56.3096C91.3348 56.3672 91.2427 56.4247 91.1506 56.4707C91.1506 56.4707 90.8169 56.6664 90.0802 57.0923C89.9881 57.1498 89.8961 57.1959 89.7925 57.2534C88.5724 57.9556 89.4702 59.2907 90.7708 60.7524C92.0714 62.2142 93.5677 62.2602 95.0295 61.42C95.5244 61.1323 95.9503 60.8906 96.3071 60.6834C96.9862 60.292 97.3775 60.0618 97.3775 60.0618C97.7343 59.8547 98.1602 59.613 98.6551 59.3252C100.094 58.485 100.013 57.6217 97.4926 56.8736Z" fill="#843A76"/>
<path d="M93.0039 56.9542C92.6586 56.747 92.1407 56.6204 91.5652 56.6204C90.9897 56.6204 90.4717 56.7585 90.1265 56.9542H89.6545V57.5872C89.6545 58.1166 90.5063 58.554 91.5652 58.554C92.6241 58.554 93.4758 58.1166 93.4758 57.5872V56.9542H93.0039Z" fill="#954A83"/>
<path d="M91.5652 55.9988C90.5063 55.9988 89.6545 56.4362 89.6545 56.9656C89.6545 57.4951 90.5063 57.9325 91.5652 57.9325C92.6241 57.9325 93.4758 57.4951 93.4758 56.9656C93.4758 56.4247 92.6241 55.9988 91.5652 55.9988Z" fill="#954A83"/>
<path d="M97.9646 32.1043C97.9186 32.1043 97.8725 32.0928 97.838 32.0698L95.9274 30.9648C95.8007 30.8957 95.7662 30.7346 95.8353 30.608C95.9043 30.4814 96.0655 30.4469 96.1921 30.5159L98.1027 31.6209C98.2293 31.6899 98.2638 31.8511 98.1948 31.9777C98.1372 32.0582 98.0452 32.1043 97.9646 32.1043Z" fill="#954A83"/>
<path d="M93.1303 56.3095C93.1303 55.7456 92.5778 54.8823 91.588 54.2723L91.4614 54.1917C91.001 53.927 90.9204 54.3874 90.9204 54.9283C90.9204 54.9629 90.9204 55.078 90.9204 55.1125C90.9204 55.665 91.001 56.2175 91.4614 56.4822L91.588 56.5628C92.5778 57.0922 93.1303 56.862 93.1303 56.3095Z" fill="#954A83"/>
<path d="M92.5894 56.6319L92.7275 56.8736L92.9116 56.77L92.9577 56.6089L92.5894 56.6319Z" fill="#954A83"/>
<path d="M91.0125 54.4335L90.9089 54.2723L91.1276 54.1458L91.2542 54.2148L91.0125 54.4335Z" fill="#954A83"/>
<path d="M92.9577 56.4016C92.9577 55.8376 92.4052 54.9744 91.4154 54.3643L91.2887 54.2838C90.8283 54.019 90.7478 54.4794 90.7478 55.0204C90.7478 55.0549 90.7478 55.17 90.7478 55.2045C90.7478 55.757 90.8283 56.3095 91.2887 56.5742L91.4154 56.6548C92.4052 57.1843 92.9577 56.9656 92.9577 56.4016Z" fill="#672A5C"/>
<path d="M91.519 56.1023C91.519 56.275 91.4154 56.3555 91.2888 56.275C91.1622 56.2059 91.0586 55.9987 91.0586 55.8376C91.0586 55.6649 91.1622 55.5844 91.2888 55.6649C91.4154 55.734 91.519 55.9297 91.519 56.1023Z" fill="#D1D1D1"/>
<path d="M96.4452 31.218C96.4452 30.654 95.8928 29.7908 94.9029 29.1807L94.7763 29.1002C94.3159 28.8354 94.2354 29.2959 94.2354 29.8368C94.2354 29.8714 94.2354 29.9865 94.2354 30.021C94.2354 30.5735 94.3159 31.1259 94.7763 31.3907L94.9029 31.4712C95.8928 32.0007 96.4452 31.782 96.4452 31.218Z" fill="#954A83"/>
<path d="M95.9045 31.5403L96.0542 31.782L96.2268 31.6784L96.2729 31.5288L95.9045 31.5403Z" fill="#954A83"/>
<path d="M94.3277 29.3419L94.2241 29.1808L94.4428 29.0542L94.5694 29.1233L94.3277 29.3419Z" fill="#954A83"/>
<path d="M96.2727 31.31C96.2727 30.746 95.7202 29.8828 94.7303 29.2728L94.6037 29.1922C94.1433 28.9275 94.0627 29.3879 94.0627 29.9288C94.0627 29.9634 94.0627 30.0785 94.0627 30.113C94.0627 30.6655 94.1433 31.2179 94.6037 31.4827L94.7303 31.5633C95.7202 32.0927 96.2727 31.874 96.2727 31.31Z" fill="#672A5C"/>
<path d="M94.8339 31.0108C94.8339 31.1834 94.7303 31.264 94.6037 31.1834C94.4771 31.1143 94.3735 30.9072 94.3735 30.746C94.3735 30.5734 94.4771 30.4928 94.6037 30.5734C94.7303 30.6424 94.8339 30.8381 94.8339 31.0108Z" fill="#D1D1D1"/>
<path d="M94.8339 29.9519C94.8339 30.1246 94.7303 30.2051 94.6037 30.1246C94.4771 30.0555 94.3735 29.8483 94.3735 29.6872C94.3735 29.5145 94.4771 29.434 94.6037 29.5145C94.7303 29.5836 94.8339 29.7793 94.8339 29.9519Z" fill="#D1D1D1"/>
<path d="M95.3518 32.9216L94.7417 33.0828V34.0496L95.8927 34.4755V33.2439L95.3518 32.9216Z" fill="#672A5C"/>
<path d="M123.16 45.7092V46.7221L122.515 46.9408L122.239 45.7092H123.16Z" fill="#672A5C"/>
<path d="M99.3458 31.2527C98.5861 31.6901 97.205 32.4843 97.205 32.4843C97.205 32.4843 95.8238 33.2785 95.0641 33.7159C94.3045 34.1533 94.7073 34.2683 98.6437 36.5473C102.58 38.8263 114.55 45.2948 118.188 46.653C121.825 48.0227 122.791 47.2515 122.791 47.2515C122.791 47.2515 124.115 46.6991 121.756 44.5928C119.396 42.4864 108.197 35.592 104.249 33.313C100.301 31.0456 100.105 30.8154 99.3458 31.2527Z" fill="#672A5C"/>
<path d="M99.3458 30.3204C98.5861 30.7577 97.205 31.5519 97.205 31.5519C97.205 31.5519 95.8238 32.3461 95.0641 32.7835C94.3045 33.2209 94.7073 33.336 98.6437 35.6149C102.592 37.8939 114.55 44.3625 118.188 45.7206C121.825 47.0788 122.791 46.3192 122.791 46.3192C122.791 46.3192 124.115 45.7667 121.756 43.6603C119.396 41.554 108.197 34.6596 104.249 32.3807C100.301 30.1132 100.105 29.883 99.3458 30.3204Z" fill="#E79CE1"/>
<path d="M91.001 57.3225C90.8974 57.3225 90.8053 57.2649 90.7593 57.1613L84.4749 42.1524C84.4173 42.0258 84.4864 41.8762 84.613 41.8186C84.7396 41.7611 84.9007 41.8301 84.9468 41.9567L91.2312 56.9657C91.2887 57.0923 91.2197 57.2419 91.0931 57.2994C91.0585 57.3109 91.0355 57.3225 91.001 57.3225Z" fill="#954A83"/>
<path d="M92.1175 57.1038C91.9218 57.1038 91.7262 56.9886 91.6456 56.793L85.6029 42.4632C85.4878 42.1984 85.6144 41.8992 85.8792 41.7841C86.1439 41.669 86.4431 41.7956 86.5582 42.0603L92.6009 56.3902C92.716 56.6549 92.5894 56.9541 92.3247 57.0692C92.2557 57.0923 92.1866 57.1038 92.1175 57.1038Z" fill="#954A83"/>
<path d="M86.4893 38.6995L83.9226 42.0949C83.9226 42.0949 85.9829 44.2818 87.5252 42.256C89.056 40.2188 86.4893 38.6995 86.4893 38.6995Z" fill="#672A5C"/>
<path d="M92.1059 56.9311C92.1059 56.3671 91.5534 55.5039 90.5636 54.8939L90.437 54.8133C89.9766 54.5486 89.896 55.009 89.896 55.55C89.896 55.5845 89.896 55.6996 89.896 55.7341C89.896 56.2866 89.9766 56.8391 90.437 57.1038L90.5636 57.1843C91.5534 57.7138 92.1059 57.4951 92.1059 56.9311Z" fill="#954A83"/>
<path d="M91.5652 57.2535L91.7148 57.4952L91.8875 57.3916L91.9335 57.2419L91.5652 57.2535Z" fill="#954A83"/>
<path d="M89.9884 55.0551L89.8848 54.8939L90.1034 54.7673L90.23 54.8479L89.9884 55.0551Z" fill="#954A83"/>
<path d="M91.9336 57.0347C91.9336 56.4707 91.381 55.6074 90.3912 54.9974L90.2646 54.9168C89.8042 54.6521 89.7236 55.1125 89.7236 55.6535C89.7236 55.688 89.7236 55.8031 89.7236 55.8376C89.7236 56.3901 89.8042 56.9426 90.2646 57.2073L90.3912 57.2879C91.381 57.8173 91.9336 57.5987 91.9336 57.0347Z" fill="#672A5C"/>
<path d="M90.4948 56.7354C90.4948 56.908 90.3912 56.9886 90.2646 56.908C90.138 56.839 90.0344 56.6318 90.0344 56.4706C90.0344 56.298 90.138 56.2174 90.2646 56.298C90.3912 56.3671 90.4948 56.5627 90.4948 56.7354Z" fill="#D1D1D1"/>
<path d="M90.4948 55.6765C90.4948 55.8492 90.3912 55.9297 90.2646 55.8492C90.138 55.7801 90.0344 55.5729 90.0344 55.4118C90.0344 55.2391 90.138 55.1586 90.2646 55.2392C90.3912 55.3082 90.4948 55.5039 90.4948 55.6765Z" fill="#D1D1D1"/>
<path d="M98.0684 31.0685L118.257 42.7626C118.257 42.7626 117.98 41.2778 115.966 39.8276C113.964 38.3773 101.832 31.5289 99.8294 30.6196C98.6093 30.0672 98.0684 31.0685 98.0684 31.0685Z" fill="#A85A9A"/>
<path d="M117.416 41.669L118.256 42.7509L116.231 43.9479L96.5027 31.8165L98.586 30.585L117.416 41.669Z" fill="#A85A9A"/>
<path d="M96.0425 32.2656L116.231 43.9597C116.231 43.9597 115.955 42.4749 113.94 41.0246C111.938 39.5744 99.8062 32.726 97.8035 31.8167C96.5834 31.2758 96.0425 32.2656 96.0425 32.2656Z" fill="#672A5C"/>
<path d="M103.512 138.26C101.533 139.043 100.969 139.757 101.498 141.023C102.281 142.887 104.272 144.05 106.044 144.418C108.703 144.971 110.706 148.654 113.549 145.719C114.274 144.971 113.641 142.991 113.388 141.955C113.434 141.23 111.512 127.522 111.604 125.565C108.795 126.635 107.138 126.417 106.378 126.912C106.493 127.591 108.611 139.25 108.795 139.906C107.782 139.596 104.836 137.742 103.512 138.26Z" fill="#FFC9B6"/>
<path d="M113.411 141.61C113.411 141.61 111.742 142.208 110.672 142.554C109.601 142.899 107.034 143.037 105.055 141.126C103.524 139.642 105.872 138.629 105.872 138.629C105.872 138.629 103.777 136.223 101.302 137.259C100.151 137.742 99.4609 140.263 100.117 141.391C100.819 142.588 102.269 143.866 103.374 144.153C104.491 144.43 106.689 145.178 107.529 145.684C109.072 146.617 111.707 148.228 113.468 146.525C115.252 144.81 113.411 141.61 113.411 141.61Z" fill="#672A5C"/>
<path d="M107.345 110.544C107.345 110.544 102.292 108.772 100.163 105.883C99.2882 101.175 103.248 100.473 104.905 100.082C109.095 99.0806 114.159 99.1381 118.959 101.279C123.77 103.408 107.345 110.544 107.345 110.544Z" fill="#672A5C"/>
<path d="M88.5496 144.165C86.5699 144.947 86.0059 145.661 86.5353 146.927C87.318 148.792 89.3092 149.954 91.0817 150.323C93.7405 150.875 95.7433 154.558 98.5862 151.623C99.3113 150.875 98.6783 148.895 98.4251 147.859C98.4711 147.134 97.1935 144.855 97.2856 142.899C94.4772 143.969 94.1664 143.313 93.4068 143.808C93.5219 144.487 93.6485 145.155 93.8326 145.811C92.8197 145.5 89.8732 143.635 88.5496 144.165Z" fill="#FFC9B6"/>
<path d="M98.448 147.514C98.448 147.514 96.779 148.113 95.7086 148.458C94.6382 148.803 92.0715 148.942 90.0918 147.031C88.561 145.546 90.909 144.533 90.909 144.533C90.909 144.533 88.8142 142.128 86.3395 143.164C85.1886 143.647 84.498 146.168 85.154 147.296C85.8561 148.493 87.3064 149.77 88.4113 150.058C89.5278 150.334 91.7262 151.082 92.5664 151.589C94.1087 152.521 96.7445 154.132 98.5055 152.429C100.29 150.714 98.448 147.514 98.448 147.514Z" fill="#672A5C"/>
<path d="M120.984 123.884V150.069C120.984 150.069 120.984 150.104 120.984 150.127C120.984 150.921 119.776 151.554 118.291 151.554C116.806 151.554 115.597 150.91 115.597 150.127C115.597 150.104 115.597 150.069 115.597 150.069V123.884H120.984Z" fill="#E79CE1"/>
<path d="M118.291 122.446C119.776 122.446 120.984 123.09 120.984 123.873C120.984 124.667 119.776 125.3 118.291 125.3C116.806 125.3 115.597 124.655 115.597 123.873C115.597 123.09 116.806 122.446 118.291 122.446Z" fill="#DCE6F9"/>
<path d="M107.679 149.137C107.679 147.986 106.977 146.639 106.114 146.144C105.895 146.018 105.63 145.949 105.434 145.949C105.273 145.949 104.859 145.96 104.433 146.225C103.938 146.524 103.869 147.226 103.869 147.226L105.63 150.84C105.63 150.84 106.194 151.117 106.781 150.794C107.138 150.599 107.357 150.265 107.46 150.081C107.506 150 107.575 149.839 107.587 149.782C107.644 149.609 107.679 149.39 107.679 149.137Z" fill="#672A5C"/>
<path d="M103.811 147.733C103.811 148.884 104.513 150.23 105.377 150.725C106.24 151.22 106.942 150.691 106.942 149.54C106.942 148.389 106.24 147.042 105.377 146.547C104.513 146.052 103.811 146.582 103.811 147.733Z" fill="#954A83"/>
<path d="M104.41 148.193C104.41 148.826 104.79 149.563 105.273 149.839C105.745 150.115 106.136 149.828 106.136 149.194C106.136 148.561 105.757 147.825 105.273 147.549C104.79 147.261 104.41 147.56 104.41 148.193Z" fill="white"/>
<path d="M104.559 148.469C104.559 148.849 104.789 149.287 105.066 149.448C105.353 149.609 105.572 149.436 105.572 149.056C105.572 148.676 105.342 148.239 105.066 148.078C104.789 147.928 104.559 148.101 104.559 148.469Z" fill="#954A83"/>
<path d="M134.98 164.894C134.98 163.743 134.278 162.396 133.415 161.901C133.196 161.775 132.931 161.706 132.736 161.706C132.575 161.706 132.16 161.717 131.734 161.982C131.239 162.281 131.17 162.983 131.17 162.983L132.931 166.598C132.931 166.598 133.495 166.874 134.082 166.551C134.451 166.356 134.669 166.022 134.761 165.838C134.808 165.757 134.877 165.596 134.888 165.539C134.957 165.366 134.98 165.147 134.98 164.894Z" fill="#672A5C"/>
<path d="M131.113 163.49C131.113 164.641 131.815 165.988 132.678 166.482C133.541 166.977 134.243 166.448 134.243 165.297C134.243 164.146 133.541 162.799 132.678 162.304C131.815 161.809 131.113 162.339 131.113 163.49Z" fill="#954A83"/>
<path d="M131.711 163.95C131.711 164.583 132.091 165.32 132.575 165.596C133.047 165.872 133.438 165.585 133.438 164.952C133.438 164.318 133.058 163.582 132.575 163.306C132.103 163.029 131.711 163.317 131.711 163.95Z" fill="white"/>
<path d="M131.872 164.238C131.872 164.618 132.103 165.055 132.379 165.216C132.655 165.377 132.885 165.205 132.885 164.825C132.885 164.445 132.655 164.008 132.379 163.847C132.091 163.685 131.872 163.858 131.872 164.238Z" fill="#954A83"/>
<path d="M129.248 148.999C129.248 147.848 129.95 146.501 130.814 146.006C131.032 145.88 131.297 145.811 131.493 145.811C131.654 145.811 132.068 145.822 132.494 146.087C132.989 146.386 133.058 147.088 133.058 147.088L131.297 150.702C131.297 150.702 130.733 150.979 130.146 150.656C129.778 150.461 129.559 150.127 129.467 149.943C129.421 149.862 129.352 149.701 129.34 149.643C129.283 149.471 129.248 149.252 129.248 148.999Z" fill="#672A5C"/>
<path d="M133.116 147.595C133.116 148.746 132.414 150.092 131.55 150.587C130.687 151.082 129.985 150.553 129.985 149.402C129.985 148.251 130.687 146.904 131.55 146.409C132.414 145.914 133.116 146.444 133.116 147.595Z" fill="#954A83"/>
<path d="M132.517 148.055C132.517 148.688 132.137 149.425 131.654 149.689C131.182 149.966 130.791 149.678 130.791 149.045C130.791 148.412 131.171 147.675 131.654 147.399C132.137 147.123 132.517 147.422 132.517 148.055Z" fill="white"/>
<path d="M132.368 148.331C132.368 148.711 132.137 149.148 131.861 149.309C131.573 149.471 131.355 149.298 131.355 148.918C131.355 148.538 131.585 148.101 131.861 147.94C132.137 147.79 132.368 147.963 132.368 148.331Z" fill="#954A83"/>
<path d="M101.602 164.894C101.602 163.743 102.304 162.396 103.167 161.901C103.386 161.775 103.65 161.706 103.857 161.706C104.019 161.706 104.433 161.717 104.859 161.982C105.354 162.281 105.423 162.983 105.423 162.983L103.662 166.598C103.662 166.598 103.098 166.874 102.511 166.551C102.154 166.356 101.924 166.022 101.832 165.838C101.786 165.757 101.717 165.596 101.705 165.539C101.636 165.366 101.602 165.147 101.602 164.894Z" fill="#672A5C"/>
<path d="M105.469 163.49C105.469 164.641 104.767 165.988 103.904 166.482C103.04 166.977 102.338 166.448 102.338 165.297C102.338 164.146 103.04 162.799 103.904 162.304C104.767 161.809 105.469 162.339 105.469 163.49Z" fill="#954A83"/>
<path d="M104.871 163.95C104.871 164.583 104.491 165.32 104.007 165.596C103.535 165.872 103.144 165.585 103.144 164.952C103.144 164.318 103.524 163.582 104.007 163.306C104.491 163.029 104.871 163.317 104.871 163.95Z" fill="white"/>
<path d="M104.721 164.238C104.721 164.618 104.491 165.055 104.214 165.216C103.938 165.377 103.708 165.205 103.708 164.825C103.708 164.445 103.938 164.008 104.214 163.847C104.491 163.685 104.721 163.858 104.721 164.238Z" fill="#954A83"/>
<path d="M105.434 145.765C107.794 146.133 118.291 148.124 118.291 148.124C118.291 148.124 128.788 158.264 131.147 160.624C133.507 162.983 132.701 166.149 132.701 166.149L131.677 165.562C131.677 165.562 131.343 163.501 130.02 162.293C129.363 161.694 123.816 156.181 118.279 152.981C112.743 149.782 107.195 148.895 106.539 148.734C105.216 148.412 104.882 150.092 104.882 150.092L103.558 149.333C103.57 149.321 103.075 145.396 105.434 145.765Z" fill="#E79CE1"/>
<path d="M131.147 145.765C128.788 146.133 118.291 148.124 118.291 148.124C118.291 148.124 107.794 158.264 105.434 160.624C104.03 162.028 103.305 163.547 103.247 165.147C103.224 166.022 103.903 166.137 103.903 166.137L104.893 165.562C104.893 165.562 105.227 163.501 106.551 162.293C107.207 161.694 112.755 156.181 118.291 152.981C123.827 149.782 130.008 148.654 130.664 148.492C131.032 148.4 131.216 148.803 131.424 149.321C131.654 149.874 131.677 150.104 131.677 150.104L133.001 149.344C133.012 149.321 133.507 145.396 131.147 145.765Z" fill="#E79CE1"/>
<path d="M103.65 166.022C103.65 164.871 104.352 163.524 105.216 163.029C105.434 162.903 105.699 162.834 105.895 162.834C106.056 162.834 106.47 162.845 106.896 163.11C107.391 163.409 107.46 164.111 107.46 164.111L105.699 167.725C105.699 167.725 105.135 168.002 104.548 167.679C104.191 167.484 103.961 167.15 103.869 166.966C103.823 166.885 103.754 166.724 103.742 166.667C103.685 166.494 103.65 166.275 103.65 166.022Z" fill="#672A5C"/>
<path d="M107.518 164.618C107.518 165.769 106.816 167.115 105.952 167.61C105.089 168.105 104.387 167.576 104.387 166.425C104.387 165.274 105.089 163.927 105.952 163.432C106.816 162.937 107.518 163.467 107.518 164.618Z" fill="#954A83"/>
<path d="M106.919 165.078C106.919 165.711 106.54 166.448 106.056 166.713C105.584 166.989 105.193 166.701 105.193 166.068C105.193 165.435 105.573 164.698 106.056 164.422C106.54 164.157 106.919 164.445 106.919 165.078Z" fill="white"/>
<path d="M106.77 165.366C106.77 165.746 106.54 166.183 106.263 166.344C105.987 166.505 105.757 166.333 105.757 165.953C105.757 165.573 105.987 165.136 106.263 164.975C106.54 164.813 106.77 164.986 106.77 165.366Z" fill="#954A83"/>
<path d="M132.943 166.022C132.943 164.871 132.241 163.524 131.378 163.029C131.159 162.903 130.894 162.834 130.687 162.834C130.526 162.834 130.112 162.845 129.686 163.11C129.191 163.409 129.122 164.111 129.122 164.111L130.883 167.725C130.883 167.725 131.447 168.002 132.034 167.679C132.391 167.484 132.621 167.15 132.713 166.966C132.759 166.885 132.828 166.724 132.84 166.667C132.909 166.494 132.943 166.275 132.943 166.022Z" fill="#672A5C"/>
<path d="M129.076 164.618C129.076 165.769 129.778 167.115 130.641 167.61C131.505 168.105 132.207 167.576 132.207 166.425C132.207 165.274 131.505 163.927 130.641 163.432C129.778 162.937 129.076 163.467 129.076 164.618Z" fill="#954A83"/>
<path d="M129.674 165.078C129.674 165.711 130.054 166.448 130.538 166.713C131.009 166.989 131.401 166.701 131.401 166.068C131.401 165.435 131.021 164.698 130.538 164.422C130.054 164.157 129.674 164.445 129.674 165.078Z" fill="white"/>
<path d="M129.824 165.366C129.824 165.746 130.054 166.183 130.33 166.344C130.618 166.505 130.837 166.333 130.837 165.953C130.837 165.573 130.607 165.136 130.33 164.975C130.054 164.813 129.824 164.986 129.824 165.366Z" fill="#954A83"/>
<path d="M105.63 150.265C105.63 149.114 104.928 147.767 104.065 147.272C103.846 147.146 103.581 147.077 103.386 147.077C103.225 147.077 102.81 147.088 102.384 147.353C101.889 147.652 101.82 148.354 101.82 148.354L103.581 151.968C103.581 151.968 104.145 152.245 104.732 151.922C105.089 151.727 105.319 151.393 105.411 151.209C105.457 151.128 105.526 150.967 105.538 150.909C105.607 150.737 105.63 150.518 105.63 150.265Z" fill="#672A5C"/>
<path d="M101.763 148.861C101.763 150.012 102.465 151.358 103.328 151.853C104.191 152.348 104.893 151.819 104.893 150.668C104.893 149.517 104.191 148.17 103.328 147.675C102.465 147.18 101.763 147.71 101.763 148.861Z" fill="#954A83"/>
<path d="M102.361 149.321C102.361 149.954 102.741 150.691 103.224 150.967C103.696 151.243 104.088 150.955 104.088 150.322C104.088 149.689 103.708 148.953 103.224 148.676C102.752 148.4 102.361 148.688 102.361 149.321Z" fill="white"/>
<path d="M102.522 149.609C102.522 149.989 102.752 150.426 103.029 150.587C103.316 150.748 103.535 150.576 103.535 150.196C103.535 149.816 103.305 149.379 103.029 149.217C102.741 149.056 102.522 149.229 102.522 149.609Z" fill="#954A83"/>
<path d="M131.297 150.127C131.297 148.976 131.999 147.629 132.862 147.134C133.081 147.008 133.346 146.939 133.542 146.939C133.703 146.939 134.117 146.95 134.543 147.215C135.038 147.514 135.107 148.216 135.107 148.216L133.346 151.83C133.346 151.83 132.782 152.107 132.195 151.784C131.838 151.589 131.619 151.255 131.516 151.071C131.47 150.99 131.401 150.829 131.389 150.772C131.332 150.599 131.297 150.38 131.297 150.127Z" fill="#672A5C"/>
<path d="M135.164 148.723C135.164 149.874 134.462 151.22 133.599 151.715C132.736 152.21 132.034 151.681 132.034 150.53C132.034 149.379 132.736 148.032 133.599 147.537C134.462 147.042 135.164 147.572 135.164 148.723Z" fill="#954A83"/>
<path d="M134.566 149.183C134.566 149.816 134.186 150.553 133.703 150.818C133.219 151.082 132.84 150.806 132.84 150.173C132.84 149.54 133.219 148.803 133.703 148.527C134.175 148.262 134.566 148.55 134.566 149.183Z" fill="white"/>
<path d="M134.416 149.459C134.416 149.839 134.186 150.277 133.91 150.438C133.634 150.599 133.404 150.426 133.404 150.046C133.404 149.666 133.634 149.229 133.91 149.068C134.186 148.918 134.416 149.091 134.416 149.459Z" fill="#954A83"/>
<path d="M133.921 121.156V126.071C133.921 126.071 133.921 126.29 133.921 126.393C133.921 130.986 126.912 134.715 118.268 134.715C109.624 134.715 102.615 130.986 102.615 126.393C102.615 126.278 102.615 126.071 102.615 126.071V121.156H133.921Z" fill="#D680D4"/>
<path d="M136.154 119.948V122.63C136.154 122.63 136.154 122.872 136.154 122.998C136.154 128.224 128.201 132.448 118.383 132.448C108.565 132.448 100.612 128.212 100.612 122.998C100.612 122.872 100.612 122.63 100.612 122.63V119.948H136.154Z" fill="#F8B505"/>
<path d="M118.383 110.498C128.201 110.498 136.154 114.734 136.154 119.948C136.154 125.173 128.201 129.398 118.383 129.398C108.565 129.398 100.612 125.162 100.612 119.948C100.612 114.734 108.565 110.498 118.383 110.498Z" fill="#FED03D"/>
<path d="M103.236 70.8468C103.236 70.8468 101.763 72.2395 103.098 73.5055C104.422 74.7716 109.474 79.9281 112.018 81.4819C114.573 83.0357 119.511 80.0662 119.477 79.249C119.442 78.4433 110.66 74.0925 108.531 72.7804C106.401 71.4683 105.193 70.3518 105.193 70.3518L103.236 70.8468Z" fill="#FFC9B6"/>
<path d="M90.3335 110.544C89.2516 114.124 90.4486 120.466 91.1047 126.209C91.7608 131.953 93.7289 147.353 93.7289 147.353L98.425 147.86C98.425 147.86 98.9314 138.778 100.048 131.642C101.36 123.274 101.314 116.104 101.314 116.104L90.3335 110.544Z" fill="#FFC9B6"/>
<path d="M122.181 68.6828C125.174 67.8081 126.59 69.1662 128.65 72.8839C130.699 76.6016 131.47 82.6328 127.142 84.2903C122.814 85.9477 119.477 70.8467 119.477 70.8467C119.477 70.8467 121.399 68.913 122.181 68.6828Z" fill="#BDD6E5"/>
<path d="M116.99 115.402C118.498 117.738 118.164 119.626 118.222 122.135C122.4 121.847 126.486 121.939 129.985 119.914C137.248 115.712 131.988 105.457 127.741 98.9771C124.794 102.925 118.613 105.837 113.468 105.377C113.629 107.506 114.101 109.681 114.458 110.867C115.011 112.628 116.012 113.882 116.99 115.402Z" fill="#F8B505"/>
<path d="M128.086 115.436C127.038 109.785 127.602 105.077 127.499 103.742C127.43 102.787 113.79 106.884 109.175 105.883C106.171 105.238 95.9156 105.445 92.0943 108.173C89.2053 110.234 89.5851 114.216 92.6353 116.645C96.7903 119.959 109.014 120.662 111.017 121.156C112.513 122.791 117.243 124.84 120.984 124.828C126.44 124.805 128.684 118.705 128.086 115.436Z" fill="#843A76"/>
<path d="M124.322 73.1833C124.288 72.9301 124.08 72.7114 123.85 72.6308C120.409 71.3877 119.741 69.4195 119.373 66.1853C119.315 65.7249 118.74 65.4716 118.348 65.6788C116.392 66.6802 113.756 67.6125 111.592 68.0269C113.111 74.0696 110.096 74.8062 108.358 77.0276C107.92 77.5916 111.765 80.8719 113.963 80.7338C115.862 80.6187 117.773 80.1583 119.465 79.2605C121.353 78.2707 124.644 75.6464 124.322 73.1833Z" fill="#FFC9B6"/>
<path d="M120.616 60.5914C120.524 57.5298 116.898 52.8567 113.48 52.8452C109.992 52.8337 108.105 57.4147 107.644 59.7857C106.873 63.8142 107.218 72.343 113.837 70.3863C118.982 68.867 120.754 65.1608 120.616 60.5914Z" fill="#FFC9B6"/>
<path d="M105.814 82.9553C106.77 79.0764 107.529 76.7975 110.223 75.2206C112.962 74.7487 115.667 77.2464 118.763 75.0825C120.961 73.5402 121.007 71.5144 121.399 71.2497C124.311 69.3736 125.749 70.9504 126.981 73.0683C129.87 77.9945 129.11 83.5192 129.099 89.7346C129.099 93.6595 131.309 100.704 132.989 103.834C132.011 106.067 127.706 111.12 123.056 111.316C120.052 111.442 112.996 110.073 110.994 106.067C111.707 102.234 110.994 96.537 109.762 94.9831C108.323 93.1646 104.755 90.5863 104.537 88.8368C104.318 86.8801 105.319 84.9695 105.814 82.9553Z" fill="#DCEAF4"/>
<path d="M122.803 69.8568C122.803 69.8568 123.574 71.8596 122.503 73.6551C121.444 75.4507 119.476 76.3945 117.105 76.4405C114.734 76.4865 109.773 75.4967 109.773 75.4967C109.773 75.4967 109.612 74.0695 111.097 73.6091C112.582 73.1487 117.013 74.3227 118.901 73.3789C120.8 72.4351 120.8 71.1805 121.514 70.1791C122.227 69.1777 122.803 69.8568 122.803 69.8568Z" fill="#BDD6E5"/>
<path d="M125.116 58.3239C124.829 56.3903 123.724 54.7559 122.089 54.0423C121.422 52.592 121.364 51.3835 118.061 49.8296C113.791 47.8154 109.762 50.2555 109.762 53.2365C107.345 52.8567 106.551 55.0436 106.988 58.0477C107.483 61.3856 110.706 64.7234 113.975 64.2861C114.619 66.8182 116.415 70.4439 119.465 70.8582C119.902 66.8758 125.807 62.8704 125.116 58.3239Z" fill="#672A5C"/>
<path d="M110.971 64.666C110.971 64.666 110.925 61.2246 112.847 62.341C114.78 63.4575 114.849 66.4961 113.353 67.2788C111.868 68.0499 110.971 64.666 110.971 64.666Z" fill="#FFC9B6"/>
<path d="M123.988 56.4594C123.885 55.5617 123.551 54.3416 122.906 53.5014C123.091 52.6957 122.699 51.6483 121.94 51.4526C122.573 49.8988 119.845 48.9434 118.648 49.2427C117.738 49.4729 117.14 50.198 117.036 51.1303C116.99 51.5907 117.059 52.1893 117.244 52.7187C116.093 52.8568 115.057 53.674 115.195 54.9976C115.287 55.8839 115.92 56.6321 116.691 57.0349C117.025 57.2076 117.462 57.3687 117.911 57.4377C116.772 59.452 119.281 62.5136 121.859 61.2706C123.586 60.4303 124.184 58.2089 123.988 56.4594Z" fill="#FED03D"/>
<path d="M121.065 51.4295C118.165 51.2223 116.772 54.0998 118.464 58.1283C120.156 62.1683 123.494 62.0532 125.611 62.7553C127.464 63.3653 126.958 65.909 125.727 66.8988C124.219 68.1189 122.907 67.7391 122.907 67.7391C122.907 67.7391 125.726 71.0999 130.135 69.0282C133.208 67.5894 134.175 61.5698 131.758 54.0883C130.077 48.9089 126.705 47.1133 124.023 48.6096C122.584 49.4153 121.065 51.4295 121.065 51.4295Z" fill="#672A5C"/>
<path d="M146.157 72.3431C146.755 71.9403 147.089 71.5259 146.732 71.2266C145.938 70.5706 143.797 69.5922 142.784 69.1549C142.646 69.0858 142.52 69.0397 142.381 68.9822C142.289 68.9362 142.232 68.9247 142.232 68.9247C140.482 68.2801 138.526 68.4988 136.477 69.6728C129.352 73.7818 123.079 88.4915 123.079 103.869C123.079 115.966 124.035 121.905 126.164 123.551L126.152 123.562C126.152 123.562 128.742 125.093 129.939 125.507C130.722 124.299 131.182 123.378 131.182 123.378L130.641 122.918C133.001 121.375 134.888 118.751 136.465 117.842C138.56 116.633 141.219 117.819 144.775 114.4C148.332 110.982 149.702 103.869 149.702 88.4915C149.713 81.2287 148.344 75.7155 146.157 72.3431Z" fill="#FED03D"/>
<path d="M139.55 71.2381C146.675 67.1291 152.786 74.6796 152.786 90.0568C152.786 105.434 151.428 112.547 147.86 115.966C144.303 119.384 141.645 118.199 139.55 119.407C137.455 120.616 134.796 124.863 131.24 125.565C127.683 126.267 126.152 120.811 126.152 105.434C126.152 90.0568 132.437 75.3587 139.55 71.2381Z" fill="#F8B505"/>
<path d="M130.837 135.187C132.563 135.187 134.255 134.669 135.821 133.656C139.596 131.205 141.84 126.359 141.84 120.673V102.879C141.84 101.993 141.127 101.279 140.24 101.279C139.354 101.279 138.64 101.993 138.64 102.879V120.673C138.64 125.197 136.891 129.133 134.071 130.963C133.035 131.642 131.228 132.057 130.146 131.93C129.087 132.597 126.958 133.311 124.99 133.576C126.244 134.14 129.571 135.187 130.837 135.187Z" fill="#D680D4"/>
<path d="M83.5772 80.7338C81.7011 79.5138 80.3429 78.5354 79.284 78.57C78.6279 78.593 78.4208 78.8577 78.72 79.6289C76.8209 80.2159 78.133 84.6357 81.1947 86.3162C83.5887 87.6283 84.9009 86.6269 86.7079 87.6858C87.3064 88.0426 88.4114 89.1936 89.171 90.1605C92.2326 94.0393 93.257 96.1916 95.8928 98.1944C98.5286 100.209 99.599 98.9655 102.361 98.5051C105.308 98.0102 111.592 90.195 111.592 90.195L104.721 84.0717L98.2523 91.979C98.2523 91.979 92.0255 85.8442 89.9077 83.8991C88.5725 82.679 89.0214 81.6892 89.0789 80.2849C89.1365 79.1224 89.4588 78.57 88.515 78.57C87.341 78.57 87.433 80.6878 87.0302 81.482C86.6504 82.2762 83.9685 80.9871 83.5772 80.7338Z" fill="#FFC9B6"/>
<path d="M112.421 78.7426C112.421 78.7426 109.785 76.9241 107.334 77.8104C104.882 78.6966 102.833 82.702 101.636 84.9925C100.439 87.2715 98.7703 90.2065 98.7703 90.2065C98.7703 90.2065 100.416 93.3833 102.615 94.799C104.813 96.2147 107.679 96.1917 107.679 96.1917C107.679 96.1917 111.132 93.9587 112.686 89.09C114.24 84.2329 114.677 79.7325 112.421 78.7426Z" fill="#BDD6E5"/>
<path d="M106.401 71.4798C106.401 71.4798 104.859 69.7073 102.534 68.0383C101.533 67.3132 100.969 66.3003 100.531 66.1967C99.6449 65.978 99.6794 66.7262 100.036 67.3938C100.577 68.3836 102.073 70.018 99.2881 69.7188C96.5027 69.408 94.9143 69.2008 93.8093 69.4771C93.1418 69.6497 92.7504 70.0986 93.2914 70.3748C92.6584 70.6971 92.6123 71.2035 93.1993 71.5949C92.7965 71.6409 92.7389 72.274 93.441 72.6653C92.9806 73.0106 93.2223 73.3559 94.9949 73.8278C98.2752 74.7026 103.098 73.517 103.098 73.517L106.401 71.4798Z" fill="#FFC9B6"/>
<path d="M71.6644 67.9116L59.4754 74.9097C59.4293 75.5312 59.4754 76.1527 59.7401 76.6131C60.2811 77.5799 62.0421 78.259 62.0421 78.259L67.1985 80.8257L78.2941 74.4378L79.0077 74.8521V74.0234L72.9305 70.5129C72.1708 70.064 71.5838 69.0396 71.6644 67.9116Z" fill="#954A83"/>
<path d="M71.8717 67.0139C72.4932 65.4485 74.3118 60.3956 74.3348 60.3496L73.6558 60.1079C73.6442 60.1309 73.1608 61.4661 72.6199 62.9624C70.3639 64.309 61.1445 69.6381 61.1445 69.6381C61.1445 69.6381 60.1546 72.0897 59.8669 73.0335C59.7057 73.5285 59.5331 74.2306 59.4871 74.9212L71.676 67.9231C71.6876 67.6124 71.7566 67.3131 71.8717 67.0139Z" fill="#843A76"/>
<path d="M67.21 80.8256L61.1328 77.3151C60.1545 76.7511 59.4754 75.2779 60.0624 73.8161C60.6839 72.2508 62.5025 67.1979 62.5255 67.1519L61.8464 66.9102C61.8234 66.9562 60.0048 71.9975 59.3948 73.5629C58.6697 75.393 59.5329 77.223 60.776 77.9482L67.21 81.6659V80.8256Z" fill="#672A5C"/>
<path d="M79.0309 74.0234L67.2102 80.8258V81.6545L79.0309 74.8407V74.0234Z" fill="#843A76"/>
<path d="M48.8059 79.5941V48.1146L91.3926 23.5754V55.0665L48.8059 79.5941Z" fill="#A85A9A"/>
<path d="M91.0471 54.8249L49.105 79.0418V48.3334L91.0471 24.105V54.8249Z" fill="#954A83"/>
<path d="M90.4716 51.3718L49.5769 74.9786V48.7936L90.4716 25.1868V51.3718Z" fill="white"/>
<path d="M69.1147 48.8319C69.1147 49.3574 68.7445 49.9985 68.2895 50.2612L65.625 51.7995C65.1701 52.0622 64.7998 51.8486 64.7998 51.3231C64.7998 50.4751 65.3972 49.4405 66.1316 49.0165L67.7829 48.0631C68.5173 47.6391 69.1147 47.9839 69.1147 48.8319ZM67.7829 47.2551L66.1316 48.2085C65.0115 48.8552 64.1001 50.4336 64.1001 51.7271C64.1001 52.6982 64.7841 53.0931 65.625 52.6076L68.2895 51.0693C69.1304 50.5838 69.8145 49.399 69.8145 48.4279C69.8145 47.1344 68.9031 46.6083 67.7829 47.2551Z" fill="#001B69"/>
<path d="M68.1259 48.56L65.7888 49.9094C65.5958 50.0208 65.439 50.2925 65.439 50.5155C65.439 50.7382 65.5958 50.8289 65.7888 50.7175L68.1259 49.3681C68.3189 49.2567 68.4757 48.985 68.4757 48.7622C68.4757 48.5393 68.3189 48.4486 68.1259 48.56Z" fill="#001B69"/>
<path d="M69.6222 51.5068C69.6782 51.2663 69.5775 51.1032 69.3972 51.1425C69.2168 51.1822 69.0252 51.409 68.969 51.6495L68.0567 55.5651C67.9936 55.7262 67.8805 55.8695 67.7547 55.9422L65.7908 57.076C65.597 57.1879 65.4393 57.0968 65.4393 56.8732L65.4393 54.6053C65.4393 54.3817 65.597 54.1085 65.7908 53.9966L67.7547 52.8627C67.9437 52.7537 68.0967 52.4886 68.0967 52.2705C68.0967 52.0523 67.9437 51.964 67.7547 52.0731L65.7908 53.2069C65.2199 53.5366 64.7554 54.341 64.7554 55.0002L64.7554 57.268C64.7554 57.9273 65.2199 58.1952 65.7908 57.8655L67.7547 56.7317C68.1439 56.507 68.4967 56.0552 68.6752 55.5527L68.682 55.5287L68.6974 55.476L68.6988 55.4702L68.7011 55.46L69.6222 51.5068Z" fill="#001B69"/>
<path d="M57.5459 53.1648C57.6538 53.1025 57.7455 53.0933 57.8212 53.1368C57.8968 53.1805 57.9346 53.2646 57.9346 53.3894C57.9346 53.5078 57.8994 53.6296 57.8293 53.7541C57.7591 53.8789 57.6754 53.9755 57.5783 54.0438L56.6523 54.5785C56.4903 54.6846 56.3568 54.8069 56.2514 54.9456C56.1462 55.0842 56.0638 55.2269 56.0044 55.3734C55.9449 55.5199 55.9044 55.6648 55.883 55.8082C55.8614 55.9516 55.8507 56.0762 55.8507 56.1821L55.8507 57.7718C55.8507 57.8967 55.8128 58.0244 55.7373 58.1554C55.6616 58.2863 55.5698 58.3828 55.4619 58.445C55.3538 58.5075 55.262 58.517 55.1865 58.4734C55.1109 58.4297 55.0731 58.3456 55.0731 58.2207L55.0731 56.631C55.0731 56.4379 55.0946 56.2305 55.138 56.0091C55.1811 55.788 55.2459 55.5651 55.3324 55.3405L53.3888 56.4626C53.2806 56.5251 53.1888 56.5346 53.1134 56.4908C53.0378 56.4474 53 56.3632 53 56.2384C53 56.1136 53.0378 55.9859 53.1134 55.8549C53.1888 55.7241 53.2806 55.6274 53.3888 55.5649L57.5459 53.1648Z" fill="#001B69"/>
<path d="M76.2534 46.2726C76.1724 46.4317 76.0726 46.5453 75.9538 46.6139C75.8456 46.6764 75.7538 46.6859 75.6782 46.6424C75.6028 46.5985 75.5649 46.5144 75.5649 46.3896C75.5649 46.2773 75.592 46.1714 75.6461 46.0717L77.6137 41.8779C77.7056 41.6813 77.8271 41.4946 77.9782 41.3169C78.1292 41.1393 78.2912 41.0003 78.4642 40.9005C78.6259 40.8071 78.7798 40.759 78.9258 40.7555C79.0715 40.7526 79.1902 40.796 79.282 40.8866L81.2499 42.7895C81.2822 42.8145 81.3092 42.8472 81.3308 42.8877C81.3524 42.9282 81.3632 42.9798 81.3632 43.042C81.3632 43.1668 81.3254 43.2945 81.2499 43.4256C81.1742 43.5564 81.0826 43.6528 80.9744 43.7152C80.8449 43.79 80.7424 43.7902 80.6669 43.7153L78.7798 41.8967C78.742 41.8686 78.6949 41.8411 78.6383 41.8145C78.5816 41.7882 78.5234 41.7922 78.4642 41.8264C78.4045 41.8608 78.3466 41.9239 78.2899 42.0156C78.2333 42.1076 78.1888 42.188 78.1563 42.2567L76.2534 46.2726Z" fill="#001B69"/>
<path d="M71.1033 47.8434C71.1033 47.9308 71.125 48.001 71.1682 48.0539C71.2112 48.107 71.2693 48.145 71.3422 48.1685C71.4151 48.1917 71.5015 48.1934 71.6014 48.1731C71.7013 48.1529 71.8079 48.1098 71.9214 48.0443L73.5653 47.0952C73.7434 46.9924 73.8905 46.8734 74.0067 46.7376C74.1226 46.602 74.2144 46.4618 74.2818 46.317C74.3494 46.1719 74.3981 46.0286 74.4278 45.8865C74.4575 45.7447 74.4724 45.6178 74.4724 45.5055L74.4724 43.8413C74.4724 43.7164 74.5114 43.588 74.5897 43.4554C74.6679 43.3231 74.7583 43.2272 74.861 43.1679C74.9689 43.1056 75.0606 43.0964 75.1364 43.1398C75.2118 43.1836 75.2496 43.2677 75.2496 43.3925L75.2496 44.9821C75.2496 45.219 75.2145 45.4775 75.1444 45.7582C75.0742 46.0388 74.973 46.3153 74.8407 46.5881C74.7085 46.8607 74.5479 47.114 74.3589 47.3477C74.1698 47.5817 73.9594 47.7655 73.7272 47.8996L71.6863 49.0778C71.5028 49.1838 71.3287 49.2408 71.1642 49.2484C70.9993 49.2562 70.8549 49.2228 70.7308 49.1479C70.6066 49.0731 70.5081 48.9617 70.4352 48.8136C70.3625 48.6654 70.3259 48.4918 70.3259 48.2922C70.3259 48.1676 70.3651 48.0391 70.4433 47.9065C70.5216 47.7742 70.612 47.6783 70.7147 47.619C70.8226 47.5567 70.9144 47.5474 70.9901 47.5908C71.0655 47.6347 71.1033 47.7188 71.1033 47.8434Z" fill="#001B69"/>
<path d="M59.3325 53.2373C59.3433 53.1747 59.3703 53.1109 59.4135 53.0454C59.4567 52.9801 59.5133 52.9269 59.5836 52.8864L62.418 51.2499C62.4936 51.2189 62.5597 51.2182 62.6163 51.2479C62.6721 51.2769 62.7001 51.3372 62.701 51.428C62.7001 51.52 62.6721 51.6126 62.6163 51.7061C62.5597 51.801 62.4936 51.8767 62.418 51.9327L59.5836 53.5692C59.5133 53.6098 59.4567 53.6221 59.4135 53.6068C59.3703 53.5911 59.3433 53.5584 59.3325 53.5084L59.3325 53.2373ZM63.1468 52.045C63.2494 51.8737 63.3303 51.6961 63.3898 51.5119C63.4467 51.3356 63.4757 51.1632 63.478 50.9953L63.4789 50.9834L63.4787 50.979L63.4789 50.9742L63.478 50.9636C63.4757 50.7985 63.4467 50.6596 63.3898 50.5488C63.3303 50.4333 63.2494 50.3492 63.1468 50.2963C63.0442 50.2432 62.9254 50.2231 62.7905 50.2355C62.6554 50.2481 62.5124 50.2977 62.3613 50.3849L59.5432 52.0119C59.4243 52.0806 59.3055 52.179 59.1868 52.3067C59.068 52.4345 58.9627 52.578 58.8709 52.7369C58.7791 52.896 58.7035 53.0672 58.6441 53.2511C58.5847 53.435 58.5552 53.6205 58.5552 53.8076L58.5552 56.2106C58.5552 56.3355 58.5928 56.4195 58.6686 56.4632C58.7441 56.5069 58.8356 56.4975 58.9439 56.435C59.0463 56.3759 59.1368 56.2801 59.2152 56.1477C59.2934 56.0151 59.3325 55.8867 59.3325 55.7617L59.3325 54.6211L59.65 54.4378C59.9794 54.2476 60.2139 54.1231 60.5028 53.9782C60.7916 53.8333 61.0657 53.7328 61.3247 53.6766C61.5839 53.6206 61.8309 53.6151 62.0658 53.6601C62.3006 53.7055 62.5286 53.8232 62.75 54.0132C62.7662 54.0291 62.7905 54.0461 62.8229 54.0648C62.8606 54.0804 62.9011 54.0882 62.9444 54.088C62.9876 54.088 63.0362 54.0723 63.0902 54.0412C63.1981 53.9789 63.2898 53.8824 63.3656 53.7514C63.441 53.6204 63.4789 53.4928 63.4789 53.3679C63.4789 53.2807 63.4518 53.2123 63.3978 53.1624C63.2035 52.9442 62.9836 52.7923 62.738 52.7064C62.7011 52.6936 62.6621 52.6848 62.6239 52.6749C62.6806 52.6265 62.7364 52.5747 62.7905 52.5174C62.9254 52.3739 63.0442 52.2164 63.1468 52.045Z" fill="#001B69"/>
<path d="M86.1385 38.3269C86.1141 38.207 86.0684 38.1101 86.0008 38.0372C85.9333 37.9639 85.8402 37.9226 85.7214 37.9131C85.6025 37.9037 85.4515 37.9519 85.268 38.0579L83.6602 38.9861C83.4712 39.0953 83.3187 39.2223 83.2027 39.3673C83.0866 39.5124 82.9947 39.6604 82.9273 39.8117C82.8598 39.9626 82.8141 40.1123 82.7895 40.2604C82.7652 40.4087 82.7532 40.5387 82.7532 40.6506L82.7532 42.2403C82.7532 42.3652 82.7154 42.4929 82.6399 42.6238C82.564 42.7549 82.4724 42.8513 82.3647 42.9135C82.2565 42.9759 82.1647 42.9854 82.0891 42.9418C82.0136 42.8981 81.9758 42.814 81.9758 42.6891L81.9758 41.0994C81.9758 40.8627 82.0095 40.6049 82.0769 40.3258C82.1445 40.047 82.243 39.7719 82.3725 39.5007C82.5021 39.2294 82.6586 38.9786 82.8423 38.748C83.0258 38.5171 83.2338 38.3346 83.4659 38.2006L85.5432 37.0013C85.7647 36.8862 85.9615 36.8425 86.1344 36.8707C86.3071 36.8987 86.4543 36.9743 86.5759 37.0973C86.6972 37.2205 86.7905 37.3818 86.8552 37.5812C86.92 37.7807 86.9523 37.996 86.9523 38.2263L86.9523 39.8159C86.9523 39.9409 86.9146 40.0685 86.8391 40.1994C86.7634 40.3303 86.6717 40.4268 86.5635 40.4892C86.4555 40.5516 86.3637 40.5611 86.2883 40.5174C86.2126 40.4738 86.175 40.3896 86.175 40.2647L86.175 38.675C86.175 38.5631 86.1626 38.4472 86.1385 38.3269Z" fill="#001B69"/>
<path d="M74.1439 49.6577C73.9815 49.7237 73.8646 49.7345 73.7766 49.6869C73.6849 49.6371 73.641 49.5195 73.641 49.3366C73.641 48.948 73.8912 48.5286 74.3008 48.2921C74.4777 48.1899 74.6001 48.1561 74.7293 48.1506C74.8183 48.1469 74.8808 48.1862 74.8808 48.2767C74.8808 48.3197 74.8663 48.3774 74.8383 48.4334C74.8117 48.484 74.7758 48.5279 74.728 48.5555C74.684 48.5809 74.6335 48.5869 74.5895 48.5863C74.4886 48.5831 74.4007 48.6092 74.2902 48.673C74.0946 48.7859 73.9989 48.9655 73.9989 49.1056C73.9989 49.1732 74.0135 49.2214 74.0534 49.2415C74.0933 49.26 74.1412 49.26 74.229 49.2246L74.4512 49.1331C74.624 49.0625 74.7345 49.0525 74.8144 49.0939C74.9156 49.1446 74.9608 49.2767 74.9608 49.4717C74.9608 49.8942 74.6547 50.3123 74.257 50.5419C74.0508 50.6609 73.9309 50.6978 73.786 50.7016C73.6648 50.7054 73.5972 50.6831 73.5972 50.56C73.5972 50.5141 73.6156 50.4466 73.6477 50.3911C73.6782 50.3384 73.7127 50.3061 73.7514 50.2837C73.794 50.2591 73.8312 50.2531 73.9018 50.2553C74.0334 50.2592 74.1199 50.243 74.2609 50.1616C74.479 50.0357 74.5976 49.8659 74.5976 49.6922C74.5976 49.617 74.5789 49.5633 74.5402 49.5425C74.507 49.5248 74.4591 49.5293 74.37 49.5657L74.1439 49.6577Z" fill="#001B69"/>
<path d="M75.9624 47.9188C76.1167 47.8298 76.2418 47.8222 76.3297 47.9097C76.4466 47.7007 76.5717 47.5671 76.7448 47.4671C76.883 47.3873 77.0081 47.3675 77.0852 47.4119C77.1969 47.4765 77.2369 47.6039 77.2369 47.7791L77.2369 48.5411C77.2369 48.6379 77.2328 48.6785 77.2144 48.7322C77.189 48.8053 77.1346 48.8735 77.0639 48.9143C76.9934 48.955 76.9389 48.9496 76.9136 48.9059C76.895 48.8736 76.8911 48.8376 76.8911 48.7407L76.8911 48.034C76.8911 47.8174 76.7712 47.8143 76.6622 47.8773C76.5558 47.9387 76.4306 48.0833 76.4306 48.2908L76.4306 49.0066C76.4306 49.1035 76.4268 49.1439 76.408 49.1978C76.3827 49.2708 76.3282 49.339 76.2578 49.3797C76.1872 49.4205 76.1328 49.4151 76.1074 49.3713C76.0889 49.339 76.0849 49.303 76.0849 49.2062L76.0849 48.4995C76.0849 48.2829 75.9652 48.2797 75.856 48.3427C75.747 48.4056 75.6246 48.5486 75.6246 48.7653L75.6246 49.4719C75.6246 49.5688 75.6205 49.6094 75.602 49.6631C75.5767 49.7361 75.5221 49.8045 75.4517 49.8451C75.3811 49.8859 75.3265 49.8806 75.3012 49.8368C75.2826 49.8045 75.2786 49.7686 75.2786 49.6717L75.2786 48.5916C75.2786 48.489 75.2826 48.4557 75.3039 48.3973C75.3292 48.3275 75.3877 48.2569 75.4529 48.2192C75.4995 48.1923 75.5368 48.1878 75.5634 48.2016C75.5912 48.2145 75.6045 48.2408 75.6151 48.2883C75.7043 48.1247 75.8346 47.9926 75.9624 47.9188Z" fill="#001B69"/>
<path d="M78.3072 47.5082L78.0437 47.6604C77.9054 47.7402 77.8389 47.8433 77.8389 47.963C77.8389 48.0736 77.9054 48.1059 78.049 48.023C78.1342 47.9738 78.1953 47.9262 78.2539 47.828C78.2952 47.7594 78.3072 47.6972 78.3072 47.5942L78.3072 47.5082ZM77.8415 47.2488C77.7964 47.3055 77.7576 47.3386 77.727 47.3563C77.6924 47.3763 77.6539 47.3817 77.6287 47.3594C77.6007 47.337 77.5901 47.3079 77.5901 47.2617C77.5901 47.1728 77.6551 47.0721 77.7191 46.9969C77.8202 46.8769 77.9293 46.7832 78.0689 46.7026C78.4549 46.4797 78.6529 46.556 78.6529 46.9308L78.6529 47.7251C78.6529 47.8279 78.6491 47.8608 78.6277 47.9193C78.6024 47.9892 78.5439 48.0598 78.4788 48.0974C78.432 48.1244 78.3948 48.1289 78.3683 48.115C78.3417 48.1027 78.3285 48.0799 78.3178 48.0383C78.2166 48.2104 78.1328 48.3033 77.9745 48.3948C77.8176 48.4854 77.7006 48.5021 77.6206 48.4546C77.5475 48.4123 77.5063 48.3023 77.5063 48.1612C77.5063 47.9062 77.6579 47.6098 77.9852 47.4208L78.3072 47.2349L78.3072 47.155C78.3072 46.9799 78.2272 46.9491 78.0637 47.0435C77.9813 47.0911 77.9174 47.1526 77.8415 47.2488Z" fill="#001B69"/>
<path d="M79.6916 45.7656C79.7994 45.7033 79.8686 45.6894 79.9311 45.701C79.9829 45.711 80.0188 45.7487 80.0188 45.8179C80.0188 45.8762 79.9976 45.9407 79.9671 45.9937C79.9364 46.0466 79.8939 46.0913 79.8513 46.1159C79.8167 46.1358 79.7794 46.1435 79.7329 46.1427C79.6916 46.1421 79.6478 46.1504 79.6012 46.1773C79.4853 46.2442 79.3711 46.4023 79.3711 46.605L79.3711 47.3087C79.3711 47.4055 79.367 47.4461 79.3485 47.4999C79.3232 47.5728 79.2686 47.6412 79.1981 47.6819C79.1277 47.7226 79.073 47.7173 79.0477 47.6735C79.0292 47.6411 79.0251 47.6052 79.0251 47.5084L79.0251 46.4283C79.0251 46.3256 79.0292 46.2924 79.0504 46.234C79.0757 46.1642 79.1342 46.0936 79.1995 46.0559C79.246 46.0291 79.2833 46.0245 79.3099 46.0382C79.3377 46.0512 79.3538 46.0759 79.3616 46.1297C79.4283 45.9989 79.5547 45.8446 79.6916 45.7656Z" fill="#001B69"/>
<path d="M80.3287 45.7707L80.2942 45.7907C80.229 45.8283 80.2051 45.8374 80.1771 45.8366C80.1358 45.8358 80.1133 45.8012 80.1133 45.7415C80.1133 45.6815 80.1358 45.6208 80.1771 45.5725C80.2051 45.5392 80.229 45.521 80.2942 45.4834L80.3287 45.4635L80.3287 45.2499C80.3287 45.1532 80.3328 45.1123 80.3515 45.0586C80.3768 44.9856 80.4312 44.9172 80.5017 44.8765C80.5721 44.8358 80.6268 44.8412 80.6521 44.8851C80.6706 44.9172 80.6747 44.9535 80.6747 45.0502L80.6747 45.2638L80.7784 45.2039C80.8436 45.1662 80.8675 45.1568 80.8956 45.1576C80.9366 45.1584 80.9595 45.193 80.9595 45.253C80.9595 45.3127 80.9366 45.3735 80.8956 45.4218C80.8675 45.4549 80.8436 45.4734 80.7784 45.5111L80.6747 45.571L80.6747 46.3389C80.6747 46.4143 80.6986 46.4602 80.7864 46.4158C80.8304 46.3936 80.861 46.3803 80.8902 46.3803C80.9329 46.3805 80.9595 46.4111 80.9595 46.4833C80.9595 46.5539 80.9314 46.6178 80.8902 46.6661C80.8596 46.7024 80.8145 46.7375 80.7479 46.7759L80.7293 46.7867C80.4418 46.9527 80.3287 46.7937 80.3287 46.5604L80.3287 45.7707Z" fill="#001B69"/>
<path d="M82.5907 44.5067C82.7584 44.4099 82.8649 44.2254 82.8649 44.0472C82.8649 43.8677 82.7584 43.8077 82.5907 43.9045L82.2475 44.1026L82.2475 44.7048L82.5907 44.5067ZM81.875 45.8477L81.875 44.1979C81.875 44.135 81.875 44.0565 81.927 43.9665C81.9787 43.8768 82.0467 43.8376 82.1011 43.8062L82.612 43.5112C83.0059 43.2838 83.2374 43.4606 83.2374 43.8321C83.2374 44.204 83.0059 44.648 82.612 44.8754L82.2475 45.0858L82.2475 45.6326C82.2475 45.7325 82.245 45.7693 82.2222 45.8346C82.1944 45.9106 82.1346 45.9866 82.0614 46.0289C81.9882 46.0711 81.9284 46.0642 81.9004 46.0204C81.8778 45.9813 81.875 45.9476 81.875 45.8477Z" fill="#001B69"/>
<path d="M84.2626 43.6231C84.2253 43.5494 84.147 43.5256 84.0298 43.5932C83.9141 43.66 83.8342 43.7752 83.7983 43.8912C83.7757 43.9627 83.7691 44.0126 83.7677 44.0825L84.2933 43.779C84.2906 43.7115 84.2852 43.6685 84.2626 43.6231ZM83.7677 44.3558C83.7677 44.5631 83.8729 44.6516 84.0738 44.5356C84.1601 44.4858 84.2452 44.409 84.3132 44.3113C84.3676 44.2353 84.401 44.2007 84.4421 44.177C84.5088 44.1384 84.5819 44.1715 84.5819 44.2637C84.5819 44.339 84.5259 44.4404 84.4462 44.5481C84.3518 44.676 84.2213 44.7884 84.0683 44.8767C83.7398 45.0664 83.4272 45.0747 83.4272 44.428C83.4272 43.9057 83.6707 43.4686 84.0298 43.2613C84.4035 43.0456 84.6205 43.2305 84.6325 43.6275C84.6338 43.6884 84.6271 43.7613 84.5858 43.8329C84.5419 43.9088 84.4861 43.9411 84.4342 43.971L83.7677 44.3558Z" fill="#001B69"/>
<path d="M85.7736 42.3315C85.8201 42.3261 85.8627 42.3323 85.884 42.3461C85.9106 42.3645 85.9199 42.3915 85.9199 42.4374C85.9199 42.482 85.8987 42.5449 85.8748 42.5866C85.8467 42.6349 85.8176 42.6671 85.7777 42.6902C85.7496 42.7064 85.7138 42.7133 85.6765 42.7149C85.5927 42.7187 85.5062 42.7332 85.4078 42.7901C85.2734 42.8677 85.2121 42.9783 85.2121 43.0613C85.2121 43.1548 85.2641 43.1619 85.3558 43.118L85.5728 43.0173C85.8467 42.8883 85.9865 42.9751 85.9865 43.2471C85.9865 43.6003 85.7257 43.92 85.3998 44.1081C85.1816 44.2341 85.0432 44.2678 84.9196 44.2426C84.8717 44.2332 84.8357 44.2017 84.8357 44.1373C84.8357 44.0836 84.8569 44.0205 84.8917 43.9683C84.9208 43.9238 84.9474 43.896 84.9833 43.8752C85.0166 43.8561 85.0525 43.8507 85.0978 43.8554C85.1922 43.8652 85.2774 43.8452 85.405 43.7716C85.5328 43.6978 85.6498 43.5781 85.6498 43.4583C85.6498 43.3799 85.6126 43.343 85.5035 43.3938L85.2854 43.4967C85.0353 43.6134 84.8784 43.575 84.8784 43.28C84.8784 42.9483 85.1324 42.6249 85.4159 42.4612C85.5567 42.3799 85.6672 42.3421 85.7736 42.3315Z" fill="#001B69"/>
<path d="M86.3202 42.3107L86.2856 42.3307C86.2205 42.3683 86.1965 42.3774 86.1685 42.3767C86.1273 42.3759 86.1047 42.3412 86.1047 42.2816C86.1047 42.2216 86.1273 42.1608 86.1685 42.1125C86.1965 42.0793 86.2205 42.0611 86.2856 42.0235L86.3202 42.0035L86.3202 41.79C86.3202 41.6932 86.3242 41.6523 86.343 41.5987C86.3682 41.5256 86.4227 41.4572 86.4932 41.4165C86.5636 41.3759 86.6182 41.3813 86.6436 41.4251C86.662 41.4573 86.6661 41.4935 86.6661 41.5902L86.6661 41.8038L86.7698 41.7439C86.8351 41.7063 86.859 41.6968 86.887 41.6977C86.9281 41.6984 86.9509 41.733 86.9509 41.793C86.9509 41.8527 86.9281 41.9135 86.887 41.9618C86.859 41.9949 86.8351 42.0135 86.7698 42.0511L86.6661 42.111L86.6661 42.8789C86.6661 42.9543 86.6901 43.0003 86.7779 42.9558C86.8218 42.9336 86.8525 42.9204 86.8816 42.9204C86.9243 42.9205 86.9509 42.9511 86.9509 43.0233C86.9509 43.0939 86.9229 43.1579 86.8816 43.2062C86.8511 43.2424 86.8059 43.2776 86.7394 43.316L86.7207 43.3267C86.4333 43.4927 86.3202 43.3337 86.3202 43.1004L86.3202 42.3107Z" fill="#001B69"/>
<path d="M72.2141 53.5905L71.9053 53.0667L71.9053 54.0578C71.9053 54.1576 71.9029 54.1942 71.8801 54.2594C71.8523 54.3355 71.7925 54.4114 71.7192 54.4537C71.6461 54.496 71.5862 54.4891 71.5582 54.4453C71.5357 54.4061 71.533 54.3725 71.533 54.2727L71.533 52.6152C71.533 52.5212 71.5436 52.4539 71.5888 52.3753C71.6221 52.3178 71.6633 52.2742 71.7138 52.245C71.7578 52.2196 71.7911 52.2096 71.8243 52.2164C71.8615 52.2226 71.8948 52.2556 71.9188 52.2941L72.3923 53.0622L72.8659 51.7473C72.8899 51.6811 72.9232 51.6096 72.9605 51.5604C72.9937 51.5152 73.0269 51.4869 73.0709 51.4615C73.1213 51.4324 73.1626 51.4285 73.1958 51.4475C73.2412 51.4738 73.2518 51.5288 73.2518 51.6228L73.2518 53.2804C73.2518 53.3802 73.2492 53.4169 73.2265 53.4821C73.1985 53.5582 73.1387 53.6342 73.0655 53.6764C72.9924 53.7187 72.9325 53.7119 72.9045 53.668C72.8819 53.6289 72.8792 53.5953 72.8792 53.4955L72.8792 52.5044L72.5707 53.3846C72.5239 53.5178 72.4802 53.5876 72.3923 53.6384C72.3046 53.689 72.2606 53.6698 72.2141 53.5905Z" fill="#001B69"/>
<path d="M74.3616 52.2397L74.0981 52.3918C73.9599 52.4716 73.8933 52.5747 73.8933 52.6944C73.8933 52.8049 73.9599 52.8372 74.1035 52.7543C74.1887 52.7051 74.2498 52.6574 74.3084 52.5594C74.3497 52.4908 74.3616 52.4286 74.3616 52.3257L74.3616 52.2397ZM73.8959 51.9801C73.8509 52.0368 73.8122 52.07 73.7815 52.0877C73.747 52.1077 73.7084 52.113 73.6833 52.0907C73.6553 52.0683 73.6447 52.0392 73.6447 51.9931C73.6447 51.9041 73.7097 51.8034 73.7736 51.7282C73.8747 51.6082 73.9839 51.5145 74.1234 51.4339C74.5094 51.2111 74.7074 51.2874 74.7074 51.6621L74.7074 52.4565C74.7074 52.5592 74.7036 52.5921 74.6822 52.6507C74.6568 52.7206 74.5983 52.7911 74.5332 52.8287C74.4866 52.8556 74.4494 52.8603 74.4229 52.8463C74.3962 52.8341 74.3829 52.8112 74.3722 52.7696C74.2711 52.9417 74.1873 53.0348 74.029 53.1261C73.872 53.2168 73.7551 53.2335 73.6751 53.1859C73.602 53.1437 73.5608 53.0337 73.5608 52.8925C73.5608 52.6376 73.7124 52.3412 74.0396 52.1522L74.3616 51.9663L74.3616 51.8863C74.3616 51.7112 74.2817 51.6805 74.1183 51.7749C74.0358 51.8225 73.9719 51.8839 73.8959 51.9801Z" fill="#001B69"/>
<path d="M75.7626 50.4871C75.9009 50.4072 76.0125 50.3952 76.0898 50.4395C76.2015 50.5042 76.2307 50.6379 76.2307 50.8129L76.2307 51.575C76.2307 51.6718 76.2268 51.7123 76.2081 51.7662C76.1828 51.8392 76.1284 51.9073 76.0579 51.9481C75.9873 51.9888 75.9328 51.9835 75.9075 51.9398C75.889 51.9073 75.8849 51.8714 75.8849 51.7747L75.8849 51.0679C75.8849 50.8512 75.7652 50.848 75.6562 50.911C75.5471 50.9739 75.4247 51.117 75.4247 51.3336L75.4247 52.0404C75.4247 52.1371 75.4206 52.1777 75.402 52.2316C75.3768 52.3046 75.3221 52.3728 75.2517 52.4135C75.1811 52.4542 75.1265 52.4491 75.1013 52.4052C75.0827 52.3728 75.0786 52.3369 75.0786 52.2402L75.0786 51.1601C75.0786 51.0573 75.0827 51.0242 75.104 50.9656C75.1293 50.8958 75.1877 50.8253 75.253 50.7877C75.2995 50.7608 75.3368 50.7561 75.3634 50.7699C75.3912 50.7829 75.4046 50.8091 75.4152 50.8567C75.503 50.6939 75.6347 50.561 75.7626 50.4871Z" fill="#001B69"/>
<path d="M77.3028 50.5422L77.0393 50.6943C76.901 50.7741 76.8345 50.8771 76.8345 50.9969C76.8345 51.1074 76.901 51.1397 77.0446 51.0568C77.1298 51.0076 77.1909 50.96 77.2495 50.8619C77.2908 50.7934 77.3028 50.7311 77.3028 50.6282L77.3028 50.5422ZM76.8371 50.2826C76.792 50.3394 76.7532 50.3725 76.7226 50.3902C76.688 50.4102 76.6495 50.4155 76.6241 50.3933C76.5963 50.3708 76.5857 50.3417 76.5857 50.2956C76.5857 50.2066 76.6507 50.1059 76.7147 50.0307C76.8158 49.9107 76.9249 49.817 77.0645 49.7365C77.4505 49.5136 77.6485 49.5898 77.6485 49.9646L77.6485 50.7589C77.6485 50.8617 77.6447 50.8946 77.6233 50.9532C77.5979 51.0232 77.5395 51.0936 77.4744 51.1312C77.4276 51.1582 77.3906 51.1627 77.3639 51.1488C77.3373 51.1366 77.3241 51.1137 77.3134 51.0721C77.2122 51.2442 77.1284 51.3373 76.9701 51.4287C76.8132 51.5193 76.6962 51.536 76.6162 51.4884C76.5431 51.4462 76.502 51.3362 76.502 51.195C76.502 50.94 76.6535 50.6437 76.9808 50.4547L77.3028 50.2688L77.3028 50.1888C77.3028 50.0137 77.2228 49.9831 77.0593 50.0775C76.9769 50.1251 76.913 50.1864 76.8371 50.2826Z" fill="#001B69"/>
<path d="M78.5347 49.2492C78.3299 49.3675 78.3084 49.5813 78.3084 49.7917C78.3084 50.0021 78.3299 50.194 78.5347 50.0758C78.7395 49.9575 78.7635 49.7393 78.7635 49.5289C78.7635 49.3186 78.7395 49.131 78.5347 49.2492ZM78.1515 51.2433C78.0758 51.2378 78.0133 51.205 78.0133 51.1204C78.0133 51.0189 78.0878 50.9069 78.1515 50.8701C78.1955 50.8447 78.23 50.8401 78.2807 50.8462C78.3577 50.8554 78.4203 50.8393 78.4855 50.8016C78.6931 50.6818 78.7635 50.4721 78.7635 50.3094L78.7635 50.1465C78.673 50.3155 78.5693 50.4185 78.4336 50.4968C78.2978 50.5752 78.1809 50.5905 78.1036 50.5459C77.9732 50.4708 77.9626 50.2709 77.9626 49.9913C77.9626 49.7117 77.9732 49.5028 78.1036 49.277C78.1809 49.1434 78.3005 49.022 78.4363 48.9436C78.5813 48.8599 78.6797 48.8491 78.7729 48.9182C78.7835 48.8584 78.7968 48.8169 78.8247 48.7717C78.8514 48.7271 78.8886 48.6887 78.9351 48.6619C79.0004 48.6242 79.0589 48.6271 79.0843 48.6678C79.1055 48.7018 79.1094 48.7302 79.1094 48.833L79.1094 50.1157C79.1094 50.4998 78.8726 50.916 78.5002 51.1311C78.3471 51.2194 78.2461 51.2487 78.1515 51.2433Z" fill="#001B69"/>
<path d="M80.2617 48.3859C80.2244 48.3122 80.146 48.2883 80.0288 48.3559C79.9132 48.4227 79.8333 48.538 79.7974 48.6539C79.7747 48.7254 79.7681 48.7753 79.7668 48.8452L80.2923 48.5418C80.2897 48.4742 80.2843 48.4312 80.2617 48.3859ZM79.7668 49.1186C79.7668 49.3258 79.8719 49.4143 80.0728 49.2983C80.1591 49.2485 80.2442 49.1717 80.3122 49.074C80.3666 48.998 80.4001 48.9633 80.4412 48.9396C80.5078 48.9011 80.581 48.9342 80.581 49.0263C80.581 49.1016 80.525 49.2031 80.4453 49.3107C80.3508 49.4387 80.2203 49.5511 80.0674 49.6393C79.7389 49.829 79.4263 49.8374 79.4263 49.1907C79.4263 48.6684 79.6697 48.2313 80.0288 48.024C80.4026 47.8082 80.6196 47.9933 80.6315 48.3902C80.633 48.4511 80.6262 48.5239 80.5849 48.5955C80.5411 48.6716 80.4852 48.7038 80.4333 48.7338L79.7668 49.1186Z" fill="#001B69"/>
<path d="M81.6297 47.0999C81.7839 47.0109 81.9091 47.0034 81.9969 47.0908C82.1139 46.8819 82.239 46.7482 82.412 46.6483C82.5503 46.5684 82.6753 46.5486 82.7526 46.593C82.8642 46.6577 82.9041 46.7852 82.9041 46.9603L82.9041 47.7224C82.9041 47.8191 82.9 47.8597 82.8816 47.9135C82.8562 47.9865 82.8018 48.0547 82.7312 48.0954C82.6607 48.1361 82.6062 48.1309 82.581 48.0871C82.5622 48.0547 82.5584 48.0187 82.5584 47.922L82.5584 47.2152C82.5584 46.9986 82.4384 46.9955 82.3294 47.0584C82.223 47.1198 82.0979 47.2644 82.0979 47.472L82.0979 48.1878C82.0979 48.2846 82.094 48.3251 82.0753 48.379C82.05 48.452 81.9956 48.5201 81.9251 48.5608C81.8544 48.6016 81.8 48.5963 81.7747 48.5526C81.7562 48.5201 81.7521 48.4842 81.7521 48.3875L81.7521 47.6807C81.7521 47.464 81.6324 47.4608 81.5234 47.5238C81.4143 47.5867 81.2918 47.7298 81.2918 47.9464L81.2918 48.6532C81.2918 48.7499 81.2878 48.7905 81.2692 48.8444C81.2439 48.9174 81.1893 48.9856 81.1189 49.0263C81.0483 49.067 80.9937 49.0618 80.9685 49.018C80.9499 48.9856 80.9458 48.9497 80.9458 48.853L80.9458 47.7728C80.9458 47.6701 80.9499 47.6369 80.9712 47.5784C80.9965 47.5086 81.0549 47.4381 81.1201 47.4005C81.1667 47.3736 81.204 47.3689 81.2306 47.3827C81.2584 47.3957 81.2718 47.4219 81.2824 47.4695C81.3715 47.306 81.5019 47.1738 81.6297 47.0999Z" fill="#001B69"/>
<path d="M84.0439 46.203C84.0066 46.1293 83.9282 46.1054 83.811 46.1731C83.6954 46.2398 83.6155 46.3551 83.5795 46.4711C83.5569 46.5425 83.5504 46.5924 83.549 46.6624L84.0745 46.359C84.0719 46.2913 84.0664 46.2484 84.0439 46.203ZM83.549 46.9358C83.549 47.143 83.6541 47.2315 83.8551 47.1154C83.9414 47.0656 84.0265 46.9888 84.0944 46.8911C84.1488 46.8151 84.1823 46.7805 84.2233 46.7568C84.2901 46.7183 84.3632 46.7513 84.3632 46.8435C84.3632 46.9188 84.3072 47.0202 84.2274 47.1279C84.133 47.2558 84.0025 47.3682 83.8497 47.4565C83.5211 47.6462 83.2085 47.6545 83.2085 47.0078C83.2085 46.4855 83.4519 46.0485 83.811 45.8411C84.1848 45.6253 84.4018 45.8105 84.4138 46.2074C84.4151 46.2683 84.4084 46.3411 84.367 46.4127C84.3232 46.4888 84.2674 46.5209 84.2155 46.5509L83.549 46.9358Z" fill="#001B69"/>
<path d="M85.4104 44.9171C85.5489 44.8372 85.6605 44.8251 85.7377 44.8695C85.8495 44.9341 85.8786 45.0678 85.8786 45.2429L85.8786 46.005C85.8786 46.1018 85.8748 46.1422 85.856 46.1962C85.8307 46.2692 85.7762 46.3373 85.7058 46.378C85.6351 46.4188 85.5807 46.4135 85.5554 46.3697C85.5369 46.3373 85.5328 46.3014 85.5328 46.2046L85.5328 45.4979C85.5328 45.2812 85.4131 45.278 85.304 45.341C85.195 45.4039 85.0726 45.5469 85.0726 45.7635L85.0726 46.4703C85.0726 46.5671 85.0685 46.6077 85.0499 46.6616C85.0247 46.7345 84.9701 46.8028 84.8996 46.8435C84.8291 46.8842 84.7745 46.879 84.7492 46.8352C84.7306 46.8028 84.7266 46.7669 84.7266 46.6701L84.7266 45.59C84.7266 45.4873 84.7306 45.4541 84.7518 45.3956C84.7772 45.3258 84.8357 45.2553 84.9009 45.2176C84.9474 45.1908 84.9848 45.186 85.0114 45.1999C85.0392 45.2129 85.0525 45.239 85.0631 45.2866C85.151 45.1239 85.2825 44.991 85.4104 44.9171Z" fill="#001B69"/>
<path d="M86.3202 44.7643L86.2856 44.7842C86.2205 44.8218 86.1965 44.8309 86.1685 44.8303C86.1273 44.8295 86.1047 44.7949 86.1047 44.7351C86.1047 44.6751 86.1273 44.6143 86.1685 44.566C86.1965 44.5329 86.2205 44.5146 86.2856 44.477L86.3202 44.457L86.3202 44.2435C86.3202 44.1467 86.3242 44.1058 86.343 44.0522C86.3682 43.9792 86.4227 43.9107 86.4932 43.87C86.5636 43.8294 86.6182 43.8349 86.6436 43.8786C86.662 43.9108 86.6661 43.947 86.6661 44.0437L86.6661 44.2573L86.7698 44.1974C86.8351 44.1598 86.859 44.1504 86.887 44.1512C86.9281 44.1519 86.9509 44.1865 86.9509 44.2465C86.9509 44.3063 86.9281 44.3671 86.887 44.4154C86.859 44.4485 86.8351 44.467 86.7698 44.5046L86.6661 44.5645L86.6661 45.3325C86.6661 45.4079 86.6901 45.4539 86.7779 45.4093C86.8218 45.3871 86.8525 45.3739 86.8816 45.374C86.9243 45.3741 86.9509 45.4046 86.9509 45.477C86.9509 45.5476 86.9229 45.6115 86.8816 45.6598C86.8511 45.6959 86.8059 45.7312 86.7394 45.7696L86.7207 45.7803C86.4333 45.9463 86.3202 45.7872 86.3202 45.5539L86.3202 44.7643Z" fill="#001B69"/>
<path d="M69.7305 66.2082C69.4083 66.2082 69.0745 65.955 69.0745 65.391C69.0745 64.85 69.3967 64.24 69.8226 63.9983L72.6655 62.3524C72.7922 62.2834 72.9188 62.2373 73.0454 62.2373C73.3677 62.2373 73.7014 62.4905 73.7014 63.0545C73.7014 63.5955 73.3792 64.2055 72.9533 64.4472L70.1103 66.0931C69.9952 66.1737 69.8571 66.2082 69.7305 66.2082Z" fill="white"/>
<path d="M69.9723 65.84L72.8152 64.1941C73.1375 64.0099 73.4137 63.4919 73.4137 63.0546C73.4137 62.6172 73.149 62.4215 72.8152 62.6057L69.9723 64.2516C69.65 64.4358 69.3738 64.9537 69.3738 65.3911C69.3738 65.8285 69.6385 66.0357 69.9723 65.84Z" fill="#D680D4"/>
<path d="M48.8057 48.1145L47.8503 47.5505V79.0417L48.8057 79.5941V48.1145Z" fill="#843A76"/>
<path d="M91.3923 23.5755L90.3795 23L47.8503 47.5506L48.8057 48.1146L91.3923 23.5755Z" fill="#A85A9A"/>
</svg>
