<svg width="190" height="190" viewBox="0 0 190 190" fill="none" xmlns="http://www.w3.org/2000/svg">
<path d="M94.9999 190C144.208 190 184.1 167.605 184.1 139.98C184.1 112.355 144.208 89.96 94.9999 89.96C45.7913 89.96 5.8999 112.355 5.8999 139.98C5.8999 167.605 45.7913 190 94.9999 190Z" fill="black" fill-opacity="0.1"/>
<path d="M162.851 94.0516L165.279 92.6387V95.053L162.837 96.466L162.851 94.0516Z" fill="#685965"/>
<path d="M162.549 94.1614L164.977 92.7484C165.073 92.6935 165.169 92.6524 165.279 92.6387L162.851 94.0516C162.741 94.079 162.645 94.1065 162.549 94.1614Z" fill="#685965"/>
<path d="M162.837 96.4659L165.279 95.053L167.638 96.4111L165.196 97.824L162.837 96.4659Z" fill="#685965"/>
<path d="M165.21 95.4098C165.758 96.1506 166.101 97.0834 166.101 97.8928C166.101 99.2097 165.168 99.7447 164.016 99.0862C162.864 98.4278 161.945 96.8228 161.945 95.4921C161.945 94.6828 162.301 94.1615 162.85 94.0518V96.4661L165.21 97.8242V95.4098Z" fill="#464354"/>
<path d="M164.73 97.9066L162.865 96.8228C162.714 96.7405 162.618 96.5485 162.618 96.2878L164.483 97.3716C164.483 97.6322 164.579 97.8243 164.73 97.9066Z" fill="#302E36"/>
<path d="M164.483 97.3715L162.618 96.2877L162.604 91.9529L164.469 93.0366L164.483 97.3715Z" fill="#313038"/>
<path d="M164.47 93.0366L162.605 91.9528L165.869 90.0735L167.735 91.1572L164.47 93.0366Z" fill="#4F4D59"/>
<path d="M167.734 91.1572L167.748 95.4921C167.748 96.0133 167.377 96.6718 166.911 96.9324L165.32 97.8515C164.867 98.1122 164.483 97.9064 164.483 97.3714L164.469 93.0366L167.734 91.1572Z" fill="#474550"/>
<path d="M167.926 97.8104L165.498 99.2234C165.868 99.0039 166.102 98.5512 166.102 97.8927C166.102 97.0834 165.745 96.1506 165.21 95.4098L167.652 93.9968C168.201 94.7376 168.543 95.6704 168.543 96.4798C168.53 97.1382 168.297 97.6046 167.926 97.8104Z" fill="#6D6A77"/>
<path d="M168.303 93.0567L166.169 93.7891C166.696 93.6081 167.043 93.0721 167.024 92.3078L169.159 91.5753C169.177 92.3396 168.83 92.8756 168.303 93.0567Z" fill="#6D6A77"/>
<path d="M163.791 36L165.925 35.2675C166.101 35.2071 166.32 35.2186 166.565 35.3336L164.431 36.0661C164.2 35.9525 163.98 35.941 163.791 36Z" fill="#8A8794"/>
<path d="M164.432 36.055L166.566 35.3225L167.959 35.9599L165.825 36.6924L164.432 36.055Z" fill="#6D6A77"/>
<path d="M165.825 36.6925L167.959 35.96C168.01 35.9877 168.061 36.0154 168.126 36.0445L165.991 36.7769C165.929 36.7368 165.878 36.7091 165.825 36.6925Z" fill="#8A8794"/>
<path d="M166.877 38.2701L169.012 37.5376L169.147 91.5628L167.013 92.2953L166.877 38.2701Z" fill="#474550"/>
<path d="M165.978 36.7755L168.112 36.043C168.603 36.3516 168.989 36.9746 169.011 37.5375L166.877 38.27C166.869 37.7085 166.483 37.0855 165.978 36.7755Z" fill="#A19CAF"/>
<path d="M165.978 36.7752C166.469 37.0838 166.855 37.7068 166.877 38.2697L167.013 92.2949C167.046 93.5766 166.092 94.1955 164.931 93.6607L163.162 92.8612C163.059 92.8168 162.943 92.7601 162.843 92.6936C161.822 92.0611 161.06 90.749 161.113 89.622L163.353 36.6721C163.379 36.0692 163.851 35.7928 164.432 36.0547L165.827 36.6811C165.878 36.7088 165.929 36.7365 165.978 36.7752Z" fill="#313038"/>
<path d="M75.7131 176.203L12.2991 139.591L107.42 84.6728L170.834 121.285L75.7131 176.203Z" fill="#47525A"/>
<path d="M170.757 99.3179L170.757 121.285L75.636 176.203L75.636 154.236L170.757 99.3179Z" fill="#805977"/>
<path d="M137.775 138.315L108.525 155.203C107.276 155.923 106.264 155.339 106.264 153.897L106.264 144.613C106.264 143.172 107.276 141.419 108.525 140.698L137.775 123.81C139.024 123.089 140.036 123.674 140.036 125.115L140.036 134.399C140.036 135.841 139.024 137.594 137.775 138.315Z" fill="#F8DF00"/>
<path d="M122.441 137.953C122.441 138.386 122.136 138.913 121.761 139.13L119.567 140.396C119.193 140.613 118.888 140.437 118.888 140.004C118.888 139.306 119.38 138.454 119.984 138.105L121.344 137.32C121.949 136.971 122.441 137.255 122.441 137.953ZM121.344 136.654L119.984 137.439C119.062 137.972 118.312 139.272 118.312 140.337C118.312 141.136 118.875 141.462 119.567 141.062L121.761 139.795C122.454 139.395 123.017 138.42 123.017 137.62C123.017 136.555 122.267 136.122 121.344 136.654Z" fill="#001B69"/>
<path d="M121.627 137.729L119.702 138.84C119.543 138.932 119.414 139.156 119.414 139.339C119.414 139.523 119.543 139.597 119.702 139.506L121.627 138.394C121.786 138.303 121.915 138.079 121.915 137.896C121.915 137.712 121.786 137.637 121.627 137.729Z" fill="#001B69"/>
<path d="M122.859 140.155C122.905 139.957 122.822 139.823 122.673 139.855C122.525 139.888 122.367 140.075 122.321 140.273L121.57 143.497C121.518 143.63 121.424 143.748 121.321 143.808L119.704 144.741C119.544 144.834 119.414 144.758 119.414 144.574L119.414 142.707C119.414 142.523 119.544 142.298 119.704 142.206L121.321 141.272C121.476 141.182 121.603 140.964 121.603 140.784C121.603 140.605 121.476 140.532 121.321 140.622L119.704 141.555C119.234 141.827 118.851 142.489 118.851 143.032L118.851 144.899C118.851 145.442 119.234 145.663 119.704 145.392L121.321 144.458C121.641 144.273 121.932 143.901 122.079 143.487L122.084 143.467L122.097 143.424L122.098 143.419L122.1 143.411L122.859 140.155Z" fill="#001B69"/>
<path d="M112.914 141.521C113.003 141.469 113.079 141.462 113.141 141.498C113.203 141.533 113.235 141.603 113.235 141.706C113.235 141.803 113.206 141.903 113.148 142.006C113.09 142.109 113.021 142.188 112.941 142.244L112.179 142.685C112.045 142.772 111.935 142.873 111.849 142.987C111.762 143.101 111.694 143.219 111.645 143.339C111.596 143.46 111.563 143.579 111.545 143.697C111.527 143.815 111.519 143.918 111.519 144.005L111.519 145.314C111.519 145.417 111.487 145.522 111.425 145.63C111.363 145.738 111.287 145.817 111.198 145.869C111.109 145.92 111.034 145.928 110.972 145.892C110.909 145.856 110.878 145.787 110.878 145.684L110.878 144.375C110.878 144.216 110.896 144.045 110.932 143.863C110.967 143.681 111.021 143.497 111.092 143.312L109.491 144.236C109.402 144.288 109.327 144.295 109.265 144.259C109.202 144.224 109.171 144.154 109.171 144.052C109.171 143.949 109.202 143.844 109.265 143.736C109.327 143.628 109.402 143.548 109.491 143.497L112.914 141.521Z" fill="#001B69"/>
<path d="M128.319 135.845C128.252 135.976 128.17 136.07 128.072 136.126C127.983 136.178 127.908 136.186 127.845 136.15C127.783 136.114 127.752 136.045 127.752 135.942C127.752 135.849 127.774 135.762 127.819 135.68L129.439 132.227C129.515 132.065 129.615 131.911 129.739 131.765C129.864 131.618 129.997 131.504 130.14 131.422C130.273 131.345 130.4 131.305 130.52 131.302C130.64 131.3 130.737 131.336 130.813 131.41L132.434 132.977C132.46 132.998 132.482 133.025 132.5 133.058C132.518 133.091 132.527 133.134 132.527 133.185C132.527 133.288 132.496 133.393 132.434 133.501C132.371 133.609 132.296 133.688 132.207 133.74C132.1 133.801 132.016 133.801 131.953 133.74L130.4 132.242C130.368 132.219 130.33 132.196 130.283 132.174C130.236 132.153 130.188 132.156 130.14 132.184C130.09 132.212 130.043 132.264 129.996 132.34C129.949 132.416 129.913 132.482 129.886 132.539L128.319 135.845Z" fill="#001B69"/>
<path d="M124.078 137.139C124.078 137.211 124.096 137.269 124.132 137.312C124.167 137.356 124.215 137.387 124.275 137.406C124.335 137.426 124.406 137.427 124.489 137.41C124.571 137.394 124.659 137.358 124.752 137.304L126.106 136.523C126.252 136.438 126.373 136.34 126.469 136.228C126.565 136.117 126.64 136.001 126.696 135.882C126.751 135.762 126.791 135.644 126.816 135.527C126.84 135.411 126.853 135.306 126.853 135.214L126.853 133.843C126.853 133.74 126.885 133.635 126.949 133.525C127.014 133.416 127.088 133.337 127.173 133.289C127.262 133.237 127.337 133.23 127.399 133.266C127.461 133.302 127.493 133.371 127.493 133.474L127.493 134.783C127.493 134.978 127.464 135.191 127.406 135.422C127.348 135.653 127.265 135.88 127.156 136.105C127.047 136.33 126.915 136.538 126.759 136.731C126.603 136.923 126.43 137.075 126.239 137.185L124.558 138.155C124.407 138.242 124.264 138.289 124.128 138.296C123.993 138.302 123.874 138.275 123.772 138.213C123.669 138.151 123.588 138.06 123.528 137.938C123.468 137.816 123.438 137.673 123.438 137.508C123.438 137.406 123.47 137.3 123.535 137.191C123.599 137.082 123.674 137.003 123.758 136.954C123.847 136.903 123.923 136.895 123.985 136.931C124.047 136.967 124.078 137.036 124.078 137.139Z" fill="#001B69"/>
<path d="M114.386 141.58C114.395 141.529 114.417 141.476 114.452 141.422C114.488 141.369 114.535 141.325 114.592 141.292L116.926 139.944C116.989 139.918 117.043 139.918 117.09 139.942C117.136 139.966 117.159 140.016 117.16 140.091C117.159 140.166 117.136 140.243 117.09 140.32C117.043 140.398 116.989 140.46 116.926 140.506L114.592 141.854C114.535 141.887 114.488 141.897 114.452 141.885C114.417 141.872 114.395 141.845 114.386 141.804L114.386 141.58ZM117.527 140.599C117.611 140.458 117.678 140.311 117.727 140.16C117.774 140.014 117.797 139.873 117.799 139.734L117.8 139.725L117.8 139.721L117.8 139.717L117.799 139.708C117.797 139.572 117.774 139.458 117.727 139.367C117.678 139.272 117.611 139.202 117.527 139.159C117.442 139.115 117.344 139.098 117.233 139.109C117.122 139.119 117.004 139.16 116.88 139.232L114.559 140.571C114.461 140.628 114.363 140.709 114.266 140.814C114.168 140.919 114.081 141.038 114.006 141.168C113.93 141.299 113.868 141.44 113.819 141.592C113.77 141.743 113.746 141.896 113.746 142.05L113.746 144.029C113.746 144.132 113.777 144.201 113.839 144.237C113.901 144.273 113.977 144.265 114.066 144.214C114.15 144.165 114.225 144.086 114.289 143.977C114.353 143.868 114.386 143.762 114.386 143.659L114.386 142.72L114.647 142.569C114.918 142.412 115.112 142.31 115.349 142.191C115.587 142.071 115.813 141.988 116.026 141.942C116.24 141.896 116.443 141.892 116.636 141.929C116.83 141.966 117.018 142.063 117.2 142.219C117.213 142.232 117.233 142.246 117.26 142.262C117.291 142.275 117.324 142.281 117.36 142.281C117.395 142.281 117.436 142.268 117.48 142.242C117.569 142.191 117.644 142.112 117.707 142.004C117.769 141.896 117.8 141.791 117.8 141.688C117.8 141.616 117.778 141.56 117.733 141.519C117.573 141.339 117.392 141.214 117.19 141.143C117.16 141.133 117.127 141.126 117.096 141.117C117.143 141.078 117.189 141.035 117.233 140.988C117.344 140.87 117.442 140.74 117.527 140.599Z" fill="#001B69"/>
<path d="M136.459 129.303C136.439 129.204 136.402 129.124 136.346 129.064C136.29 129.004 136.214 128.97 136.116 128.962C136.018 128.954 135.894 128.994 135.742 129.081L134.419 129.845C134.263 129.935 134.137 130.04 134.042 130.159C133.946 130.279 133.871 130.401 133.815 130.525C133.759 130.649 133.722 130.773 133.702 130.895C133.682 131.017 133.672 131.124 133.672 131.216L133.672 132.525C133.672 132.628 133.641 132.733 133.578 132.841C133.516 132.949 133.44 133.028 133.352 133.079C133.263 133.131 133.187 133.139 133.125 133.103C133.063 133.067 133.031 132.997 133.031 132.895L133.031 131.586C133.031 131.391 133.059 131.178 133.115 130.949C133.17 130.719 133.252 130.492 133.358 130.269C133.465 130.046 133.594 129.839 133.745 129.649C133.896 129.459 134.067 129.309 134.259 129.198L135.969 128.211C136.151 128.116 136.313 128.08 136.456 128.103C136.598 128.126 136.719 128.189 136.819 128.29C136.919 128.391 136.996 128.524 137.049 128.688C137.103 128.853 137.129 129.03 137.129 129.22L137.129 130.529C137.129 130.632 137.098 130.737 137.036 130.844C136.974 130.952 136.898 131.032 136.809 131.083C136.72 131.134 136.645 131.142 136.583 131.106C136.52 131.07 136.489 131.001 136.489 130.898L136.489 129.589C136.489 129.497 136.479 129.402 136.459 129.303Z" fill="#001B69"/>
<path d="M126.582 138.633C126.448 138.687 126.352 138.696 126.28 138.657C126.204 138.616 126.168 138.519 126.168 138.369C126.168 138.049 126.374 137.703 126.711 137.508C126.857 137.424 126.958 137.397 127.064 137.392C127.137 137.389 127.189 137.421 127.189 137.496C127.189 137.531 127.177 137.579 127.154 137.625C127.132 137.667 127.102 137.703 127.063 137.725C127.027 137.746 126.985 137.751 126.949 137.751C126.866 137.748 126.793 137.77 126.703 137.822C126.541 137.915 126.463 138.063 126.463 138.178C126.463 138.234 126.475 138.274 126.508 138.29C126.54 138.305 126.58 138.305 126.652 138.276L126.835 138.201C126.977 138.143 127.068 138.135 127.134 138.169C127.217 138.211 127.255 138.319 127.255 138.48C127.255 138.828 127.003 139.172 126.675 139.361C126.505 139.459 126.407 139.49 126.287 139.493C126.188 139.496 126.132 139.477 126.132 139.376C126.132 139.338 126.147 139.283 126.173 139.237C126.199 139.193 126.227 139.167 126.259 139.149C126.294 139.128 126.325 139.123 126.383 139.125C126.491 139.128 126.562 139.115 126.678 139.048C126.858 138.944 126.956 138.804 126.956 138.661C126.956 138.6 126.94 138.555 126.908 138.538C126.881 138.524 126.842 138.527 126.768 138.557L126.582 138.633Z" fill="#001B69"/>
<path d="M128.08 137.201C128.207 137.128 128.31 137.121 128.382 137.193C128.478 137.021 128.581 136.911 128.724 136.829C128.838 136.763 128.941 136.747 129.004 136.783C129.096 136.837 129.129 136.942 129.129 137.086L129.129 137.713C129.129 137.793 129.126 137.826 129.111 137.871C129.09 137.931 129.045 137.987 128.987 138.021C128.929 138.054 128.884 138.05 128.863 138.014C128.848 137.987 128.844 137.957 128.844 137.878L128.844 137.296C128.844 137.117 128.746 137.115 128.656 137.167C128.568 137.217 128.465 137.336 128.465 137.507L128.465 138.097C128.465 138.176 128.462 138.21 128.447 138.254C128.426 138.314 128.381 138.37 128.323 138.404C128.265 138.437 128.22 138.433 128.199 138.397C128.184 138.37 128.181 138.341 128.181 138.261L128.181 137.679C128.181 137.501 128.082 137.498 127.992 137.55C127.902 137.602 127.802 137.719 127.802 137.898L127.802 138.48C127.802 138.56 127.798 138.593 127.783 138.637C127.762 138.697 127.717 138.754 127.659 138.787C127.601 138.821 127.556 138.816 127.535 138.78C127.52 138.754 127.517 138.724 127.517 138.644L127.517 137.755C127.517 137.67 127.52 137.643 127.537 137.595C127.558 137.537 127.606 137.479 127.66 137.448C127.699 137.426 127.729 137.422 127.751 137.434C127.774 137.444 127.785 137.466 127.794 137.505C127.867 137.37 127.974 137.262 128.08 137.201Z" fill="#001B69"/>
<path d="M130.01 136.863L129.793 136.988C129.679 137.054 129.625 137.139 129.625 137.237C129.625 137.328 129.679 137.355 129.798 137.287C129.868 137.246 129.918 137.207 129.966 137.126C130 137.07 130.01 137.018 130.01 136.934L130.01 136.863ZM129.627 136.649C129.59 136.696 129.558 136.723 129.533 136.738C129.504 136.754 129.472 136.759 129.452 136.74C129.429 136.722 129.42 136.698 129.42 136.66C129.42 136.587 129.473 136.504 129.526 136.442C129.609 136.343 129.699 136.266 129.814 136.199C130.132 136.016 130.295 136.079 130.295 136.387L130.295 137.041C130.295 137.126 130.292 137.153 130.274 137.201C130.253 137.259 130.205 137.317 130.152 137.348C130.113 137.37 130.082 137.374 130.061 137.363C130.039 137.352 130.028 137.334 130.019 137.299C129.936 137.441 129.867 137.518 129.736 137.593C129.607 137.667 129.511 137.681 129.445 137.642C129.385 137.607 129.351 137.517 129.351 137.401C129.351 137.191 129.476 136.946 129.745 136.791L130.01 136.638L130.01 136.572C130.01 136.428 129.944 136.402 129.81 136.48C129.742 136.519 129.689 136.57 129.627 136.649Z" fill="#001B69"/>
<path d="M131.151 135.428C131.239 135.377 131.296 135.365 131.348 135.375C131.39 135.383 131.42 135.414 131.42 135.471C131.42 135.519 131.403 135.572 131.377 135.616C131.352 135.659 131.317 135.696 131.282 135.716C131.254 135.733 131.223 135.739 131.185 135.738C131.151 135.738 131.114 135.745 131.076 135.767C130.981 135.822 130.887 135.952 130.887 136.119L130.887 136.699C130.887 136.778 130.883 136.812 130.868 136.856C130.847 136.916 130.802 136.972 130.744 137.006C130.686 137.039 130.641 137.035 130.62 136.999C130.605 136.972 130.602 136.943 130.602 136.863L130.602 135.974C130.602 135.889 130.605 135.862 130.623 135.814C130.643 135.756 130.692 135.698 130.745 135.667C130.784 135.645 130.814 135.641 130.836 135.652C130.859 135.663 130.872 135.683 130.879 135.728C130.934 135.62 131.038 135.493 131.151 135.428Z" fill="#001B69"/>
<path d="M131.675 135.432L131.647 135.448C131.593 135.479 131.574 135.487 131.551 135.486C131.517 135.486 131.498 135.457 131.498 135.408C131.498 135.359 131.517 135.309 131.551 135.269C131.574 135.241 131.593 135.226 131.647 135.195L131.675 135.179L131.675 135.003C131.675 134.924 131.679 134.89 131.694 134.846C131.715 134.786 131.76 134.729 131.818 134.696C131.876 134.662 131.921 134.667 131.942 134.703C131.957 134.729 131.96 134.759 131.96 134.839L131.96 135.015L132.046 134.965C132.099 134.934 132.119 134.926 132.142 134.927C132.176 134.928 132.195 134.956 132.195 135.006C132.195 135.055 132.176 135.105 132.142 135.145C132.119 135.172 132.099 135.187 132.046 135.218L131.96 135.268L131.96 135.9C131.96 135.962 131.98 136 132.052 135.963C132.089 135.945 132.114 135.934 132.138 135.934C132.173 135.934 132.195 135.959 132.195 136.019C132.195 136.077 132.172 136.13 132.138 136.169C132.113 136.199 132.075 136.228 132.021 136.26L132.005 136.269C131.769 136.405 131.675 136.274 131.675 136.082L131.675 135.432Z" fill="#001B69"/>
<path d="M133.538 134.391C133.676 134.311 133.763 134.159 133.763 134.013C133.763 133.865 133.676 133.816 133.538 133.895L133.255 134.058L133.255 134.554L133.538 134.391ZM132.948 135.495L132.948 134.137C132.948 134.085 132.948 134.02 132.991 133.946C133.034 133.872 133.09 133.84 133.134 133.814L133.555 133.571C133.879 133.384 134.07 133.53 134.07 133.836C134.07 134.142 133.879 134.507 133.555 134.695L133.255 134.868L133.255 135.318C133.255 135.401 133.253 135.431 133.234 135.485C133.211 135.547 133.162 135.61 133.102 135.645C133.041 135.679 132.992 135.674 132.969 135.638C132.951 135.605 132.948 135.578 132.948 135.495Z" fill="#001B69"/>
<path d="M134.914 133.664C134.884 133.603 134.819 133.583 134.723 133.639C134.627 133.694 134.562 133.789 134.532 133.884C134.513 133.943 134.508 133.984 134.507 134.042L134.94 133.792C134.938 133.736 134.933 133.701 134.914 133.664ZM134.507 134.267C134.507 134.438 134.594 134.511 134.759 134.415C134.83 134.374 134.9 134.311 134.956 134.23C135.001 134.168 135.028 134.139 135.062 134.12C135.117 134.088 135.177 134.115 135.177 134.191C135.177 134.253 135.131 134.337 135.066 134.425C134.988 134.531 134.88 134.623 134.754 134.696C134.484 134.852 134.227 134.859 134.227 134.326C134.227 133.896 134.427 133.536 134.723 133.366C135.03 133.188 135.209 133.34 135.219 133.667C135.22 133.717 135.215 133.777 135.181 133.836C135.144 133.899 135.098 133.925 135.056 133.95L134.507 134.267Z" fill="#001B69"/>
<path d="M136.159 132.6C136.197 132.596 136.232 132.601 136.25 132.612C136.272 132.627 136.28 132.65 136.28 132.687C136.28 132.724 136.262 132.776 136.242 132.81C136.219 132.85 136.195 132.876 136.162 132.895C136.139 132.909 136.11 132.915 136.079 132.916C136.01 132.919 135.939 132.931 135.858 132.978C135.747 133.042 135.697 133.133 135.697 133.201C135.697 133.278 135.739 133.284 135.815 133.248L135.994 133.165C136.219 133.059 136.334 133.13 136.334 133.354C136.334 133.645 136.12 133.908 135.851 134.063C135.672 134.167 135.558 134.195 135.456 134.174C135.416 134.166 135.387 134.14 135.387 134.087C135.387 134.043 135.404 133.991 135.433 133.948C135.457 133.911 135.479 133.888 135.508 133.871C135.536 133.856 135.565 133.851 135.603 133.855C135.68 133.863 135.75 133.847 135.856 133.786C135.961 133.725 136.057 133.627 136.057 133.528C136.057 133.463 136.026 133.433 135.937 133.475L135.757 133.56C135.551 133.656 135.422 133.624 135.422 133.381C135.422 133.108 135.631 132.842 135.864 132.707C135.98 132.64 136.071 132.609 136.159 132.6Z" fill="#001B69"/>
<path d="M136.609 132.583L136.581 132.599C136.527 132.63 136.507 132.638 136.484 132.637C136.45 132.637 136.432 132.608 136.432 132.559C136.432 132.509 136.45 132.459 136.484 132.42C136.507 132.392 136.527 132.377 136.581 132.346L136.609 132.33L136.609 132.154C136.609 132.074 136.612 132.041 136.628 131.997C136.649 131.936 136.693 131.88 136.752 131.847C136.809 131.813 136.854 131.818 136.875 131.854C136.891 131.88 136.894 131.91 136.894 131.99L136.894 132.165L136.979 132.116C137.033 132.085 137.053 132.077 137.076 132.078C137.11 132.079 137.128 132.107 137.128 132.157C137.128 132.206 137.11 132.256 137.076 132.296C137.053 132.323 137.033 132.338 136.979 132.369L136.894 132.418L136.894 133.051C136.894 133.113 136.914 133.151 136.986 133.114C137.022 133.096 137.047 133.085 137.071 133.085C137.107 133.085 137.128 133.11 137.128 133.17C137.128 133.228 137.105 133.281 137.071 133.32C137.046 133.35 137.009 133.379 136.954 133.411L136.939 133.42C136.702 133.556 136.609 133.425 136.609 133.233L136.609 132.583Z" fill="#001B69"/>
<path d="M124.993 141.871L124.739 141.44L124.739 142.256C124.739 142.338 124.737 142.368 124.718 142.422C124.695 142.485 124.646 142.547 124.586 142.582C124.525 142.617 124.476 142.611 124.453 142.575C124.434 142.543 124.432 142.515 124.432 142.433L124.432 141.068C124.432 140.991 124.441 140.935 124.478 140.871C124.506 140.823 124.539 140.787 124.581 140.763C124.617 140.742 124.645 140.734 124.672 140.74C124.703 140.745 124.73 140.772 124.75 140.804L125.14 141.436L125.53 140.353C125.549 140.299 125.577 140.24 125.608 140.2C125.635 140.162 125.662 140.139 125.699 140.118C125.74 140.094 125.774 140.091 125.801 140.107C125.839 140.128 125.848 140.174 125.848 140.251L125.848 141.616C125.848 141.698 125.845 141.728 125.827 141.782C125.804 141.845 125.754 141.907 125.694 141.942C125.634 141.977 125.585 141.971 125.562 141.935C125.543 141.903 125.541 141.875 125.541 141.793L125.541 140.977L125.287 141.702C125.248 141.811 125.212 141.869 125.14 141.911C125.068 141.952 125.031 141.937 124.993 141.871Z" fill="#001B69"/>
<path d="M126.762 140.759L126.545 140.884C126.431 140.95 126.376 141.035 126.376 141.133C126.376 141.224 126.431 141.251 126.549 141.183C126.619 141.142 126.669 141.103 126.718 141.022C126.752 140.966 126.762 140.914 126.762 140.83L126.762 140.759ZM126.378 140.545C126.341 140.592 126.309 140.619 126.284 140.634C126.255 140.65 126.224 140.655 126.203 140.636C126.18 140.618 126.171 140.594 126.171 140.556C126.171 140.483 126.225 140.4 126.277 140.338C126.361 140.239 126.45 140.162 126.565 140.095C126.883 139.912 127.046 139.975 127.046 140.283L127.046 140.937C127.046 141.022 127.043 141.049 127.025 141.097C127.005 141.155 126.956 141.213 126.903 141.244C126.864 141.266 126.834 141.27 126.812 141.258C126.79 141.248 126.779 141.229 126.77 141.195C126.687 141.337 126.618 141.414 126.488 141.489C126.358 141.563 126.262 141.577 126.196 141.538C126.136 141.503 126.102 141.413 126.102 141.296C126.102 141.086 126.227 140.842 126.496 140.687L126.762 140.534L126.762 140.468C126.762 140.324 126.696 140.298 126.561 140.376C126.493 140.415 126.441 140.466 126.378 140.545Z" fill="#001B69"/>
<path d="M127.915 139.316C128.029 139.25 128.121 139.24 128.184 139.277C128.276 139.33 128.3 139.44 128.3 139.584L128.3 140.212C128.3 140.291 128.297 140.325 128.282 140.369C128.261 140.429 128.216 140.485 128.158 140.519C128.1 140.552 128.055 140.548 128.034 140.512C128.019 140.485 128.016 140.456 128.016 140.376L128.016 139.794C128.016 139.616 127.917 139.613 127.827 139.665C127.738 139.717 127.637 139.834 127.637 140.013L127.637 140.595C127.637 140.675 127.633 140.708 127.618 140.752C127.597 140.812 127.552 140.869 127.494 140.902C127.436 140.936 127.391 140.931 127.371 140.895C127.355 140.869 127.352 140.839 127.352 140.759L127.352 139.87C127.352 139.785 127.355 139.758 127.373 139.71C127.394 139.652 127.442 139.594 127.495 139.563C127.534 139.541 127.564 139.537 127.586 139.549C127.609 139.559 127.62 139.581 127.629 139.62C127.701 139.486 127.81 139.377 127.915 139.316Z" fill="#001B69"/>
<path d="M129.183 139.361L128.966 139.486C128.853 139.552 128.798 139.637 128.798 139.736C128.798 139.827 128.853 139.853 128.971 139.785C129.041 139.744 129.091 139.705 129.139 139.624C129.173 139.568 129.183 139.517 129.183 139.432L129.183 139.361ZM128.8 139.147C128.763 139.194 128.731 139.221 128.706 139.236C128.677 139.252 128.645 139.257 128.625 139.239C128.602 139.22 128.593 139.196 128.593 139.158C128.593 139.085 128.646 139.002 128.699 138.94C128.782 138.841 128.872 138.764 128.987 138.698C129.305 138.514 129.468 138.577 129.468 138.886L129.468 139.54C129.468 139.624 129.465 139.651 129.447 139.7C129.426 139.757 129.378 139.815 129.325 139.846C129.286 139.868 129.256 139.872 129.234 139.861C129.212 139.851 129.201 139.832 129.192 139.798C129.109 139.939 129.04 140.016 128.909 140.091C128.78 140.166 128.684 140.18 128.618 140.14C128.558 140.106 128.524 140.015 128.524 139.899C128.524 139.689 128.649 139.445 128.918 139.289L129.183 139.136L129.183 139.07C129.183 138.926 129.118 138.901 128.983 138.978C128.915 139.018 128.862 139.068 128.8 139.147Z" fill="#001B69"/>
<path d="M130.198 138.296C130.029 138.394 130.012 138.57 130.012 138.743C130.012 138.916 130.029 139.074 130.198 138.977C130.367 138.88 130.386 138.7 130.386 138.527C130.386 138.353 130.367 138.199 130.198 138.296ZM129.882 139.938C129.82 139.934 129.769 139.907 129.769 139.837C129.769 139.754 129.83 139.661 129.882 139.631C129.919 139.61 129.947 139.606 129.989 139.611C130.052 139.619 130.104 139.606 130.157 139.575C130.328 139.476 130.386 139.303 130.386 139.169L130.386 139.035C130.312 139.174 130.226 139.259 130.115 139.324C130.003 139.388 129.907 139.401 129.843 139.364C129.736 139.302 129.727 139.138 129.727 138.907C129.727 138.677 129.736 138.505 129.843 138.319C129.907 138.209 130.005 138.109 130.117 138.045C130.236 137.976 130.317 137.967 130.394 138.024C130.403 137.975 130.414 137.94 130.437 137.903C130.459 137.866 130.489 137.835 130.528 137.813C130.581 137.782 130.63 137.784 130.65 137.818C130.668 137.846 130.671 137.869 130.671 137.954L130.671 139.01C130.671 139.326 130.476 139.669 130.169 139.846C130.043 139.919 129.96 139.943 129.882 139.938Z" fill="#001B69"/>
<path d="M131.62 137.586C131.589 137.525 131.525 137.505 131.428 137.561C131.333 137.616 131.267 137.711 131.238 137.806C131.219 137.865 131.214 137.906 131.213 137.964L131.645 137.714C131.643 137.658 131.639 137.623 131.62 137.586ZM131.213 138.189C131.213 138.36 131.299 138.432 131.465 138.337C131.536 138.296 131.606 138.233 131.662 138.152C131.706 138.09 131.734 138.061 131.768 138.042C131.823 138.01 131.883 138.037 131.883 138.113C131.883 138.175 131.837 138.259 131.771 138.347C131.693 138.453 131.586 138.545 131.46 138.618C131.19 138.774 130.932 138.781 130.932 138.248C130.932 137.818 131.133 137.458 131.428 137.288C131.736 137.11 131.915 137.262 131.925 137.589C131.926 137.639 131.92 137.699 131.886 137.758C131.85 137.821 131.804 137.847 131.761 137.872L131.213 138.189Z" fill="#001B69"/>
<path d="M132.746 136.527C132.873 136.453 132.976 136.447 133.049 136.519C133.145 136.347 133.248 136.237 133.39 136.155C133.504 136.089 133.607 136.073 133.671 136.109C133.763 136.163 133.796 136.268 133.796 136.412L133.796 137.039C133.796 137.119 133.792 137.152 133.777 137.197C133.756 137.257 133.711 137.313 133.653 137.347C133.595 137.38 133.55 137.376 133.53 137.34C133.514 137.313 133.511 137.283 133.511 137.204L133.511 136.622C133.511 136.443 133.412 136.441 133.322 136.493C133.235 136.543 133.132 136.662 133.132 136.833L133.132 137.423C133.132 137.502 133.129 137.536 133.113 137.58C133.092 137.64 133.048 137.696 132.989 137.73C132.931 137.763 132.887 137.759 132.866 137.723C132.85 137.696 132.847 137.667 132.847 137.587L132.847 137.005C132.847 136.827 132.748 136.824 132.659 136.876C132.569 136.928 132.468 137.045 132.468 137.224L132.468 137.806C132.468 137.885 132.465 137.919 132.449 137.963C132.429 138.023 132.384 138.08 132.326 138.113C132.268 138.147 132.223 138.142 132.202 138.106C132.186 138.08 132.183 138.05 132.183 137.97L132.183 137.081C132.183 136.996 132.186 136.969 132.204 136.921C132.225 136.863 132.273 136.805 132.327 136.774C132.365 136.752 132.396 136.748 132.418 136.76C132.441 136.77 132.452 136.792 132.46 136.831C132.534 136.696 132.641 136.588 132.746 136.527Z" fill="#001B69"/>
<path d="M134.735 135.788C134.704 135.727 134.639 135.708 134.543 135.763C134.448 135.818 134.382 135.913 134.352 136.009C134.334 136.068 134.328 136.109 134.327 136.166L134.76 135.916C134.758 135.861 134.753 135.825 134.735 135.788ZM134.327 136.391C134.327 136.562 134.414 136.635 134.579 136.539C134.65 136.498 134.72 136.435 134.776 136.355C134.821 136.292 134.848 136.264 134.882 136.244C134.937 136.212 134.997 136.24 134.997 136.315C134.997 136.377 134.951 136.461 134.886 136.55C134.808 136.655 134.7 136.748 134.575 136.82C134.304 136.976 134.047 136.983 134.047 136.451C134.047 136.021 134.247 135.661 134.543 135.49C134.851 135.312 135.029 135.465 135.039 135.792C135.04 135.842 135.035 135.902 135.001 135.961C134.965 136.023 134.919 136.05 134.876 136.075L134.327 136.391Z" fill="#001B69"/>
<path d="M135.86 134.729C135.974 134.663 136.065 134.653 136.129 134.69C136.221 134.743 136.245 134.853 136.245 134.997L136.245 135.625C136.245 135.705 136.242 135.738 136.226 135.782C136.206 135.843 136.161 135.899 136.103 135.932C136.045 135.966 136 135.961 135.979 135.925C135.964 135.899 135.96 135.869 135.96 135.789L135.96 135.207C135.96 135.029 135.862 135.026 135.772 135.078C135.682 135.13 135.581 135.248 135.581 135.426L135.581 136.008C135.581 136.088 135.578 136.121 135.563 136.166C135.542 136.226 135.497 136.282 135.439 136.315C135.381 136.349 135.336 136.345 135.315 136.309C135.3 136.282 135.296 136.252 135.296 136.173L135.296 135.283C135.296 135.199 135.3 135.171 135.317 135.123C135.338 135.066 135.386 135.008 135.44 134.977C135.478 134.955 135.509 134.951 135.531 134.962C135.554 134.973 135.565 134.994 135.574 135.033C135.646 134.899 135.754 134.79 135.86 134.729Z" fill="#001B69"/>
<path d="M136.609 134.603L136.581 134.62C136.527 134.65 136.507 134.658 136.484 134.657C136.45 134.657 136.432 134.628 136.432 134.579C136.432 134.53 136.45 134.48 136.484 134.44C136.507 134.413 136.527 134.398 136.581 134.367L136.609 134.35L136.609 134.174C136.609 134.095 136.612 134.061 136.628 134.017C136.649 133.957 136.693 133.9 136.752 133.867C136.809 133.833 136.854 133.838 136.875 133.874C136.891 133.9 136.894 133.93 136.894 134.01L136.894 134.186L136.979 134.136C137.033 134.105 137.053 134.098 137.076 134.098C137.11 134.099 137.128 134.127 137.128 134.177C137.128 134.226 137.11 134.276 137.076 134.316C137.053 134.343 137.033 134.358 136.979 134.389L136.894 134.439L136.894 135.071C136.894 135.133 136.914 135.171 136.986 135.134C137.022 135.116 137.047 135.105 137.071 135.105C137.107 135.105 137.128 135.13 137.128 135.19C137.128 135.248 137.105 135.301 137.071 135.341C137.046 135.37 137.009 135.399 136.954 135.431L136.939 135.44C136.702 135.576 136.609 135.445 136.609 135.253L136.609 134.603Z" fill="#001B69"/>
<path d="M170.759 99.3179L170.759 102.43L75.6377 157.348L75.6377 154.236L170.759 99.3179Z" fill="white" fill-opacity="0.3" style="mix-blend-mode:soft-light"/>
<rect width="73.2243" height="21.9673" transform="matrix(-0.866025 -0.5 -1.61057e-08 -1 75.7112 176.203)" fill="#9F7194"/>
<rect width="73.2243" height="3.11203" transform="matrix(-0.866025 -0.5 -1.61057e-08 -1 75.7112 157.347)" fill="white" fill-opacity="0.3" style="mix-blend-mode:soft-light"/>
<rect width="15.4535" height="16.2924" transform="matrix(2.17495e-08 -1 0.866025 0.5 16.1418 139.041)" fill="#262626"/>
<path d="M34.848 149.842C34.0599 149.387 33.4211 148.28 33.4211 147.37C33.4211 146.46 34.06 146.091 34.848 146.546L37.1217 147.859C37.9097 148.314 38.5485 149.421 38.5485 150.33C38.5485 151.24 37.9097 151.609 37.1217 151.154L34.848 149.842Z" fill="#262626"/>
<path d="M43.146 154.632C42.358 154.177 41.7192 153.071 41.7192 152.161C41.7192 151.251 42.358 150.882 43.146 151.337L45.4197 152.65C46.2077 153.105 46.8466 154.211 46.8466 155.121C46.8466 156.031 46.2077 156.4 45.4197 155.945L43.146 154.632Z" fill="#262626"/>
<path d="M51.444 159.423C50.656 158.968 50.0172 157.862 50.0172 156.952C50.0172 156.042 50.656 155.673 51.444 156.128L53.7178 157.441C54.5058 157.896 55.1446 159.002 55.1446 159.912C55.1446 160.822 54.5058 161.191 53.7178 160.736L51.444 159.423Z" fill="#262626"/>
<path d="M59.7421 164.214C58.9541 163.759 58.3153 162.653 58.3153 161.743C58.3153 160.833 58.9541 160.464 59.7421 160.919L62.0158 162.232C62.8038 162.687 63.4426 163.793 63.4426 164.703C63.4426 165.613 62.8038 165.982 62.0158 165.527L59.7421 164.214Z" fill="#262626"/>
<path d="M68.0402 169.005C67.2522 168.55 66.6134 167.444 66.6134 166.534C66.6134 165.624 67.2522 165.255 68.0402 165.71L70.3139 167.023C71.1019 167.478 71.7407 168.584 71.7407 169.494C71.7407 170.404 71.1019 170.773 70.3139 170.318L68.0402 169.005Z" fill="#262626"/>
<path d="M34.848 142.153C34.0599 141.698 33.4211 140.592 33.4211 139.682C33.4211 138.772 34.06 138.403 34.848 138.858L37.1217 140.171C37.9097 140.626 38.5485 141.732 38.5485 142.642C38.5485 143.552 37.9097 143.921 37.1217 143.466L34.848 142.153Z" fill="#262626"/>
<path d="M43.146 146.944C42.358 146.489 41.7192 145.383 41.7192 144.473C41.7192 143.563 42.358 143.194 43.146 143.649L45.4197 144.962C46.2077 145.417 46.8466 146.523 46.8466 147.433C46.8466 148.343 46.2077 148.712 45.4197 148.257L43.146 146.944Z" fill="#262626"/>
<path d="M51.444 151.735C50.656 151.28 50.0172 150.174 50.0172 149.264C50.0172 148.354 50.656 147.985 51.444 148.44L53.7178 149.753C54.5058 150.208 55.1446 151.314 55.1446 152.224C55.1446 153.134 54.5058 153.503 53.7178 153.048L51.444 151.735Z" fill="#262626"/>
<path d="M59.7421 156.526C58.9541 156.071 58.3153 154.965 58.3153 154.055C58.3153 153.145 58.9541 152.776 59.7421 153.231L62.0158 154.544C62.8038 154.999 63.4426 156.105 63.4426 157.015C63.4426 157.925 62.8038 158.294 62.0158 157.839L59.7421 156.526Z" fill="#262626"/>
<path d="M68.0402 161.317C67.2522 160.862 66.6134 159.755 66.6134 158.846C66.6134 157.936 67.2522 157.567 68.0402 158.022L70.3139 159.334C71.1019 159.789 71.7407 160.896 71.7407 161.806C71.7407 162.716 71.1019 163.085 70.3139 162.63L68.0402 161.317Z" fill="#262626"/>
<rect width="73.2243" height="109.836" transform="matrix(-0.866025 -0.5 0.866025 -0.5 75.7131 154.236)" fill="#C393B8"/>
<path d="M84.1151 139.5C81.8386 140.814 78.1477 140.814 75.8713 139.5L37.8228 117.532C35.5464 116.218 35.5464 114.087 37.8228 112.773L99.0174 77.442C101.294 76.1277 104.985 76.1277 107.261 77.442L145.31 99.4093C147.586 100.724 147.586 102.855 145.31 104.169L84.1151 139.5Z" fill="#B07BA4"/>
<path d="M84.1151 139.5C81.8386 140.814 78.1477 140.814 75.8713 139.5L37.8228 117.532C35.5464 116.218 35.5464 114.087 37.8228 112.773L99.0174 77.442C101.294 76.1277 104.985 76.1277 107.261 77.442L145.31 99.4093C147.586 100.724 147.586 102.855 145.31 104.169L84.1151 139.5Z" fill="#B77FAA"/>
<path d="M82.0542 137.211C80.916 137.869 79.0706 137.869 77.9323 137.211L41.7863 116.343C41.2173 116.014 40.9327 115.583 40.9326 115.153L40.9326 115.152C40.9327 114.722 41.2173 114.291 41.7863 113.963L43.9039 112.74L101.078 79.7304C102.217 79.0733 104.062 79.0733 105.2 79.7304L140.217 99.9475L141.346 100.599C141.899 100.918 142.183 101.333 142.199 101.751C142.2 101.776 142.2 101.802 142.199 101.828C142.183 102.245 141.899 102.66 141.346 102.979L82.0542 137.211Z" fill="#BE8AB2"/>
<path d="M82.0542 137.211C80.916 137.869 79.0706 137.869 77.9323 137.211L41.7863 116.343C41.2173 116.014 40.9327 115.583 40.9326 115.153L40.9326 115.152C40.9327 114.722 41.2173 114.291 41.7863 113.963L43.9039 112.74L101.078 79.7304C102.217 79.0733 104.062 79.0733 105.2 79.7304L140.217 99.9475L141.346 100.599C141.899 100.918 142.183 101.333 142.199 101.751C142.2 101.776 142.2 101.802 142.199 101.828C142.183 102.245 141.899 102.66 141.346 102.979L82.0542 137.211Z" fill="#B07BA4"/>
<path d="M41.7863 113.963L43.9039 112.74L41.5882 113.048H40.9326L40.9326 115.152C40.9327 114.722 41.2173 114.291 41.7863 113.963Z" fill="#BE8AB2"/>
<path d="M41.7863 113.963L43.9039 112.74L41.5882 113.048H40.9326L40.9326 115.152C40.9327 114.722 41.2173 114.291 41.7863 113.963Z" fill="#B07BA4"/>
<path d="M140.217 99.9475L141.346 100.599C141.899 100.918 142.183 101.333 142.199 101.751V99.6843L140.217 99.9475Z" fill="#BE8AB2"/>
<path d="M140.217 99.9475L141.346 100.599C141.899 100.918 142.183 101.333 142.199 101.751V99.6843L140.217 99.9475Z" fill="#B07BA4"/>
<path d="M82.0542 135.106C80.916 135.763 79.0705 135.763 77.9323 135.106L41.7863 114.237C40.6481 113.58 40.6481 112.515 41.7863 111.858L101.078 77.6252C102.217 76.968 104.062 76.968 105.2 77.6252L141.346 98.4941C142.485 99.1513 142.485 100.217 141.346 100.874L82.0542 135.106Z" fill="#EFF7FF"/>
<path d="M56.4138 142.046L30.8349 127.278C29.743 126.647 29.7429 125.625 30.8349 124.995L37.8658 120.936C38.9576 120.305 40.7279 120.305 41.8198 120.936L67.3986 135.703C68.4904 136.334 68.4904 137.356 67.3986 137.986L60.3677 142.046C59.2758 142.676 57.5056 142.676 56.4138 142.046Z" fill="#F8DF00"/>
<path d="M50.5294 129.897C50.1736 130.103 49.5948 130.102 49.239 129.897L47.1556 128.694C46.7999 128.489 46.7998 128.155 47.1556 127.949C47.7298 127.618 48.6639 127.618 49.2382 127.949L50.5294 128.695C51.1036 129.026 51.1036 129.566 50.5294 129.897ZM51.0765 128.379L49.7853 127.633C48.9095 127.128 47.4843 127.128 46.6084 127.633C45.9509 128.013 45.9509 128.631 46.6084 129.01L48.6918 130.213C49.3493 130.593 50.4191 130.593 51.0766 130.213C51.9525 129.707 51.9524 128.885 51.0765 128.379Z" fill="#001B69"/>
<path d="M50.3266 129.121L48.4992 128.066C48.3483 127.979 48.103 127.979 47.952 128.066C47.8012 128.153 47.8011 128.295 47.952 128.382L49.7794 129.437C49.9303 129.524 50.1757 129.524 50.3265 129.437C50.4775 129.35 50.4775 129.208 50.3266 129.121Z" fill="#001B69"/>
<path d="M48.9164 131.287C49.1012 131.23 49.1722 131.099 49.0751 130.992C48.9777 130.885 48.7493 130.844 48.5644 130.9L45.5562 131.813C45.4225 131.833 45.2812 131.813 45.1829 131.756L43.6473 130.869C43.4957 130.782 43.4958 130.64 43.6472 130.552L45.1829 129.666C45.3343 129.578 45.581 129.578 45.7325 129.666L47.2681 130.552C47.4159 130.637 47.6552 130.637 47.8028 130.552C47.9506 130.467 47.9506 130.329 47.8028 130.243L46.2672 129.357C45.8208 129.099 45.0945 129.099 44.6481 129.357L43.1124 130.243C42.666 130.501 42.6662 130.92 43.1126 131.178L44.6482 132.065C44.9526 132.24 45.3964 132.303 45.8065 132.227L45.8254 132.222L45.8671 132.212L45.8715 132.211L45.8794 132.208L48.9164 131.287Z" fill="#001B69"/>
<path d="M43.0733 123.758C43.1577 123.807 43.1998 123.865 43.2 123.934C43.2 124.002 43.1578 124.06 43.0733 124.109C42.9931 124.155 42.8968 124.179 42.7852 124.18C42.6732 124.182 42.575 124.163 42.4908 124.124L41.7667 123.706C41.6316 123.637 41.4965 123.595 41.3615 123.578C41.2264 123.561 41.0976 123.561 40.9751 123.578C40.8527 123.595 40.7387 123.624 40.6333 123.665C40.5277 123.707 40.4392 123.748 40.3674 123.79L39.291 124.411C39.2064 124.46 39.1051 124.484 38.9869 124.484C38.8686 124.484 38.7675 124.46 38.6831 124.411C38.5985 124.362 38.5562 124.304 38.5562 124.236C38.5562 124.167 38.5984 124.109 38.683 124.06L39.7595 123.439C39.8902 123.363 40.0391 123.297 40.206 123.239C40.3726 123.182 40.5488 123.139 40.7347 123.11L39.215 122.232C39.1304 122.184 39.0881 122.125 39.0882 122.057C39.0881 121.989 39.1303 121.93 39.2148 121.881C39.2994 121.833 39.4006 121.808 39.5189 121.808C39.6369 121.808 39.7383 121.833 39.8229 121.881L43.0733 123.758Z" fill="#001B69"/>
<path d="M55.0544 133.731C54.915 133.739 54.799 133.715 54.7061 133.662C54.6215 133.613 54.5792 133.555 54.5791 133.486C54.5793 133.418 54.6215 133.36 54.706 133.311C54.7821 133.267 54.8644 133.244 54.9529 133.242L58.5621 132.934C58.7311 132.92 58.9051 132.929 59.0845 132.962C59.2638 132.995 59.4212 133.05 59.5565 133.128C59.683 133.201 59.7757 133.287 59.8351 133.384C59.894 133.482 59.9111 133.579 59.8856 133.677L59.3664 135.753C59.3621 135.785 59.3505 135.816 59.3316 135.846C59.3126 135.877 59.2818 135.904 59.2397 135.928C59.1552 135.977 59.054 136.002 58.9357 136.002C58.8175 136.002 58.7164 135.977 58.6318 135.928C58.5306 135.87 58.4904 135.801 58.5116 135.72L59.0053 133.731C59.0095 133.695 59.0097 133.652 59.0056 133.603C59.0013 133.555 58.9758 133.517 58.9295 133.49C58.8829 133.463 58.8175 133.449 58.7332 133.446C58.6488 133.444 58.577 133.445 58.5177 133.45L55.0544 133.731Z" fill="#001B69"/>
<path d="M51.9764 130.858C51.9172 130.892 51.8781 130.934 51.8592 130.984C51.8401 131.034 51.837 131.088 51.8496 131.147C51.8624 131.205 51.8951 131.264 51.9479 131.324C52.0006 131.384 52.0714 131.439 52.1602 131.49L53.4456 132.232C53.5848 132.313 53.7229 132.366 53.8603 132.392C53.9974 132.417 54.1283 132.424 54.2527 132.413C54.3774 132.402 54.4934 132.379 54.6012 132.344C54.7089 132.309 54.8006 132.269 54.8767 132.225L56.0036 131.575C56.0882 131.526 56.1904 131.502 56.3108 131.503C56.431 131.504 56.5312 131.528 56.6115 131.574C56.6959 131.623 56.738 131.682 56.7382 131.75C56.738 131.818 56.6959 131.877 56.6114 131.925L55.535 132.547C55.3746 132.64 55.1858 132.717 54.9683 132.779C54.7508 132.841 54.5241 132.881 54.2876 132.898C54.0513 132.915 53.817 132.905 53.5848 132.869C53.3524 132.832 53.1457 132.761 52.9642 132.657L51.3684 131.735C51.2249 131.652 51.1183 131.557 51.0488 131.448C50.9791 131.34 50.9452 131.229 50.9475 131.116C50.9494 131.002 50.9865 130.892 51.0582 130.785C51.1301 130.678 51.2334 130.585 51.3686 130.507C51.4529 130.458 51.5553 130.434 51.6756 130.436C51.7958 130.437 51.8961 130.461 51.9764 130.507C52.0608 130.556 52.1029 130.614 52.1032 130.682C52.1029 130.751 52.0608 130.809 51.9764 130.858Z" fill="#001B69"/>
<path d="M43.7211 124.996C43.7677 124.978 43.8214 124.972 43.8826 124.975C43.9438 124.979 44.0019 124.997 44.0569 125.028L46.2732 126.308C46.3237 126.347 46.35 126.392 46.3521 126.441C46.3542 126.491 46.3243 126.533 46.2632 126.569C46.2005 126.605 46.1269 126.622 46.0418 126.621C45.9554 126.619 45.8783 126.604 45.8108 126.575L43.5945 125.295C43.5395 125.264 43.509 125.23 43.5025 125.195C43.4962 125.16 43.5079 125.128 43.5375 125.102L43.7211 124.996ZM46.0197 127.112C46.1758 127.115 46.3277 127.1 46.4757 127.068C46.6173 127.038 46.7454 126.99 46.86 126.926L46.8684 126.922L46.8713 126.92L46.8746 126.919L46.8815 126.914C46.9923 126.848 47.0751 126.774 47.1278 126.692C47.1828 126.606 47.2081 126.519 47.2038 126.429C47.1996 126.338 47.1668 126.25 47.1057 126.164C47.0444 126.077 46.9549 126 46.8368 125.931L44.6332 124.659C44.5403 124.606 44.4271 124.564 44.2943 124.533C44.1613 124.503 44.023 124.487 43.8795 124.487C43.7358 124.487 43.5903 124.503 43.4426 124.535C43.2949 124.566 43.1577 124.619 43.031 124.692L41.4038 125.632C41.3192 125.68 41.277 125.739 41.277 125.807C41.277 125.875 41.3191 125.934 41.4038 125.983C41.4839 126.029 41.5841 126.053 41.7044 126.054C41.8248 126.055 41.927 126.031 42.0116 125.983L42.7841 125.537L43.0323 125.68C43.2898 125.829 43.4658 125.939 43.6769 126.078C43.8879 126.217 44.0632 126.363 44.2025 126.516C44.3417 126.67 44.442 126.835 44.5034 127.012C44.5644 127.189 44.5739 127.389 44.5318 127.613C44.5273 127.63 44.5253 127.653 44.5253 127.683C44.5295 127.714 44.5401 127.745 44.5571 127.774C44.574 127.803 44.6036 127.83 44.6458 127.854C44.7302 127.903 44.8314 127.928 44.9497 127.928C45.0679 127.928 45.1691 127.903 45.2537 127.854C45.3127 127.82 45.3485 127.775 45.3611 127.719C45.433 127.502 45.4498 127.294 45.412 127.094C45.4063 127.064 45.3969 127.034 45.3887 127.005C45.4436 127.024 45.5005 127.041 45.5605 127.056C45.7104 127.091 45.8635 127.11 46.0197 127.112Z" fill="#001B69"/>
<path d="M64.2983 137.318C64.37 137.255 64.4178 137.186 64.4407 137.112C64.4639 137.037 64.4555 136.958 64.4155 136.874C64.3754 136.79 64.2837 136.706 64.1402 136.623L62.883 135.898C62.7352 135.812 62.5896 135.759 62.446 135.737C62.3024 135.715 62.1663 135.711 62.0375 135.724C61.9089 135.737 61.7896 135.765 61.6797 135.806C61.5698 135.848 61.4771 135.89 61.4013 135.934L60.3249 136.556C60.2403 136.604 60.139 136.629 60.0208 136.629C59.9024 136.629 59.8013 136.604 59.7171 136.556C59.6325 136.507 59.5902 136.448 59.5902 136.38C59.5903 136.312 59.6324 136.253 59.717 136.205L60.7935 135.583C60.9538 135.491 61.1416 135.413 61.3568 135.349C61.5721 135.286 61.7969 135.245 62.0311 135.227C62.2655 135.208 62.4966 135.216 62.7245 135.251C62.9526 135.285 63.1575 135.354 63.339 135.459L64.9633 136.397C65.1278 136.502 65.2343 136.618 65.2828 136.746C65.3314 136.874 65.3378 137.003 65.302 137.133C65.266 137.264 65.1932 137.39 65.0835 137.512C64.9737 137.634 64.8406 137.74 64.6846 137.83L63.6082 138.451C63.5236 138.5 63.4224 138.524 63.3042 138.524C63.186 138.524 63.0849 138.5 63.0003 138.451C62.9158 138.402 62.8735 138.344 62.8736 138.276C62.8735 138.208 62.9158 138.149 63.0004 138.1L64.0769 137.479C64.1527 137.435 64.2263 137.381 64.2983 137.318Z" fill="#001B69"/>
<path d="M51.9376 133.626C51.8294 133.542 51.7765 133.467 51.7743 133.389C51.7722 133.307 51.8346 133.231 51.9584 133.16C52.2216 133.008 52.6034 133.013 52.9237 133.198C53.0621 133.278 53.1328 133.348 53.1871 133.433C53.2244 133.492 53.2222 133.55 53.1609 133.585C53.1318 133.602 53.0871 133.614 53.0382 133.617C52.9935 133.619 52.9498 133.612 52.9123 133.59C52.878 133.571 52.8542 133.539 52.8374 133.509C52.8001 133.439 52.748 133.39 52.6617 133.34C52.5088 133.252 52.3497 133.257 52.2548 133.312C52.209 133.338 52.1821 133.367 52.1841 133.402C52.1872 133.436 52.2059 133.469 52.2642 133.514L52.413 133.629C52.5284 133.718 52.5783 133.789 52.5815 133.859C52.5868 133.948 52.515 134.03 52.383 134.106C52.0968 134.271 51.6941 134.228 51.3831 134.048C51.2219 133.955 51.15 133.888 51.0908 133.792C51.0409 133.711 51.0296 133.656 51.1129 133.608C51.144 133.59 51.1969 133.577 51.247 133.577C51.2947 133.577 51.33 133.587 51.3603 133.605C51.3936 133.624 51.4123 133.647 51.4383 133.696C51.4872 133.786 51.5319 133.838 51.6421 133.902C51.8127 134.001 51.9741 134.014 52.0917 133.947C52.1426 133.917 52.1717 133.883 52.1705 133.849C52.1696 133.82 52.1478 133.789 52.0883 133.743L51.9376 133.626Z" fill="#001B69"/>
<path d="M53.8257 134.178C53.9463 134.248 54.0004 134.33 53.9755 134.423C54.1627 134.421 54.3021 134.453 54.4375 134.531C54.5455 134.594 54.6079 134.671 54.608 134.74C54.6079 134.841 54.5372 134.918 54.4186 134.987L53.9026 135.285C53.837 135.322 53.808 135.335 53.7644 135.344C53.705 135.355 53.6375 135.345 53.5822 135.313C53.5272 135.281 53.5095 135.242 53.5292 135.208C53.5438 135.183 53.5667 135.166 53.6323 135.128L54.1108 134.852C54.2575 134.767 54.2127 134.685 54.1274 134.636C54.0443 134.588 53.8974 134.56 53.7569 134.641L53.2721 134.921C53.2066 134.958 53.1777 134.972 53.1339 134.98C53.0745 134.991 53.007 134.981 52.952 134.949C52.8968 134.918 52.8791 134.879 52.8988 134.844C52.9135 134.819 52.9363 134.802 53.0019 134.764L53.4804 134.488C53.6271 134.403 53.5824 134.321 53.4971 134.272C53.4119 134.223 53.2672 134.196 53.1205 134.28L52.6419 134.557C52.5764 134.595 52.5473 134.608 52.5036 134.616C52.4443 134.628 52.3767 134.617 52.3216 134.585C52.2664 134.554 52.2487 134.515 52.2684 134.48C52.2831 134.455 52.3058 134.438 52.3714 134.4L53.1028 133.978C53.1723 133.938 53.1964 133.928 53.2443 133.919C53.3014 133.909 53.3721 133.921 53.4231 133.951C53.4595 133.972 53.4772 133.995 53.4782 134.019C53.4804 134.042 53.4678 134.062 53.4398 134.088C53.5854 134.084 53.7258 134.121 53.8257 134.178Z" fill="#001B69"/>
<path d="M55.0203 135.605L54.8142 135.486C54.7061 135.424 54.6103 135.419 54.5292 135.466C54.4543 135.509 54.4585 135.567 54.5707 135.632C54.6373 135.67 54.6935 135.693 54.7829 135.694C54.8455 135.695 54.8923 135.679 54.962 135.639L55.0203 135.605ZM55.0139 135.189C54.9578 135.18 54.9203 135.167 54.8963 135.153C54.8693 135.138 54.8506 135.114 54.8558 135.088C54.86 135.06 54.8756 135.042 54.9069 135.023C54.9671 134.989 55.0607 134.993 55.1366 135.007C55.2574 135.029 55.3635 135.066 55.4726 135.129C55.7745 135.303 55.8002 135.467 55.5465 135.614L55.0086 135.924C54.939 135.965 54.9152 135.975 54.8672 135.983C54.81 135.993 54.7393 135.981 54.6884 135.952C54.6518 135.931 54.6342 135.907 54.6333 135.884C54.6312 135.861 54.6415 135.843 54.6655 135.82C54.5094 135.819 54.4137 135.798 54.2899 135.727C54.1672 135.656 54.1101 135.583 54.111 135.51C54.1111 135.444 54.1695 135.374 54.265 135.318C54.4377 135.219 54.6977 135.205 54.9536 135.353L55.2054 135.499L55.2595 135.467C55.378 135.399 55.3676 135.333 55.2398 135.259C55.1753 135.222 55.1087 135.202 55.0139 135.189Z" fill="#001B69"/>
<path d="M56.742 135.861C56.8263 135.91 56.8628 135.951 56.8794 135.998C56.8929 136.037 56.8814 136.076 56.8345 136.103C56.795 136.126 56.7431 136.137 56.6953 136.137C56.6474 136.137 56.6006 136.126 56.5672 136.106C56.5402 136.091 56.5204 136.069 56.5028 136.037C56.4871 136.008 56.4643 135.982 56.4279 135.961C56.3373 135.909 56.1856 135.893 56.0483 135.972L55.5718 136.248C55.5062 136.285 55.4772 136.299 55.4335 136.307C55.3742 136.318 55.3066 136.308 55.2514 136.276C55.1964 136.245 55.1786 136.205 55.1983 136.171C55.213 136.146 55.2357 136.129 55.3013 136.091L56.0327 135.669C56.1022 135.629 56.1264 135.619 56.1742 135.61C56.2313 135.6 56.302 135.612 56.353 135.642C56.3894 135.663 56.4071 135.686 56.4082 135.709C56.4102 135.733 56.3998 135.754 56.3664 135.78C56.4811 135.774 56.635 135.799 56.742 135.861Z" fill="#001B69"/>
<path d="M56.9874 136.294L56.9604 136.279C56.9095 136.249 56.8939 136.237 56.8835 136.217C56.8679 136.189 56.8825 136.16 56.9229 136.137C56.9636 136.113 57.0135 136.105 57.0624 136.114C57.0958 136.12 57.1175 136.129 57.1684 136.158L57.1954 136.174L57.34 136.091C57.4055 136.053 57.4348 136.04 57.4785 136.031C57.5379 136.02 57.6054 136.03 57.6606 136.062C57.7156 136.094 57.7333 136.133 57.7136 136.167C57.699 136.192 57.676 136.209 57.6105 136.247L57.4659 136.33L57.547 136.377C57.598 136.407 57.6138 136.419 57.6242 136.438C57.6397 136.466 57.6252 136.495 57.5846 136.519C57.5442 136.542 57.4941 136.551 57.4453 136.542C57.4119 136.536 57.39 136.527 57.339 136.497L57.2579 136.45L56.7379 136.751C56.6868 136.78 56.6651 136.814 56.7295 136.856C56.7617 136.877 56.7827 136.893 56.7941 136.913C56.8107 136.942 56.8004 136.972 56.7515 137C56.7036 137.028 56.6494 137.034 56.6006 137.024C56.5641 137.018 56.5226 137.001 56.4706 136.971L56.456 136.963C56.2312 136.833 56.2947 136.694 56.4527 136.603L56.9874 136.294Z" fill="#001B69"/>
<path d="M58.7284 137.333C58.8595 137.409 59.0261 137.408 59.1467 137.339C59.2683 137.269 59.2673 137.173 59.1362 137.097L58.8678 136.942L58.4601 137.178L58.7284 137.333ZM57.5405 137.372L58.6577 136.727C58.7003 136.703 58.7534 136.672 58.8347 136.672C58.9157 136.672 58.9688 136.703 59.0113 136.727L59.4108 136.958C59.7188 137.136 59.6896 137.362 59.438 137.507C59.1862 137.652 58.795 137.669 58.4871 137.491L58.2021 137.327L57.8318 137.541C57.7642 137.58 57.7383 137.592 57.6851 137.602C57.6228 137.613 57.548 137.603 57.4907 137.569C57.4335 137.536 57.4148 137.493 57.4335 137.457C57.4512 137.427 57.4729 137.412 57.5405 137.372Z" fill="#001B69"/>
<path d="M59.9799 138.119C60.0152 138.065 60.0006 138.002 59.909 137.95C59.8186 137.897 59.7094 137.888 59.6168 137.909C59.5595 137.922 59.5231 137.937 59.4753 137.963L59.8862 138.201C59.9309 138.172 59.9579 138.152 59.9799 138.119ZM59.2902 138.07C59.1498 138.151 59.131 138.257 59.2881 138.348C59.3556 138.387 59.4409 138.414 59.5336 138.422C59.6063 138.429 59.6428 138.438 59.6749 138.457C59.7271 138.487 59.7333 138.549 59.6709 138.585C59.6199 138.615 59.5294 138.617 59.4252 138.605C59.3017 138.591 59.1746 138.546 59.055 138.477C58.7981 138.329 58.6703 138.121 59.1082 137.868C59.4619 137.664 59.853 137.658 60.1338 137.82C60.426 137.988 60.3856 138.208 60.1214 138.371C60.0807 138.396 60.0288 138.42 59.9641 138.42C59.8956 138.42 59.8519 138.394 59.8113 138.371L59.2902 138.07Z" fill="#001B69"/>
<path d="M61.4455 138.637C61.4674 138.667 61.4799 138.698 61.4788 138.718C61.4768 138.743 61.4621 138.76 61.431 138.778C61.4008 138.795 61.35 138.805 61.3124 138.805C61.2687 138.805 61.2355 138.798 61.2043 138.78C61.1824 138.767 61.1636 138.746 61.1479 138.721C61.1126 138.666 61.069 138.613 60.992 138.569C60.8869 138.508 60.788 138.51 60.7319 138.542C60.6685 138.579 60.6841 138.617 60.7496 138.662L60.9027 138.769C61.0971 138.904 61.093 139.033 60.9088 139.139C60.6696 139.277 60.3512 139.226 60.0964 139.079C59.9258 138.98 59.8488 138.9 59.8176 138.806C59.8052 138.77 59.8125 138.733 59.8561 138.708C59.8925 138.687 59.9435 138.677 59.9925 138.68C60.0339 138.682 60.0631 138.689 60.0913 138.706C60.1172 138.721 60.1349 138.743 60.1494 138.775C60.1797 138.843 60.2265 138.893 60.3263 138.951C60.4262 139.008 60.553 139.041 60.6341 138.994C60.6872 138.963 60.6977 138.924 60.6206 138.87L60.4657 138.762C60.2889 138.638 60.2536 138.517 60.4533 138.402C60.6779 138.272 60.9962 138.318 61.2179 138.446C61.328 138.509 61.3968 138.569 61.4455 138.637Z" fill="#001B69"/>
<path d="M61.6727 138.999L61.6457 138.983C61.5948 138.954 61.5792 138.941 61.5688 138.922C61.5532 138.894 61.5678 138.865 61.6082 138.842C61.6489 138.818 61.6988 138.81 61.7477 138.819C61.7811 138.825 61.8028 138.834 61.8537 138.863L61.8807 138.879L62.0253 138.795C62.0908 138.758 62.1202 138.744 62.1638 138.736C62.2232 138.725 62.2907 138.735 62.3459 138.767C62.4009 138.798 62.4186 138.837 62.3989 138.872C62.3843 138.897 62.3613 138.914 62.2958 138.952L62.1512 139.035L62.2323 139.082C62.2833 139.111 62.2991 139.124 62.3095 139.143C62.325 139.171 62.3105 139.2 62.2699 139.224C62.2295 139.247 62.1794 139.255 62.1306 139.246C62.0972 139.24 62.0753 139.231 62.0243 139.202L61.9432 139.155L61.4232 139.455C61.3721 139.485 61.3504 139.519 61.4149 139.561C61.447 139.582 61.468 139.598 61.4794 139.618C61.496 139.647 61.4857 139.676 61.4368 139.705C61.3889 139.732 61.3347 139.738 61.2859 139.729C61.2494 139.723 61.2079 139.706 61.1559 139.676L61.1413 139.667C60.9166 139.538 60.98 139.399 61.138 139.308L61.6727 138.999Z" fill="#001B69"/>
<path d="M48.5201 133.857L48.7541 133.443L48.083 133.83C48.0154 133.869 47.9896 133.882 47.9366 133.892C47.8742 133.903 47.7994 133.892 47.7421 133.859C47.6849 133.826 47.6662 133.783 47.6849 133.747C47.7026 133.716 47.7242 133.701 47.7918 133.662L48.9142 133.014C48.9779 132.978 49.0276 132.958 49.0985 132.958C49.1505 132.958 49.1961 132.969 49.2356 132.992C49.27 133.012 49.2898 133.031 49.2982 133.056C49.3085 133.083 49.2992 133.119 49.2825 133.15L48.9475 133.771L50.0231 133.578C50.0773 133.568 50.1387 133.563 50.1866 133.569C50.2302 133.573 50.2624 133.585 50.2968 133.605C50.3362 133.627 50.355 133.654 50.355 133.684C50.355 133.725 50.3219 133.754 50.2582 133.79L49.1358 134.438C49.0682 134.477 49.0423 134.49 48.9893 134.5C48.9268 134.511 48.852 134.5 48.7948 134.467C48.7376 134.434 48.7188 134.391 48.7376 134.355C48.7552 134.324 48.7769 134.309 48.8444 134.27L49.5155 133.883L48.7989 134.018C48.6905 134.038 48.6261 134.036 48.5574 133.996C48.4888 133.957 48.4846 133.919 48.5201 133.857Z" fill="#001B69"/>
<path d="M50.2742 134.783L50.0681 134.664C49.9601 134.602 49.8642 134.597 49.7831 134.644C49.7083 134.687 49.7125 134.744 49.8248 134.809C49.8914 134.848 49.9476 134.871 50.0369 134.872C50.0994 134.873 50.1462 134.857 50.2159 134.817L50.2742 134.783ZM50.2679 134.366C50.2119 134.358 50.1743 134.345 50.1503 134.331C50.1233 134.315 50.1045 134.291 50.1099 134.265C50.1141 134.238 50.1296 134.219 50.1609 134.201C50.2211 134.166 50.3147 134.171 50.3906 134.185C50.5114 134.206 50.6176 134.244 50.7267 134.307C51.0285 134.481 51.0542 134.645 50.8004 134.791L50.2626 135.102C50.193 135.142 50.1692 135.152 50.1212 135.161C50.0639 135.171 49.9933 135.159 49.9424 135.129C49.9059 135.108 49.8882 135.085 49.8873 135.062C49.8852 135.039 49.8955 135.021 49.9194 134.997C49.7634 134.996 49.6676 134.976 49.5439 134.904C49.4211 134.833 49.3641 134.761 49.365 134.688C49.365 134.622 49.4234 134.551 49.519 134.496C49.6916 134.396 49.9516 134.383 50.2075 134.531L50.4593 134.676L50.5134 134.645C50.632 134.576 50.6216 134.51 50.4938 134.436C50.4293 134.399 50.3627 134.38 50.2679 134.366Z" fill="#001B69"/>
<path d="M52.0091 135.047C52.1173 135.11 52.1691 135.181 52.1693 135.25C52.1692 135.351 52.0901 135.423 51.9715 135.492L51.4555 135.79C51.39 135.828 51.361 135.841 51.3172 135.849C51.2579 135.861 51.1905 135.85 51.1353 135.819C51.0801 135.787 51.0624 135.748 51.0821 135.713C51.0969 135.688 51.1196 135.671 51.1851 135.634L51.6637 135.357C51.8104 135.273 51.7658 135.19 51.6805 135.141C51.5953 135.092 51.4505 135.065 51.3038 135.15L50.8252 135.426C50.7597 135.464 50.7306 135.477 50.6869 135.485C50.6276 135.497 50.5601 135.486 50.505 135.455C50.4498 135.423 50.4319 135.384 50.4518 135.35C50.4664 135.324 50.4892 135.307 50.5546 135.27L51.2861 134.847C51.3556 134.807 51.3797 134.797 51.4277 134.789C51.4849 134.778 51.5554 134.79 51.6064 134.82C51.6428 134.841 51.6606 134.864 51.6616 134.888C51.6637 134.912 51.6512 134.931 51.6231 134.957C51.7676 134.953 51.9092 134.99 52.0091 135.047Z" fill="#001B69"/>
<path d="M52.5735 136.11L52.3674 135.991C52.2593 135.929 52.1636 135.924 52.0824 135.971C52.0076 136.014 52.0118 136.072 52.124 136.136C52.1906 136.175 52.2468 136.198 52.3361 136.199C52.3987 136.2 52.4455 136.184 52.5152 136.144L52.5735 136.11ZM52.5672 135.693C52.5111 135.685 52.4735 135.672 52.4495 135.658C52.4225 135.642 52.4039 135.618 52.409 135.592C52.4133 135.565 52.4289 135.546 52.4601 135.528C52.5203 135.493 52.614 135.498 52.6899 135.512C52.8107 135.533 52.9168 135.571 53.0259 135.634C53.3278 135.808 53.3535 135.972 53.0998 136.118L52.5619 136.429C52.4923 136.469 52.4685 136.479 52.4204 136.488C52.3632 136.498 52.2926 136.486 52.2417 136.457C52.2051 136.435 52.1876 136.412 52.1866 136.389C52.1845 136.366 52.1948 136.348 52.2188 136.324C52.0627 136.323 51.9669 136.303 51.8431 136.231C51.7204 136.161 51.6633 136.088 51.6643 136.015C51.6643 135.949 51.7227 135.878 51.8183 135.823C51.991 135.723 52.2509 135.71 52.5068 135.858L52.7586 136.003L52.8128 135.972C52.9313 135.903 52.9208 135.837 52.793 135.764C52.7285 135.726 52.662 135.707 52.5672 135.693Z" fill="#001B69"/>
<path d="M53.9298 136.44C53.7696 136.348 53.6164 136.417 53.474 136.499C53.3315 136.581 53.2099 136.671 53.3701 136.763C53.5302 136.856 53.6873 136.787 53.8298 136.704C53.9723 136.622 54.0899 136.532 53.9298 136.44ZM52.4296 136.96C52.4037 136.907 52.4016 136.852 52.4589 136.818C52.5276 136.779 52.6326 136.785 52.6824 136.814C52.7168 136.834 52.7334 136.856 52.7491 136.892C52.773 136.948 52.8083 136.984 52.8593 137.014C53.0216 137.107 53.1911 137.073 53.3013 137.009L53.4117 136.946C53.2618 136.951 53.1515 136.921 53.0455 136.859C52.9393 136.798 52.8832 136.725 52.8832 136.655C52.8831 136.537 53.0143 136.452 53.2036 136.343C53.3929 136.233 53.5386 136.159 53.7424 136.159C53.8631 136.159 53.9921 136.193 54.0982 136.254C54.2116 136.319 54.2574 136.382 54.2471 136.472C54.2917 136.456 54.325 136.448 54.3665 136.45C54.4071 136.45 54.4477 136.461 54.484 136.481C54.5351 136.511 54.556 136.552 54.5384 136.585C54.5236 136.612 54.5059 136.626 54.4363 136.666L53.5677 137.168C53.3076 137.318 52.9332 137.32 52.642 137.152C52.5223 137.083 52.463 137.026 52.4296 136.96Z" fill="#001B69"/>
<path d="M55.1912 137.272C55.2265 137.218 55.2121 137.156 55.1205 137.103C55.03 137.051 54.9207 137.042 54.8282 137.063C54.7709 137.075 54.7346 137.091 54.6867 137.117L55.0976 137.354C55.1424 137.326 55.1694 137.305 55.1912 137.272ZM54.5016 137.224C54.3613 137.305 54.3424 137.411 54.4995 137.501C54.567 137.54 54.6523 137.568 54.745 137.576C54.8178 137.583 54.8543 137.592 54.8864 137.611C54.9385 137.641 54.9448 137.703 54.8824 137.739C54.8314 137.769 54.7408 137.77 54.6367 137.758C54.5131 137.744 54.386 137.7 54.2665 137.631C54.0096 137.483 53.8817 137.274 54.3196 137.021C54.6733 136.817 55.0644 136.811 55.3452 136.973C55.6375 137.142 55.597 137.361 55.3329 137.525C55.2922 137.549 55.2403 137.573 55.1756 137.573C55.107 137.573 55.0633 137.548 55.0227 137.525L54.5016 137.224Z" fill="#001B69"/>
<path d="M56.5961 137.695C56.7166 137.765 56.7706 137.847 56.7458 137.94C56.9329 137.938 57.0724 137.97 57.2077 138.049C57.3159 138.111 57.3782 138.188 57.3783 138.257C57.3781 138.358 57.3074 138.435 57.1889 138.504L56.6728 138.802C56.6073 138.839 56.5782 138.853 56.5346 138.861C56.4752 138.872 56.4078 138.862 56.3526 138.83C56.2974 138.799 56.2797 138.76 56.2995 138.725C56.3141 138.7 56.3369 138.683 56.4024 138.646L56.8811 138.369C57.0277 138.285 56.983 138.202 56.8977 138.153C56.8145 138.105 56.6677 138.077 56.5271 138.158L56.0424 138.438C55.9769 138.476 55.948 138.489 55.9041 138.497C55.8448 138.509 55.7774 138.498 55.7222 138.466C55.667 138.435 55.6493 138.396 55.669 138.361C55.6838 138.336 55.7065 138.319 55.772 138.282L56.2507 138.005C56.3973 137.921 56.3527 137.838 56.2675 137.789C56.1822 137.74 56.0374 137.713 55.8908 137.797L55.4121 138.074C55.3466 138.112 55.3176 138.125 55.2738 138.133C55.2145 138.145 55.147 138.134 55.0919 138.103C55.0367 138.071 55.0189 138.032 55.0387 137.997C55.0533 137.972 55.0761 137.955 55.1416 137.918L55.873 137.495C55.9426 137.455 55.9666 137.445 56.0146 137.436C56.0718 137.426 56.1423 137.438 56.1933 137.468C56.2297 137.489 56.2475 137.512 56.2485 137.536C56.2506 137.56 56.2381 137.579 56.21 137.605C56.3556 137.601 56.4961 137.638 56.5961 137.695Z" fill="#001B69"/>
<path d="M58.147 138.979C58.1823 138.925 58.1679 138.863 58.0763 138.81C57.9858 138.757 57.8765 138.748 57.7839 138.769C57.7267 138.782 57.6904 138.797 57.6424 138.823L58.0534 139.061C58.0982 139.032 58.1251 139.012 58.147 138.979ZM57.4573 138.93C57.317 139.011 57.2982 139.117 57.4553 139.208C57.5228 139.247 57.6081 139.274 57.7008 139.282C57.7736 139.289 57.8101 139.298 57.8422 139.317C57.8944 139.347 57.9006 139.41 57.8382 139.446C57.7872 139.475 57.6966 139.477 57.5925 139.465C57.469 139.451 57.3418 139.407 57.2223 139.338C56.9654 139.189 56.8375 138.981 57.2754 138.728C57.6291 138.524 58.0202 138.518 58.301 138.68C58.5933 138.849 58.5527 139.068 58.2887 139.231C58.248 139.256 58.196 139.28 58.1313 139.28C58.0627 139.28 58.0191 139.255 57.9785 139.231L57.4573 138.93Z" fill="#001B69"/>
<path d="M59.5523 139.402C59.6606 139.465 59.7124 139.535 59.7125 139.605C59.7124 139.706 59.6332 139.778 59.5147 139.846L58.9986 140.144C58.9331 140.182 58.9043 140.195 58.8604 140.204C58.801 140.215 58.7336 140.205 58.6785 140.173C58.6232 140.141 58.6056 140.102 58.6253 140.068C58.64 140.043 58.6628 140.026 58.7283 139.988L59.2069 139.712C59.3536 139.627 59.3089 139.545 59.2237 139.496C59.1384 139.447 58.9937 139.42 58.8471 139.504L58.3684 139.781C58.3029 139.818 58.2739 139.832 58.23 139.84C58.1708 139.851 58.1033 139.841 58.0481 139.809C57.993 139.777 57.9752 139.738 57.9949 139.704C58.0096 139.679 58.0324 139.662 58.0979 139.624L58.8293 139.202C58.8989 139.162 58.9229 139.152 58.9708 139.143C59.028 139.133 59.0986 139.145 59.1496 139.175C59.1859 139.196 59.2038 139.219 59.2048 139.242C59.2069 139.266 59.1944 139.286 59.1663 139.311C59.3109 139.307 59.4523 139.344 59.5523 139.402Z" fill="#001B69"/>
<path d="M60.0116 139.958L59.9846 139.943C59.9337 139.913 59.9182 139.901 59.9077 139.881C59.892 139.853 59.9067 139.824 59.9472 139.801C59.9878 139.777 60.0378 139.769 60.0866 139.778C60.12 139.784 60.1417 139.793 60.1927 139.823L60.2197 139.838L60.3643 139.755C60.4298 139.717 60.4591 139.704 60.5028 139.695C60.562 139.684 60.6297 139.694 60.6848 139.726C60.7399 139.758 60.7575 139.797 60.7378 139.831C60.7232 139.856 60.7003 139.873 60.6348 139.911L60.4902 139.994L60.5713 140.041C60.6223 140.071 60.638 140.083 60.6484 140.102C60.6639 140.131 60.6494 140.159 60.6088 140.183C60.5683 140.206 60.5182 140.215 60.4695 140.206C60.4361 140.2 60.4142 140.191 60.3633 140.161L60.2821 140.114L59.7621 140.415C59.711 140.444 59.6893 140.478 59.7538 140.52C59.786 140.541 59.8069 140.557 59.8183 140.577C59.8349 140.606 59.8246 140.636 59.7756 140.664C59.7278 140.692 59.6736 140.698 59.6247 140.689C59.5883 140.682 59.5468 140.665 59.4948 140.635L59.4802 140.627C59.2554 140.497 59.3189 140.358 59.4769 140.267L60.0116 139.958Z" fill="#001B69"/>
<path fill-rule="evenodd" clip-rule="evenodd" d="M153.583 27.1037C153.193 27.2789 152.069 28.5228 151.18 29.7631C149.447 32.183 148.332 35.146 148.066 38.0414C147.631 42.763 149.37 47.6227 152.771 51.1913C153.248 51.6912 153.491 51.8926 153.688 51.9513C154.382 52.1579 155.025 51.6836 155.025 50.9653C155.025 50.6566 154.897 50.3514 154.701 50.1918C154.633 50.137 154.28 49.7463 153.915 49.3237C151.933 47.0277 150.705 44.3858 150.276 41.4994C150.124 40.4791 150.124 38.5378 150.276 37.5175C150.729 34.4666 152.054 31.7217 154.215 29.3555C154.951 28.5497 155.025 28.4313 155.025 28.0444C155.026 27.2983 154.262 26.7997 153.583 27.1037ZM177.537 27.1261C176.904 27.4415 176.77 28.3967 177.297 28.8251C177.364 28.88 177.718 29.2706 178.083 29.6933C180.065 31.9899 181.298 34.6403 181.721 37.5175C181.855 38.4252 181.873 40.3976 181.756 41.2605C181.314 44.526 179.917 47.4021 177.544 49.9337C177.044 50.4677 176.972 50.5965 176.972 50.9642C176.972 51.6838 177.615 52.158 178.31 51.9513C178.763 51.8164 180.195 50.2145 181.149 48.7744C182.699 46.4355 183.69 43.6502 183.937 40.9406C184.364 36.2466 182.612 31.3764 179.213 27.8089C178.441 26.9987 178.084 26.853 177.537 27.1261ZM156.749 30.2784C156.362 30.4542 155.448 31.4955 154.747 32.5575C153.914 33.8197 153.235 35.5055 152.903 37.1332C152.759 37.8389 152.74 38.1321 152.742 39.5434C152.744 41.0164 152.76 41.2231 152.933 42.0274C153.356 43.9952 154.234 45.9049 155.374 47.3376C156.033 48.1655 156.52 48.6517 156.801 48.7635C157.597 49.0796 158.414 48.3664 158.193 47.5495C158.144 47.369 157.939 47.0807 157.586 46.6937C156.317 45.3043 155.439 43.6059 155.016 41.7226C154.79 40.7165 154.756 38.8173 154.943 37.727C155.292 35.7036 156.206 33.8334 157.586 32.3232C158.184 31.6686 158.314 31.3706 158.195 30.9299C158.108 30.6088 157.808 30.3086 157.483 30.2158C157.157 30.123 157.075 30.1299 156.749 30.2784ZM174.483 30.2199C174.189 30.3072 173.886 30.6234 173.803 30.9299C173.684 31.3706 173.814 31.6686 174.412 32.3232C175.69 33.7215 176.555 35.4012 176.992 37.33C177.123 37.9105 177.145 38.2196 177.145 39.5085C177.145 40.7974 177.123 41.1064 176.992 41.6869C176.555 43.6157 175.69 45.2954 174.412 46.6937C173.811 47.3521 173.684 47.6454 173.805 48.0948C173.899 48.4408 174.27 48.7707 174.634 48.8317C175.07 48.905 175.414 48.7245 175.931 48.149C177.562 46.3366 178.557 44.3927 179.064 42.0274C179.238 41.2198 179.253 41.0198 179.254 39.5085C179.255 37.9864 179.242 37.8028 179.066 36.9895C178.553 34.6164 177.561 32.6791 175.931 30.8679C175.351 30.2229 175 30.066 174.483 30.2199ZM159.843 33.4899C159.39 33.7641 158.515 34.8898 158.069 35.771C156.911 38.0594 156.911 40.9575 158.069 43.2459C158.527 44.1507 159.459 45.3355 159.886 45.5548C160.482 45.8611 161.275 45.4917 161.396 44.8511C161.467 44.4752 161.366 44.2076 160.991 43.7843C159.708 42.337 159.166 40.7478 159.328 38.9125C159.448 37.5501 159.98 36.3733 160.991 35.2327C161.482 34.6782 161.554 34.1876 161.208 33.7507C160.898 33.3595 160.259 33.2376 159.843 33.4899ZM171.085 33.4975C170.44 33.8882 170.409 34.5568 171.004 35.229C171.717 36.0337 172.115 36.7148 172.442 37.6921C172.63 38.2532 172.641 38.3532 172.641 39.5085C172.641 40.6637 172.63 40.7637 172.442 41.3248C172.115 42.3021 171.717 42.9832 171.004 43.7879C170.789 44.031 170.63 44.2845 170.603 44.4286C170.477 45.0951 170.945 45.6561 171.626 45.6561C172.017 45.6561 172.242 45.5267 172.683 45.0483C173.508 44.1546 174.211 42.849 174.562 41.5549C174.733 40.9253 174.748 40.7619 174.748 39.5085C174.748 38.255 174.733 38.0916 174.562 37.462C174.322 36.5787 173.928 35.6963 173.443 34.9606C172.999 34.2854 172.398 33.6093 172.112 33.4622C171.833 33.3188 171.353 33.3354 171.085 33.4975Z" fill="#DECEFF"/>
</svg>
