<svg width="30" height="30" viewBox="0 0 30 30" fill="none" xmlns="http://www.w3.org/2000/svg">
<path fill-rule="evenodd" clip-rule="evenodd" d="M5.81122 0.0885354C4.97702 0.269825 4.1267 0.92344 3.72123 1.69506C3.70718 1.72179 3.69365 1.74725 3.68061 1.77178C3.6386 1.85077 3.60171 1.92015 3.56931 1.99157C3.33539 2.50712 3.33535 3.12879 3.33504 8.23829V8.24035C3.33503 8.45889 3.33501 8.68563 3.33498 8.92092L3.33458 9.66768C3.3344 9.9914 3.59679 10.2539 3.92052 10.2539H4.68176C5.00537 10.2539 5.2677 9.9916 5.2677 9.66799V9.06342C5.2677 4.0114 5.28053 3.08356 5.35383 2.83677C5.46756 2.4538 5.80735 2.1194 6.18663 2.01721C6.41016 1.95704 7.65148 1.94344 12.1525 1.95206L17.8361 1.9629L17.8654 4.33735L17.8947 5.09767V6.53322C17.8947 7.50403 18.6817 8.29104 19.6525 8.29104H20.9473L21.7962 8.30756L24.1157 8.32414L24.1546 12.3749C24.1599 12.9277 24.165 13.7351 24.1696 14.5346C24.1715 14.8569 24.4333 15.1172 24.7556 15.1172H25.5412C25.8648 15.1172 26.1271 14.8549 26.1271 14.5313V7.52316L18.5854 0L12.3806 0.00462892C7.3987 0.00837893 6.10401 0.024961 5.81122 0.0885354ZM3.92017 21.0938C3.59653 21.0938 3.33418 21.3562 3.33423 21.6798L3.33498 26.2647C3.33592 27.2377 3.40963 27.6834 3.65297 28.1878C4.07602 29.0648 4.90202 29.7156 5.84596 29.9157C6.15624 29.9815 11.4972 29.997 18.1051 29.9989C18.4287 29.999 18.6914 29.7366 18.6914 29.413V28.6408C18.6914 28.3168 18.4286 28.0543 18.1046 28.0547C12.5836 28.0626 6.484 28.0475 6.27124 28.0034C6.03716 27.9547 5.88979 27.877 5.69971 27.7018C5.34932 27.3788 5.2677 27.0804 5.2677 26.1222V21.6797C5.2677 21.3561 5.00537 21.0938 4.68176 21.0938H3.92017Z" fill="#EBF469"/>
<path fill-rule="evenodd" clip-rule="evenodd" d="M1.70398 10.4883H1.98646H3.92006L11.6691 10.4886C17.0974 10.4888 19.4883 10.5081 19.6525 10.553C19.9824 10.6433 20.4039 11.0891 20.4926 11.4417C20.541 11.6339 20.5607 12.8626 20.5607 15.6891L20.5607 15.8758C20.5608 19.5032 20.5608 20.0003 20.3185 20.304C20.28 20.3522 20.2354 20.3955 20.1837 20.4458C20.1782 20.4511 20.1726 20.4566 20.167 20.4621C20.1378 20.4905 20.1134 20.5169 20.0908 20.5415L20.0907 20.5415L20.0907 20.5416C20.0661 20.5682 20.0435 20.5926 20.0191 20.615C19.7505 20.8613 19.256 20.8612 13.3239 20.8597H13.3238H13.3237C12.8267 20.8595 12.2914 20.8594 11.7149 20.8594H3.92006H1.98646L1.73744 20.859C1.36103 20.8586 1.09601 20.7644 0.829995 20.5367C0.812373 20.5216 0.79547 20.5075 0.779259 20.4939C0.726053 20.4493 0.680293 20.411 0.640979 20.3669C0.399326 20.0958 0.401279 19.6076 0.415238 16.1182C0.415931 15.9451 0.416653 15.7646 0.417376 15.5763L0.433724 11.3186L0.609857 11.0646C0.837729 10.736 1.308 10.4883 1.70398 10.4883ZM6.1212 13.13C6.50083 13.1995 6.97866 13.4143 7.18773 13.6093C7.26079 13.6775 7.38905 13.878 7.47267 14.0549C7.60872 14.3425 7.62214 14.4294 7.59935 14.8787C7.56982 15.4614 7.44665 15.7543 7.10493 16.0543C6.7021 16.408 6.31327 16.542 5.60493 16.5711L4.97475 16.5971V18.5156H3.74428V13.1908L3.9933 13.1581C4.75391 13.0583 5.6637 13.0463 6.1212 13.13ZM10.8634 13.1279C12.0386 13.2974 12.7778 13.8474 13.0643 14.7656C13.1988 15.1965 13.2254 16.021 13.1199 16.4913C12.9691 17.1645 12.5542 17.755 11.9969 18.0898C11.3771 18.462 10.1405 18.6475 8.94326 18.5478L8.43179 18.5051V13.1908L8.68081 13.1581C9.42507 13.0604 10.3109 13.0482 10.8634 13.1279ZM17.3381 13.125V14.1211H15.2287V15.3516H17.1623V16.3477H15.2287V18.5156H13.9982V13.125H17.3381ZM5.01383 14.043C4.99233 14.0644 4.97475 14.4336 4.97475 14.8633V15.6445H5.36141C5.99768 15.6445 6.33911 15.4075 6.41305 14.9142C6.49708 14.3538 6.11505 14.0077 5.40934 14.0052C5.21329 14.0045 5.03528 14.0215 5.01383 14.043ZM9.7648 14.0406C9.67011 14.0688 9.66226 14.2052 9.66226 15.822V17.5728L9.86388 17.6107C9.9748 17.6315 10.2524 17.6169 10.4809 17.5784C11.4576 17.4137 11.9347 16.7346 11.8768 15.5917C11.8256 14.5828 11.3182 14.088 10.2775 14.0321C10.0519 14.02 9.82123 14.0238 9.7648 14.0406Z" fill="#C8AEFF"/>
<path fill-rule="evenodd" clip-rule="evenodd" d="M21.2119 28.0676C20.8878 28.0671 20.625 28.3296 20.625 28.6537V29.4078C20.625 29.7308 20.8862 29.9929 21.2092 29.9936C23.1327 29.9977 25.666 29.9995 29.0031 30C29.3267 30 29.5899 29.7377 29.5899 29.4141V28.6538C29.5899 28.33 29.3265 28.0676 29.0027 28.0679C25.7418 28.071 23.1748 28.071 21.2119 28.0676Z" fill="#EBF469"/>
<path d="M22.9934 23.0016L22.2728 23.0022C21.648 23.0029 21.5755 23.0213 21.4054 23.2225C21.2656 23.3879 21.2304 23.6263 21.3152 23.8336C21.3704 23.9684 24.684 27.3368 24.8453 27.4221C24.9183 27.4607 25.0072 27.4805 25.1074 27.4805C25.2077 27.4805 25.2966 27.4607 25.3695 27.4221C25.5309 27.3368 28.8445 23.9684 28.8997 23.8336C28.9845 23.6263 28.9493 23.3879 28.8095 23.2225C28.6394 23.0213 28.5668 23.0029 27.9425 23.0022L27.2223 23.0016L27.2149 20.2241V17.6367C27.2149 17.3131 26.9526 17.0508 26.629 17.0508H23.58C23.2563 17.0508 22.994 17.3131 22.994 17.6367L22.9934 23.0016Z" fill="#EBF469"/>
</svg>
