<svg width="500" height="500" viewBox="0 0 500 500" fill="none" xmlns="http://www.w3.org/2000/svg">
<path d="M236.144 56C242.302 45.3333 257.698 45.3333 263.856 56L458.431 393.013C464.589 403.679 456.891 417.013 444.574 417.013H55.4256C43.1088 417.013 35.4108 403.679 41.5692 393.013L236.144 56Z" fill="white" stroke="#FF0000" stroke-width="32"/>
<path fill-rule="evenodd" clip-rule="evenodd" d="M160.637 239.464C159.474 240.184 159.154 240.763 157.706 244.771C155.451 251.01 153.885 258.263 153.885 262.464V265.053L151.716 267.138C150.524 268.284 148.727 270.457 147.724 271.967C146.721 273.477 145.701 274.788 145.458 274.882C145.007 275.055 141.411 280.295 140.031 282.789C139.609 283.552 138.422 285.271 137.394 286.608L135.524 289.039L132.222 289.267C130.406 289.392 128.272 289.69 127.481 289.929C125.88 290.411 123 292.264 123 292.812C123 293.005 123.535 292.755 124.189 292.255C124.843 291.755 126.285 291.062 127.393 290.715C129.617 290.019 134.828 289.516 134.828 289.998C134.828 290.164 134.476 290.819 134.045 291.454C133.615 292.089 133.208 292.891 133.141 293.236C133.051 293.706 132.522 293.974 131.025 294.307C129.736 294.594 128.632 295.097 127.904 295.728L126.778 296.706L128.257 295.89C130.358 294.731 133.142 294.133 133.536 294.756C133.972 295.446 133.957 295.468 132.342 296.542C130.879 297.514 128.71 300.034 127.951 301.644C127.624 302.339 127.681 302.314 128.32 301.479C130.814 298.227 134.016 295.594 134.508 296.391C134.786 296.84 134.402 297.563 132.645 299.9C131.327 301.653 130.043 304.41 129.8 306.005C129.557 307.604 130.084 307.62 130.383 306.023C130.671 304.485 131.914 302.019 133.628 299.583C134.705 298.053 135.043 297.768 135.379 298.104C135.714 298.44 135.635 298.855 134.968 300.252C133.959 302.363 133.263 306.98 133.738 308.404C134.017 309.24 134.097 308.937 134.297 306.281C134.498 303.619 135.385 299.989 135.98 299.393C136.08 299.293 136.52 299.572 136.958 300.015C137.749 300.817 137.751 300.838 137.38 304.151C136.987 307.659 137.235 310.277 138.323 314.098C138.989 316.439 139.17 316.136 138.587 313.655C138.332 312.57 138.122 310.667 138.119 309.426C138.113 306.939 139.015 302.643 139.589 302.422C139.789 302.345 140.903 302.64 142.063 303.077C143.941 303.784 144.204 303.994 144.447 304.98C144.807 306.434 145.737 308.928 145.871 308.795C145.928 308.737 145.761 307.882 145.498 306.895C144.82 304.341 144.864 303.948 145.829 303.948C146.764 303.948 146.776 303.983 147.31 308.545C147.511 310.259 147.763 311.74 147.869 311.837C148.098 312.045 147.768 306.879 147.456 305.365C147.244 304.339 147.262 304.32 148.18 304.565C149.105 304.811 149.127 304.872 149.501 308.249L149.881 311.683L149.83 308.309L149.778 304.935L151.256 304.931C152.07 304.93 153.252 304.842 153.885 304.738C154.949 304.562 155.069 304.63 155.491 305.647C157.285 309.972 157.461 311.464 156.58 314.89C155.771 318.035 156.245 317.937 157.208 314.76C158.05 311.986 157.927 310.234 156.674 307.096C156.201 305.911 155.888 304.821 155.979 304.673C156.071 304.525 156.677 304.466 157.327 304.543C158.297 304.656 158.617 304.896 159.109 305.878C160.12 307.897 161.155 311.408 161.426 313.742L161.684 315.962L161.727 313.809C161.775 311.436 161.142 308.573 160.132 306.589L159.475 305.3L160.681 305.804C161.344 306.082 162.257 306.349 162.71 306.397C163.375 306.468 163.793 306.985 164.87 309.067C165.69 310.651 166.551 311.847 167.097 312.16C167.588 312.441 168.308 313.087 168.698 313.596C169.09 314.107 169.607 314.444 169.855 314.348C170.105 314.252 170.473 314.498 170.688 314.904C171.261 315.989 172.367 317.061 172.76 316.912C172.951 316.84 173.526 317.448 174.04 318.264C175.099 319.946 175.409 320.131 175.1 318.897C174.962 318.345 175.007 318.12 175.228 318.258C175.416 318.374 175.57 318.663 175.57 318.899C175.57 319.136 175.844 319.682 176.179 320.114C176.865 320.999 178.051 324.025 178.68 326.495C179.142 328.305 180.558 331.147 181.287 331.723C182.745 332.876 184.526 343.421 183.414 344.322C183.166 344.523 181.966 344.748 180.749 344.823C177.071 345.047 175.563 346.764 177.621 348.383C178.447 349.033 179.032 349.203 180.404 349.189C181.865 349.174 182.141 349.266 182.141 349.765C182.141 350.205 182.396 350.358 183.127 350.358C183.906 350.358 184.113 350.502 184.113 351.043C184.113 351.639 184.246 351.698 185.148 351.499C185.973 351.318 186.146 351.368 186.001 351.747C185.854 352.131 186.268 352.091 188.144 351.537C190.046 350.977 190.624 350.639 191.316 349.683C191.782 349.04 192.708 347.876 193.374 347.097L194.585 345.68L195.626 346.867C196.198 347.52 196.812 348.054 196.991 348.054C197.443 348.054 198.913 346.862 198.711 346.659C198.62 346.568 198.712 346.126 198.917 345.676C199.22 345.009 199.167 344.607 198.625 343.484C198.031 342.253 198.011 342.015 198.428 341.214C198.684 340.722 198.899 340.171 198.906 339.99C198.922 339.533 200.786 337.521 201.194 337.521C201.377 337.521 201.527 337.393 201.527 337.237C201.527 337.08 201.969 336.451 202.509 335.838C203.05 335.225 203.581 334.454 203.689 334.124C203.801 333.782 204.084 333.6 204.344 333.7C204.866 333.9 205.469 332.96 205.469 331.947C205.469 331.574 205.642 331.304 205.853 331.35C206.064 331.395 206.42 331.081 206.643 330.651C207.008 329.949 207.063 329.933 207.187 330.487C207.281 330.91 207.464 330.656 207.77 329.68C208.031 328.847 208.612 327.96 209.169 327.54C209.694 327.146 210.57 326.379 211.118 325.836C211.927 325.033 212.043 324.987 211.736 325.59C211.433 326.188 211.451 326.33 211.83 326.33C212.088 326.33 212.384 326.108 212.488 325.836C212.592 325.565 212.965 325.343 213.317 325.343C213.669 325.343 214.006 325.232 214.067 325.096C214.234 324.721 216.554 323.039 216.905 323.039C217.075 323.039 217.926 322.723 218.796 322.338C220.357 321.646 220.421 321.644 223.684 322.189C225.503 322.493 227.73 322.797 228.633 322.866C230.602 323.016 231.33 323.162 231.636 323.468C232.117 323.95 232.446 323.665 232.222 322.959C232.019 322.316 232.055 322.276 232.503 322.649C232.943 323.014 233.039 322.966 233.163 322.317C233.301 321.593 233.31 321.597 233.353 322.398C233.377 322.86 232.621 324.785 231.672 326.676C230.328 329.354 229.766 330.16 229.126 330.328C228.674 330.447 225.833 330.558 222.814 330.576C216.491 330.614 214.908 331.016 212.369 333.225L210.891 334.512L211.876 335.473C212.419 336.002 213.084 336.51 213.355 336.604C213.645 336.704 213.291 336.928 212.49 337.15C210.635 337.663 210.122 338.316 210.896 339.173C211.22 339.532 211.684 339.825 211.927 339.825C212.17 339.825 212.369 339.973 212.369 340.155C212.369 340.336 212.542 340.484 212.754 340.484C212.966 340.484 213.372 340.681 213.658 340.922C214.222 341.398 216.911 342.459 217.554 342.459C217.773 342.459 218.526 341.94 219.226 341.307C220.584 340.077 222.226 339.729 222.226 340.67C222.226 340.953 222.38 341.473 222.567 341.824C222.885 342.419 222.975 342.428 223.877 341.961C224.42 341.679 224.939 341.084 225.059 340.604C225.261 339.799 225.36 339.762 226.789 339.951C227.622 340.061 230.744 340.244 233.726 340.357L239.147 340.562L240.006 339.618C240.961 338.568 241.611 336.909 241.611 335.524C241.611 334.26 241.919 333.584 242.408 333.772C242.659 333.868 242.947 333.503 243.14 332.846C243.359 332.099 243.63 331.791 244.013 331.858C244.349 331.916 244.568 331.74 244.568 331.411C244.568 331.069 244.747 330.936 245.051 331.053C245.316 331.155 245.621 331.097 245.727 330.924C245.834 330.751 247.059 330.607 248.448 330.605C249.838 330.604 251.567 330.501 252.29 330.377L253.604 330.152L252.29 329.775L250.976 329.398L252.237 328.981C252.931 328.751 253.923 328.649 254.442 328.753C254.961 328.857 255.474 328.798 255.582 328.623C255.69 328.448 255.465 328.305 255.083 328.305C254.7 328.305 254.463 328.181 254.556 328.03C254.65 327.879 255.562 327.824 256.583 327.909C257.721 328.004 258.525 327.926 258.659 327.708C258.779 327.513 260.057 327.321 261.498 327.282C263.688 327.222 264.307 327.327 265.268 327.921C266.851 328.899 267.026 328.83 266.785 327.318C266.554 325.87 266.921 325.585 267.526 326.742C267.859 327.378 267.895 327.39 267.778 326.824C267.704 326.462 267.536 325.907 267.406 325.59C267.214 325.123 267.341 325.014 268.077 325.014C268.963 325.014 268.97 324.998 268.389 324.355C267.807 323.711 267.815 323.697 268.751 323.697C269.277 323.697 270.215 323.842 270.834 324.02C272.343 324.454 272.477 324.209 271.131 323.479L270.032 322.883L271.511 322.681C272.803 322.505 272.85 322.473 271.881 322.43C270.917 322.387 270.828 322.313 271.198 321.867C272.073 320.811 274.449 319.742 279.232 318.254C284.934 316.479 294.16 313.822 294.62 313.822C294.793 313.822 295.984 313.319 297.268 312.704C298.552 312.088 300.49 311.212 301.574 310.758C303.464 309.966 309.125 307.114 318.988 301.985C321.518 300.67 323.884 299.323 324.246 298.992C325.428 297.911 328.608 296.674 333.152 295.528C335.605 294.909 338.27 294.402 339.074 294.402C341.598 294.402 345.507 295.396 347.875 296.64C350.688 298.117 354.832 302.263 356.331 305.1C356.905 306.186 358.031 307.935 358.832 308.986C359.964 310.469 365.48 319.529 365.48 319.903C365.48 320.114 369.052 326.161 371.188 329.565C372.514 331.678 374.009 334.176 374.509 335.116C375.4 336.787 376.081 337.381 376.681 337.009C377.484 336.511 376.769 334.033 374.559 329.656C373.773 328.098 372.885 326.083 372.586 325.178C372.073 323.624 370.441 320.269 365.94 311.518C364.869 309.436 363.758 307.215 363.469 306.581C362.466 304.378 359.964 300.016 358.762 298.377C355.806 294.342 350.064 290.261 345.664 289.068C344.365 288.716 341.742 288.345 339.837 288.244C333.785 287.925 331.223 288.719 316.688 295.418C313.435 296.918 310.037 298.578 309.136 299.108C306.828 300.467 301.119 302.92 292.703 306.169C282.953 309.933 280.902 310.528 276.85 310.763C273.601 310.952 273.482 310.935 273.482 310.278C273.482 309.904 273.381 309.326 273.256 308.994C273.056 308.46 273.095 308.444 273.593 308.85C273.902 309.102 274.261 309.202 274.391 309.071C274.521 308.941 274.628 305.477 274.63 301.372L274.632 293.909L273.4 290.905C272.042 287.596 271.951 287.229 272.626 287.79C273.444 288.471 271.635 283.014 270.055 280.041C269.245 278.514 268.738 277.362 268.929 277.48C269.154 277.619 269.145 277.448 268.904 276.997C268.698 276.613 268.418 276.299 268.279 276.299C268.141 276.299 267.224 275.077 266.241 273.583C265.257 272.09 263.601 269.875 262.558 268.661C261.516 267.448 260.51 266.115 260.323 265.699C259.547 263.975 259.016 263.359 257.103 261.965C255.998 261.159 254.958 260.5 254.794 260.5C254.629 260.5 254.059 260.092 253.527 259.594C252.995 259.097 251.686 258.332 250.618 257.896C249.55 257.46 246.975 256.263 244.897 255.236C242.819 254.21 240.195 253.03 239.065 252.615C237.936 252.201 237.012 251.759 237.012 251.633C237.012 251.232 232.982 249.982 230.605 249.646C229.34 249.467 227.233 249.319 225.923 249.315C224.558 249.311 223.54 249.168 223.54 248.979C223.54 248.798 223.762 248.65 224.033 248.65C224.304 248.65 224.526 248.502 224.526 248.321C224.526 247.708 221.098 247.995 216.476 248.994C213.946 249.541 210.873 250.129 209.646 250.3C208.111 250.513 206.985 250.901 206.032 251.544C205.271 252.058 203.909 252.9 203.005 253.417C202.102 253.933 200.73 254.87 199.958 255.499C199.185 256.128 198.499 256.585 198.433 256.514C198.367 256.443 198.474 255.605 198.671 254.652C199.352 251.365 198.018 246.673 195.63 243.947C195.096 243.339 193.679 242.342 192.48 241.732C189.781 240.36 187.437 240.127 184.009 240.891C181.147 241.529 179.203 242.774 177.282 245.199C175.894 246.951 173.674 251.206 172.951 253.501C172.709 254.267 172.218 255.156 171.861 255.475C171.234 256.036 171.219 256.032 171.429 255.354C171.693 254.505 170.806 254.028 170.082 254.63C169.709 254.941 169.549 254.934 169.344 254.602C169.153 254.292 168.912 254.269 168.451 254.516C167.866 254.83 167.763 254.608 167.048 251.506C166.03 247.085 165.406 245.473 163.757 242.999C163.001 241.865 162.3 240.522 162.199 240.014C161.957 238.807 161.792 238.749 160.637 239.464ZM138.746 301.891C138.732 302.207 138.513 303.059 138.259 303.783C137.813 305.056 137.802 305.063 137.956 303.989C138.043 303.378 138.114 302.526 138.114 302.096C138.114 301.666 138.262 301.315 138.442 301.315C138.623 301.315 138.76 301.574 138.746 301.891ZM193.643 330.769C193.451 331.275 193.227 331.621 193.145 331.538C193.063 331.456 193.176 330.911 193.396 330.326C193.616 329.742 193.84 329.396 193.893 329.557C193.947 329.719 193.834 330.264 193.643 330.769ZM191.703 336.575C191.149 338.644 191.049 338.82 191.033 337.77C191.015 336.682 191.966 333.759 192.247 334.04C192.306 334.099 192.061 335.24 191.703 336.575ZM231.59 335.217C231.358 335.593 227.809 335.593 226.333 335.217C225.663 335.046 226.38 334.954 228.57 334.927C230.645 334.902 231.721 335.005 231.59 335.217Z" fill="black"/>
</svg>
