<svg width="500" height="500" viewBox="0 0 500 500" fill="none" xmlns="http://www.w3.org/2000/svg">
<path d="M236.144 56C242.302 45.3333 257.698 45.3333 263.856 56L458.431 393.013C464.589 403.679 456.891 417.013 444.574 417.013H55.4256C43.1088 417.013 35.4108 403.679 41.5692 393.013L236.144 56Z" fill="white" stroke="#FF0000" stroke-width="32"/>
<path fill-rule="evenodd" clip-rule="evenodd" d="M236.876 192.036C228.067 204.776 221.133 220.727 217.783 235.961C217.224 238.504 216.609 241.69 216.417 243.041C216.225 244.392 215.935 245.584 215.772 245.689C215.609 245.794 214.885 245.968 214.165 246.077C210.898 246.567 207.101 250.875 206.476 254.801C206.312 255.838 206.173 256.026 205.512 256.107C205.011 256.169 204.381 255.929 203.716 255.424C202.072 254.175 198.248 251.865 195.769 250.625C184.975 245.223 170.279 242.374 153.91 242.51L149 242.551L154.487 242.784C177.093 243.746 191.163 247.89 203.725 257.285C205.34 258.493 205.727 258.662 206.541 258.509C207.19 258.387 207.484 258.442 207.484 258.687C207.484 258.882 207.754 259.6 208.084 260.283C209.01 262.196 208.784 262.501 207.051 261.678C206.257 261.301 205.161 260.984 204.617 260.975C203.776 260.961 201.871 260.475 201.431 260.162C201.358 260.11 201.228 259.457 201.142 258.71C200.976 257.266 200.364 256.808 199.528 257.502C199.068 257.884 198.968 259.711 199.372 260.35C199.682 260.839 201.39 261.508 203.152 261.829C206.638 262.466 208.537 263.619 209.214 265.511C209.829 267.227 211.783 269.813 213.233 270.828C214.312 271.583 214.598 271.932 214.399 272.246C213.993 272.888 214.079 273.674 214.553 273.674C214.788 273.674 215.183 273.365 215.431 272.986C215.85 272.346 216.018 272.308 217.82 272.442C218.886 272.521 219.926 272.742 220.129 272.933C220.333 273.125 220.561 274.117 220.634 275.139C220.808 277.555 221.959 279.911 224.147 282.33L225.818 284.178L224.888 283.992C221.134 283.241 208.783 283.642 208.038 284.54C207.816 284.808 207.525 284.836 207.01 284.64C206.615 284.49 205.877 284.376 205.371 284.387C204.526 284.406 204.563 284.441 205.823 284.829C206.578 285.061 207.195 285.296 207.195 285.351C207.195 285.529 205.727 287.956 205.028 288.932C204.653 289.457 204.298 290.031 204.238 290.209C204.16 290.446 203.756 290.438 202.74 290.182C200.86 289.709 200.761 289.956 202.57 290.607C203.98 291.114 204.03 291.169 203.85 292.014C203.618 293.098 203.705 293.011 202.379 293.484L201.275 293.878L202.204 293.891C202.909 293.9 203.094 294.009 202.968 294.337C202.842 294.666 202.267 294.779 200.594 294.804L198.387 294.838L199.968 295.1C202.083 295.451 202.24 295.674 201.339 297.038C200.798 297.855 200.28 298.254 199.487 298.465C198.665 298.683 198.564 298.764 199.087 298.787L199.787 298.817L199.159 299.485C198.249 300.455 198.387 300.616 199.542 299.934C200.098 299.606 200.548 299.448 200.543 299.583C200.498 300.651 197.769 303.151 196.649 303.151C196.293 303.151 195.843 303.344 195.648 303.579C195.453 303.814 195.014 303.998 194.674 303.988C194.333 303.978 192.625 303.992 190.878 304.02C189.13 304.048 187.479 303.983 187.209 303.875C186.568 303.618 186.094 303.924 186.3 304.462C186.394 304.705 186.173 305.125 185.782 305.446C185.222 305.906 185.16 306.098 185.431 306.529C185.612 306.817 186.008 307.026 186.311 306.994C186.687 306.954 186.968 307.215 187.194 307.815C187.504 308.636 188.204 308.754 188.107 307.97C187.919 306.441 188.821 305.463 190.42 305.463C191.042 305.463 191.598 305.603 191.655 305.774C191.712 305.944 192.542 306.155 193.499 306.242C194.903 306.37 195.467 306.285 196.41 305.803C197.053 305.475 197.828 305.271 198.132 305.351C198.452 305.434 198.88 305.275 199.148 304.974C199.404 304.687 200.409 303.618 201.382 302.599C202.355 301.581 203.152 300.652 203.152 300.535C203.152 299.932 204.057 300.086 204.597 300.782C205.183 301.536 205.197 301.539 205.013 300.876C204.884 300.409 204.926 300.253 205.143 300.387C205.319 300.496 205.462 300.478 205.462 300.348C205.462 300.218 205.203 299.949 204.886 299.751C204.318 299.396 204.321 299.37 205.103 297.952C205.539 297.161 206.006 296.511 206.141 296.509C206.276 296.506 206.783 296.927 207.269 297.444C208.018 298.242 208.096 298.274 207.782 297.661C207.578 297.263 207.165 296.666 206.862 296.333C206.276 295.687 206.399 294.771 207.073 294.771C207.289 294.771 207.406 294.608 207.334 294.409C207.261 294.211 207.319 293.864 207.462 293.638C207.684 293.289 207.839 293.303 208.492 293.73C209.25 294.227 209.255 294.226 208.931 293.619C208.75 293.281 208.4 292.927 208.154 292.832C207.302 292.505 208.152 288.991 209.083 288.991C209.315 288.991 209.506 289.161 209.506 289.369C209.506 289.577 209.71 290 209.959 290.308C210.392 290.845 210.404 290.835 210.242 290.075C210.085 289.337 210.139 289.28 211.001 289.28C211.615 289.28 212.203 289.543 212.739 290.056C213.523 290.808 213.917 290.653 213.188 289.879C212.89 289.563 213.054 289.524 214.127 289.657C215.13 289.782 215.606 290.033 216.215 290.759C216.648 291.277 217.091 291.611 217.2 291.503C217.308 291.395 217.16 291.045 216.87 290.725C216.581 290.405 216.404 290.084 216.477 290.011C216.549 289.939 217.512 290.02 218.617 290.192C220.188 290.437 220.773 290.67 221.303 291.265L221.982 292.025L221.818 291.29C221.664 290.596 221.712 290.561 222.656 290.671C223.453 290.764 223.656 290.914 223.651 291.407C223.634 292.884 223.075 294.315 222.201 295.113C221.143 296.081 221.226 296.498 222.333 295.772C223.047 295.304 223.08 295.307 223.08 295.836C223.08 296.195 222.646 296.618 221.852 297.034C220.947 297.508 220.826 297.637 221.392 297.525C221.815 297.442 222.367 297.294 222.62 297.197C222.978 297.06 223.08 297.214 223.08 297.896C223.08 298.653 222.933 298.82 221.997 299.124C220.924 299.473 218.766 300.825 218.754 301.156C218.751 301.251 219.481 300.958 220.377 300.506C223.04 299.162 223.357 299.388 223.365 302.638C223.368 304.163 223.305 304.326 222.553 304.715C221.653 305.18 219.862 307.054 219.307 308.111C219.108 308.49 219.587 308.151 220.396 307.342C221.191 306.547 222.243 305.666 222.734 305.383L223.628 304.87L223.829 305.941C224.007 306.89 223.935 307.089 223.194 307.702C222.734 308.082 221.675 308.786 220.842 309.267C220.008 309.748 219.325 310.197 219.325 310.263C219.325 310.484 221.472 309.503 222.853 308.651L224.216 307.811L224.356 308.732C224.432 309.239 224.571 310.335 224.663 311.168L224.832 312.682L223.213 314.302C222.323 315.192 221.665 315.993 221.752 316.08C221.839 316.167 222.336 315.819 222.856 315.306C223.963 314.216 224.724 313.754 224.912 314.06C224.985 314.18 225.137 314.887 225.248 315.633L225.451 316.988L223.399 318.486C222.27 319.31 221.347 320.036 221.347 320.1C221.347 320.253 222.941 319.427 224.302 318.569C224.894 318.195 225.446 317.89 225.529 317.89C225.612 317.89 225.679 318.709 225.679 319.71C225.679 321.459 225.634 321.574 224.501 322.672C222.786 324.335 222.462 325.164 224.087 323.733C225.747 322.271 226.135 322.189 225.41 323.453C225.114 323.97 224.779 324.717 224.665 325.115C224.511 325.65 224.661 325.538 225.246 324.681C226.269 323.183 226.217 323.225 226.575 323.583C226.793 323.801 226.37 325.116 225.126 328.092C224.159 330.402 223.368 332.4 223.368 332.533C223.367 332.791 220.716 335.461 218.238 337.699C217.402 338.455 216.146 339.346 215.446 339.68C214.146 340.301 211.816 342.246 211.816 342.711C211.816 342.854 211.621 343.045 211.383 343.137C210.906 343.32 210.812 344.39 211.218 345.031C211.529 345.523 213.326 345.58 213.485 345.103C213.547 344.918 213.846 344.766 214.151 344.766C214.485 344.766 214.704 344.566 214.705 344.26C214.705 343.543 216.507 341.607 217.986 340.736C220.684 339.147 221.883 338.229 222.345 337.397C222.609 336.92 223.212 336.075 223.685 335.518C224.33 334.759 224.603 334.603 224.782 334.891C224.938 335.143 225.29 334.4 225.809 332.724C226.244 331.32 227.06 329.197 227.622 328.005C228.185 326.812 228.8 325.447 228.987 324.97C229.823 322.85 230.467 321.66 230.733 321.742C230.892 321.79 231.472 322.433 232.022 323.17C233.173 324.711 233.546 324.757 232.656 323.249C232.324 322.685 232.097 322.225 232.152 322.225C232.207 322.225 232.69 322.402 233.225 322.62C235.359 323.485 235.821 323.33 233.91 322.389C230.752 320.834 230.383 320.414 230 317.94C229.819 316.775 229.722 315.771 229.784 315.709C229.846 315.647 230.67 315.914 231.615 316.302C232.56 316.691 233.593 317.006 233.91 317.002C234.228 316.999 233.857 316.749 233.085 316.448C230.002 315.242 229.389 314.468 229.014 311.299C228.842 309.852 228.863 309.782 229.384 310.061C230.193 310.494 232.346 310.939 232.158 310.634C232.071 310.492 231.844 310.372 231.655 310.368C231.466 310.363 230.726 310.061 230.011 309.696L228.712 309.033L228.567 307.085L228.423 305.137L229.434 305.315C229.99 305.414 230.705 305.567 231.022 305.656C232.153 305.972 231.027 305.276 229.766 304.88C228.991 304.636 228.423 304.254 228.281 303.88C227.89 302.851 226.779 297.042 226.942 296.878C227.231 296.59 228.567 297.092 228.567 297.489C228.567 297.707 228.828 298.193 229.146 298.568L229.726 299.25L229.442 298.455C229.287 298.018 229.254 297.663 229.369 297.665C229.83 297.675 230.252 298.152 230.859 299.35C231.55 300.713 231.949 300.839 231.455 299.539C231.288 299.097 231.216 298.671 231.296 298.591C231.453 298.433 231.583 298.721 232.21 300.618L232.616 301.851L232.448 300.457C232.286 299.116 232.303 299.075 232.878 299.383C233.207 299.559 233.795 300.317 234.185 301.066C234.896 302.432 235.168 302.394 234.64 301.003C234.484 300.595 234.467 300.261 234.6 300.261C234.734 300.261 235.066 300.845 235.338 301.559C235.61 302.273 235.975 302.944 236.148 303.051C236.353 303.178 236.395 303.068 236.269 302.738C236.162 302.459 235.996 301.92 235.901 301.54C235.735 300.878 235.766 300.862 236.616 301.158C237.306 301.399 237.545 301.689 237.689 302.458C237.937 303.777 238.398 304.024 238.188 302.724C238.08 302.062 238.137 301.706 238.349 301.706C238.529 301.706 238.681 301.869 238.689 302.068C238.696 302.266 238.892 302.819 239.125 303.296L239.548 304.163L239.416 303.263L239.283 302.363L240.351 302.737C241.4 303.105 241.418 303.137 241.349 304.504C241.298 305.496 241.359 305.772 241.561 305.463C241.717 305.225 241.848 304.835 241.853 304.596C241.873 303.589 242.277 303.406 243.42 303.884C244.466 304.321 244.491 304.363 244.018 304.886C243.332 305.644 243.667 309.337 244.484 310.037C245.173 310.628 245.17 310.694 244.343 312.81C243.163 315.827 243.225 316.407 244.459 313.902C245.512 311.768 245.711 311.525 246.274 311.698C247.382 312.037 247.628 312.434 247.672 313.952C247.7 314.915 247.758 315.13 247.839 314.567C247.988 313.517 248.383 313.038 248.775 313.43C248.955 313.61 248.801 314.508 248.342 315.955C247.949 317.19 247.636 318.684 247.645 319.274C247.658 320.18 247.745 320.026 248.204 318.273C248.503 317.132 248.961 315.785 249.222 315.279L249.698 314.359L250.613 315.181C251.116 315.633 251.991 316.43 252.557 316.952L253.586 317.902L253.079 319.846C252.8 320.916 252.576 322.246 252.58 322.803C252.587 323.604 252.698 323.395 253.117 321.791C254.108 318.002 253.843 318.119 256.384 320.346C258.469 322.173 258.788 322.682 258.619 323.915C258.589 324.13 258.704 324.22 258.873 324.115C259.043 324.01 259.181 323.655 259.181 323.326C259.181 322.803 259.335 322.868 260.409 323.849L261.636 324.97L260.878 327.138C259.766 330.315 259.564 331.753 260.572 329.305C261.776 326.383 262.142 325.668 262.384 325.757C262.503 325.801 263.516 326.617 264.635 327.571L266.671 329.305L266.496 330.822C266.396 331.693 266.437 332.339 266.592 332.339C266.74 332.339 266.894 331.857 266.933 331.267C267.028 329.859 267.13 329.799 268.021 330.628C268.708 331.268 268.761 331.477 268.636 333.07C268.56 334.049 268.221 335.361 267.863 336.063C267.512 336.75 267.367 337.225 267.54 337.118C267.997 336.836 269.042 334.698 269.407 333.3L269.723 332.094L271.51 333.589C273.123 334.94 273.301 335.197 273.338 336.241C273.377 337.361 273.388 337.372 273.668 336.605L273.957 335.813L274.945 336.567C275.727 337.164 275.94 337.539 275.972 338.37C275.997 339.043 276.056 339.187 276.136 338.77C276.278 338.031 276.453 337.985 277.134 338.503C277.58 338.842 277.575 339.03 277.064 341.167C276.762 342.431 276.524 343.986 276.535 344.622C276.554 345.66 276.597 345.586 276.962 343.899C277.185 342.866 277.487 341.696 277.634 341.298C277.78 340.901 277.978 340.334 278.075 340.038C278.224 339.578 278.573 339.785 280.484 341.469C281.714 342.553 282.752 343.456 282.792 343.477C282.833 343.498 282.597 344.284 282.27 345.224C281.943 346.164 281.619 347.844 281.55 348.956L281.423 350.979L281.819 348.956C282.036 347.844 282.511 346.327 282.873 345.587C283.461 344.384 283.592 344.275 284.092 344.575C284.671 344.922 284.68 345.91 284.158 351.846L284.031 353.291L284.445 351.557C284.673 350.604 284.949 348.816 285.058 347.584C285.177 346.247 285.386 345.349 285.577 345.356C286.02 345.374 287.953 348.219 290.803 353.052C293.691 357.951 296.623 362.371 299.58 366.29C302.013 369.512 302.308 369.829 305.446 372.596C306.668 373.673 307.956 375.037 308.309 375.627C309.276 377.245 310.045 378 310.726 378C311.989 378 312.438 376.683 311.588 375.47C311.343 375.12 310.271 374.253 309.206 373.543C306.219 371.553 306.955 372.473 299.467 361.383C295.807 355.964 294.362 353.84 289.961 347.418C288.728 345.619 287.775 344.09 287.844 344.021C288.02 343.845 290.805 344.389 292.618 344.953C293.455 345.214 294.202 345.366 294.277 345.291C294.424 345.143 290.718 343.833 288.712 343.322C286.535 342.768 287.409 342.084 290.909 341.603L292.828 341.34L290.228 341.413C288.799 341.453 287.434 341.574 287.196 341.682C286.912 341.81 286.239 341.414 285.246 340.535C284.412 339.796 283.73 339.084 283.73 338.952C283.73 338.543 285.386 337.831 286.387 337.81C287.146 337.794 287.224 337.744 286.769 337.566C286.19 337.34 284.333 337.642 283.474 338.102C283.153 338.273 282.794 338.183 282.344 337.819C281.698 337.296 281.696 337.279 282.255 336.98C282.569 336.812 283.185 336.674 283.624 336.674C284.236 336.674 284.344 336.595 284.084 336.335C283.829 336.079 283.404 336.075 282.366 336.316L280.986 336.636L279.759 335.439C279.084 334.781 278.532 334.15 278.532 334.037C278.532 333.925 279.084 333.637 279.759 333.398C281.173 332.897 280.388 332.766 278.731 333.226C277.63 333.532 277.63 333.532 275.705 331.653C274.646 330.619 273.866 329.687 273.971 329.582C274.076 329.477 274.852 329.299 275.697 329.187C277.152 328.994 277.185 328.972 276.318 328.766C275.796 328.641 274.879 328.688 274.184 328.876C272.984 329.199 272.948 329.187 271.777 328.064C271.124 327.436 270.236 326.627 269.805 326.264C268.81 325.429 269.007 325.117 270.534 325.106C271.548 325.098 271.656 325.046 271.203 324.783C270.906 324.61 270.126 324.541 269.47 324.63C268.361 324.781 268.184 324.702 266.907 323.493C265.427 322.091 265.27 321.852 266.016 322.138C266.311 322.252 266.425 322.207 266.311 322.022C266.208 321.857 265.765 321.644 265.325 321.55C264.372 321.347 257.767 315.279 258.531 315.309C259.432 315.345 260.102 315.737 260.502 316.46C260.892 317.164 260.894 317.165 260.904 316.517C260.911 316.086 261.09 315.867 261.437 315.867C262.136 315.867 262.671 316.348 263.606 317.818C264.036 318.493 264.536 319.046 264.717 319.046C264.935 319.046 264.909 318.874 264.641 318.54C264.037 317.788 263.457 316.694 263.591 316.56C263.655 316.496 264.297 316.524 265.018 316.623C266.156 316.779 266.39 316.934 266.81 317.815C267.075 318.373 267.363 318.758 267.448 318.673C267.534 318.587 267.452 318.235 267.268 317.89C267.083 317.545 266.979 317.216 267.035 317.16C267.091 317.103 268.109 317.15 269.297 317.264C271.384 317.463 271.525 317.526 273.462 319.125C274.886 320.301 275.71 320.78 276.308 320.78C276.87 320.78 278.025 321.386 279.79 322.608C283.376 325.091 285.747 326.397 286.547 326.331C286.915 326.3 287.703 326.584 288.299 326.96C290.153 328.131 292.882 329.426 294.048 329.689C295.309 329.972 296.438 329.673 296.438 329.054C296.438 328.734 297.094 328.863 299.36 329.633C303.424 331.014 303.843 331.264 304.064 332.44C304.303 333.713 305.718 335.663 306.815 336.23C307.889 336.786 309.154 336.799 309.885 336.262C310.434 335.859 310.434 335.82 309.918 334.357C309.629 333.536 309.441 332.814 309.503 332.752C309.564 332.691 310.386 332.767 311.329 332.922C313.336 333.25 314.835 333.048 315.644 332.34C316.073 331.964 316.929 331.795 318.984 331.68C323.011 331.454 324.914 330.469 326.218 327.932C326.524 327.336 326.955 326.849 327.176 326.849C327.786 326.849 329.028 325.218 329.227 324.156C329.478 322.815 328.664 319.625 327.455 317.212C325.436 313.182 322.648 309.746 316.516 303.729C310.066 297.402 298.314 285.486 298.321 285.28C298.324 285.175 298.428 284.6 298.551 284.002L298.776 282.914L299.701 283.598C301.334 284.806 301.523 284.772 300.265 283.497C299.59 282.814 299.037 282.17 299.037 282.067C299.037 281.964 299.493 281.437 300.051 280.896L301.065 279.912L302.434 281.375C303.187 282.179 304.419 283.585 305.173 284.499C306.516 286.128 306.54 286.192 306.365 287.683C306.259 288.594 306.313 289.423 306.502 289.748C306.759 290.191 306.819 290.012 306.826 288.774C306.831 287.94 306.947 287.257 307.085 287.257C307.222 287.257 307.677 287.527 308.096 287.856C308.661 288.301 308.862 288.728 308.877 289.518C308.888 290.102 309.009 290.84 309.145 291.158C309.33 291.589 309.399 291.371 309.414 290.305L309.434 288.873L310.556 289.969C311.448 290.841 311.725 291.37 311.914 292.557C312.147 294.022 312.153 294.029 312.254 292.964C312.311 292.369 312.447 291.886 312.556 291.892C313.037 291.92 315.5 294.482 315.507 294.962C315.511 295.254 315.773 296.013 316.089 296.649C316.405 297.285 316.605 297.587 316.532 297.32C316.459 297.053 316.319 296.338 316.22 295.73C316.052 294.694 316.069 294.661 316.492 295.187C316.74 295.496 316.949 296.016 316.956 296.343C316.964 296.67 317.149 297.328 317.368 297.805C317.76 298.656 317.764 298.647 317.605 297.299C317.515 296.544 317.525 295.927 317.625 295.927C317.726 295.927 318.328 296.397 318.964 296.972C320.098 297.997 320.121 298.057 320.156 300.078L320.191 302.14L320.517 300.354C320.829 298.639 320.865 298.585 321.42 298.991C321.759 299.239 322.133 300.037 322.326 300.922C322.642 302.369 322.656 302.386 322.687 301.345C322.725 300.088 322.801 300.056 323.826 300.863C324.428 301.337 324.659 301.873 324.915 303.392C325.215 305.173 326.412 308.512 326.661 308.262C326.72 308.203 326.571 307.594 326.33 306.908C326.088 306.223 325.781 304.963 325.647 304.108C325.33 302.088 325.764 302.191 326.875 304.399C327.828 306.293 328.124 306.408 327.501 304.641C327.004 303.233 327.223 303.129 328.306 304.26C328.897 304.877 329.2 305.647 329.531 307.367C329.773 308.625 330.089 310.109 330.233 310.665C330.469 311.578 330.483 311.536 330.374 310.232C330.308 309.437 330.171 308.012 330.069 307.066L329.884 305.346L330.85 306.09C331.983 306.961 332.786 308.826 332.821 310.665C332.84 311.694 332.907 311.86 333.14 311.46C333.341 311.115 333.338 310.432 333.132 309.315C332.966 308.414 332.881 307.626 332.944 307.563C333.007 307.5 333.332 307.741 333.665 308.099C334.078 308.543 334.272 309.131 334.272 309.945C334.272 311.243 334.999 314.013 335.406 314.265C335.545 314.351 335.477 313.815 335.255 313.075C334.733 311.342 334.714 308.931 335.221 308.931C335.426 308.931 336.043 309.63 336.593 310.484C337.143 311.338 337.753 312.28 337.949 312.579C338.281 313.085 337.317 310.286 336.961 309.71C336.701 309.289 338.022 309.776 339.906 310.795C340.86 311.311 342.839 312.207 344.304 312.787C345.768 313.366 348.101 314.491 349.488 315.287C351.928 316.687 353.455 317.092 353.686 316.4C353.764 316.163 354.395 316.247 355.848 316.689C358.251 317.419 359.068 317.468 359.288 316.895C359.409 316.58 359.779 316.517 360.804 316.639C361.843 316.762 362.252 316.69 362.548 316.333C362.761 316.077 363.341 315.865 363.838 315.863C364.335 315.86 364.933 315.737 365.168 315.588C365.516 315.368 365.468 315.272 364.902 315.062C363.928 314.702 364.545 314.398 366.637 314.208C368.169 314.069 368.47 314.136 369.491 314.845C370.999 315.89 371.286 315.728 370.752 314.133C370.091 312.161 368.869 311.043 366.84 310.557C366.136 310.388 365.994 310.487 365.54 311.456C365.172 312.241 364.646 312.735 363.646 313.231C362.028 314.033 360.244 314.156 355.392 313.798C352.233 313.565 352.043 313.512 350.427 312.433C348.955 311.449 345.22 309.876 343.081 309.339C342.684 309.239 342.359 309.046 342.359 308.909C342.359 308.773 341.64 308.118 340.762 307.455C339.885 306.792 339.207 306.208 339.258 306.158C339.482 305.934 343.286 306.927 344.42 307.506C345.297 307.954 345.563 308.012 345.302 307.697C344.759 307.042 341.565 305.832 339.371 305.45C338.327 305.268 337.329 304.945 337.152 304.731C336.652 304.128 338.273 303.444 340.25 303.422C341.681 303.406 341.82 303.361 341.203 303.107C340.286 302.731 337.77 302.97 336.671 303.539C335.895 303.941 335.756 303.929 334.906 303.39C333.773 302.673 333.731 302.136 334.777 301.753L335.572 301.463L334.85 301.42C334.175 301.38 334.165 301.359 334.705 301.103C335.261 300.839 334.747 300.89 332.684 301.306C332.033 301.437 330.952 300.727 331.197 300.33C331.285 300.187 332.088 299.907 332.982 299.707C335.231 299.203 334.756 298.986 332.254 299.374C329.356 299.824 328.768 299.35 330.803 298.206C332.241 297.397 332.136 297.234 330.541 297.797C329.481 298.171 329.19 298.174 328.345 297.821C326.801 297.175 323.83 295.049 323.952 294.676C324.013 294.49 324.767 294.18 325.629 293.989L327.196 293.64L325.319 293.687C323.447 293.733 321.867 293.248 321.643 292.558C321.537 292.234 322.695 291.749 324.164 291.503C324.623 291.426 324.454 291.367 323.701 291.342C323.05 291.32 322.112 291.444 321.617 291.617C320.779 291.909 320.549 291.818 318.24 290.281C316.878 289.374 315.81 288.485 315.867 288.306C315.924 288.126 316.653 287.609 317.487 287.156C319.482 286.073 319.211 285.885 317.023 286.835L315.291 287.587L314.35 286.726L313.408 285.866L314.614 285.068C315.276 284.629 316.429 284.105 317.175 283.904C318.061 283.666 318.281 283.533 317.81 283.521C316.681 283.493 315.089 284.019 313.939 284.8L312.888 285.513L311.398 284.443C309.984 283.426 309.944 283.362 310.61 283.187C310.996 283.086 311.701 283.052 312.178 283.112C312.899 283.203 312.947 283.176 312.467 282.948C312.149 282.797 311.292 282.665 310.562 282.653C309.681 282.64 309.085 282.463 308.789 282.127C308.378 281.662 308.431 281.552 309.452 280.755C310.626 279.838 311.049 279.053 309.94 279.851C309.582 280.108 308.919 280.524 308.466 280.776C307.686 281.209 307.606 281.199 306.95 280.582C306.101 279.784 306.072 279.454 306.852 279.454C307.191 279.454 307.367 279.325 307.261 279.153C307.159 278.988 306.826 278.932 306.522 279.028C305.853 279.241 304.813 278.948 304.813 278.548C304.813 278.389 305.267 277.781 305.822 277.195C306.376 276.61 306.831 276.008 306.832 275.857C306.835 275.609 304.963 277.194 304.476 277.853C304.354 278.018 304.05 277.931 303.725 277.636C303.424 277.364 302.361 276.809 301.361 276.402C300.361 275.996 299.231 275.459 298.851 275.209C298.386 274.905 297.787 274.806 297.026 274.908C295.734 275.081 295.739 275.09 295.278 271.427C295.044 269.572 295.036 269.617 295.095 272.42L295.156 275.357L292.611 276.864L290.065 278.372L288.414 277.187C279.906 271.078 273.864 267.471 267.786 264.876C266.086 264.149 263.862 263.033 262.844 262.394C261.825 261.755 259.253 260.415 257.127 259.415C251.139 256.6 250.373 256.161 249.994 255.327C249.577 254.411 247.046 253.174 241.62 251.235C239.604 250.515 237.068 249.607 235.985 249.22C233.008 248.154 230.832 247.73 226.546 247.38C222.344 247.037 221.107 246.821 218.937 246.051L217.537 245.555L217.733 243.937C218.102 240.883 219.343 234.513 220.328 230.615C223.762 217.029 229.392 204.145 237.03 192.396C238.244 190.528 239.179 189 239.107 189C239.035 189 238.031 190.366 236.876 192.036ZM341.939 308.864C341.73 309.09 338.027 307.081 338.027 306.741C338.027 306.478 338.712 306.761 340.018 307.563C341.114 308.236 341.978 308.821 341.939 308.864Z" fill="black"/>
</svg>
