<?xml version="1.0" encoding="utf-8"?>
<svg width="500" height="500" viewBox="1.181 -0.59 257.379 115.702" fill="none" xmlns="http://www.w3.org/2000/svg">
  <path fill-rule="evenodd" clip-rule="evenodd" d="M 39.622 0.976 C 38.459 1.696 38.139 2.275 36.691 6.283 C 34.436 12.522 32.87 19.775 32.87 23.976 L 32.87 26.565 L 30.701 28.65 C 29.509 29.796 27.712 31.969 26.709 33.479 C 25.706 34.989 24.686 36.3 24.443 36.394 C 23.992 36.567 20.396 41.807 19.016 44.301 C 18.594 45.064 17.407 46.783 16.379 48.12 L 14.509 50.551 L 11.207 50.779 C 9.391 50.904 7.257 51.202 6.466 51.441 C 4.865 51.923 1.985 53.776 1.985 54.324 C 1.985 54.517 2.52 54.267 3.174 53.767 C 3.828 53.267 5.27 52.574 6.378 52.227 C 8.602 51.531 13.813 51.028 13.813 51.51 C 13.813 51.676 13.461 52.331 13.03 52.966 C 12.6 53.601 12.193 54.403 12.126 54.748 C 12.036 55.218 11.507 55.486 10.01 55.819 C 8.721 56.106 7.617 56.609 6.889 57.24 L 5.763 58.218 L 7.242 57.402 C 9.343 56.243 12.127 55.645 12.521 56.268 C 12.957 56.958 12.942 56.98 11.327 58.054 C 9.864 59.026 7.695 61.546 6.936 63.156 C 6.609 63.851 6.666 63.826 7.305 62.991 C 9.799 59.739 13.001 57.106 13.493 57.903 C 13.771 58.352 13.387 59.075 11.63 61.412 C 10.312 63.165 9.028 65.922 8.785 67.517 C 8.542 69.116 9.069 69.132 9.368 67.535 C 9.656 65.997 10.899 63.531 12.613 61.095 C 13.69 59.565 14.028 59.28 14.364 59.616 C 14.699 59.952 14.62 60.367 13.953 61.764 C 12.944 63.875 12.248 68.492 12.723 69.916 C 13.002 70.752 13.082 70.449 13.282 67.793 C 13.483 65.131 14.37 61.501 14.965 60.905 C 15.065 60.805 15.505 61.084 15.943 61.527 C 16.734 62.329 16.736 62.35 16.365 65.663 C 15.972 69.171 16.22 71.789 17.308 75.61 C 17.974 77.951 18.155 77.648 17.572 75.167 C 17.317 74.082 17.107 72.179 17.104 70.938 C 17.098 68.451 18 64.155 18.574 63.934 C 18.774 63.857 19.888 64.152 21.048 64.589 C 22.926 65.296 23.189 65.506 23.432 66.492 C 23.792 67.946 24.722 70.44 24.856 70.307 C 24.913 70.249 24.746 69.394 24.483 68.407 C 23.805 65.853 23.849 65.46 24.814 65.46 C 25.749 65.46 25.761 65.495 26.295 70.057 C 26.496 71.771 26.748 73.252 26.854 73.349 C 27.083 73.557 26.753 68.391 26.441 66.877 C 26.229 65.851 26.247 65.832 27.165 66.077 C 28.09 66.323 28.112 66.384 28.486 69.761 L 28.866 73.195 L 28.815 69.821 L 28.763 66.447 L 30.241 66.443 C 31.055 66.442 32.237 66.354 32.87 66.25 C 33.934 66.074 34.054 66.142 34.476 67.159 C 36.27 71.484 36.446 72.976 35.565 76.402 C 34.756 79.547 35.23 79.449 36.193 76.272 C 37.035 73.498 36.912 71.746 35.659 68.608 C 35.186 67.423 34.873 66.333 34.964 66.185 C 35.056 66.037 35.662 65.978 36.312 66.055 C 37.282 66.168 37.602 66.408 38.094 67.39 C 39.105 69.409 40.14 72.92 40.411 75.254 L 40.669 77.474 L 40.712 75.321 C 40.76 72.948 40.127 70.085 39.117 68.101 L 38.46 66.812 L 39.666 67.316 C 40.329 67.594 41.242 67.861 41.695 67.909 C 42.36 67.98 42.778 68.497 43.855 70.579 C 44.675 72.163 45.536 73.359 46.082 73.672 C 46.573 73.953 47.293 74.599 47.683 75.108 C 48.075 75.619 48.592 75.956 48.84 75.86 C 49.09 75.764 49.458 76.01 49.673 76.416 C 50.246 77.501 51.352 78.573 51.745 78.424 C 51.936 78.352 52.511 78.96 53.025 79.776 C 54.084 81.458 54.394 81.643 54.085 80.409 C 53.947 79.857 53.992 79.632 54.213 79.77 C 54.401 79.886 54.555 80.175 54.555 80.411 C 54.555 80.648 54.829 81.194 55.164 81.626 C 55.85 82.511 57.036 85.537 57.665 88.007 C 58.127 89.817 59.543 92.659 60.272 93.235 C 61.73 94.388 63.511 104.933 62.399 105.834 C 62.151 106.035 60.951 106.26 59.734 106.335 C 56.056 106.559 54.548 108.276 56.606 109.895 C 57.432 110.545 58.017 110.715 59.389 110.701 C 60.85 110.686 61.126 110.778 61.126 111.277 C 61.126 111.717 61.381 111.87 62.112 111.87 C 62.891 111.87 63.098 112.014 63.098 112.555 C 63.098 113.151 63.231 113.21 64.133 113.011 C 64.958 112.83 65.131 112.88 64.986 113.259 C 64.839 113.643 65.253 113.603 67.129 113.049 C 69.031 112.489 69.609 112.151 70.301 111.195 C 70.767 110.552 71.693 109.388 72.359 108.609 L 73.57 107.192 L 74.611 108.379 C 75.183 109.032 75.797 109.566 75.976 109.566 C 76.428 109.566 77.898 108.374 77.696 108.171 C 77.605 108.08 77.697 107.638 77.902 107.188 C 78.205 106.521 78.152 106.119 77.61 104.996 C 77.016 103.765 76.996 103.527 77.413 102.726 C 77.669 102.234 77.884 101.683 77.891 101.502 C 77.907 101.045 79.771 99.033 80.179 99.033 C 80.362 99.033 80.512 98.905 80.512 98.749 C 80.512 98.592 80.954 97.963 81.494 97.35 C 82.035 96.737 82.566 95.966 82.674 95.636 C 82.786 95.294 83.069 95.112 83.329 95.212 C 83.851 95.412 84.454 94.472 84.454 93.459 C 84.454 93.086 84.627 92.816 84.838 92.862 C 85.049 92.907 85.405 92.593 85.628 92.163 C 85.993 91.461 86.048 91.445 86.172 91.999 C 86.266 92.422 86.449 92.168 86.755 91.192 C 87.016 90.359 87.597 89.472 88.154 89.052 C 88.679 88.658 89.555 87.891 90.103 87.348 C 90.912 86.545 91.028 86.499 90.721 87.102 C 90.418 87.7 90.436 87.842 90.815 87.842 C 91.073 87.842 91.369 87.62 91.473 87.348 C 91.577 87.077 91.95 86.855 92.302 86.855 C 92.654 86.855 92.991 86.744 93.052 86.608 C 93.219 86.233 95.539 84.551 95.89 84.551 C 96.06 84.551 96.911 84.235 97.781 83.85 C 99.342 83.158 99.406 83.156 102.669 83.701 C 104.488 84.005 106.715 84.309 107.618 84.378 C 109.587 84.528 110.315 84.674 110.621 84.98 C 111.102 85.462 111.431 85.177 111.207 84.471 C 111.004 83.828 111.04 83.788 111.488 84.161 C 111.928 84.526 112.024 84.478 112.148 83.829 C 112.286 83.105 112.295 83.109 112.338 83.91 C 112.362 84.372 111.606 86.297 110.657 88.188 C 109.313 90.866 108.751 91.672 108.111 91.84 C 107.659 91.959 104.818 92.07 101.799 92.088 C 95.476 92.126 93.893 92.528 91.354 94.737 L 89.876 96.024 L 90.861 96.985 C 91.404 97.514 92.069 98.022 92.34 98.116 C 92.63 98.216 92.276 98.44 91.475 98.662 C 89.62 99.175 89.107 99.828 89.881 100.685 C 90.205 101.044 90.669 101.337 90.912 101.337 C 91.155 101.337 91.354 101.485 91.354 101.667 C 91.354 101.848 91.527 101.996 91.739 101.996 C 91.951 101.996 92.357 102.193 92.643 102.434 C 93.207 102.91 95.896 103.971 96.539 103.971 C 96.758 103.971 97.511 103.452 98.211 102.819 C 99.569 101.589 101.211 101.241 101.211 102.182 C 101.211 102.465 101.365 102.985 101.552 103.336 C 101.87 103.931 101.96 103.94 102.862 103.473 C 103.405 103.191 103.924 102.596 104.044 102.116 C 104.246 101.311 104.345 101.274 105.774 101.463 C 106.607 101.573 109.729 101.756 112.711 101.869 L 118.132 102.074 L 118.991 101.13 C 119.946 100.08 120.596 98.421 120.596 97.036 C 120.596 95.772 120.904 95.096 121.393 95.284 C 121.644 95.38 121.932 95.015 122.125 94.358 C 122.344 93.611 122.615 93.303 122.998 93.37 C 123.334 93.428 123.553 93.252 123.553 92.923 C 123.553 92.581 123.732 92.448 124.036 92.565 C 124.301 92.667 124.606 92.609 124.712 92.436 C 124.819 92.263 126.044 92.119 127.433 92.117 C 128.823 92.116 130.552 92.013 131.275 91.889 L 132.589 91.664 L 131.275 91.287 L 129.961 90.91 L 131.222 90.493 C 131.916 90.263 132.908 90.161 133.427 90.265 C 133.946 90.369 134.459 90.31 134.567 90.135 C 134.675 89.96 134.45 89.817 134.068 89.817 C 133.685 89.817 133.448 89.693 133.541 89.542 C 133.635 89.391 134.547 89.336 135.568 89.421 C 136.706 89.516 137.51 89.438 137.644 89.22 C 137.764 89.025 139.042 88.833 140.483 88.794 C 142.673 88.734 143.292 88.839 144.253 89.433 C 145.836 90.411 146.011 90.342 145.77 88.83 C 145.539 87.382 145.906 87.097 146.511 88.254 C 146.844 88.89 146.88 88.902 146.763 88.336 C 146.689 87.974 146.521 87.419 146.391 87.102 C 146.199 86.635 146.326 86.526 147.062 86.526 C 147.948 86.526 147.955 86.51 147.374 85.867 C 146.792 85.223 146.8 85.209 147.736 85.209 C 148.262 85.209 149.2 85.354 149.819 85.532 C 151.328 85.966 151.462 85.721 150.116 84.991 L 149.017 84.395 L 150.496 84.193 C 151.788 84.017 151.835 83.985 150.866 83.942 C 149.902 83.899 149.813 83.825 150.183 83.379 C 151.058 82.323 153.434 81.254 158.217 79.766 C 163.919 77.991 173.145 75.334 173.605 75.334 C 173.778 75.334 174.969 74.831 176.253 74.216 C 177.537 73.6 179.475 72.724 180.559 72.27 C 182.449 71.478 188.11 68.626 197.973 63.497 C 200.503 62.182 202.869 60.835 203.231 60.504 C 204.413 59.423 207.593 58.186 212.137 57.04 C 214.59 56.421 217.255 55.914 218.059 55.914 C 220.583 55.914 224.492 56.908 226.86 58.152 C 229.673 59.629 233.817 63.775 235.316 66.612 C 235.89 67.698 237.016 69.447 237.817 70.498 C 238.949 71.981 244.465 81.041 244.465 81.415 C 244.465 81.626 248.037 87.673 250.173 91.077 C 251.499 93.19 252.994 95.688 253.494 96.628 C 254.385 98.299 255.066 98.893 255.666 98.521 C 256.469 98.023 255.754 95.545 253.544 91.168 C 252.758 89.61 251.87 87.595 251.571 86.69 C 251.058 85.136 249.426 81.781 244.925 73.03 C 243.854 70.948 242.743 68.727 242.454 68.093 C 241.451 65.89 238.949 61.528 237.747 59.889 C 234.791 55.854 229.049 51.773 224.649 50.58 C 223.35 50.228 220.727 49.857 218.822 49.756 C 212.77 49.437 210.208 50.231 195.673 56.93 C 192.42 58.43 189.022 60.09 188.121 60.62 C 185.813 61.979 180.104 64.432 171.688 67.681 C 161.938 71.445 159.887 72.04 155.835 72.275 C 152.586 72.464 152.467 72.447 152.467 71.79 C 152.467 71.416 152.366 70.838 152.241 70.506 C 152.041 69.972 152.08 69.956 152.578 70.362 C 152.887 70.614 153.246 70.714 153.376 70.583 C 153.506 70.453 153.613 66.989 153.615 62.884 L 153.617 55.421 L 152.385 52.417 C 151.027 49.108 150.936 48.741 151.611 49.302 C 152.429 49.983 150.62 44.526 149.04 41.553 C 148.23 40.026 147.723 38.874 147.914 38.992 C 148.139 39.131 148.13 38.96 147.889 38.509 C 147.683 38.125 147.403 37.811 147.264 37.811 C 147.126 37.811 146.209 36.589 145.226 35.095 C 144.242 33.602 142.586 31.387 141.543 30.173 C 140.501 28.96 139.495 27.627 139.308 27.211 C 138.532 25.487 138.001 24.871 136.088 23.477 C 134.983 22.671 133.943 22.012 133.779 22.012 C 133.614 22.012 133.044 21.604 132.512 21.106 C 131.98 20.609 130.671 19.844 129.603 19.408 C 128.535 18.972 125.96 17.775 123.882 16.748 C 121.804 15.722 119.18 14.542 118.05 14.127 C 116.921 13.713 115.997 13.271 115.997 13.145 C 115.997 12.744 111.967 11.494 109.59 11.158 C 108.325 10.979 106.218 10.831 104.908 10.827 C 103.543 10.823 102.525 10.68 102.525 10.491 C 102.525 10.31 102.747 10.162 103.018 10.162 C 103.289 10.162 103.511 10.014 103.511 9.833 C 103.511 9.22 100.083 9.507 95.461 10.506 C 92.931 11.053 89.858 11.641 88.631 11.812 C 87.096 12.025 85.97 12.413 85.017 13.056 C 84.256 13.57 82.894 14.412 81.99 14.929 C 81.087 15.445 79.715 16.382 78.943 17.011 C 78.17 17.64 77.484 18.097 77.418 18.026 C 77.352 17.955 77.459 17.117 77.656 16.164 C 78.337 12.877 77.003 8.185 74.615 5.459 C 74.081 4.851 72.664 3.854 71.465 3.244 C 68.766 1.872 66.422 1.639 62.994 2.403 C 60.132 3.041 58.188 4.286 56.267 6.711 C 54.879 8.463 52.659 12.718 51.936 15.013 C 51.694 15.779 51.203 16.668 50.846 16.987 C 50.219 17.548 50.204 17.544 50.414 16.866 C 50.678 16.017 49.791 15.54 49.067 16.142 C 48.694 16.453 48.534 16.446 48.329 16.114 C 48.138 15.804 47.897 15.781 47.436 16.028 C 46.851 16.342 46.748 16.12 46.033 13.018 C 45.015 8.597 44.391 6.985 42.742 4.511 C 41.986 3.377 41.285 2.034 41.184 1.526 C 40.942 0.319 40.777 0.261 39.622 0.976 Z M 17.731 63.403 C 17.717 63.719 17.498 64.571 17.244 65.295 C 16.798 66.568 16.787 66.575 16.941 65.501 C 17.028 64.89 17.099 64.038 17.099 63.608 C 17.099 63.178 17.247 62.827 17.427 62.827 C 17.608 62.827 17.745 63.086 17.731 63.403 Z M 72.628 92.281 C 72.436 92.787 72.212 93.133 72.13 93.05 C 72.048 92.968 72.161 92.423 72.381 91.838 C 72.601 91.254 72.825 90.908 72.878 91.069 C 72.932 91.231 72.819 91.776 72.628 92.281 Z M 70.688 98.087 C 70.134 100.156 70.034 100.332 70.018 99.282 C 70 98.194 70.951 95.271 71.232 95.552 C 71.291 95.611 71.046 96.752 70.688 98.087 Z M 110.575 96.729 C 110.343 97.105 106.794 97.105 105.318 96.729 C 104.648 96.558 105.365 96.466 107.555 96.439 C 109.63 96.414 110.706 96.517 110.575 96.729 Z" fill="black"/>
</svg>